<svg xmlns="http://www.w3.org/2000/svg" viewBox="0 0 100 100">
    <path class="st0" d="M58.568 29H41.432c-5.628 0-10.248 4.62-10.248 10.248v21.504C31.184 66.38 35.804 71 41.432 71h17.136c5.628 0 10.248-4.62 10.248-10.248V39.248C68.816 33.62 64.196 29 58.568 29zM41.81 40.298c2.898 0 5.25 2.352 5.25 5.25s-2.352 5.25-5.25 5.25-5.25-2.352-5.25-5.25 2.352-5.25 5.25-5.25zm20.118 18.648C58.736 62.096 54.494 63.86 50 63.86c-4.494 0-8.736-1.764-11.928-4.914-.588-.588-.588-1.512 0-2.1.588-.588 1.512-.588 2.1 0 5.418 5.418 14.28 5.418 19.698 0 .588-.588 1.512-.588 2.1 0 .546.588.546 1.512-.042 2.1zm-3.948-8.148c-2.898 0-5.25-2.352-5.25-5.25s2.352-5.25 5.25-5.25 5.25 2.352 5.25 5.25-2.352 5.25-5.25 5.25z" fill="#231f20"/>
</svg>
