<svg xmlns="http://www.w3.org/2000/svg" viewBox="0 0 100 100">
    <path class="st0" d="M36.26 61.724h-1.344c-2.08 0-3.77-1.69-3.77-3.77s1.69-3.77 3.77-3.77h2.644l1.474-8.713h-2.08c-2.08 0-3.77-1.69-3.77-3.77s1.69-3.77 3.77-3.77h3.337l.998-5.81c.303-1.863 1.864-3.12 3.77-3.12 2.298 0 4.118 2.167 3.772 4.42l-.78 4.552h7.93l.998-5.808c.304-1.864 1.864-3.12 3.77-3.12 2.298 0 4.12 2.167 3.772 4.42l-.78 4.55h1.344c2.08 0 3.77 1.692 3.77 3.772s-1.69 3.77-3.77 3.77H62.44l-1.474 8.713h2.08c2.08 0 3.77 1.69 3.77 3.77s-1.69 3.77-3.77 3.77H59.71l-1.04 6.07C58.364 69.7 56.804 71 54.897 71c-2.297 0-4.16-2.167-3.77-4.42l.822-4.77h-7.93l-1.042 6.07c-.303 1.603-1.647 3.12-3.77 3.12-2.298 0-4.162-1.95-3.77-4.42l.822-4.856zm17.034-7.54l1.474-8.713h-7.975l-1.474 8.713h7.974z" fill="#231f20"/>
</svg>
