<svg xmlns="http://www.w3.org/2000/svg" viewBox="0 0 100 100">
    <path class="st0" d="M64.588 64.875s-2.415 1.52-2.683 2.012c0 0 .313-4.293-.045-9.39 0 0 .134-2.325-1.878-1.565 0 0-.178.09-.49.224 1.563-1.34 2.86-3.04 3.933-4.874 2.236-4.873 1.878-10.104-.76-14.933-1.833-2.64-3.71-4.875-6.662-5.992-2.593-.76-4.873-1.476-7.377-1.342-1.03.045-2.057.224-3.13.492-8.585 1.967-13.816 12.027-10.82 20.254.76 1.476 1.118 2.996 2.235 4.114 1.97 2.325 4.294 4.068 6.932 5.052-.045.76-.09 1.833.223 2.46.537 1.027.58 4.068-1.43 4.426-2.013.357-2.862.044-3.04-.224-.135-.268-1.208-2.504-1.208-2.504s-.313-.536-.85-.268c-.536.268-1.117.58-.894.94 0 0-1.967.222-2.772 1.698 0 0-.222.76.895.76 1.163-.045 3.13-.313 3.577-.134.492.18 1.163.626 1.52.85.403.223 2.817.715 4.07 0 1.25-.716 5.23-2.28 5.186-3.22 0 0 5.857-1.028 10.82-5.544 0 0 2.503 4.07.268 10.105 0 0-1.79 1.073.358 2.727 0 0 5.007-.805 5.588-5.142.045-.09.18-1.833-1.564-.983zm-11.67-16.767c.18-.134.67-.134.76.134.09 3.398.09 7.512-2.906 9.747 1.833-2.997 1.833-6.35 2.146-9.882zm-1.207-2.862c-.446 1.297-1.877 2.012-3.174 1.565-1.296-.446-2.012-1.877-1.565-3.173.45-1.342 1.88-2.012 3.22-1.565 1.253.402 1.968 1.833 1.52 3.174zm2.773.403c2.996 1.877 3.756 5.588 3.62 8.852-.043.313-.222.715-.4.85.133-3.712-2.102-6.35-3.22-9.703zm7.69 3.442c-2.46-2.683-4.694-4.963-8.048-6.08 3.354-1.12 6.35 2.592 7.96 5.14.133.314.178.716.088.94zm.358-7.735c.046.223-.09.268-.357.09-3.174-2.192-6.528-.672-9.523-.672v-1.117c2.95-.358 7.422-1.118 9.88 1.7zm-6.482-6.573c.94-.224 1.61-.358 1.61-.358.223 0 .58.358.938.358-3.755 0-5.23 4.113-8.987 4.113 1.162-2.593 4.113-2.95 6.438-4.113zm-4.56-2.95c-2.996 1.877-2.996 5.588-4.338 8.36-.18.134-.67 0-.715-.268.94-2.862 1.34-7.333 5.052-8.093zM43.08 34.65c.134-.94.313-1.61.313-1.61.313-.492.313-.492.67-.85-.76 3.354.358 6.707 1.118 10.105-2.638-1.52-2.28-4.873-2.1-7.645zm-4.92 2.638c1.387 3.13 3.668 5.768 6.62 7.645-4.115 0-5.233-4.113-6.708-6.706-.09-.358-.045-.76.09-.94zm-1.787 8.003c-.224-.222-.402-.58-.402-.804 2.86 2.325 6.617 1.565 9.568 3.8-3.397-.402-6.75-.76-9.165-2.995zm2.28 6.842c-.18-.09-.223-.313-.402-.447 3.62.94 6.215-2.638 9.88-1.923-2.235 1.878-5.23 1.878-7.824 2.46-.94 0-1.655-.09-1.655-.09zm4.695 4.605c3.308-1.34 4.426-5.455 7.78-6.975-1.118 3.354-4.114 5.23-6.886 6.93-.313.135-.715.135-.894.045z" fill="#231f20"/>
</svg>
