<svg xmlns="http://www.w3.org/2000/svg" viewBox="0 0 100 100">
    <path class="st0" fill="#231F20" d="M12.5 38.2c0-.4-.5-.2-1.3-.4-.8-.1-1.9-.7-3.1-1.5-1.2-.8-2.3-1-3.2-.7-.9.3-1.5 1.3-1.5 1.6 0 .4.5.2 1.3.4.8.1 1.9.7 3.1 1.5 1.2.8 2.3 1 3.2.7.9-.4 1.5-1.3 1.5-1.6z"/>
    <path class="st0" d="M10.6 32.6c0-.4-.5-.2-1.3-.4-.8-.1-1.9-.7-3.1-1.5-1.2-.8-2.3-1-3.2-.7-.9.3-1.5 1.3-1.5 1.6 0 .4.5.2 1.3.4.8.1 1.9.7 3.1 1.5 1.2.8 2.3 1 3.2.7.8-.3 1.5-1.3 1.5-1.6zM36.1 58.6c-3.4 0-6.2 2.8-6.2 6.2s2.8 6.2 6.2 6.2c3.4 0 6.2-2.8 6.2-6.2s-2.8-6.2-6.2-6.2zm0 9.7c-2 0-3.5-1.6-3.5-3.5 0-2 1.6-3.5 3.5-3.5 2 0 3.5 1.6 3.5 3.5s-1.6 3.5-3.5 3.5zm43.1-9.7c-3.4 0-6.2 2.8-6.2 6.2s2.8 6.2 6.2 6.2c3.4 0 6.2-2.8 6.2-6.2s-2.7-6.2-6.2-6.2zm0 9.7c-2 0-3.5-1.6-3.5-3.5 0-2 1.6-3.5 3.5-3.5 2 0 3.5 1.6 3.5 3.5.1 1.9-1.5 3.5-3.5 3.5zM31.7 39.5c.3.1.6.1 1-.1.3-.2.6-.4.7-.7.1-.3.1-.7-.1-1-.2-.4-.4-.6-.7-.8-.3-.1-.6-.1-1 .1-.2.1-.3.2-.5.3-.1.1-.2.2-.2.4 0 .1-.1.3-.1.4 0 .2.1.4.2.7.1.3.4.5.7.7zm-.4-1.7c.1-.2.2-.3.4-.4.2-.1.4-.1.6 0 .2.1.3.3.5.5.1.3.2.5.1.7-.1.2-.2.3-.4.4-.2.1-.4.1-.6 0-.2-.1-.3-.3-.5-.5-.1-.3-.1-.5-.1-.7zM35.5 38l-.4-1.9 1.3 1.5.5-.2-.5-2.6-.5.2.4 1.8-1.2-1.5-.5.3.3 1.8-1.1-1.4-.5.2 1.6 2.1z"/>
    <circle class="st0" cx="39.7" cy="44.8" r="1.4"/>
    <path class="st0" d="M28.6 39.1l1.3 1.5.5-.2-.5-2.6-.5.2.4 1.8-1.2-1.4-.5.2.3 1.8-1.1-1.4-.5.2 1.6 2.1.6-.2zM38.8 41c.1-.3.1-.7-.1-1-.2-.4-.4-.6-.7-.8-.3-.1-.6-.1-1 .1-.2.1-.3.2-.5.3-.1.1-.2.2-.2.4 0 .1-.1.3-.1.4 0 .2.1.4.2.7.2.4.4.6.7.7.3.1.6.1 1-.1s.6-.4.7-.7zm-.5-.2c-.1.2-.2.3-.4.4-.2.1-.4.1-.6 0-.2-.1-.3-.3-.5-.5-.1-.3-.2-.5-.1-.7.1-.2.2-.3.4-.4.2-.1.4-.1.6 0 .2.1.3.3.5.5.1.3.2.5.1.7z"/>
    <circle class="st0" cx="32.5" cy="48.1" r="1.4"/>
    <path class="st0" d="M35.2 43l.5-.2-2-1.9-.5.2.2 2.8.5-.2-.1-.7.9-.4.5.4zm-1.5-.5l-.1-1 .7.7-.6.3z"/>
    <circle class="st0" cx="36.1" cy="46.5" r="1.4"/>
    <path class="st0" d="M89.1 46.6c0-.2-4.7-14.1-4.7-14.1v-3.7H14.9v30.8s-2.3-.2-2.3 0v5.1h14.9c0-4.9 4-8.9 8.9-8.9s8.9 4 8.9 8.9h25.2c0-4.9 4-8.9 8.9-8.9s8.9 4 8.9 8.9h9.5V50c-.3-.1-8.7-3.3-8.7-3.4zm-47.5 2.6l-7 3.3c-2.3 1.1-5.1.1-6.1-2.2l-4.1-8.8c-1.1-2.3-.1-5.1 2.2-6.1l7-3.3c2.3-1.1 5.1-.1 6.1 2.2l4.1 8.8c1.1 2.2.1 5-2.2 6.1zm32-2.4V36.1H82l3.4 10.7H73.6z"/>
    <path class="st0" d="M31.6 44.5c.1-.1.1-.2.1-.3 0-.1 0-.2-.1-.3l-.3-.3c-.1-.1-.3-.1-.4-.1.1-.1.1-.2.1-.3 0-.1 0-.2-.1-.3 0-.1-.1-.2-.2-.2-.1-.1-.2-.1-.3-.1h-.3c-.1 0-.2.1-.4.2l-.9.4 1.1 2.4.8-.4c.3-.1.5-.2.6-.3.1-.2.2-.3.3-.4zm-2.1-1.3l.3-.1.4-.2h.2c.1 0 .1.1.1.1v.2c0 .1-.1.1-.2.2 0 0-.2.1-.3.2l-.3.1-.2-.5zm1.6 1c0 .1-.1.1-.1.2 0 0-.1.1-.3.2l-.4.2-.3-.6.4-.2.4-.2h.2c.1 0 .1.1.1.2v.2z"/>
</svg>
