<?xml version="1.0" encoding="utf-8"?>
<!-- Generator: Adobe Illustrator 19.1.0, SVG Export Plug-In . SVG Version: 6.00 Build 0)  -->
<!DOCTYPE svg PUBLIC "-//W3C//DTD SVG 1.1//EN" "http://www.w3.org/Graphics/SVG/1.1/DTD/svg11.dtd" [
	<!ENTITY ns_extend "http://ns.adobe.com/Extensibility/1.0/">
	<!ENTITY ns_ai "http://ns.adobe.com/AdobeIllustrator/10.0/">
	<!ENTITY ns_graphs "http://ns.adobe.com/Graphs/1.0/">
	<!ENTITY ns_vars "http://ns.adobe.com/Variables/1.0/">
	<!ENTITY ns_imrep "http://ns.adobe.com/ImageReplacement/1.0/">
	<!ENTITY ns_sfw "http://ns.adobe.com/SaveForWeb/1.0/">
	<!ENTITY ns_custom "http://ns.adobe.com/GenericCustomNamespace/1.0/">
	<!ENTITY ns_adobe_xpath "http://ns.adobe.com/XPath/1.0/">
]>
<svg version="1.1" xmlns:x="&ns_extend;" xmlns:i="&ns_ai;" xmlns:graph="&ns_graphs;"
	 xmlns="http://www.w3.org/2000/svg" xmlns:xlink="http://www.w3.org/1999/xlink" x="0px" y="0px" width="797.7px" height="224.3px"
	 viewBox="0 0 797.7 224.3" style="enable-background:new 0 0 797.7 224.3;" xml:space="preserve">
<style type="text/css">
	.st0{fill:#0F0105;}
	.st1{clip-path:url(#SVGID_2_);fill:url(#SVGID_3_);}
	.st2{opacity:0.5;clip-path:url(#SVGID_2_);}
	.st3{opacity:0.5;}
	.st4{clip-path:url(#SVGID_5_);}
	.st5{fill:#9F1D21;}
	.st6{clip-path:url(#SVGID_2_);}
	.st7{fill:#FFFFFF;}
	.st8{fill:#F1491C;}
	.st9{fill:#EF4B23;}
	.st10{fill:#00ABE3;}
	.st11{fill:#235B9E;}
	.st12{fill:#FF4D3F;}
	.st13{fill:#2D80A6;}
	.st14{fill:#EF4B23;stroke:#EF4B23;stroke-width:4;stroke-miterlimit:10;}
	.st15{clip-path:url(#SVGID_2_);fill:url(#SVGID_24_);}
	.st16{clip-path:url(#SVGID_2_);fill:#0F0105;}
	.st17{clip-path:url(#SVGID_32_);}
	.st18{fill:#1C0F13;}
	.st19{clip-path:url(#SVGID_42_);fill:url(#SVGID_43_);}
	.st20{opacity:0.5;clip-path:url(#SVGID_42_);}
	.st21{clip-path:url(#SVGID_45_);}
	.st22{clip-path:url(#SVGID_42_);}
	.st23{clip-path:url(#SVGID_42_);fill:#0F0105;}
	.st24{fill:#EF4B23;stroke:#EF4B23;stroke-width:2.1479;stroke-miterlimit:10;}
	.st25{clip-path:url(#SVGID_51_);fill:url(#SVGID_52_);}
	.st26{clip-path:url(#SVGID_54_);}
	.st27{clip-path:url(#SVGID_64_);}
	.st28{clip-path:url(#SVGID_72_);fill:#0F0105;}
	.st29{clip-path:url(#SVGID_72_);}
	.st30{fill:#E63C2F;stroke:#E63C2F;stroke-width:2.6611;stroke-miterlimit:10;}
	.st31{fill:#E63C2F;}
	.st32{fill-rule:evenodd;clip-rule:evenodd;fill:#FFFFFF;}
	.st33{clip-path:url(#SVGID_78_);fill:url(#SVGID_79_);}
	.st34{clip-path:url(#SVGID_81_);}
	.st35{clip-path:url(#SVGID_89_);fill:url(#SVGID_90_);}
	.st36{opacity:0.5;clip-path:url(#SVGID_89_);}
	.st37{clip-path:url(#SVGID_92_);}
	.st38{clip-path:url(#SVGID_89_);}
	.st39{clip-path:url(#SVGID_89_);fill:#0F0105;}
	.st40{fill:#EF4B23;stroke:#EF4B23;stroke-width:6.5125;stroke-miterlimit:10;}
	.st41{clip-path:url(#SVGID_98_);fill:url(#SVGID_99_);}
	.st42{opacity:0.5;clip-path:url(#SVGID_98_);}
	.st43{clip-path:url(#SVGID_101_);}
	.st44{clip-path:url(#SVGID_98_);}
	.st45{clip-path:url(#SVGID_98_);fill:#0F0105;}
	.st46{fill:#EF4B23;stroke:#EF4B23;stroke-width:5.9384;stroke-miterlimit:10;}
	.st47{clip-path:url(#SVGID_107_);fill:url(#SVGID_108_);}
	.st48{opacity:0.5;clip-path:url(#SVGID_107_);}
	.st49{clip-path:url(#SVGID_110_);}
	.st50{clip-path:url(#SVGID_107_);}
	.st51{clip-path:url(#SVGID_107_);fill:#0F0105;}
	.st52{fill:#EF4B23;stroke:#EF4B23;stroke-width:6.9513;stroke-miterlimit:10;}
	.st53{clip-path:url(#SVGID_116_);}
	.st54{fill:#EF4B23;stroke:#EF4B23;stroke-width:8.0346;stroke-miterlimit:10;}
	.st55{fill:url(#SVGID_119_);}
	.st56{clip-path:url(#SVGID_123_);}
	.st57{clip-path:url(#SVGID_125_);}
	.st58{clip-path:url(#SVGID_123_);fill:url(#SVGID_126_);}
	.st59{fill:url(#SVGID_129_);}
	.st60{clip-path:url(#SVGID_135_);fill:#0F0105;}
	.st61{clip-path:url(#SVGID_135_);}
	.st62{fill:#E63C2F;stroke:#E63C2F;stroke-width:8.0346;stroke-miterlimit:10;}
	.st63{display:none;}
	.st64{display:inline;opacity:0.6;}
	.st65{fill:none;stroke:#FFFFFF;stroke-miterlimit:10;}
</style>
<metadata>
	<sfw  xmlns="&ns_sfw;">
		<slices></slices>
		<sliceSourceBounds  width="9649.6" height="5741.6" x="-1432.3" y="-4447.8" bottomLeftOrigin="true"></sliceSourceBounds>
		<optimizationSettings>
			<targetSettings  fileFormat="JPEGFormat" targetSettingsID="0">
				
					<JPEGFormat  quality="60" blurAmount="0" embedICCProfile="false" optimized="true" matteColor="#FFFFFF" noMatteColor="false" progressive="false">
					</JPEGFormat>
			</targetSettings>
		</optimizationSettings>
	</sfw>
</metadata>
<g id="Layer_1">
	<g>
		<g>
			<g>
				<g>
					<path class="st31" d="M36.6,179.9H19.5c-3,0-5.4,2.4-5.4,5.4v5.7v11.4c0,3,2.4,5.4,5.4,5.4h17.1c3,0,5.4-2.4,5.4-5.4V191v-5.7
						C42,182.3,39.6,179.9,36.6,179.9z M38.1,183.1l0.6,0v0.6v4.1l-4.7,0l0-4.7L38.1,183.1z M24.1,191c0.9-1.2,2.3-2,4-2
						c1.6,0,3.1,0.8,4,2c0.6,0.8,0.9,1.8,0.9,2.9c0,2.7-2.2,4.9-4.9,4.9c-2.7,0-4.9-2.2-4.9-4.9C23.1,192.8,23.5,191.8,24.1,191z
						 M39.3,202.4c0,1.5-1.2,2.7-2.7,2.7H19.5c-1.5,0-2.7-1.2-2.7-2.7V191H21c-0.4,0.9-0.6,1.8-0.6,2.9c0,4.2,3.4,7.6,7.6,7.6
						c4.2,0,7.6-3.4,7.6-7.6c0-1-0.2-2-0.6-2.9h4.2V202.4z"/>
					<g>
						<path class="st7" d="M59.5,184.7l-6.9,18.4h-2.8l6.9-18.4H59.5z"/>
						<path class="st7" d="M73.9,202.8l-3-12h0l-2.9,12H64l-4.7-17.6h3.9l2.8,12H66l3.1-12h3.6l3,12.1h0l2.9-12.1h3.8l-4.7,17.6
							H73.9z"/>
						<path class="st7" d="M82.6,193.6c0.3-0.8,0.8-1.5,1.3-2.1c0.6-0.6,1.3-1,2.1-1.4c0.8-0.3,1.7-0.5,2.7-0.5s1.9,0.2,2.7,0.5
							c0.8,0.3,1.5,0.8,2.1,1.4c0.6,0.6,1,1.3,1.3,2.1c0.3,0.8,0.5,1.8,0.5,2.8s-0.2,1.9-0.5,2.8s-0.8,1.5-1.3,2.1
							c-0.6,0.6-1.3,1-2.1,1.3s-1.7,0.5-2.7,0.5s-1.9-0.2-2.7-0.5s-1.5-0.8-2.1-1.3c-0.6-0.6-1-1.3-1.3-2.1s-0.5-1.7-0.5-2.8
							S82.2,194.5,82.6,193.6z M85.7,197.9c0.1,0.5,0.3,0.9,0.5,1.3c0.2,0.4,0.6,0.7,0.9,0.9c0.4,0.2,0.9,0.3,1.5,0.3
							s1.1-0.1,1.5-0.3c0.4-0.2,0.7-0.5,1-0.9s0.4-0.8,0.5-1.3s0.1-1,0.1-1.5c0-0.5,0-1-0.1-1.5c-0.1-0.5-0.3-0.9-0.5-1.3
							c-0.2-0.4-0.6-0.7-1-0.9c-0.4-0.2-0.9-0.4-1.5-0.4s-1.1,0.1-1.5,0.4c-0.4,0.2-0.7,0.5-0.9,0.9c-0.2,0.4-0.4,0.8-0.5,1.3
							c-0.1,0.5-0.1,1-0.1,1.5C85.6,196.9,85.6,197.4,85.7,197.9z"/>
						<path class="st7" d="M108.6,202.8l-2.3-8.6h0l-2.2,8.6h-3.6l-4-12.8h3.7l2.3,8.7h0.1l2.1-8.7h3.4l2.2,8.6h0l2.3-8.6h3.6
							l-4,12.8H108.6z"/>
						<path class="st7" d="M126.3,185.1c0.8,0,1.6,0.1,2.3,0.2s1.3,0.4,1.8,0.7c0.5,0.3,0.9,0.8,1.1,1.3s0.4,1.3,0.4,2.1
							c0,0.9-0.2,1.6-0.6,2.2c-0.4,0.6-1,1.1-1.8,1.5c1.1,0.3,1.9,0.9,2.4,1.6c0.5,0.8,0.8,1.7,0.8,2.8c0,0.9-0.2,1.7-0.5,2.3
							c-0.3,0.7-0.8,1.2-1.4,1.6c-0.6,0.4-1.3,0.7-2,0.9c-0.8,0.2-1.5,0.3-2.3,0.3H118v-17.6H126.3z M125.8,192.3
							c0.7,0,1.3-0.2,1.7-0.5c0.4-0.3,0.7-0.9,0.7-1.6c0-0.4-0.1-0.7-0.2-1c-0.1-0.3-0.3-0.5-0.6-0.6c-0.2-0.1-0.5-0.3-0.9-0.3
							s-0.7-0.1-1-0.1h-3.6v4.1H125.8z M126.1,199.8c0.4,0,0.7,0,1.1-0.1c0.3-0.1,0.7-0.2,0.9-0.4c0.3-0.2,0.5-0.4,0.6-0.7
							c0.2-0.3,0.2-0.7,0.2-1.1c0-0.9-0.3-1.6-0.8-1.9s-1.2-0.6-2-0.6h-4.2v4.8H126.1z"/>
						<path class="st7" d="M134.9,193.9c0-0.8,0.3-1.5,0.6-2s0.8-1,1.4-1.3c0.6-0.3,1.2-0.6,1.9-0.7c0.7-0.1,1.4-0.2,2.1-0.2
							c0.6,0,1.3,0,2,0.1c0.7,0.1,1.3,0.3,1.8,0.5c0.5,0.3,1,0.6,1.3,1.1c0.3,0.5,0.5,1.1,0.5,1.9v6.6c0,0.6,0,1.1,0.1,1.7
							c0.1,0.5,0.2,0.9,0.3,1.2h-3.6c-0.1-0.2-0.1-0.4-0.2-0.6s-0.1-0.4-0.1-0.6c-0.6,0.6-1.2,1-2,1.2s-1.5,0.3-2.3,0.3
							c-0.6,0-1.2-0.1-1.7-0.2c-0.5-0.1-1-0.4-1.4-0.7c-0.4-0.3-0.7-0.7-0.9-1.2c-0.2-0.5-0.3-1-0.3-1.7c0-0.7,0.1-1.3,0.4-1.8
							c0.3-0.5,0.6-0.8,1-1.1c0.4-0.3,0.9-0.5,1.4-0.6c0.5-0.1,1-0.3,1.6-0.3c0.5-0.1,1-0.1,1.6-0.2c0.5,0,1-0.1,1.4-0.2
							s0.7-0.2,0.9-0.4c0.2-0.2,0.3-0.5,0.3-0.8c0-0.4-0.1-0.7-0.2-0.9c-0.1-0.2-0.3-0.4-0.5-0.5c-0.2-0.1-0.4-0.2-0.7-0.2
							s-0.6-0.1-0.9-0.1c-0.7,0-1.2,0.1-1.6,0.4c-0.4,0.3-0.6,0.8-0.7,1.5H134.9z M143,196.5c-0.1,0.1-0.3,0.2-0.6,0.3
							s-0.5,0.1-0.7,0.2c-0.3,0-0.5,0.1-0.8,0.1c-0.3,0-0.6,0.1-0.8,0.1c-0.3,0-0.5,0.1-0.8,0.2c-0.3,0.1-0.5,0.2-0.7,0.3
							c-0.2,0.1-0.3,0.3-0.5,0.5s-0.2,0.5-0.2,0.8c0,0.3,0.1,0.6,0.2,0.8c0.1,0.2,0.3,0.4,0.5,0.5c0.2,0.1,0.4,0.2,0.7,0.3
							c0.3,0,0.5,0.1,0.8,0.1c0.7,0,1.2-0.1,1.6-0.3s0.7-0.5,0.8-0.8s0.3-0.6,0.3-1c0-0.3,0.1-0.6,0.1-0.8V196.5z"/>
						<path class="st7" d="M149.3,193.6c0.3-0.8,0.8-1.5,1.3-2.1c0.6-0.6,1.3-1,2.1-1.4c0.8-0.3,1.7-0.5,2.7-0.5s1.9,0.2,2.7,0.5
							c0.8,0.3,1.5,0.8,2.1,1.4c0.6,0.6,1,1.3,1.3,2.1c0.3,0.8,0.5,1.8,0.5,2.8s-0.2,1.9-0.5,2.8s-0.8,1.5-1.3,2.1
							c-0.6,0.6-1.3,1-2.1,1.3c-0.8,0.3-1.7,0.5-2.7,0.5s-1.9-0.2-2.7-0.5s-1.5-0.8-2.1-1.3c-0.6-0.6-1-1.3-1.3-2.1
							s-0.5-1.7-0.5-2.8S149,194.5,149.3,193.6z M152.5,197.9c0.1,0.5,0.3,0.9,0.5,1.3s0.6,0.7,1,0.9s0.9,0.3,1.5,0.3
							c0.6,0,1.1-0.1,1.5-0.3c0.4-0.2,0.7-0.5,1-0.9s0.4-0.8,0.5-1.3c0.1-0.5,0.1-1,0.1-1.5c0-0.5,0-1-0.1-1.5
							c-0.1-0.5-0.3-0.9-0.5-1.3c-0.2-0.4-0.6-0.7-1-0.9c-0.4-0.2-0.9-0.4-1.5-0.4c-0.6,0-1.1,0.1-1.5,0.4c-0.4,0.2-0.7,0.5-1,0.9
							c-0.2,0.4-0.4,0.8-0.5,1.3c-0.1,0.5-0.1,1-0.1,1.5C152.3,196.9,152.4,197.4,152.5,197.9z"/>
					</g>
				</g>
				<g>
					<path class="st31" d="M214.7,182.9c-1.2,0.7-2.4,1.2-3.8,1.4c-1.1-1.1-2.7-1.9-4.4-1.9c-3.3,0-6,2.6-6,5.9
						c0,0.5,0.1,0.9,0.2,1.3c-5-0.2-9.4-2.6-12.4-6.2c-0.5,0.9-0.8,1.9-0.8,3c0,2.1,1.1,3.9,2.7,4.9c-1,0-1.9-0.3-2.7-0.7
						c0,0,0,0,0,0.1c0,2.9,2.1,5.3,4.8,5.8c-0.5,0.1-1,0.2-1.6,0.2c-0.4,0-0.8,0-1.1-0.1c0.8,2.3,3,4.1,5.6,4.1
						c-2.1,1.6-4.6,2.5-7.5,2.5c-0.5,0-1,0-1.4-0.1c2.7,1.7,5.8,2.7,9.2,2.7c11,0,17.1-9,17.1-16.8c0-0.3,0-0.5,0-0.8
						c1.2-0.8,2.2-1.9,3-3.1c-1.1,0.5-2.2,0.8-3.5,0.9C213.3,185.4,214.2,184.3,214.7,182.9z"/>
					<g>
						<path class="st7" d="M236.2,195.4c0,0.2-0.1,0.4-0.1,0.5c0,0.2,0,0.3,0.1,0.4c0.1,0.1,0.2,0.2,0.3,0.2c0.3,0,0.7-0.1,1.1-0.3
							c0.4-0.2,0.7-0.5,0.9-0.9s0.5-0.9,0.7-1.4c0.2-0.6,0.3-1.2,0.3-1.8c0-1-0.2-1.9-0.5-2.6c-0.3-0.7-0.8-1.4-1.4-1.9
							c-0.6-0.5-1.3-0.9-2.1-1.2c-0.8-0.3-1.7-0.4-2.6-0.4c-1.1,0-2,0.2-2.9,0.6c-0.9,0.4-1.6,0.9-2.2,1.5s-1.1,1.4-1.4,2.3
							c-0.3,0.9-0.5,1.9-0.5,2.9c0,1.1,0.2,2.1,0.5,3c0.4,0.9,0.9,1.6,1.5,2.3c0.6,0.6,1.4,1.1,2.3,1.5c0.9,0.3,1.9,0.5,2.9,0.5
							c1,0,2-0.2,2.9-0.5c0.9-0.4,1.7-0.9,2.4-1.5h2.1c-0.8,1.3-1.9,2.3-3.2,3c-1.3,0.7-2.8,1-4.3,1c-1.3,0-2.6-0.2-3.7-0.7
							c-1.2-0.5-2.2-1.1-3-1.9c-0.9-0.8-1.5-1.8-2-2.9c-0.5-1.1-0.7-2.3-0.7-3.7c0-1.3,0.2-2.5,0.7-3.6c0.5-1.1,1.2-2.1,2-2.9
							c0.9-0.8,1.9-1.5,3-2c1.1-0.5,2.3-0.7,3.6-0.7c1.1,0,2.2,0.2,3.2,0.5s1.9,0.9,2.7,1.5s1.4,1.4,1.9,2.4c0.5,0.9,0.7,2,0.7,3.1
							c0,1.3-0.2,2.4-0.7,3.3s-1,1.6-1.6,2.2c-0.6,0.6-1.3,1-1.9,1.3s-1.2,0.4-1.6,0.4c-0.5,0-0.9-0.1-1.3-0.4
							c-0.3-0.3-0.5-0.6-0.5-1h0c-0.3,0.5-0.7,0.9-1.2,1.1c-0.5,0.2-1,0.3-1.5,0.3c-0.5,0-1-0.1-1.5-0.3c-0.5-0.2-0.9-0.5-1.2-0.9
							s-0.6-0.8-0.8-1.3c-0.2-0.5-0.3-1.1-0.3-1.6c0-0.8,0.1-1.5,0.4-2.3s0.6-1.4,1.1-2c0.5-0.6,1-1.1,1.7-1.4
							c0.7-0.4,1.4-0.5,2.2-0.5c0.5,0,1.1,0.1,1.6,0.4c0.6,0.3,1,0.7,1.3,1.3l0.4-1.3h2l-1.6,6.4C236.3,195,236.3,195.2,236.2,195.4
							z M230.3,195.6c0.4,0.4,0.8,0.6,1.4,0.6c0.4,0,0.9-0.1,1.2-0.3c0.4-0.2,0.7-0.5,1-0.9c0.3-0.4,0.5-0.8,0.6-1.2
							s0.2-0.9,0.2-1.3c0-0.6-0.2-1.1-0.6-1.5c-0.4-0.4-0.8-0.6-1.3-0.6c-0.4,0-0.9,0.1-1.2,0.3c-0.4,0.2-0.7,0.5-1,0.9
							c-0.3,0.4-0.5,0.7-0.6,1.2c-0.1,0.4-0.2,0.8-0.2,1.3C229.8,194.7,229.9,195.2,230.3,195.6z"/>
						<path class="st7" d="M252.3,184.3c0.8,0,1.6,0.1,2.3,0.2s1.3,0.4,1.8,0.7c0.5,0.3,0.9,0.8,1.1,1.3s0.4,1.3,0.4,2.1
							c0,0.9-0.2,1.6-0.6,2.2c-0.4,0.6-1,1.1-1.8,1.5c1.1,0.3,1.9,0.9,2.4,1.6c0.5,0.8,0.8,1.7,0.8,2.8c0,0.9-0.2,1.7-0.5,2.3
							c-0.3,0.7-0.8,1.2-1.4,1.6c-0.6,0.4-1.3,0.7-2,0.9c-0.8,0.2-1.5,0.3-2.3,0.3H244v-17.6H252.3z M251.8,191.4
							c0.7,0,1.3-0.2,1.7-0.5c0.4-0.3,0.7-0.9,0.7-1.6c0-0.4-0.1-0.7-0.2-1c-0.1-0.3-0.3-0.5-0.6-0.6c-0.2-0.1-0.5-0.3-0.9-0.3
							s-0.7-0.1-1-0.1h-3.6v4.1H251.8z M252,198.9c0.4,0,0.7,0,1.1-0.1c0.3-0.1,0.7-0.2,0.9-0.4c0.3-0.2,0.5-0.4,0.6-0.7
							c0.2-0.3,0.2-0.7,0.2-1.1c0-0.9-0.3-1.6-0.8-1.9s-1.2-0.6-2-0.6h-4.2v4.8H252z"/>
						<path class="st7" d="M260.9,193.1c0-0.8,0.3-1.5,0.6-2c0.4-0.5,0.8-1,1.4-1.3c0.6-0.3,1.2-0.6,1.9-0.7
							c0.7-0.1,1.4-0.2,2.1-0.2c0.6,0,1.3,0,2,0.1c0.7,0.1,1.3,0.3,1.8,0.5c0.5,0.3,1,0.6,1.3,1.1c0.3,0.5,0.5,1.1,0.5,1.9v6.6
							c0,0.6,0,1.1,0.1,1.7c0.1,0.5,0.2,0.9,0.3,1.2h-3.6c-0.1-0.2-0.1-0.4-0.2-0.6s-0.1-0.4-0.1-0.6c-0.6,0.6-1.2,1-2,1.2
							c-0.8,0.2-1.5,0.3-2.3,0.3c-0.6,0-1.2-0.1-1.7-0.2s-1-0.4-1.4-0.7c-0.4-0.3-0.7-0.7-0.9-1.2s-0.3-1-0.3-1.7
							c0-0.7,0.1-1.3,0.4-1.8s0.6-0.8,1-1.1c0.4-0.3,0.9-0.5,1.4-0.6c0.5-0.1,1-0.3,1.6-0.3c0.5-0.1,1-0.1,1.6-0.2
							c0.5,0,1-0.1,1.4-0.2c0.4-0.1,0.7-0.2,0.9-0.4c0.2-0.2,0.3-0.5,0.3-0.8c0-0.4-0.1-0.7-0.2-0.9c-0.1-0.2-0.3-0.4-0.5-0.5
							c-0.2-0.1-0.4-0.2-0.7-0.2s-0.6-0.1-0.9-0.1c-0.7,0-1.2,0.1-1.6,0.4c-0.4,0.3-0.6,0.8-0.7,1.5H260.9z M269,195.7
							c-0.1,0.1-0.3,0.2-0.6,0.3c-0.2,0.1-0.5,0.1-0.7,0.2s-0.5,0.1-0.8,0.1c-0.3,0-0.6,0.1-0.8,0.1c-0.3,0-0.5,0.1-0.8,0.2
							c-0.3,0.1-0.5,0.2-0.7,0.3c-0.2,0.1-0.3,0.3-0.5,0.5s-0.2,0.5-0.2,0.8c0,0.3,0.1,0.6,0.2,0.8c0.1,0.2,0.3,0.4,0.5,0.5
							c0.2,0.1,0.4,0.2,0.7,0.3c0.3,0,0.5,0.1,0.8,0.1c0.7,0,1.2-0.1,1.6-0.3s0.7-0.5,0.8-0.8c0.2-0.3,0.3-0.6,0.3-1
							c0-0.3,0.1-0.6,0.1-0.8V195.7z"/>
						<path class="st7" d="M275.3,192.8c0.3-0.8,0.8-1.5,1.3-2.1c0.6-0.6,1.3-1,2.1-1.4c0.8-0.3,1.7-0.5,2.7-0.5s1.9,0.2,2.7,0.5
							c0.8,0.3,1.5,0.8,2.1,1.4c0.6,0.6,1,1.3,1.3,2.1c0.3,0.8,0.5,1.8,0.5,2.8s-0.2,1.9-0.5,2.8s-0.8,1.5-1.3,2.1
							c-0.6,0.6-1.3,1-2.1,1.3c-0.8,0.3-1.7,0.5-2.7,0.5s-1.9-0.2-2.7-0.5s-1.5-0.8-2.1-1.3c-0.6-0.6-1-1.3-1.3-2.1
							s-0.5-1.7-0.5-2.8S275,193.6,275.3,192.8z M278.5,197c0.1,0.5,0.3,0.9,0.5,1.3s0.6,0.7,1,0.9s0.9,0.3,1.5,0.3
							c0.6,0,1.1-0.1,1.5-0.3c0.4-0.2,0.7-0.5,1-0.9s0.4-0.8,0.5-1.3c0.1-0.5,0.1-1,0.1-1.5c0-0.5,0-1-0.1-1.5
							c-0.1-0.5-0.3-0.9-0.5-1.3c-0.2-0.4-0.6-0.7-1-0.9c-0.4-0.2-0.9-0.4-1.5-0.4c-0.6,0-1.1,0.1-1.5,0.4c-0.4,0.2-0.7,0.5-1,0.9
							c-0.2,0.4-0.4,0.8-0.5,1.3c-0.1,0.5-0.1,1-0.1,1.5C278.3,196.1,278.4,196.6,278.5,197z"/>
						<path class="st7" d="M296.1,184.3l4.1,12.1h0l3.9-12.1h5.5v17.6H306v-12.5h0l-4.3,12.5h-3l-4.3-12.4h-0.1v12.4h-3.6v-17.6
							H296.1z"/>
						<path class="st7" d="M312.8,192.8c0.3-0.8,0.8-1.5,1.3-2.1c0.6-0.6,1.3-1,2.1-1.4c0.8-0.3,1.7-0.5,2.7-0.5s1.9,0.2,2.7,0.5
							c0.8,0.3,1.5,0.8,2.1,1.4c0.6,0.6,1,1.3,1.3,2.1c0.3,0.8,0.5,1.8,0.5,2.8s-0.2,1.9-0.5,2.8s-0.8,1.5-1.3,2.1
							c-0.6,0.6-1.3,1-2.1,1.3c-0.8,0.3-1.7,0.5-2.7,0.5s-1.9-0.2-2.7-0.5s-1.5-0.8-2.1-1.3c-0.6-0.6-1-1.3-1.3-2.1
							s-0.5-1.7-0.5-2.8S312.4,193.6,312.8,192.8z M315.9,197c0.1,0.5,0.3,0.9,0.5,1.3s0.6,0.7,1,0.9s0.9,0.3,1.5,0.3
							c0.6,0,1.1-0.1,1.5-0.3c0.4-0.2,0.7-0.5,1-0.9s0.4-0.8,0.5-1.3c0.1-0.5,0.1-1,0.1-1.5c0-0.5,0-1-0.1-1.5
							c-0.1-0.5-0.3-0.9-0.5-1.3c-0.2-0.4-0.6-0.7-1-0.9c-0.4-0.2-0.9-0.4-1.5-0.4c-0.6,0-1.1,0.1-1.5,0.4c-0.4,0.2-0.7,0.5-1,0.9
							c-0.2,0.4-0.4,0.8-0.5,1.3c-0.1,0.5-0.1,1-0.1,1.5C315.8,196.1,315.8,196.6,315.9,197z"/>
						<path class="st7" d="M336.4,201.9v-1.8h-0.1c-0.4,0.7-1,1.3-1.7,1.6s-1.4,0.5-2.2,0.5c-0.9,0-1.7-0.1-2.3-0.4
							c-0.6-0.2-1.1-0.6-1.4-1s-0.6-1-0.7-1.7c-0.1-0.7-0.2-1.4-0.2-2.2v-7.9h3.5v7.2c0,1.1,0.2,1.8,0.5,2.4
							c0.3,0.5,0.9,0.8,1.8,0.8c1,0,1.6-0.3,2.1-0.9c0.4-0.6,0.6-1.5,0.6-2.8v-6.7h3.5v12.8H336.4z"/>
						<path class="st7" d="M349.4,189.2v2.3h-2.6v6.3c0,0.6,0.1,1,0.3,1.2c0.2,0.2,0.6,0.3,1.2,0.3c0.2,0,0.4,0,0.6,0
							c0.2,0,0.4,0,0.5-0.1v2.7c-0.3,0-0.6,0.1-1,0.1c-0.4,0-0.7,0-1.1,0c-0.5,0-1.1,0-1.5-0.1c-0.5-0.1-0.9-0.2-1.3-0.4
							c-0.4-0.2-0.7-0.5-0.9-0.9c-0.2-0.4-0.3-0.9-0.3-1.6v-7.5h-2.1v-2.3h2.1v-3.8h3.5v3.8H349.4z"/>
						<path class="st7" d="M354.6,184.3v6.6h0.1c0.4-0.7,1-1.3,1.7-1.6s1.4-0.5,2-0.5c0.9,0,1.7,0.1,2.3,0.4
							c0.6,0.3,1.1,0.6,1.4,1.1c0.3,0.5,0.6,1,0.7,1.7c0.1,0.7,0.2,1.4,0.2,2.2v7.9h-3.5v-7.2c0-1.1-0.2-1.8-0.5-2.4
							s-0.9-0.8-1.8-0.8c-1,0-1.6,0.3-2.1,0.9c-0.4,0.6-0.6,1.5-0.6,2.8v6.7h-3.5v-17.6H354.6z"/>
					</g>
				</g>
				<g>
					<g>
						<path class="st31" d="M648.5,179.7h-19.1c-2.5,0-4.5,2-4.5,4.5v19.1c0,2.5,2,4.5,4.5,4.5h19.1c2.5,0,4.5-2,4.5-4.5v-19.1
							C652.9,181.7,650.9,179.7,648.5,179.7z M649.1,199.2c-0.1,0.3-0.7,0.7-2.6,1c-0.2,0-0.2,0.2-0.3,0.7c0,0.2-0.1,0.3-0.1,0.5
							c0,0.1-0.1,0.2-0.3,0.2h0c-0.1,0-0.2,0-0.4-0.1c-0.3-0.1-0.7-0.1-1.2-0.1c-0.3,0-0.6,0-0.8,0.1c-0.6,0.1-1.1,0.4-1.6,0.8
							c-0.8,0.5-1.5,1.1-2.8,1.1c-0.1,0-0.1,0-0.2,0h0c0,0-0.1,0-0.1,0c-1.2,0-2-0.6-2.8-1.1c-0.5-0.4-1-0.7-1.6-0.8
							c-0.3,0-0.6-0.1-0.8-0.1c-0.5,0-0.9,0.1-1.2,0.1c-0.2,0-0.3,0.1-0.4,0.1c-0.1,0-0.2,0-0.3-0.2c0-0.2-0.1-0.3-0.1-0.5
							c-0.1-0.4-0.1-0.6-0.3-0.7c-1.9-0.3-2.5-0.7-2.6-1c0,0,0-0.1,0-0.1c0-0.1,0.1-0.2,0.2-0.2c3-0.5,4.3-3.5,4.4-3.7c0,0,0,0,0,0
							c0.2-0.4,0.2-0.7,0.1-0.9c-0.2-0.5-0.9-0.7-1.3-0.8c-0.1,0-0.2-0.1-0.3-0.1c-0.9-0.3-1-0.7-0.9-0.9c0.1-0.3,0.5-0.5,0.8-0.5
							c0.1,0,0.2,0,0.2,0c0.4,0.2,0.8,0.3,1.1,0.3c0.4,0,0.6-0.2,0.6-0.2c0-0.2,0-0.4,0-0.6c-0.1-1.4-0.2-3.1,0.2-4.1
							c1.3-3,4.2-3.2,5-3.2c0,0,0.4,0,0.4,0l0,0c0.8,0,3.7,0.2,5,3.2c0.4,1,0.3,2.7,0.2,4.1l0,0.1c0,0.2,0,0.4,0,0.6
							c0,0,0.2,0.2,0.6,0.2h0c0.3,0,0.6-0.1,1-0.3c0.1-0.1,0.2-0.1,0.3-0.1c0.1,0,0.3,0,0.4,0.1l0,0c0.3,0.1,0.5,0.3,0.5,0.5
							c0,0.2-0.2,0.5-0.9,0.8c-0.1,0-0.2,0.1-0.3,0.1c-0.4,0.1-1.1,0.4-1.3,0.8c-0.1,0.3-0.1,0.6,0.1,0.9c0,0,0,0,0,0
							c0.1,0.1,1.4,3.2,4.4,3.7c0.1,0,0.2,0.1,0.2,0.2C649.2,199.1,649.2,199.2,649.1,199.2z"/>
					</g>
					<g>
						<path class="st7" d="M671.5,185.4c0.8,0,1.6,0.1,2.3,0.2s1.3,0.4,1.8,0.7c0.5,0.3,0.9,0.8,1.1,1.3s0.4,1.3,0.4,2.1
							c0,0.9-0.2,1.6-0.6,2.2c-0.4,0.6-1,1.1-1.8,1.5c1.1,0.3,1.9,0.9,2.4,1.6c0.5,0.8,0.8,1.7,0.8,2.8c0,0.9-0.2,1.7-0.5,2.3
							c-0.3,0.7-0.8,1.2-1.4,1.6c-0.6,0.4-1.3,0.7-2,0.9c-0.8,0.2-1.5,0.3-2.3,0.3h-8.5v-17.6H671.5z M671,192.5
							c0.7,0,1.3-0.2,1.7-0.5c0.4-0.3,0.7-0.9,0.7-1.6c0-0.4-0.1-0.7-0.2-1s-0.3-0.5-0.6-0.6c-0.2-0.1-0.5-0.3-0.9-0.3
							c-0.3-0.1-0.7-0.1-1-0.1h-3.6v4.1H671z M671.3,200c0.4,0,0.7,0,1.1-0.1c0.3-0.1,0.7-0.2,0.9-0.4s0.5-0.4,0.6-0.7
							c0.2-0.3,0.2-0.7,0.2-1.1c0-0.9-0.3-1.6-0.8-1.9c-0.5-0.4-1.2-0.6-2-0.6h-4.2v4.8H671.3z"/>
						<path class="st7" d="M680.1,194.2c0-0.8,0.3-1.5,0.6-2c0.4-0.5,0.8-1,1.4-1.3c0.6-0.3,1.2-0.6,1.9-0.7
							c0.7-0.1,1.4-0.2,2.1-0.2c0.6,0,1.3,0,2,0.1c0.7,0.1,1.3,0.3,1.8,0.5c0.5,0.3,1,0.6,1.3,1.1c0.3,0.5,0.5,1.1,0.5,1.9v6.6
							c0,0.6,0,1.1,0.1,1.7c0.1,0.5,0.2,0.9,0.3,1.2h-3.6c-0.1-0.2-0.1-0.4-0.2-0.6s-0.1-0.4-0.1-0.6c-0.6,0.6-1.2,1-2,1.2
							c-0.8,0.2-1.5,0.3-2.3,0.3c-0.6,0-1.2-0.1-1.7-0.2s-1-0.4-1.4-0.7c-0.4-0.3-0.7-0.7-0.9-1.2s-0.3-1-0.3-1.7
							c0-0.7,0.1-1.3,0.4-1.8s0.6-0.8,1-1.1c0.4-0.3,0.9-0.5,1.4-0.6c0.5-0.1,1-0.3,1.6-0.3c0.5-0.1,1-0.1,1.6-0.2
							c0.5,0,1-0.1,1.4-0.2c0.4-0.1,0.7-0.2,0.9-0.4c0.2-0.2,0.3-0.5,0.3-0.8c0-0.4-0.1-0.7-0.2-0.9c-0.1-0.2-0.3-0.4-0.5-0.5
							c-0.2-0.1-0.4-0.2-0.7-0.2s-0.6-0.1-0.9-0.1c-0.7,0-1.2,0.1-1.6,0.4c-0.4,0.3-0.6,0.8-0.7,1.5H680.1z M688.2,196.8
							c-0.1,0.1-0.3,0.2-0.6,0.3c-0.2,0.1-0.5,0.1-0.7,0.2s-0.5,0.1-0.8,0.1c-0.3,0-0.6,0.1-0.8,0.1c-0.3,0-0.5,0.1-0.8,0.2
							c-0.3,0.1-0.5,0.2-0.7,0.3c-0.2,0.1-0.3,0.3-0.5,0.5s-0.2,0.5-0.2,0.8c0,0.3,0.1,0.6,0.2,0.8c0.1,0.2,0.3,0.4,0.5,0.5
							c0.2,0.1,0.4,0.2,0.7,0.3c0.3,0,0.5,0.1,0.8,0.1c0.7,0,1.2-0.1,1.6-0.3s0.7-0.5,0.8-0.8c0.2-0.3,0.3-0.6,0.3-1
							c0-0.3,0.1-0.6,0.1-0.8V196.8z"/>
						<path class="st7" d="M694.5,193.9c0.3-0.8,0.8-1.5,1.3-2.1c0.6-0.6,1.3-1,2.1-1.4c0.8-0.3,1.7-0.5,2.7-0.5s1.9,0.2,2.7,0.5
							c0.8,0.3,1.5,0.8,2.1,1.4c0.6,0.6,1,1.3,1.3,2.1c0.3,0.8,0.5,1.8,0.5,2.8s-0.2,1.9-0.5,2.8s-0.8,1.5-1.3,2.1
							c-0.6,0.6-1.3,1-2.1,1.3s-1.7,0.5-2.7,0.5s-1.9-0.2-2.7-0.5s-1.5-0.8-2.1-1.3c-0.6-0.6-1-1.3-1.3-2.1s-0.5-1.7-0.5-2.8
							S694.2,194.7,694.5,193.9z M697.7,198.1c0.1,0.5,0.3,0.9,0.5,1.3c0.2,0.4,0.6,0.7,0.9,0.9c0.4,0.2,0.9,0.3,1.5,0.3
							s1.1-0.1,1.5-0.3c0.4-0.2,0.7-0.5,1-0.9s0.4-0.8,0.5-1.3s0.1-1,0.1-1.5c0-0.5,0-1-0.1-1.5c-0.1-0.5-0.3-0.9-0.5-1.3
							c-0.2-0.4-0.6-0.7-1-0.9c-0.4-0.2-0.9-0.4-1.5-0.4s-1.1,0.1-1.5,0.4c-0.4,0.2-0.7,0.5-0.9,0.9c-0.2,0.4-0.4,0.8-0.5,1.3
							c-0.1,0.5-0.1,1-0.1,1.5C697.5,197.2,697.6,197.7,697.7,198.1z"/>
						<path class="st7" d="M715.3,185.4l4.1,12.1h0l3.9-12.1h5.5V203h-3.6v-12.5h-0.1l-4.3,12.5h-3l-4.3-12.4h0V203h-3.6v-17.6
							H715.3z"/>
						<path class="st7" d="M732,193.9c0.3-0.8,0.8-1.5,1.3-2.1c0.6-0.6,1.3-1,2.1-1.4c0.8-0.3,1.7-0.5,2.7-0.5s1.9,0.2,2.7,0.5
							c0.8,0.3,1.5,0.8,2.1,1.4c0.6,0.6,1,1.3,1.3,2.1c0.3,0.8,0.5,1.8,0.5,2.8s-0.2,1.9-0.5,2.8s-0.8,1.5-1.3,2.1
							c-0.6,0.6-1.3,1-2.1,1.3s-1.7,0.5-2.7,0.5s-1.9-0.2-2.7-0.5s-1.5-0.8-2.1-1.3c-0.6-0.6-1-1.3-1.3-2.1s-0.5-1.7-0.5-2.8
							S731.7,194.7,732,193.9z M735.2,198.1c0.1,0.5,0.3,0.9,0.5,1.3c0.2,0.4,0.6,0.7,0.9,0.9c0.4,0.2,0.9,0.3,1.5,0.3
							s1.1-0.1,1.5-0.3c0.4-0.2,0.7-0.5,1-0.9s0.4-0.8,0.5-1.3s0.1-1,0.1-1.5c0-0.5,0-1-0.1-1.5c-0.1-0.5-0.3-0.9-0.5-1.3
							c-0.2-0.4-0.6-0.7-1-0.9c-0.4-0.2-0.9-0.4-1.5-0.4s-1.1,0.1-1.5,0.4c-0.4,0.2-0.7,0.5-0.9,0.9c-0.2,0.4-0.4,0.8-0.5,1.3
							c-0.1,0.5-0.1,1-0.1,1.5C735,197.2,735.1,197.7,735.2,198.1z"/>
						<path class="st7" d="M755.6,203v-1.8h-0.1c-0.4,0.7-1,1.3-1.7,1.6c-0.7,0.3-1.4,0.5-2.2,0.5c-0.9,0-1.7-0.1-2.3-0.4
							c-0.6-0.2-1.1-0.6-1.4-1s-0.6-1-0.7-1.7c-0.1-0.7-0.2-1.4-0.2-2.2v-7.9h3.5v7.2c0,1.1,0.2,1.8,0.5,2.4
							c0.3,0.5,0.9,0.8,1.8,0.8c1,0,1.6-0.3,2.1-0.9c0.4-0.6,0.6-1.5,0.6-2.8v-6.7h3.5V203H755.6z"/>
						<path class="st7" d="M768.6,190.3v2.3h-2.6v6.3c0,0.6,0.1,1,0.3,1.2c0.2,0.2,0.6,0.3,1.2,0.3c0.2,0,0.4,0,0.6,0s0.4,0,0.5-0.1
							v2.7c-0.3,0-0.6,0.1-1,0.1s-0.7,0-1.1,0c-0.5,0-1.1,0-1.5-0.1c-0.5-0.1-0.9-0.2-1.3-0.4s-0.7-0.5-0.9-0.9
							c-0.2-0.4-0.3-0.9-0.3-1.6v-7.5h-2.1v-2.3h2.1v-3.8h3.5v3.8H768.6z"/>
						<path class="st7" d="M773.8,185.4v6.6h0.1c0.4-0.7,1-1.3,1.7-1.6s1.4-0.5,2-0.5c0.9,0,1.7,0.1,2.3,0.4
							c0.6,0.3,1.1,0.6,1.4,1.1c0.3,0.5,0.6,1,0.7,1.7c0.1,0.7,0.2,1.4,0.2,2.2v7.9h-3.5v-7.2c0-1.1-0.2-1.8-0.5-2.4
							s-0.9-0.8-1.8-0.8c-1,0-1.6,0.3-2.1,0.9c-0.4,0.6-0.6,1.5-0.6,2.8v6.7h-3.5v-17.6H773.8z"/>
					</g>
				</g>
				<g>
					<path class="st31" d="M413.5,179.4h-19.8c-2.4,0-4.4,2-4.4,4.4v19.8c0,2.4,2,4.4,4.4,4.4h10.9v-11.1h-3.7v-4.3h3.7v-3.2
						c0-3.7,2.3-5.7,5.6-5.7c1.6,0,2.9,0.1,3.3,0.2v3.9l-2.3,0c-1.8,0-2.1,0.9-2.1,2.1v2.8h4.3l-0.6,4.3H409V208h4.5
						c2.4,0,4.4-2,4.4-4.4v-19.8C417.8,181.4,415.9,179.4,413.5,179.4z"/>
					<g>
						<path class="st7" d="M434.7,185.2l-6.9,18.4H425l6.9-18.4H434.7z"/>
						<path class="st7" d="M440,185.7v6.8h7.1v-6.8h3.9v17.6h-3.9v-7.6H440v7.6h-3.9v-17.6H440z"/>
						<path class="st7" d="M454.1,194.1c0.3-0.8,0.8-1.5,1.3-2.1c0.6-0.6,1.3-1,2.1-1.4c0.8-0.3,1.7-0.5,2.7-0.5s1.9,0.2,2.7,0.5
							c0.8,0.3,1.5,0.8,2.1,1.4c0.6,0.6,1,1.3,1.3,2.1c0.3,0.8,0.5,1.8,0.5,2.8s-0.2,1.9-0.5,2.8s-0.8,1.5-1.3,2.1
							c-0.6,0.6-1.3,1-2.1,1.3s-1.7,0.5-2.7,0.5s-1.9-0.2-2.7-0.5s-1.5-0.8-2.1-1.3c-0.6-0.6-1-1.3-1.3-2.1s-0.5-1.7-0.5-2.8
							S453.8,195,454.1,194.1z M457.3,198.4c0.1,0.5,0.3,0.9,0.5,1.3c0.2,0.4,0.6,0.7,0.9,0.9c0.4,0.2,0.9,0.3,1.5,0.3
							s1.1-0.1,1.5-0.3c0.4-0.2,0.7-0.5,1-0.9s0.4-0.8,0.5-1.3s0.1-1,0.1-1.5c0-0.5,0-1-0.1-1.5c-0.1-0.5-0.3-0.9-0.5-1.3
							c-0.2-0.4-0.6-0.7-1-0.9c-0.4-0.2-0.9-0.4-1.5-0.4s-1.1,0.1-1.5,0.4c-0.4,0.2-0.7,0.5-0.9,0.9c-0.2,0.4-0.4,0.8-0.5,1.3
							c-0.1,0.5-0.1,1-0.1,1.5C457.1,197.4,457.2,197.9,457.3,198.4z"/>
						<path class="st7" d="M476.1,190.5v2.3h-2.6v6.3c0,0.6,0.1,1,0.3,1.2c0.2,0.2,0.6,0.3,1.2,0.3c0.2,0,0.4,0,0.6,0
							c0.2,0,0.4,0,0.5-0.1v2.7c-0.3,0-0.6,0.1-1,0.1c-0.4,0-0.7,0-1.1,0c-0.5,0-1.1,0-1.5-0.1c-0.5-0.1-0.9-0.2-1.3-0.4
							c-0.4-0.2-0.7-0.5-0.9-0.9c-0.2-0.4-0.3-0.9-0.3-1.6v-7.5h-2.1v-2.3h2.1v-3.8h3.5v3.8H476.1z"/>
						<path class="st7" d="M487,185.7l6.6,17.6h-4l-1.3-3.9h-6.6l-1.4,3.9h-3.9l6.7-17.6H487z M487.2,196.5L485,190h-0.1l-2.3,6.5
							H487.2z"/>
						<path class="st7" d="M497.7,200.1c0.2,0.3,0.4,0.5,0.6,0.7c0.2,0.2,0.5,0.3,0.9,0.4c0.3,0.1,0.7,0.1,1,0.1
							c0.2,0,0.5,0,0.8-0.1s0.5-0.1,0.7-0.3c0.2-0.1,0.4-0.3,0.6-0.5s0.2-0.5,0.2-0.8c0-0.5-0.3-0.9-1-1.2s-1.7-0.5-2.9-0.8
							c-0.5-0.1-1-0.3-1.5-0.4c-0.5-0.2-0.9-0.4-1.3-0.6c-0.4-0.3-0.7-0.6-0.9-1c-0.2-0.4-0.3-0.9-0.3-1.4c0-0.8,0.2-1.5,0.5-2
							c0.3-0.5,0.7-0.9,1.3-1.2c0.5-0.3,1.1-0.5,1.8-0.6c0.7-0.1,1.3-0.2,2-0.2s1.4,0.1,2,0.2s1.2,0.4,1.7,0.7
							c0.5,0.3,0.9,0.7,1.3,1.2c0.3,0.5,0.5,1.2,0.6,2h-3.3c-0.1-0.7-0.3-1.1-0.8-1.4c-0.5-0.2-1-0.4-1.6-0.4c-0.2,0-0.4,0-0.6,0
							c-0.2,0-0.4,0.1-0.6,0.2s-0.3,0.2-0.5,0.4c-0.1,0.2-0.2,0.4-0.2,0.6c0,0.3,0.1,0.6,0.3,0.8s0.5,0.4,0.9,0.5
							c0.4,0.1,0.8,0.2,1.3,0.3s1,0.2,1.5,0.3c0.5,0.1,1,0.3,1.5,0.4c0.5,0.2,0.9,0.4,1.3,0.7c0.4,0.3,0.7,0.6,0.9,1
							c0.2,0.4,0.3,0.9,0.3,1.5c0,0.8-0.2,1.5-0.5,2.1c-0.3,0.6-0.8,1-1.3,1.4s-1.2,0.6-1.9,0.7s-1.4,0.2-2.1,0.2
							c-0.7,0-1.5-0.1-2.2-0.2c-0.7-0.1-1.3-0.4-1.9-0.7c-0.6-0.3-1-0.8-1.4-1.4c-0.4-0.6-0.5-1.3-0.6-2.1h3.3
							C497.4,199.5,497.5,199.8,497.7,200.1z"/>
						<path class="st7" d="M508.1,188.6v-2.9h3.5v2.9H508.1z M511.6,190.5v12.8h-3.5v-12.8H511.6z"/>
						<path class="st7" d="M514.2,194.5c0-0.8,0.3-1.5,0.6-2s0.8-1,1.4-1.3c0.6-0.3,1.2-0.6,1.9-0.7c0.7-0.1,1.4-0.2,2.1-0.2
							c0.6,0,1.3,0,2,0.1c0.7,0.1,1.3,0.3,1.8,0.5c0.5,0.3,1,0.6,1.3,1.1c0.3,0.5,0.5,1.1,0.5,1.9v6.6c0,0.6,0,1.1,0.1,1.7
							c0.1,0.5,0.2,0.9,0.3,1.2h-3.6c-0.1-0.2-0.1-0.4-0.2-0.6s-0.1-0.4-0.1-0.6c-0.6,0.6-1.2,1-2,1.2s-1.5,0.3-2.3,0.3
							c-0.6,0-1.2-0.1-1.7-0.2c-0.5-0.1-1-0.4-1.4-0.7c-0.4-0.3-0.7-0.7-0.9-1.2c-0.2-0.5-0.3-1-0.3-1.7c0-0.7,0.1-1.3,0.4-1.8
							c0.3-0.5,0.6-0.8,1-1.1c0.4-0.3,0.9-0.5,1.4-0.6c0.5-0.1,1-0.3,1.6-0.3c0.5-0.1,1-0.1,1.6-0.2c0.5,0,1-0.1,1.4-0.2
							s0.7-0.2,0.9-0.4c0.2-0.2,0.3-0.5,0.3-0.8c0-0.4-0.1-0.7-0.2-0.9c-0.1-0.2-0.3-0.4-0.5-0.5c-0.2-0.1-0.4-0.2-0.7-0.2
							s-0.6-0.1-0.9-0.1c-0.7,0-1.2,0.1-1.6,0.4c-0.4,0.3-0.6,0.8-0.7,1.5H514.2z M522.3,197c-0.1,0.1-0.3,0.2-0.6,0.3
							s-0.5,0.1-0.7,0.2c-0.3,0-0.5,0.1-0.8,0.1c-0.3,0-0.6,0.1-0.8,0.1c-0.3,0-0.5,0.1-0.8,0.2c-0.3,0.1-0.5,0.2-0.7,0.3
							c-0.2,0.1-0.3,0.3-0.5,0.5s-0.2,0.5-0.2,0.8c0,0.3,0.1,0.6,0.2,0.8c0.1,0.2,0.3,0.4,0.5,0.5c0.2,0.1,0.4,0.2,0.7,0.3
							c0.3,0,0.5,0.1,0.8,0.1c0.7,0,1.2-0.1,1.6-0.3s0.7-0.5,0.8-0.8s0.3-0.6,0.3-1c0-0.3,0.1-0.6,0.1-0.8V197z"/>
						<path class="st7" d="M531.9,190.5v1.8h0.1c0.4-0.7,1-1.3,1.7-1.6c0.7-0.3,1.4-0.5,2.2-0.5c0.9,0,1.7,0.1,2.3,0.4
							c0.6,0.3,1.1,0.6,1.4,1.1c0.3,0.5,0.6,1,0.7,1.7s0.2,1.4,0.2,2.2v7.9H537v-7.2c0-1.1-0.2-1.8-0.5-2.4
							c-0.3-0.5-0.9-0.8-1.8-0.8c-1,0-1.6,0.3-2.1,0.9c-0.4,0.6-0.6,1.5-0.6,2.8v6.7h-3.5v-12.8H531.9z"/>
						<path class="st7" d="M551.8,185.7c0.8,0,1.6,0.1,2.3,0.2s1.3,0.4,1.8,0.7c0.5,0.3,0.9,0.8,1.1,1.3s0.4,1.3,0.4,2.1
							c0,0.9-0.2,1.6-0.6,2.2c-0.4,0.6-1,1.1-1.8,1.5c1.1,0.3,1.9,0.9,2.4,1.6c0.5,0.8,0.8,1.7,0.8,2.8c0,0.9-0.2,1.7-0.5,2.3
							c-0.3,0.7-0.8,1.2-1.4,1.6c-0.6,0.4-1.3,0.7-2,0.9c-0.8,0.2-1.5,0.3-2.3,0.3h-8.5v-17.6H551.8z M551.3,192.8
							c0.7,0,1.3-0.2,1.7-0.5c0.4-0.3,0.7-0.9,0.7-1.6c0-0.4-0.1-0.7-0.2-1s-0.3-0.5-0.6-0.6c-0.2-0.1-0.5-0.3-0.9-0.3
							c-0.3-0.1-0.7-0.1-1-0.1h-3.6v4.1H551.3z M551.6,200.3c0.4,0,0.7,0,1.1-0.1c0.3-0.1,0.7-0.2,0.9-0.4s0.5-0.4,0.6-0.7
							c0.2-0.3,0.2-0.7,0.2-1.1c0-0.9-0.3-1.6-0.8-1.9c-0.5-0.4-1.2-0.6-2-0.6h-4.2v4.8H551.6z"/>
						<path class="st7" d="M569.2,203.3v-1.8h-0.1c-0.4,0.7-1,1.3-1.7,1.6s-1.4,0.5-2.2,0.5c-0.9,0-1.7-0.1-2.3-0.4
							c-0.6-0.2-1.1-0.6-1.4-1s-0.6-1-0.7-1.7c-0.1-0.7-0.2-1.4-0.2-2.2v-7.9h3.5v7.2c0,1.1,0.2,1.8,0.5,2.4
							c0.3,0.5,0.9,0.8,1.8,0.8c1,0,1.6-0.3,2.1-0.9c0.4-0.6,0.6-1.5,0.6-2.8v-6.7h3.5v12.8H569.2z"/>
						<path class="st7" d="M578.5,190.5v1.8h0.1c0.4-0.7,1-1.3,1.7-1.6c0.7-0.3,1.4-0.5,2.2-0.5c0.9,0,1.7,0.1,2.3,0.4
							c0.6,0.3,1.1,0.6,1.4,1.1c0.3,0.5,0.6,1,0.7,1.7c0.1,0.7,0.2,1.4,0.2,2.2v7.9h-3.5v-7.2c0-1.1-0.2-1.8-0.5-2.4
							s-0.9-0.8-1.8-0.8c-1,0-1.6,0.3-2.1,0.9c-0.4,0.6-0.6,1.5-0.6,2.8v6.7h-3.5v-12.8H578.5z"/>
						<path class="st7" d="M592.8,200.1c0.2,0.3,0.4,0.5,0.6,0.7c0.2,0.2,0.5,0.3,0.9,0.4c0.3,0.1,0.7,0.1,1,0.1
							c0.2,0,0.5,0,0.8-0.1s0.5-0.1,0.7-0.3c0.2-0.1,0.4-0.3,0.6-0.5s0.2-0.5,0.2-0.8c0-0.5-0.3-0.9-1-1.2s-1.7-0.5-2.9-0.8
							c-0.5-0.1-1-0.3-1.5-0.4c-0.5-0.2-0.9-0.4-1.3-0.6c-0.4-0.3-0.7-0.6-0.9-1c-0.2-0.4-0.3-0.9-0.3-1.4c0-0.8,0.2-1.5,0.5-2
							c0.3-0.5,0.7-0.9,1.3-1.2c0.5-0.3,1.1-0.5,1.8-0.6c0.7-0.1,1.3-0.2,2-0.2s1.4,0.1,2,0.2s1.2,0.4,1.7,0.7
							c0.5,0.3,0.9,0.7,1.3,1.2c0.3,0.5,0.5,1.2,0.6,2h-3.3c-0.1-0.7-0.3-1.1-0.8-1.4c-0.5-0.2-1-0.4-1.6-0.4c-0.2,0-0.4,0-0.6,0
							c-0.2,0-0.4,0.1-0.6,0.2s-0.3,0.2-0.5,0.4c-0.1,0.2-0.2,0.4-0.2,0.6c0,0.3,0.1,0.6,0.3,0.8s0.5,0.4,0.9,0.5
							c0.4,0.1,0.8,0.2,1.3,0.3s1,0.2,1.5,0.3c0.5,0.1,1,0.3,1.5,0.4c0.5,0.2,0.9,0.4,1.3,0.7c0.4,0.3,0.7,0.6,0.9,1
							c0.2,0.4,0.3,0.9,0.3,1.5c0,0.8-0.2,1.5-0.5,2.1c-0.3,0.6-0.8,1-1.3,1.4s-1.2,0.6-1.9,0.7s-1.4,0.2-2.1,0.2
							c-0.7,0-1.5-0.1-2.2-0.2c-0.7-0.1-1.3-0.4-1.9-0.7c-0.6-0.3-1-0.8-1.4-1.4c-0.4-0.6-0.5-1.3-0.6-2.1h3.3
							C592.5,199.5,592.6,199.8,592.8,200.1z"/>
					</g>
				</g>
			</g>
			<rect x="12.1" y="163" class="st31" width="773.4" height="1.5"/>
		</g>
		<g>
			<path class="st7" d="M39.4,103.3v2.9H27v32.6h-3.4v-32.6H11.3v-2.9H39.4z"/>
			<path class="st7" d="M37.3,117.1c0.5-1.1,1.3-2,2.2-2.7s2-1.2,3.2-1.5c1.2-0.3,2.6-0.5,4.1-0.5c1.1,0,2.3,0.1,3.4,0.3
				c1.1,0.2,2.1,0.6,3,1.2c0.9,0.6,1.6,1.4,2.2,2.5c0.6,1.1,0.8,2.5,0.8,4.2v13.6c0,1.3,0.6,1.9,1.8,1.9c0.4,0,0.7-0.1,1-0.2v2.6
				c-0.4,0.1-0.7,0.1-1,0.1c-0.3,0-0.6,0-1.1,0c-0.8,0-1.4-0.1-1.9-0.3c-0.5-0.2-0.9-0.5-1.1-0.9c-0.3-0.4-0.4-0.9-0.5-1.4
				c-0.1-0.5-0.1-1.2-0.1-1.8h-0.1c-0.6,0.8-1.1,1.6-1.7,2.2c-0.6,0.6-1.2,1.2-1.9,1.6c-0.7,0.4-1.5,0.8-2.4,1
				c-0.9,0.2-2,0.3-3.3,0.3c-1.2,0-2.3-0.1-3.4-0.4c-1-0.3-2-0.7-2.7-1.3c-0.8-0.6-1.4-1.4-1.8-2.3c-0.4-0.9-0.7-2.1-0.7-3.4
				c0-1.8,0.4-3.2,1.2-4.2c0.8-1,1.8-1.8,3.2-2.3c1.3-0.5,2.8-0.9,4.4-1.1c1.6-0.2,3.3-0.4,5-0.6c0.7-0.1,1.2-0.1,1.7-0.2
				s0.9-0.3,1.2-0.5c0.3-0.2,0.6-0.6,0.8-1c0.2-0.4,0.3-1,0.3-1.7c0-1.1-0.2-1.9-0.5-2.6c-0.3-0.7-0.8-1.2-1.4-1.6s-1.3-0.7-2.1-0.8
				c-0.8-0.1-1.7-0.2-2.6-0.2c-2,0-3.6,0.5-4.9,1.4c-1.3,0.9-1.9,2.5-2,4.6h-3.1C36.4,119.5,36.7,118.2,37.3,117.1z M52.9,124.8
				c-0.2,0.4-0.6,0.6-1.1,0.8c-0.6,0.2-1.1,0.3-1.5,0.3c-1.3,0.2-2.7,0.4-4.1,0.6c-1.4,0.2-2.7,0.5-3.9,0.8s-2.1,0.9-2.9,1.6
				s-1.1,1.6-1.1,2.9c0,0.8,0.2,1.5,0.5,2.1c0.3,0.6,0.7,1.1,1.3,1.6c0.5,0.4,1.1,0.8,1.8,1c0.7,0.2,1.4,0.3,2.1,0.3
				c1.2,0,2.3-0.2,3.4-0.5c1.1-0.4,2-0.9,2.9-1.6s1.5-1.5,1.9-2.5c0.5-1,0.7-2.1,0.7-3.4L52.9,124.8L52.9,124.8z"/>
			<path class="st7" d="M83.5,141.8c-0.4,1.5-1.1,2.8-2,3.9c-0.9,1.1-2.1,1.9-3.5,2.4c-1.4,0.6-3.2,0.8-5.3,0.8
				c-1.3,0-2.6-0.1-3.8-0.4c-1.2-0.3-2.3-0.8-3.3-1.4c-1-0.6-1.8-1.4-2.4-2.4c-0.6-1-1-2.1-1.1-3.5h3.1c0.2,1,0.5,1.8,1,2.4
				c0.5,0.6,1.1,1.2,1.7,1.6c0.7,0.4,1.4,0.7,2.3,0.9c0.8,0.2,1.7,0.3,2.5,0.3c2.9,0,5-0.8,6.3-2.5c1.3-1.7,1.9-4,1.9-7.2v-3.5h-0.1
				c-0.7,1.6-1.8,2.9-3.2,3.8s-3.1,1.4-4.9,1.4c-2.1,0-3.8-0.3-5.3-1c-1.5-0.7-2.7-1.6-3.6-2.8s-1.6-2.6-2.1-4.2
				c-0.4-1.6-0.6-3.3-0.6-5.1c0-1.8,0.3-3.4,0.8-5c0.5-1.6,1.3-3,2.2-4.1c1-1.2,2.2-2.1,3.6-2.8c1.4-0.7,3.1-1,4.9-1
				c1,0,1.9,0.1,2.7,0.4c0.8,0.3,1.6,0.6,2.3,1.1s1.3,1,1.9,1.7s1,1.3,1.3,2H81v-4.4h3.1v23.6C84.1,138.6,83.9,140.3,83.5,141.8z
				 M76.3,135c1-0.6,1.9-1.3,2.6-2.3c0.7-0.9,1.2-2,1.6-3.3c0.3-1.2,0.5-2.5,0.5-3.8c0-1.3-0.1-2.5-0.4-3.8
				c-0.3-1.3-0.8-2.4-1.4-3.4c-0.7-1-1.5-1.9-2.6-2.5c-1-0.6-2.3-0.9-3.8-0.9s-2.8,0.3-3.8,0.9c-1.1,0.6-1.9,1.4-2.6,2.4
				c-0.7,1-1.2,2.1-1.5,3.4c-0.3,1.3-0.5,2.6-0.5,3.9c0,1.3,0.2,2.6,0.5,3.8c0.3,1.2,0.8,2.3,1.5,3.3c0.7,0.9,1.6,1.7,2.6,2.3
				c1.1,0.6,2.3,0.9,3.8,0.9C74.1,135.9,75.3,135.6,76.3,135z"/>
			<path class="st7" d="M120.1,127.7l-1.5,11.1h-2.5l1.5-11.1h-7l-1.5,11.1h-2.5l1.5-11.1h-5.5v-2.2h5.8l1.1-7.8H104v-2.2h5.8
				l1.5-11h2.5l-1.5,11h7l1.5-11h2.5l-1.5,11h5.2v2.2h-5.5l-1.1,7.8h5.2v2.2H120.1z M110.9,125.5h7l1.1-7.8h-7L110.9,125.5z"/>
			<path class="st7" d="M132.3,113.1l6.6,22h0.1l6.3-22h3.5l6.3,22h0.1l6.6-22h3.3l-8.3,25.7h-3.4l-6.3-21.6h-0.1l-6.3,21.6h-3.4
				l-8.3-25.7H132.3z"/>
			<path class="st7" d="M184.4,113.5c1.5,0.7,2.8,1.7,3.8,2.9c1,1.2,1.8,2.7,2.3,4.3c0.5,1.6,0.8,3.4,0.8,5.2s-0.3,3.6-0.8,5.2
				c-0.5,1.6-1.3,3.1-2.3,4.3c-1,1.2-2.3,2.2-3.8,2.9c-1.5,0.7-3.2,1.1-5.2,1.1c-2,0-3.7-0.4-5.2-1.1s-2.8-1.7-3.8-2.9
				c-1-1.2-1.8-2.7-2.3-4.3c-0.5-1.6-0.8-3.4-0.8-5.2s0.3-3.6,0.8-5.2c0.5-1.6,1.3-3.1,2.3-4.3c1-1.2,2.3-2.2,3.8-2.9
				s3.2-1.1,5.2-1.1C181.2,112.4,182.9,112.7,184.4,113.5z M175.3,116c-1.1,0.6-2.1,1.5-2.8,2.5s-1.3,2.2-1.7,3.5
				c-0.4,1.3-0.6,2.6-0.6,4s0.2,2.7,0.6,4c0.4,1.3,0.9,2.5,1.7,3.5s1.7,1.9,2.8,2.5c1.1,0.6,2.4,0.9,3.9,0.9s2.8-0.3,3.9-0.9
				c1.1-0.6,2.1-1.5,2.8-2.5s1.3-2.2,1.7-3.5c0.4-1.3,0.6-2.6,0.6-4s-0.2-2.7-0.6-4c-0.4-1.3-0.9-2.5-1.7-3.5s-1.7-1.9-2.8-2.5
				c-1.1-0.6-2.4-0.9-3.9-0.9S176.4,115.3,175.3,116z"/>
			<path class="st7" d="M196.8,113.1l6.6,22h0.1l6.3-22h3.5l6.3,22h0.1l6.6-22h3.3l-8.3,25.7h-3.4l-6.3-21.6h-0.1l-6.3,21.6h-3.4
				l-8.3-25.7H196.8z"/>
			<path class="st7" d="M236,103.3V118h0.1c0.3-0.9,0.8-1.7,1.4-2.4s1.3-1.3,2.1-1.8s1.7-0.8,2.6-1.1c0.9-0.2,1.9-0.3,2.8-0.3
				c2,0,3.7,0.4,5.1,1.1s2.6,1.7,3.6,3s1.7,2.7,2.1,4.3c0.5,1.6,0.7,3.4,0.7,5.2s-0.2,3.6-0.7,5.2c-0.5,1.6-1.2,3.1-2.1,4.3
				s-2.2,2.2-3.6,2.9s-3.1,1.1-5.1,1.1c-2.1,0-4-0.5-5.6-1.4c-1.6-1-2.8-2.3-3.6-4.1h-0.1v4.9h-2.9v-35.5H236z M253,122
				c-0.3-1.3-0.8-2.5-1.5-3.5c-0.7-1-1.5-1.9-2.6-2.5c-1.1-0.6-2.3-1-3.8-1c-1.7,0-3.1,0.3-4.2,1c-1.1,0.6-2.1,1.5-2.8,2.5
				c-0.7,1-1.2,2.2-1.5,3.5c-0.3,1.3-0.5,2.6-0.5,4s0.2,2.6,0.5,4c0.3,1.3,0.8,2.5,1.5,3.5c0.7,1,1.6,1.9,2.8,2.5
				c1.1,0.6,2.5,1,4.2,1c1.5,0,2.8-0.3,3.8-1c1.1-0.6,1.9-1.5,2.6-2.5c0.7-1,1.2-2.2,1.5-3.5c0.3-1.3,0.5-2.6,0.5-4
				S253.3,123.3,253,122z"/>
			<path class="st7" d="M262.1,117.1c0.5-1.1,1.3-2,2.2-2.7s2-1.2,3.2-1.5c1.2-0.3,2.6-0.5,4.1-0.5c1.1,0,2.3,0.1,3.4,0.3
				c1.1,0.2,2.1,0.6,3,1.2c0.9,0.6,1.6,1.4,2.2,2.5c0.6,1.1,0.8,2.5,0.8,4.2v13.6c0,1.3,0.6,1.9,1.8,1.9c0.4,0,0.7-0.1,1-0.2v2.6
				c-0.4,0.1-0.7,0.1-1,0.1c-0.3,0-0.6,0-1.1,0c-0.8,0-1.4-0.1-1.9-0.3c-0.5-0.2-0.9-0.5-1.1-0.9c-0.3-0.4-0.4-0.9-0.5-1.4
				c-0.1-0.5-0.1-1.2-0.1-1.8H278c-0.6,0.8-1.1,1.6-1.7,2.2c-0.6,0.6-1.2,1.2-1.9,1.6c-0.7,0.4-1.5,0.8-2.4,1
				c-0.9,0.2-2,0.3-3.3,0.3c-1.2,0-2.3-0.1-3.4-0.4c-1-0.3-2-0.7-2.7-1.3c-0.8-0.6-1.4-1.4-1.8-2.3c-0.4-0.9-0.7-2.1-0.7-3.4
				c0-1.8,0.4-3.2,1.2-4.2c0.8-1,1.8-1.8,3.2-2.3c1.3-0.5,2.8-0.9,4.4-1.1c1.6-0.2,3.3-0.4,5-0.6c0.7-0.1,1.2-0.1,1.7-0.2
				s0.9-0.3,1.2-0.5c0.3-0.2,0.6-0.6,0.8-1c0.2-0.4,0.3-1,0.3-1.7c0-1.1-0.2-1.9-0.5-2.6c-0.3-0.7-0.8-1.2-1.4-1.6s-1.3-0.7-2.1-0.8
				c-0.8-0.1-1.7-0.2-2.6-0.2c-2,0-3.6,0.5-4.9,1.4c-1.3,0.9-1.9,2.5-2,4.6h-3.1C261.3,119.5,261.6,118.2,262.1,117.1z M277.8,124.8
				c-0.2,0.4-0.6,0.6-1.1,0.8c-0.6,0.2-1.1,0.3-1.5,0.3c-1.3,0.2-2.7,0.4-4.1,0.6c-1.4,0.2-2.7,0.5-3.9,0.8s-2.1,0.9-2.9,1.6
				s-1.1,1.6-1.1,2.9c0,0.8,0.2,1.5,0.5,2.1c0.3,0.6,0.7,1.1,1.3,1.6c0.5,0.4,1.1,0.8,1.8,1c0.7,0.2,1.4,0.3,2.1,0.3
				c1.2,0,2.3-0.2,3.4-0.5c1.1-0.4,2-0.9,2.9-1.6s1.5-1.5,1.9-2.5c0.5-1,0.7-2.1,0.7-3.4L277.8,124.8L277.8,124.8z"/>
			<path class="st7" d="M303.3,113.5c1.5,0.7,2.8,1.7,3.8,2.9c1,1.2,1.8,2.7,2.3,4.3c0.5,1.6,0.8,3.4,0.8,5.2s-0.3,3.6-0.8,5.2
				c-0.5,1.6-1.3,3.1-2.3,4.3c-1,1.2-2.3,2.2-3.8,2.9c-1.5,0.7-3.2,1.1-5.2,1.1c-2,0-3.7-0.4-5.2-1.1s-2.8-1.7-3.8-2.9
				c-1-1.2-1.8-2.7-2.3-4.3c-0.5-1.6-0.8-3.4-0.8-5.2s0.3-3.6,0.8-5.2c0.5-1.6,1.3-3.1,2.3-4.3c1-1.2,2.3-2.2,3.8-2.9
				s3.2-1.1,5.2-1.1C300.1,112.4,301.8,112.7,303.3,113.5z M294.2,116c-1.1,0.6-2.1,1.5-2.8,2.5s-1.3,2.2-1.7,3.5
				c-0.4,1.3-0.6,2.6-0.6,4s0.2,2.7,0.6,4c0.4,1.3,0.9,2.5,1.7,3.5s1.7,1.9,2.8,2.5c1.1,0.6,2.4,0.9,3.9,0.9s2.8-0.3,3.9-0.9
				c1.1-0.6,2.1-1.5,2.8-2.5s1.3-2.2,1.7-3.5c0.4-1.3,0.6-2.6,0.6-4s-0.2-2.7-0.6-4c-0.4-1.3-0.9-2.5-1.7-3.5s-1.7-1.9-2.8-2.5
				c-1.1-0.6-2.4-0.9-3.9-0.9S295.3,115.3,294.2,116z"/>
			<path class="st7" d="M338.9,113.1v2.6h-5.2v17.3c0,1,0.1,1.8,0.4,2.4c0.3,0.6,1,0.9,2.1,1c0.9,0,1.8,0,2.7-0.1v2.6
				c-0.5,0-0.9,0-1.4,0c-0.5,0-0.9,0-1.4,0c-2.1,0-3.5-0.4-4.4-1.2s-1.2-2.3-1.2-4.5v-17.6h-4.5v-2.6h4.5v-7.7h3.1v7.7H338.9z"/>
			<path class="st7" d="M359.5,113.5c1.5,0.7,2.8,1.7,3.8,2.9c1,1.2,1.8,2.7,2.3,4.3c0.5,1.6,0.8,3.4,0.8,5.2s-0.3,3.6-0.8,5.2
				c-0.5,1.6-1.3,3.1-2.3,4.3c-1,1.2-2.3,2.2-3.8,2.9c-1.5,0.7-3.2,1.1-5.2,1.1c-2,0-3.7-0.4-5.2-1.1s-2.8-1.7-3.8-2.9
				c-1-1.2-1.8-2.7-2.3-4.3c-0.5-1.6-0.8-3.4-0.8-5.2s0.3-3.6,0.8-5.2c0.5-1.6,1.3-3.1,2.3-4.3c1-1.2,2.3-2.2,3.8-2.9
				s3.2-1.1,5.2-1.1C356.3,112.4,358,112.7,359.5,113.5z M350.4,116c-1.1,0.6-2.1,1.5-2.8,2.5s-1.3,2.2-1.7,3.5
				c-0.4,1.3-0.6,2.6-0.6,4s0.2,2.7,0.6,4c0.4,1.3,0.9,2.5,1.7,3.5s1.7,1.9,2.8,2.5c1.1,0.6,2.4,0.9,3.9,0.9s2.8-0.3,3.9-0.9
				c1.1-0.6,2.1-1.5,2.8-2.5s1.3-2.2,1.7-3.5c0.4-1.3,0.6-2.6,0.6-4s-0.2-2.7-0.6-4c-0.4-1.3-0.9-2.5-1.7-3.5s-1.7-1.9-2.8-2.5
				c-1.1-0.6-2.4-0.9-3.9-0.9S351.5,115.3,350.4,116z"/>
			<path class="st7" d="M406,141.8c-0.4,1.5-1.1,2.8-2,3.9c-0.9,1.1-2.1,1.9-3.5,2.4c-1.4,0.6-3.2,0.8-5.3,0.8
				c-1.3,0-2.6-0.1-3.8-0.4c-1.2-0.3-2.3-0.8-3.3-1.4c-1-0.6-1.8-1.4-2.4-2.4c-0.6-1-1-2.1-1.1-3.5h3.1c0.2,1,0.5,1.8,1,2.4
				c0.5,0.6,1.1,1.2,1.7,1.6c0.7,0.4,1.4,0.7,2.3,0.9c0.8,0.2,1.7,0.3,2.5,0.3c2.9,0,5-0.8,6.3-2.5c1.3-1.7,1.9-4,1.9-7.2v-3.5h-0.1
				c-0.7,1.6-1.8,2.9-3.2,3.8s-3.1,1.4-4.9,1.4c-2.1,0-3.8-0.3-5.3-1c-1.5-0.7-2.7-1.6-3.6-2.8s-1.6-2.6-2.1-4.2
				c-0.4-1.6-0.6-3.3-0.6-5.1c0-1.8,0.3-3.4,0.8-5c0.5-1.6,1.3-3,2.2-4.1c1-1.2,2.2-2.1,3.6-2.8c1.4-0.7,3.1-1,4.9-1
				c1,0,1.9,0.1,2.7,0.4c0.8,0.3,1.6,0.6,2.3,1.1s1.3,1,1.9,1.7s1,1.3,1.3,2h0.1v-4.4h3.1v23.6C406.6,138.6,406.4,140.3,406,141.8z
				 M398.8,135c1-0.6,1.9-1.3,2.6-2.3c0.7-0.9,1.2-2,1.6-3.3c0.3-1.2,0.5-2.5,0.5-3.8c0-1.3-0.1-2.5-0.4-3.8
				c-0.3-1.3-0.8-2.4-1.4-3.4c-0.7-1-1.5-1.9-2.6-2.5c-1-0.6-2.3-0.9-3.8-0.9s-2.8,0.3-3.8,0.9c-1.1,0.6-1.9,1.4-2.6,2.4
				c-0.7,1-1.2,2.1-1.5,3.4c-0.3,1.3-0.5,2.6-0.5,3.9c0,1.3,0.2,2.6,0.5,3.8c0.3,1.2,0.8,2.3,1.5,3.3c0.7,0.9,1.6,1.7,2.6,2.3
				c1.1,0.6,2.3,0.9,3.8,0.9C396.6,135.9,397.8,135.6,398.8,135z"/>
			<path class="st7" d="M414.9,130.3c0.3,1.2,0.8,2.3,1.5,3.3s1.6,1.8,2.6,2.4c1.1,0.6,2.3,0.9,3.8,0.9c2.3,0,4.1-0.6,5.4-1.8
				c1.3-1.2,2.2-2.8,2.7-4.8h3.1c-0.7,2.9-1.9,5.2-3.7,6.8c-1.8,1.6-4.3,2.4-7.5,2.4c-2,0-3.8-0.4-5.2-1.1c-1.5-0.7-2.7-1.7-3.6-2.9
				c-0.9-1.2-1.6-2.7-2.1-4.3c-0.4-1.6-0.7-3.4-0.7-5.2c0-1.7,0.2-3.3,0.7-5c0.4-1.6,1.1-3.1,2.1-4.4c0.9-1.3,2.1-2.3,3.6-3.1
				c1.5-0.8,3.2-1.2,5.2-1.2c2.1,0,3.8,0.4,5.3,1.2s2.6,1.9,3.6,3.3s1.6,2.9,2,4.6c0.4,1.7,0.6,3.5,0.5,5.3h-19.7
				C414.4,127.9,414.6,129.1,414.9,130.3z M430.4,120.7c-0.4-1.1-0.9-2.1-1.6-2.9s-1.5-1.5-2.5-2c-1-0.5-2.1-0.8-3.4-0.8
				c-1.3,0-2.4,0.3-3.4,0.8c-1,0.5-1.8,1.2-2.5,2s-1.3,1.8-1.7,2.9c-0.4,1.1-0.7,2.2-0.8,3.4H431C431,123,430.8,121.8,430.4,120.7z"
				/>
			<path class="st7" d="M448.6,113.1v2.6h-5.2v17.3c0,1,0.1,1.8,0.4,2.4c0.3,0.6,1,0.9,2.1,1c0.9,0,1.8,0,2.7-0.1v2.6
				c-0.5,0-0.9,0-1.4,0c-0.5,0-0.9,0-1.4,0c-2.1,0-3.5-0.4-4.4-1.2s-1.2-2.3-1.2-4.5v-17.6h-4.5v-2.6h4.5v-7.7h3.1v7.7H448.6z"/>
			<path class="st7" d="M467.4,113.1l8.5,21.9l7.9-21.9h3.1l-11.1,29.5c-0.5,1.1-0.9,2-1.3,2.7c-0.4,0.7-0.8,1.3-1.3,1.7
				c-0.5,0.4-1,0.7-1.7,0.9c-0.6,0.2-1.5,0.3-2.5,0.3c-0.6,0-1.1-0.1-1.5-0.1c-0.3,0-0.7-0.1-0.9-0.2v-2.6c0.4,0.1,0.7,0.1,1.1,0.2
				c0.3,0,0.7,0.1,1.1,0.1c0.7,0,1.3-0.1,1.7-0.3c0.4-0.2,0.8-0.5,1.2-0.8c0.3-0.3,0.6-0.8,0.8-1.3c0.2-0.5,0.5-1,0.7-1.6l1.1-2.9
				l-10.2-25.6H467.4z"/>
			<path class="st7" d="M506,113.5c1.5,0.7,2.8,1.7,3.8,2.9c1,1.2,1.8,2.7,2.3,4.3c0.5,1.6,0.8,3.4,0.8,5.2s-0.3,3.6-0.8,5.2
				c-0.5,1.6-1.3,3.1-2.3,4.3c-1,1.2-2.3,2.2-3.8,2.9c-1.5,0.7-3.2,1.1-5.2,1.1c-2,0-3.7-0.4-5.2-1.1s-2.8-1.7-3.8-2.9
				c-1-1.2-1.8-2.7-2.3-4.3c-0.5-1.6-0.8-3.4-0.8-5.2s0.3-3.6,0.8-5.2c0.5-1.6,1.3-3.1,2.3-4.3c1-1.2,2.3-2.2,3.8-2.9
				s3.2-1.1,5.2-1.1C502.8,112.4,504.5,112.7,506,113.5z M496.9,116c-1.1,0.6-2.1,1.5-2.8,2.5s-1.3,2.2-1.7,3.5
				c-0.4,1.3-0.6,2.6-0.6,4s0.2,2.7,0.6,4c0.4,1.3,0.9,2.5,1.7,3.5s1.7,1.9,2.8,2.5c1.1,0.6,2.4,0.9,3.9,0.9s2.8-0.3,3.9-0.9
				c1.1-0.6,2.1-1.5,2.8-2.5s1.3-2.2,1.7-3.5c0.4-1.3,0.6-2.6,0.6-4s-0.2-2.7-0.6-4c-0.4-1.3-0.9-2.5-1.7-3.5s-1.7-1.9-2.8-2.5
				c-1.1-0.6-2.4-0.9-3.9-0.9S498,115.3,496.9,116z"/>
			<path class="st7" d="M535.5,138.8v-4.6h-0.1c-0.8,1.7-2,3-3.6,4c-1.6,0.9-3.3,1.4-5.2,1.4c-1.6,0-3-0.2-4.2-0.7
				c-1.1-0.4-2.1-1.1-2.8-1.9s-1.2-1.8-1.6-3c-0.3-1.2-0.5-2.6-0.5-4.1v-16.7h3.1v16.7c0.1,2.3,0.6,4.1,1.6,5.3
				c1,1.2,2.8,1.8,5.2,1.8c1.4,0,2.5-0.3,3.5-0.9s1.8-1.4,2.4-2.3c0.6-1,1.1-2.1,1.4-3.3c0.3-1.2,0.4-2.5,0.4-3.8v-13.5h3.1v25.7
				H535.5z"/>
			<path class="st7" d="M547.2,113.1v6h0.1c0.8-2.1,2-3.7,3.7-4.8c1.7-1.1,3.7-1.6,6-1.5v3.1c-1.4-0.1-2.7,0.1-3.9,0.6
				c-1.2,0.4-2.2,1.1-3,1.9s-1.5,1.8-2,3c-0.5,1.1-0.7,2.4-0.7,3.8v13.7h-3.1v-25.7H547.2z"/>
			<path class="st7" d="M576.7,113.1v4.9h0.1c0.7-1.8,1.9-3.2,3.6-4.2c1.6-1,3.5-1.5,5.6-1.5c2,0,3.7,0.4,5.1,1.1s2.6,1.7,3.6,3
				s1.7,2.7,2.1,4.3c0.5,1.6,0.7,3.4,0.7,5.2s-0.2,3.6-0.7,5.2c-0.5,1.6-1.2,3.1-2.1,4.3s-2.2,2.2-3.6,2.9s-3.1,1.1-5.1,1.1
				c-0.9,0-1.9-0.1-2.8-0.3c-0.9-0.2-1.8-0.6-2.6-1c-0.8-0.5-1.5-1-2.1-1.7s-1.1-1.5-1.4-2.4H577v14.3h-3.1v-35.1H576.7z M593.9,122
				c-0.3-1.3-0.8-2.5-1.5-3.5c-0.7-1-1.5-1.9-2.6-2.5c-1.1-0.6-2.3-1-3.8-1c-1.7,0-3.2,0.3-4.3,0.9c-1.2,0.6-2.1,1.4-2.8,2.4
				c-0.7,1-1.2,2.2-1.5,3.5c-0.3,1.3-0.4,2.7-0.4,4.2c0,1.3,0.2,2.6,0.5,4c0.3,1.3,0.8,2.5,1.5,3.5c0.7,1,1.6,1.9,2.8,2.5
				c1.1,0.6,2.5,1,4.2,1c1.5,0,2.8-0.3,3.8-1c1.1-0.6,1.9-1.5,2.6-2.5c0.7-1,1.2-2.2,1.5-3.5c0.3-1.3,0.5-2.6,0.5-4
				S594.2,123.3,593.9,122z"/>
			<path class="st7" d="M618.4,113.5c1.5,0.7,2.8,1.7,3.8,2.9c1,1.2,1.8,2.7,2.3,4.3c0.5,1.6,0.8,3.4,0.8,5.2s-0.3,3.6-0.8,5.2
				c-0.5,1.6-1.3,3.1-2.3,4.3c-1,1.2-2.3,2.2-3.8,2.9c-1.5,0.7-3.2,1.1-5.2,1.1c-2,0-3.7-0.4-5.2-1.1s-2.8-1.7-3.8-2.9
				c-1-1.2-1.8-2.7-2.3-4.3c-0.5-1.6-0.8-3.4-0.8-5.2s0.3-3.6,0.8-5.2c0.5-1.6,1.3-3.1,2.3-4.3c1-1.2,2.3-2.2,3.8-2.9
				s3.2-1.1,5.2-1.1C615.2,112.4,616.9,112.7,618.4,113.5z M609.3,116c-1.1,0.6-2.1,1.5-2.8,2.5s-1.3,2.2-1.7,3.5
				c-0.4,1.3-0.6,2.6-0.6,4s0.2,2.7,0.6,4c0.4,1.3,0.9,2.5,1.7,3.5s1.7,1.9,2.8,2.5c1.1,0.6,2.4,0.9,3.9,0.9s2.8-0.3,3.9-0.9
				c1.1-0.6,2.1-1.5,2.8-2.5s1.3-2.2,1.7-3.5c0.4-1.3,0.6-2.6,0.6-4s-0.2-2.7-0.6-4c-0.4-1.3-0.9-2.5-1.7-3.5s-1.7-1.9-2.8-2.5
				c-1.1-0.6-2.4-0.9-3.9-0.9S610.4,115.3,609.3,116z"/>
			<path class="st7" d="M644.8,118.1c-0.4-0.7-0.9-1.3-1.5-1.8c-0.6-0.5-1.3-0.8-2.1-1c-0.8-0.2-1.6-0.3-2.5-0.3
				c-0.7,0-1.4,0.1-2.1,0.2c-0.7,0.1-1.4,0.4-2,0.7c-0.6,0.3-1.1,0.8-1.4,1.4c-0.4,0.6-0.5,1.3-0.5,2.1c0,0.7,0.2,1.3,0.5,1.8
				c0.3,0.5,0.8,0.9,1.3,1.2c0.5,0.3,1.1,0.6,1.7,0.8c0.6,0.2,1.2,0.4,1.7,0.5l4.2,0.9c0.9,0.1,1.8,0.4,2.7,0.7
				c0.9,0.3,1.7,0.8,2.3,1.4c0.7,0.6,1.2,1.3,1.7,2.1c0.4,0.8,0.6,1.8,0.6,2.9c0,1.4-0.3,2.6-0.9,3.6c-0.6,1-1.4,1.8-2.4,2.4
				c-1,0.6-2.1,1.1-3.3,1.3c-1.2,0.3-2.4,0.4-3.6,0.4c-3,0-5.5-0.7-7.3-2.1c-1.9-1.4-2.9-3.7-3.2-6.9h3.1c0.1,2.1,0.9,3.7,2.3,4.8
				s3.2,1.6,5.2,1.6c0.8,0,1.5-0.1,2.4-0.2c0.8-0.2,1.6-0.4,2.3-0.8c0.7-0.4,1.3-0.9,1.7-1.5c0.4-0.6,0.7-1.4,0.7-2.3
				c0-0.8-0.2-1.4-0.5-1.9c-0.3-0.5-0.7-0.9-1.3-1.3c-0.5-0.3-1.1-0.6-1.8-0.9c-0.7-0.2-1.4-0.4-2.1-0.6l-4-0.9
				c-1-0.3-2-0.6-2.8-0.9c-0.9-0.3-1.6-0.8-2.3-1.3s-1.2-1.1-1.5-1.9c-0.4-0.7-0.5-1.7-0.5-2.8c0-1.3,0.3-2.4,0.9-3.3
				c0.6-0.9,1.3-1.7,2.3-2.2c0.9-0.6,2-1,3.1-1.2s2.3-0.4,3.4-0.4c1.3,0,2.5,0.2,3.6,0.5c1.1,0.3,2.1,0.8,2.9,1.5
				c0.8,0.7,1.5,1.6,2,2.6s0.8,2.2,0.8,3.6h-3.1C645.4,119.7,645.2,118.8,644.8,118.1z"/>
			<path class="st7" d="M664.2,113.1v2.6h-5.2v17.3c0,1,0.1,1.8,0.4,2.4c0.3,0.6,1,0.9,2.1,1c0.9,0,1.8,0,2.7-0.1v2.6
				c-0.5,0-0.9,0-1.4,0c-0.5,0-0.9,0-1.4,0c-2.1,0-3.5-0.4-4.4-1.2s-1.2-2.3-1.2-4.5v-17.6h-4.5v-2.6h4.5v-7.7h3.1v7.7H664.2z"/>
			<path class="st7" d="M685.6,103.3v14.3h0.1c0.6-1.6,1.7-2.8,3.2-3.8c1.5-0.9,3.2-1.4,5-1.4c1.8,0,3.3,0.2,4.5,0.7
				c1.2,0.5,2.2,1.1,2.9,2s1.2,1.9,1.5,3.1c0.3,1.2,0.4,2.6,0.4,4.1v16.5h-3.1v-16c0-1.1-0.1-2.1-0.3-3.1c-0.2-0.9-0.5-1.8-1-2.5
				s-1.2-1.2-2-1.6c-0.8-0.4-1.9-0.6-3.2-0.6c-1.3,0-2.4,0.2-3.4,0.7c-1,0.4-1.8,1.1-2.5,1.8c-0.7,0.8-1.2,1.7-1.6,2.8
				c-0.4,1.1-0.6,2.2-0.6,3.5v15h-3.1v-35.5H685.6z"/>
			<path class="st7" d="M711.5,130.3c0.3,1.2,0.8,2.3,1.5,3.3s1.6,1.8,2.6,2.4c1.1,0.6,2.3,0.9,3.8,0.9c2.3,0,4.1-0.6,5.4-1.8
				c1.3-1.2,2.2-2.8,2.7-4.8h3.1c-0.7,2.9-1.9,5.2-3.7,6.8c-1.8,1.6-4.3,2.4-7.5,2.4c-2,0-3.8-0.4-5.2-1.1c-1.5-0.7-2.7-1.7-3.6-2.9
				c-0.9-1.2-1.6-2.7-2.1-4.3c-0.4-1.6-0.7-3.4-0.7-5.2c0-1.7,0.2-3.3,0.7-5c0.4-1.6,1.1-3.1,2.1-4.4c0.9-1.3,2.1-2.3,3.6-3.1
				c1.5-0.8,3.2-1.2,5.2-1.2c2.1,0,3.8,0.4,5.3,1.2s2.6,1.9,3.6,3.3s1.6,2.9,2,4.6c0.4,1.7,0.6,3.5,0.5,5.3H711
				C711,127.9,711.2,129.1,711.5,130.3z M727,120.7c-0.4-1.1-0.9-2.1-1.6-2.9s-1.5-1.5-2.5-2c-1-0.5-2.1-0.8-3.4-0.8
				c-1.3,0-2.4,0.3-3.4,0.8c-1,0.5-1.8,1.2-2.5,2s-1.3,1.8-1.7,2.9c-0.4,1.1-0.7,2.2-0.8,3.4h16.6C727.6,123,727.4,121.8,727,120.7z
				"/>
			<path class="st7" d="M737.9,113.1v6h0.1c0.8-2.1,2-3.7,3.7-4.8c1.7-1.1,3.7-1.6,6-1.5v3.1c-1.4-0.1-2.7,0.1-3.9,0.6
				c-1.2,0.4-2.2,1.1-3,1.9s-1.5,1.8-2,3c-0.5,1.1-0.7,2.4-0.7,3.8v13.7H735v-25.7H737.9z"/>
			<path class="st7" d="M752.1,130.3c0.3,1.2,0.8,2.3,1.5,3.3s1.6,1.8,2.6,2.4c1.1,0.6,2.3,0.9,3.8,0.9c2.3,0,4.1-0.6,5.4-1.8
				c1.3-1.2,2.2-2.8,2.7-4.8h3.1c-0.7,2.9-1.9,5.2-3.7,6.8c-1.8,1.6-4.3,2.4-7.5,2.4c-2,0-3.8-0.4-5.2-1.1c-1.5-0.7-2.7-1.7-3.6-2.9
				c-0.9-1.2-1.6-2.7-2.1-4.3c-0.4-1.6-0.7-3.4-0.7-5.2c0-1.7,0.2-3.3,0.7-5c0.4-1.6,1.1-3.1,2.1-4.4c0.9-1.3,2.1-2.3,3.6-3.1
				c1.5-0.8,3.2-1.2,5.2-1.2c2.1,0,3.8,0.4,5.3,1.2s2.6,1.9,3.6,3.3s1.6,2.9,2,4.6c0.4,1.7,0.6,3.5,0.5,5.3h-19.7
				C751.6,127.9,751.8,129.1,752.1,130.3z M767.6,120.7c-0.4-1.1-0.9-2.1-1.6-2.9s-1.5-1.5-2.5-2c-1-0.5-2.1-0.8-3.4-0.8
				c-1.3,0-2.4,0.3-3.4,0.8c-1,0.5-1.8,1.2-2.5,2s-1.3,1.8-1.7,2.9c-0.4,1.1-0.7,2.2-0.8,3.4h16.6C768.2,123,768,121.8,767.6,120.7z
				"/>
			<path class="st7" d="M777.4,133.5h4.2v5.3h-4.2V133.5z"/>
		</g>
		<g>
			<g>
				<path class="st31" d="M16.8,74.6c0-17.3,0-34.6,0-51.8c0.1-0.2,0.2-0.4,0.3-0.7c1.1-5.6,4.5-9.2,10-10.7c0.5-0.1,1-0.3,1.5-0.4
					c17.3,0,34.6,0,51.8,0c1.3,0.4,2.7,0.7,3.9,1.3c5.2,2.5,7.8,6.7,7.9,12.4c0.1,9.9,0,19.8,0,29.7c0,6.1,0,12.2,0,18.4
					c0,2.8-0.6,5.4-2.2,7.7c-2.8,4.1-6.7,6-11.6,6c-15.9,0-31.8,0-47.7,0c-0.4,0-0.8,0-1.3,0c-5.8-0.3-10.7-4.3-12.2-10
					C17.1,75.8,17,75.2,16.8,74.6z M32.8,61.8c-4.3,0-8,3.5-8,7.9c0,4.3,3.6,7.9,7.9,7.9c4.3,0,7.9-3.6,7.9-7.9
					C40.7,65.4,37.1,61.8,32.8,61.8z M54.9,61.8c-4.3,0-7.9,3.6-8,7.9c0,4.3,3.6,7.9,7.9,7.9c4.3,0,7.9-3.6,7.9-7.9
					C62.7,65.3,59.2,61.8,54.9,61.8z M84.5,69.7c0.2-4-3.4-8-7.8-7.9c-4.4,0-7.9,3.5-7.9,7.9c0,4.4,3.6,7.9,7.9,7.9
					C81.1,77.5,84.5,74,84.5,69.7z M29.1,29c-0.1,0-0.1,0-0.2,0c-0.3-1.9-0.7-3.9-1-5.8c-0.4-2.6-0.7-2.9-3.3-2.7
					c-1.1,0.1-1.5,0.5-1.2,1.5c1,4.1,2,8.1,3.1,12.2c0.3,1.1,0.8,1.4,1.9,1.5c0.3,0,0.6,0,0.9,0c1.7,0,2-0.4,2.3-2
					c0.3-2.1,0.7-4.2,1-6.3c0.5,1.9,0.8,3.8,1.1,5.7c0.4,2.6,0.5,2.6,3.2,2.6c1.1,0,1.6-0.3,1.9-1.4c1.1-4.1,2.2-8.2,3.2-12.4
					c0.2-0.8-0.1-1.3-1-1.3c-0.5,0-0.9,0-1.4,0c-1.3,0-1.7,0.4-2,1.6c-0.4,2-0.7,4.1-1.1,6.2c0,0.2-0.2,0.5-0.3,1
					c-0.4-2.4-0.8-4.5-1.1-6.6c-0.3-1.9-0.7-2.2-2.6-2.2c-1.3,0-1.7,0.4-2,1.6C29.9,24.4,29.5,26.7,29.1,29z M73,28.9
					c-0.1,0-0.2,0-0.2,0c-0.4-2-0.8-3.9-1.1-5.9c-0.3-2.1-0.6-2.4-2.7-2.4c-0.2,0-0.3,0-0.5,0c-1.2,0.1-1.5,0.4-1.2,1.6
					c0.9,3.6,1.8,7.3,2.7,10.9c0.7,2.6,0.8,2.7,3.5,2.6c1.1,0,1.5-0.4,1.7-1.4c0.3-1.6,0.5-3.1,0.8-4.7c0.1-0.7,0.3-1.3,0.4-1.9
					c0.5,2.2,0.9,4.4,1.3,6.6c0.2,1.1,0.6,1.5,1.8,1.5c0.3,0,0.7,0,1,0c1.4,0,1.9-0.3,2.2-1.7c1-3.7,1.9-7.3,2.9-11
					c0.6-2.3,0.5-2.4-1.9-2.4c-1.5,0-1.9,0.3-2.2,1.8c-0.4,2.3-0.9,4.6-1.3,7.2c-0.1-0.6-0.2-0.9-0.3-1.2c-0.4-2.1-0.7-4.1-1.1-6.2
					c-0.2-1.1-0.7-1.5-1.8-1.6c-0.3,0-0.5,0-0.8,0c-1.3,0-1.7,0.4-2,1.6c-0.1,0.7-0.2,1.4-0.4,2.1C73.6,25.8,73.3,27.3,73,28.9z
					 M38,47.8c0.4-0.5,0.9-0.9,1.2-1.4c1.2-2.3-0.3-5-3-5.2c-2.7-0.2-5.5-0.2-8.3-0.2c-1.1,0-1.4,0.4-1.4,1.6c0,2.4,0,4.9,0,7.3
					c0,1.6,0,3.2,0,4.8c0,1,0.3,1.4,1.2,1.4c2.8,0,5.6,0.1,8.4-0.1c2.2-0.1,3.8-1.7,4.2-3.6C40.6,50.5,39.9,48.9,38,47.8z
					 M54.8,19.9c-4.4,0-7.9,3.5-7.9,7.9c0,4.3,3.5,7.9,7.8,7.9c4.4,0,8-3.5,8-7.8C62.6,23.5,59.1,19.9,54.8,19.9z M84.5,48.2
					c0.2-4.1-3.6-8-7.9-7.9c-4.3,0.1-7.8,3.5-7.9,7.8c0,4.4,3.5,7.9,7.8,8C81.2,56.2,84.8,52.1,84.5,48.2z M49.5,56.1
					c1.8,0,1.8,0,2.8-1.7c0.2-0.2,0.6-0.4,0.9-0.4c1-0.1,1.9,0,2.9,0c0.6,0,1,0.2,1.2,0.8c0.1,0.6,0.4,1.2,1.1,1.2
					c1,0.1,2.1,0.1,3.1,0c0.7,0,0.8-0.5,0.7-1.1c-0.1-0.3-0.2-0.6-0.3-0.9c-1.3-3.5-2.6-7-3.8-10.5c-0.9-2.6-0.9-2.7-4-2.6
					c-1.3,0-1.7,0.4-2.1,1.5c-0.8,2.2-1.6,4.4-2.4,6.6c-0.7,1.9-1.4,3.7-2.1,5.6c-0.4,1-0.1,1.4,1,1.4
					C48.9,56.1,49.2,56.1,49.5,56.1z"/>
				<path class="st31" d="M31.2,52.4c0-1,0-1.7,0-2.6c1.1,0,2.1-0.1,3.1,0c0.7,0,1.1,0.6,1.1,1.3c0,0.7-0.3,1.1-1,1.2
					C33.4,52.4,32.4,52.4,31.2,52.4z"/>
				<path class="st31" d="M31.2,46.7c0-0.6,0-1.2,0-1.9c1,0,1.9,0,2.9,0c0.5,0,0.8,0.3,0.8,0.9c0,0.5-0.2,0.9-0.7,1
					C33.2,46.9,32.3,47,31.2,46.7z"/>
				<path class="st31" d="M58.2,27.7c0,1.9-1.5,3.5-3.4,3.5c-1.9,0-3.4-1.6-3.5-3.4c0-1.9,1.5-3.4,3.4-3.5
					C56.6,24.3,58.2,25.8,58.2,27.7z"/>
				<path class="st31" d="M76.6,44.8c1.9,0,3.5,1.5,3.5,3.4c0,1.9-1.6,3.5-3.5,3.5c-1.9,0-3.4-1.6-3.4-3.4
					C73.2,46.4,74.8,44.8,76.6,44.8z"/>
				<path class="st31" d="M56.1,50.6c-1,0-1.6,0-2.5,0c0.4-1.4,0.8-2.7,1.2-3.9c0.1,0,0.1,0,0.2,0C55.4,47.9,55.7,49.1,56.1,50.6z"
					/>
			</g>
			<g>
				<path class="st7" d="M156.1,37c-0.8-1.3-1.8-2.4-2.9-3.3c-1.2-0.9-2.5-1.7-4-2.2c-1.5-0.5-3-0.8-4.6-0.8c-3,0-5.5,0.6-7.5,1.7
					c-2.1,1.1-3.7,2.7-5,4.6c-1.3,1.9-2.2,4.1-2.8,6.6c-0.6,2.5-0.9,5-0.9,7.6c0,2.5,0.3,4.9,0.9,7.3c0.6,2.4,1.5,4.5,2.8,6.4
					c1.3,1.9,3,3.4,5,4.6c2.1,1.1,4.6,1.7,7.5,1.7c4,0,7.2-1.2,9.4-3.7c2.3-2.5,3.6-5.7,4.1-9.7h12.7c-0.3,3.7-1.2,7.1-2.6,10.1
					c-1.4,3-3.2,5.6-5.5,7.7c-2.3,2.1-5,3.7-8,4.9c-3.1,1.1-6.4,1.7-10.1,1.7c-4.6,0-8.7-0.8-12.3-2.4c-3.7-1.6-6.7-3.8-9.2-6.6
					c-2.5-2.8-4.4-6.1-5.8-9.8c-1.3-3.8-2-7.8-2-12.2c0-4.5,0.7-8.6,2-12.4c1.3-3.8,3.3-7.2,5.8-10c2.5-2.8,5.6-5.1,9.2-6.7
					c3.7-1.6,7.8-2.4,12.3-2.4c3.3,0,6.4,0.5,9.3,1.4c2.9,0.9,5.5,2.3,7.9,4.1c2.3,1.8,4.2,4.1,5.7,6.7c1.5,2.7,2.5,5.7,2.8,9.2
					h-12.7C157.3,39.7,156.8,38.3,156.1,37z"/>
				<path class="st7" d="M178.7,49.8c1.1-2.8,2.6-5.2,4.5-7.2c2-2,4.3-3.5,7-4.6s5.8-1.6,9.2-1.6c3.4,0,6.5,0.5,9.2,1.6
					s5.1,2.6,7.1,4.6c2,2,3.5,4.4,4.5,7.2c1.1,2.8,1.6,6,1.6,9.4c0,3.5-0.5,6.6-1.6,9.4c-1.1,2.8-2.6,5.2-4.5,7.2
					c-2,2-4.3,3.5-7.1,4.6s-5.8,1.6-9.2,1.6c-3.4,0-6.5-0.5-9.2-1.6s-5.1-2.6-7-4.6c-2-2-3.5-4.4-4.5-7.2c-1.1-2.8-1.6-5.9-1.6-9.4
					C177.1,55.8,177.7,52.7,178.7,49.8z M189.5,64.3c0.3,1.6,0.9,3.1,1.7,4.4c0.8,1.3,1.9,2.4,3.2,3.1c1.3,0.8,3,1.2,5,1.2
					c2,0,3.7-0.4,5.1-1.2c1.4-0.8,2.5-1.8,3.3-3.1c0.8-1.3,1.4-2.8,1.7-4.4c0.3-1.6,0.5-3.3,0.5-5.1c0-1.7-0.2-3.4-0.5-5.1
					c-0.3-1.7-0.9-3.1-1.7-4.4c-0.8-1.3-1.9-2.3-3.3-3.1c-1.4-0.8-3.1-1.2-5.1-1.2c-2,0-3.7,0.4-5,1.2c-1.3,0.8-2.4,1.9-3.2,3.1
					c-0.8,1.3-1.4,2.8-1.7,4.4c-0.3,1.7-0.5,3.4-0.5,5.1C189,61,189.2,62.7,189.5,64.3z"/>
				<path class="st7" d="M240.9,37.6v6h0.3c1.5-2.5,3.5-4.3,5.9-5.5c2.4-1.1,4.9-1.7,7.4-1.7c3.2,0,5.8,0.4,7.8,1.3
					c2,0.9,3.6,2.1,4.8,3.6c1.2,1.5,2,3.4,2.5,5.6c0.5,2.2,0.7,4.6,0.7,7.3v26.6h-11.9V56.4c0-3.6-0.6-6.2-1.7-8
					c-1.1-1.8-3.1-2.6-5.9-2.6c-3.2,0-5.6,1-7,2.9c-1.5,1.9-2.2,5.1-2.2,9.5v22.7h-11.9V37.6H240.9z"/>
				<path class="st7" d="M290.5,37.6v6h0.3c1.5-2.5,3.5-4.3,5.9-5.5c2.4-1.1,4.9-1.7,7.4-1.7c3.2,0,5.8,0.4,7.8,1.3
					c2,0.9,3.6,2.1,4.8,3.6c1.2,1.5,2,3.4,2.5,5.6c0.5,2.2,0.7,4.6,0.7,7.3v26.6h-11.9V56.4c0-3.6-0.6-6.2-1.7-8
					c-1.1-1.8-3.1-2.6-5.9-2.6c-3.2,0-5.6,1-7,2.9c-1.5,1.9-2.2,5.1-2.2,9.5v22.7h-11.9V37.6H290.5z"/>
				<path class="st7" d="M341.5,70.5c1.8,1.7,4.3,2.6,7.7,2.6c2.4,0,4.5-0.6,6.2-1.8c1.7-1.2,2.8-2.5,3.2-3.8H369
					c-1.7,5.2-4.2,8.9-7.7,11.1c-3.5,2.2-7.6,3.3-12.5,3.3c-3.4,0-6.5-0.5-9.2-1.6c-2.7-1.1-5-2.6-6.9-4.6c-1.9-2-3.4-4.4-4.4-7.2
					c-1-2.8-1.5-5.9-1.5-9.2c0-3.2,0.5-6.2,1.6-9c1.1-2.8,2.6-5.2,4.5-7.2c2-2,4.3-3.6,7-4.8c2.7-1.2,5.7-1.8,9-1.8
					c3.7,0,6.9,0.7,9.6,2.1c2.7,1.4,5,3.3,6.7,5.7c1.8,2.4,3,5.1,3.8,8.2c0.8,3.1,1.1,6.3,0.8,9.6h-31.2
					C338.7,65.9,339.7,68.7,341.5,70.5z M354.9,47.7c-1.4-1.6-3.6-2.3-6.5-2.3c-1.9,0-3.5,0.3-4.7,1c-1.3,0.6-2.3,1.4-3,2.4
					c-0.8,0.9-1.3,2-1.6,3c-0.3,1.1-0.5,2-0.5,2.8h19.3C357.3,51.6,356.3,49.3,354.9,47.7z"/>
				<path class="st7" d="M397.4,45.4c-1.9,0-3.5,0.4-4.8,1.3c-1.3,0.9-2.3,2-3.1,3.3c-0.8,1.4-1.4,2.9-1.7,4.5
					c-0.3,1.6-0.5,3.3-0.5,4.9c0,1.6,0.2,3.2,0.5,4.8c0.3,1.6,0.9,3.1,1.6,4.4c0.8,1.3,1.8,2.4,3.1,3.2c1.3,0.8,2.8,1.3,4.7,1.3
					c2.8,0,5-0.8,6.6-2.4c1.5-1.6,2.5-3.7,2.9-6.4h11.5c-0.8,5.7-3,10.1-6.7,13.1s-8.4,4.5-14.1,4.5c-3.2,0-6.2-0.5-8.9-1.6
					c-2.7-1.1-5-2.6-6.9-4.6c-1.9-2-3.4-4.3-4.4-7c-1.1-2.7-1.6-5.7-1.6-8.9c0-3.3,0.5-6.5,1.5-9.3c1-2.9,2.4-5.4,4.3-7.4
					s4.2-3.7,6.9-4.9c2.7-1.2,5.9-1.8,9.4-1.8c2.6,0,5,0.3,7.4,1c2.4,0.7,4.5,1.7,6.4,3.1c1.9,1.4,3.4,3.1,4.6,5.1
					c1.2,2,1.8,4.4,2,7.2h-11.6C405.4,47.8,402.5,45.4,397.4,45.4z"/>
				<path class="st7" d="M448.5,37.6v7.9h-8.7v21.4c0,2,0.3,3.3,1,4s2,1,4,1c0.7,0,1.3,0,1.9-0.1c0.6-0.1,1.2-0.1,1.8-0.3v9.2
					c-1,0.2-2.1,0.3-3.3,0.3c-1.2,0.1-2.4,0.1-3.6,0.1c-1.8,0-3.6-0.1-5.2-0.4s-3.1-0.7-4.3-1.5c-1.3-0.7-2.2-1.8-3-3.1
					c-0.7-1.3-1.1-3.1-1.1-5.3V45.5h-7.2v-7.9h7.2v-13h11.9v13H448.5z"/>
				<path class="st7" d="M514.7,80.8l-7.7-29h-0.2l-7.4,29h-12.3l-13.7-43.2H486l7.9,29.4h0.2l7.2-29.4h11.5l7.4,29.3h0.2l7.9-29.3
					h12.2l-13.6,43.2H514.7z"/>
				<path class="st7" d="M545.9,30.9v-9.8h11.9v9.8H545.9z M557.7,37.6v43.2h-11.9V37.6H557.7z"/>
				<path class="st7" d="M590.8,37.6v7.9h-8.7v21.4c0,2,0.3,3.3,1,4s2,1,4,1c0.7,0,1.3,0,1.9-0.1c0.6-0.1,1.2-0.1,1.8-0.3v9.2
					c-1,0.2-2.1,0.3-3.3,0.3c-1.2,0.1-2.4,0.1-3.6,0.1c-1.8,0-3.6-0.1-5.2-0.4s-3.1-0.7-4.3-1.5c-1.3-0.7-2.2-1.8-3-3.1
					c-0.7-1.3-1.1-3.1-1.1-5.3V45.5h-7.2v-7.9h7.2v-13h11.9v13H590.8z"/>
				<path class="st7" d="M608.4,21.1v22.5h0.3c1.5-2.5,3.4-4.3,5.8-5.5s4.6-1.7,6.9-1.7c3.2,0,5.8,0.4,7.8,1.3
					c2,0.9,3.6,2.1,4.8,3.6c1.2,1.5,2,3.4,2.5,5.6c0.5,2.2,0.7,4.6,0.7,7.3v26.6h-11.9V56.4c0-3.6-0.6-6.2-1.7-8
					c-1.1-1.8-3.1-2.6-5.9-2.6c-3.2,0-5.6,1-7,2.9c-1.5,1.9-2.2,5.1-2.2,9.5v22.7h-11.9V21.1H608.4z"/>
				<path class="st7" d="M698.6,80.8v-6h-0.3c-1.5,2.5-3.5,4.3-5.9,5.4c-2.4,1.1-4.9,1.7-7.4,1.7c-3.2,0-5.8-0.4-7.8-1.3
					c-2-0.8-3.6-2-4.8-3.6c-1.2-1.5-2-3.4-2.5-5.6c-0.5-2.2-0.7-4.6-0.7-7.3V37.6h11.9V62c0,3.6,0.6,6.2,1.7,8
					c1.1,1.8,3.1,2.6,5.9,2.6c3.2,0,5.6-1,7-2.9c1.4-1.9,2.2-5.1,2.2-9.5V37.6h11.9v43.2H698.6z"/>
				<path class="st7" d="M729,70.1c0.5,0.9,1.2,1.7,2,2.3c0.8,0.6,1.8,1,2.9,1.3c1.1,0.3,2.2,0.4,3.4,0.4c0.8,0,1.7-0.1,2.6-0.3
					s1.8-0.5,2.5-0.9c0.8-0.4,1.4-1,1.9-1.7c0.5-0.7,0.8-1.6,0.8-2.6c0-1.8-1.2-3.1-3.6-4c-2.4-0.9-5.7-1.8-9.9-2.7
					c-1.7-0.4-3.4-0.8-5.1-1.4c-1.6-0.5-3.1-1.2-4.4-2.1c-1.3-0.9-2.3-2-3.1-3.3c-0.8-1.3-1.2-2.9-1.2-4.8c0-2.8,0.5-5.1,1.6-6.9
					c1.1-1.8,2.5-3.2,4.3-4.2c1.8-1,3.8-1.8,6-2.2c2.2-0.4,4.5-0.6,6.9-0.6s4.6,0.2,6.8,0.7c2.2,0.4,4.2,1.2,5.9,2.3
					c1.7,1.1,3.2,2.5,4.3,4.2c1.1,1.8,1.8,4,2,6.6h-11.3c-0.2-2.3-1-3.8-2.6-4.6c-1.6-0.8-3.4-1.2-5.5-1.2c-0.7,0-1.4,0-2.2,0.1
					c-0.8,0.1-1.5,0.3-2.1,0.5c-0.6,0.3-1.2,0.7-1.6,1.2c-0.4,0.5-0.7,1.2-0.7,2.1c0,1.1,0.4,1.9,1.2,2.6c0.8,0.7,1.8,1.2,3.1,1.6
					c1.3,0.4,2.7,0.8,4.3,1.1c1.6,0.3,3.3,0.7,4.9,1.1c1.7,0.4,3.4,0.9,5.1,1.4c1.6,0.6,3.1,1.3,4.4,2.2c1.3,0.9,2.3,2.1,3.1,3.4
					c0.8,1.4,1.2,3.1,1.2,5.1c0,2.8-0.6,5.2-1.7,7.2c-1.1,1.9-2.6,3.5-4.5,4.6s-3.9,2-6.3,2.5c-2.4,0.5-4.8,0.7-7.2,0.7
					c-2.5,0-5-0.3-7.4-0.8c-2.4-0.5-4.5-1.3-6.4-2.5c-1.9-1.2-3.4-2.7-4.6-4.6c-1.2-1.9-1.9-4.3-2-7.2h11.3
					C728.2,68.1,728.4,69.2,729,70.1z"/>
				<path class="st7" d="M777.6,67.9v12.9h-13.1V67.9H777.6z M773.9,62.9H768l-3.2-25.8V21.1h12.4v16.1L773.9,62.9z"/>
			</g>
		</g>
	</g>
</g>
<g id="guides" class="st63">
</g>
</svg>
