<?xml version="1.0" encoding="utf-8"?>
<!-- Generator: Adobe Illustrator 19.1.0, SVG Export Plug-In . SVG Version: 6.00 Build 0)  -->
<!DOCTYPE svg PUBLIC "-//W3C//DTD SVG 1.1//EN" "http://www.w3.org/Graphics/SVG/1.1/DTD/svg11.dtd" [
	<!ENTITY ns_extend "http://ns.adobe.com/Extensibility/1.0/">
	<!ENTITY ns_ai "http://ns.adobe.com/AdobeIllustrator/10.0/">
	<!ENTITY ns_graphs "http://ns.adobe.com/Graphs/1.0/">
	<!ENTITY ns_vars "http://ns.adobe.com/Variables/1.0/">
	<!ENTITY ns_imrep "http://ns.adobe.com/ImageReplacement/1.0/">
	<!ENTITY ns_sfw "http://ns.adobe.com/SaveForWeb/1.0/">
	<!ENTITY ns_custom "http://ns.adobe.com/GenericCustomNamespace/1.0/">
	<!ENTITY ns_adobe_xpath "http://ns.adobe.com/XPath/1.0/">
]>
<svg version="1.1" id="Layer_1" xmlns:x="&ns_extend;" xmlns:i="&ns_ai;" xmlns:graph="&ns_graphs;"
	 xmlns="http://www.w3.org/2000/svg" xmlns:xlink="http://www.w3.org/1999/xlink" x="0px" y="0px" width="838.7px" height="207px"
	 viewBox="-38 199.7 838.7 207" style="enable-background:new -38 199.7 838.7 207;" xml:space="preserve">
<style type="text/css">
	.st0{fill:#E63C2F;}
	.st1{fill:#FFFFFF;}
</style>
<metadata>
	<sfw  xmlns="&ns_sfw;">
		<slices></slices>
		<sliceSourceBounds  width="826.1" height="190.3" bottomLeftOrigin="true" x="-34.7" y="20.6"></sliceSourceBounds>
		<optimizationSettings>
			<targetSettings  targetSettingsID="0" fileFormat="JPEGFormat">
				
					<JPEGFormat  quality="60" blurAmount="0" embedICCProfile="false" optimized="true" matteColor="#FFFFFF" noMatteColor="false" progressive="false">
					</JPEGFormat>
			</targetSettings>
		</optimizationSettings>
	</sfw>
</metadata>
<g>
	<g>
		<g>
			<g>
				<path class="st0" d="M-4.8,367.4h-18.8c-3.3,0-5.9,2.7-5.9,5.9v6.3v12.6c0,3.3,2.7,5.9,5.9,5.9h18.8c3.3,0,5.9-2.7,5.9-5.9
					v-12.6v-6.3C1.1,370.1-1.6,367.4-4.8,367.4z M-3.1,371l0.7,0v0.7v4.5l-5.2,0l0-5.2L-3.1,371z M-18.6,379.6
					c1-1.4,2.6-2.3,4.4-2.3s3.4,0.9,4.4,2.3c0.6,0.9,1,2,1,3.2c0,3-2.4,5.4-5.4,5.4c-3,0-5.4-2.4-5.4-5.4
					C-19.7,381.6-19.3,380.5-18.6,379.6z M-1.9,392.2c0,1.6-1.3,2.9-2.9,2.9h-18.8c-1.6,0-2.9-1.3-2.9-2.9v-12.6h4.6
					c-0.4,1-0.6,2-0.6,3.2c0,4.6,3.8,8.4,8.4,8.4c4.6,0,8.4-3.8,8.4-8.4c0-1.1-0.2-2.2-0.6-3.2h4.6V392.2z"/>
				<g>
					<path class="st1" d="M26.2,392.6l-3.3-13.2h-0.1l-3.2,13.2h-4.3l-5.1-19.4h4.3l3.1,13.2h0.1l3.4-13.2h4l3.3,13.4h0.1l3.2-13.4
						h4.2l-5.2,19.4H26.2z"/>
					<path class="st1" d="M35.7,382.5c0.3-0.9,0.8-1.7,1.5-2.3c0.6-0.6,1.4-1.1,2.3-1.5s1.9-0.5,3-0.5c1.1,0,2.1,0.2,3,0.5
						c0.9,0.4,1.7,0.9,2.3,1.5s1.1,1.4,1.5,2.3c0.3,0.9,0.5,1.9,0.5,3.1c0,1.1-0.2,2.1-0.5,3c-0.3,0.9-0.8,1.7-1.5,2.3
						s-1.4,1.1-2.3,1.5c-0.9,0.3-1.9,0.5-3,0.5c-1.1,0-2.1-0.2-3-0.5c-0.9-0.3-1.7-0.8-2.3-1.5c-0.6-0.6-1.1-1.4-1.5-2.3
						c-0.3-0.9-0.5-1.9-0.5-3C35.2,384.5,35.4,383.5,35.7,382.5z M39.2,387.2c0.1,0.5,0.3,1,0.6,1.4c0.3,0.4,0.6,0.8,1,1
						c0.4,0.3,1,0.4,1.6,0.4c0.7,0,1.2-0.1,1.6-0.4s0.8-0.6,1.1-1c0.3-0.4,0.4-0.9,0.6-1.4c0.1-0.5,0.2-1.1,0.2-1.6
						c0-0.6-0.1-1.1-0.2-1.7s-0.3-1-0.6-1.4c-0.3-0.4-0.6-0.8-1.1-1s-1-0.4-1.6-0.4c-0.7,0-1.2,0.1-1.6,0.4c-0.4,0.3-0.8,0.6-1,1
						c-0.3,0.4-0.4,0.9-0.6,1.4c-0.1,0.5-0.2,1.1-0.2,1.7C39,386.2,39.1,386.7,39.2,387.2z"/>
					<path class="st1" d="M64.3,392.6l-2.5-9.4h-0.1l-2.4,9.4h-4l-4.5-14.1H55l2.6,9.5h0.1l2.3-9.5h3.8l2.4,9.5h0.1l2.6-9.5h4
						l-4.4,14.1H64.3z"/>
					<path class="st1" d="M83.9,373.2c0.9,0,1.8,0.1,2.5,0.2c0.8,0.2,1.4,0.4,2,0.8c0.5,0.4,1,0.9,1.3,1.5c0.3,0.6,0.4,1.4,0.4,2.3
						c0,1-0.2,1.8-0.7,2.4c-0.4,0.7-1.1,1.2-2,1.6c1.2,0.3,2.1,0.9,2.7,1.8c0.6,0.9,0.9,1.9,0.9,3.1c0,1-0.2,1.8-0.6,2.5
						c-0.4,0.7-0.9,1.3-1.5,1.8c-0.6,0.5-1.4,0.8-2.2,1c-0.8,0.2-1.7,0.3-2.5,0.3h-9.4v-19.4H83.9z M83.4,381.1
						c0.8,0,1.4-0.2,1.9-0.5c0.5-0.4,0.7-1,0.7-1.8c0-0.5-0.1-0.8-0.2-1.1s-0.4-0.5-0.7-0.7c-0.3-0.2-0.6-0.3-0.9-0.3
						c-0.4-0.1-0.7-0.1-1.1-0.1h-4v4.5H83.4z M83.6,389.3c0.4,0,0.8,0,1.2-0.1c0.4-0.1,0.7-0.2,1-0.4c0.3-0.2,0.5-0.4,0.7-0.8
						c0.2-0.3,0.3-0.7,0.3-1.3c0-1-0.3-1.7-0.8-2.1c-0.6-0.4-1.3-0.6-2.2-0.6h-4.7v5.3H83.6z"/>
					<path class="st1" d="M93.4,382.9c0.1-0.9,0.3-1.7,0.7-2.3c0.4-0.6,0.9-1.1,1.5-1.4c0.6-0.4,1.3-0.6,2.1-0.8
						c0.8-0.2,1.5-0.2,2.3-0.2c0.7,0,1.4,0,2.1,0.1s1.4,0.3,2,0.6c0.6,0.3,1.1,0.7,1.5,1.2s0.6,1.2,0.6,2.1v7.3c0,0.6,0,1.2,0.1,1.8
						c0.1,0.6,0.2,1,0.4,1.3h-3.9c-0.1-0.2-0.1-0.4-0.2-0.7c0-0.2-0.1-0.5-0.1-0.7c-0.6,0.6-1.3,1.1-2.2,1.3s-1.7,0.4-2.6,0.4
						c-0.7,0-1.3-0.1-1.9-0.2c-0.6-0.2-1.1-0.4-1.5-0.8c-0.4-0.3-0.8-0.8-1-1.3c-0.2-0.5-0.4-1.2-0.4-1.9c0-0.8,0.1-1.5,0.4-2
						c0.3-0.5,0.6-0.9,1.1-1.2c0.4-0.3,1-0.5,1.5-0.7c0.6-0.2,1.1-0.3,1.7-0.4s1.2-0.2,1.7-0.2c0.6-0.1,1.1-0.1,1.5-0.2
						c0.4-0.1,0.8-0.3,1-0.5c0.3-0.2,0.4-0.5,0.4-0.9c0-0.4-0.1-0.7-0.2-1c-0.1-0.2-0.3-0.4-0.5-0.6s-0.5-0.2-0.8-0.3
						c-0.3,0-0.6-0.1-1-0.1c-0.8,0-1.4,0.2-1.8,0.5c-0.4,0.3-0.7,0.9-0.8,1.6H93.4z M102.3,385.7c-0.2,0.1-0.4,0.3-0.6,0.3
						c-0.2,0.1-0.5,0.1-0.8,0.2c-0.3,0.1-0.6,0.1-0.9,0.1c-0.3,0-0.6,0.1-0.9,0.1c-0.3,0.1-0.6,0.1-0.9,0.2s-0.5,0.2-0.7,0.4
						c-0.2,0.2-0.4,0.3-0.5,0.6s-0.2,0.5-0.2,0.9c0,0.3,0.1,0.6,0.2,0.9c0.1,0.2,0.3,0.4,0.5,0.6c0.2,0.1,0.5,0.2,0.8,0.3
						c0.3,0.1,0.6,0.1,0.9,0.1c0.8,0,1.4-0.1,1.8-0.4c0.4-0.3,0.7-0.6,0.9-0.9c0.2-0.4,0.3-0.7,0.4-1.1c0-0.4,0.1-0.7,0.1-0.9V385.7
						z"/>
					<path class="st1" d="M109.2,382.5c0.3-0.9,0.8-1.7,1.5-2.3c0.6-0.6,1.4-1.1,2.3-1.5s1.9-0.5,3-0.5c1.1,0,2.1,0.2,3,0.5
						c0.9,0.4,1.7,0.9,2.3,1.5s1.1,1.4,1.5,2.3c0.3,0.9,0.5,1.9,0.5,3.1c0,1.1-0.2,2.1-0.5,3c-0.3,0.9-0.8,1.7-1.5,2.3
						s-1.4,1.1-2.3,1.5c-0.9,0.3-1.9,0.5-3,0.5c-1.1,0-2.1-0.2-3-0.5c-0.9-0.3-1.7-0.8-2.3-1.5c-0.6-0.6-1.1-1.4-1.5-2.3
						c-0.3-0.9-0.5-1.9-0.5-3C108.7,384.5,108.9,383.5,109.2,382.5z M112.7,387.2c0.1,0.5,0.3,1,0.6,1.4c0.3,0.4,0.6,0.8,1,1
						c0.4,0.3,1,0.4,1.6,0.4c0.7,0,1.2-0.1,1.6-0.4s0.8-0.6,1.1-1c0.3-0.4,0.4-0.9,0.6-1.4c0.1-0.5,0.2-1.1,0.2-1.6
						c0-0.6-0.1-1.1-0.2-1.7s-0.3-1-0.6-1.4c-0.3-0.4-0.6-0.8-1.1-1s-1-0.4-1.6-0.4c-0.7,0-1.2,0.1-1.6,0.4c-0.4,0.3-0.8,0.6-1,1
						c-0.3,0.4-0.4,0.9-0.6,1.4c-0.1,0.5-0.2,1.1-0.2,1.7C112.6,386.2,112.6,386.7,112.7,387.2z"/>
				</g>
			</g>
			<g>
				<path class="st0" d="M180.2,370.7c-1.3,0.7-2.7,1.3-4.2,1.6c-1.2-1.3-2.9-2.1-4.8-2.1c-3.7,0-6.6,2.9-6.6,6.5
					c0,0.5,0.1,1,0.2,1.5c-5.5-0.3-10.4-2.9-13.6-6.8c-0.6,1-0.9,2.1-0.9,3.3c0,2.3,1.2,4.3,2.9,5.4c-1.1,0-2.1-0.3-3-0.8
					c0,0,0,0.1,0,0.1c0,3.2,2.3,5.8,5.3,6.4c-0.6,0.1-1.1,0.2-1.7,0.2c-0.4,0-0.8,0-1.2-0.1c0.8,2.6,3.3,4.5,6.2,4.5
					c-2.3,1.7-5.1,2.8-8.2,2.8c-0.5,0-1.1,0-1.6-0.1c2.9,1.8,6.4,2.9,10.1,2.9c12.2,0,18.8-9.9,18.8-18.5c0-0.3,0-0.6,0-0.8
					c1.3-0.9,2.4-2.1,3.3-3.4c-1.2,0.5-2.5,0.9-3.8,1C178.7,373.5,179.7,372.3,180.2,370.7z"/>
				<g>
					<path class="st1" d="M204,384.5c0,0.2-0.1,0.4-0.1,0.6c0,0.2,0,0.3,0.1,0.4c0.1,0.1,0.2,0.2,0.4,0.2c0.4,0,0.8-0.1,1.2-0.4
						c0.4-0.2,0.7-0.6,1-1c0.3-0.4,0.5-1,0.7-1.6c0.2-0.6,0.3-1.3,0.3-2c0-1.1-0.2-2-0.6-2.9s-0.9-1.5-1.6-2.1s-1.4-1-2.3-1.3
						s-1.9-0.4-2.9-0.4c-1.2,0-2.2,0.2-3.2,0.6s-1.8,1-2.4,1.7c-0.7,0.7-1.2,1.6-1.6,2.6c-0.4,1-0.5,2.1-0.5,3.2
						c0,1.2,0.2,2.3,0.6,3.2s1,1.8,1.7,2.5c0.7,0.7,1.6,1.2,2.5,1.6c1,0.4,2.1,0.6,3.2,0.6c1.1,0,2.2-0.2,3.2-0.6
						c1-0.4,1.9-0.9,2.6-1.6h2.3c-0.9,1.4-2.1,2.5-3.6,3.3c-1.5,0.8-3,1.1-4.7,1.1c-1.5,0-2.8-0.3-4.1-0.8c-1.3-0.5-2.4-1.2-3.3-2.1
						c-1-0.9-1.7-2-2.2-3.2s-0.8-2.6-0.8-4c0-1.4,0.3-2.8,0.8-4s1.3-2.3,2.2-3.2c0.9-0.9,2-1.6,3.3-2.1c1.3-0.5,2.6-0.8,4-0.8
						c1.2,0,2.4,0.2,3.6,0.6c1.1,0.4,2.1,1,3,1.7c0.9,0.7,1.6,1.6,2.1,2.6c0.5,1,0.8,2.2,0.8,3.4c0,1.4-0.2,2.6-0.7,3.6
						c-0.5,1-1.1,1.8-1.8,2.4c-0.7,0.6-1.4,1.1-2.1,1.4c-0.7,0.3-1.3,0.4-1.7,0.4c-0.6,0-1-0.1-1.4-0.4s-0.5-0.7-0.6-1.1h-0.1
						c-0.3,0.5-0.8,0.9-1.3,1.2c-0.5,0.3-1.1,0.4-1.7,0.4c-0.6,0-1.1-0.1-1.6-0.4c-0.5-0.2-1-0.6-1.4-1c-0.4-0.4-0.7-0.9-0.9-1.5
						c-0.2-0.6-0.3-1.2-0.3-1.8c0-0.9,0.1-1.7,0.4-2.5c0.3-0.8,0.7-1.6,1.2-2.2c0.5-0.7,1.1-1.2,1.9-1.6c0.7-0.4,1.5-0.6,2.4-0.6
						c0.6,0,1.2,0.1,1.8,0.4c0.6,0.3,1.1,0.8,1.4,1.5l0.4-1.5h2.2l-1.7,7C204.1,384.1,204,384.3,204,384.5z M197.4,384.8
						c0.4,0.4,0.9,0.7,1.5,0.7c0.5,0,0.9-0.1,1.3-0.4s0.8-0.6,1.1-1c0.3-0.4,0.5-0.8,0.7-1.3c0.2-0.5,0.2-1,0.2-1.4
						c0-0.7-0.2-1.2-0.6-1.7c-0.4-0.4-0.9-0.7-1.5-0.7c-0.5,0-0.9,0.1-1.4,0.4s-0.8,0.6-1.1,1c-0.3,0.4-0.5,0.8-0.7,1.3
						c-0.2,0.5-0.2,0.9-0.2,1.4C196.8,383.7,197,384.3,197.4,384.8z"/>
					<path class="st1" d="M221.7,372.3c0.9,0,1.8,0.1,2.5,0.2c0.8,0.2,1.4,0.4,2,0.8c0.5,0.4,1,0.9,1.3,1.5c0.3,0.6,0.4,1.4,0.4,2.3
						c0,1-0.2,1.8-0.7,2.4c-0.4,0.7-1.1,1.2-2,1.6c1.2,0.3,2.1,0.9,2.7,1.8c0.6,0.9,0.9,1.9,0.9,3.1c0,1-0.2,1.8-0.6,2.5
						c-0.4,0.7-0.9,1.3-1.5,1.8c-0.6,0.5-1.4,0.8-2.2,1c-0.8,0.2-1.7,0.3-2.5,0.3h-9.4v-19.4H221.7z M221.2,380.1
						c0.8,0,1.4-0.2,1.9-0.5c0.5-0.4,0.7-1,0.7-1.8c0-0.5-0.1-0.8-0.2-1.1s-0.4-0.5-0.7-0.7c-0.3-0.2-0.6-0.3-0.9-0.3
						c-0.4-0.1-0.7-0.1-1.1-0.1h-4v4.5H221.2z M221.4,388.4c0.4,0,0.8,0,1.2-0.1c0.4-0.1,0.7-0.2,1-0.4c0.3-0.2,0.5-0.4,0.7-0.8
						c0.2-0.3,0.3-0.7,0.3-1.3c0-1-0.3-1.7-0.8-2.1c-0.6-0.4-1.3-0.6-2.2-0.6h-4.7v5.3H221.4z"/>
					<path class="st1" d="M231.1,381.9c0.1-0.9,0.3-1.7,0.7-2.3c0.4-0.6,0.9-1.1,1.5-1.4c0.6-0.4,1.3-0.6,2.1-0.8
						c0.8-0.2,1.5-0.2,2.3-0.2c0.7,0,1.4,0,2.1,0.1s1.4,0.3,2,0.6c0.6,0.3,1.1,0.7,1.5,1.2s0.6,1.2,0.6,2.1v7.3c0,0.6,0,1.2,0.1,1.8
						c0.1,0.6,0.2,1,0.4,1.3h-3.9c-0.1-0.2-0.1-0.4-0.2-0.7c0-0.2-0.1-0.5-0.1-0.7c-0.6,0.6-1.3,1.1-2.2,1.3s-1.7,0.4-2.6,0.4
						c-0.7,0-1.3-0.1-1.9-0.2c-0.6-0.2-1.1-0.4-1.5-0.8c-0.4-0.3-0.8-0.8-1-1.3c-0.2-0.5-0.4-1.2-0.4-1.9c0-0.8,0.1-1.5,0.4-2
						c0.3-0.5,0.6-0.9,1.1-1.2c0.4-0.3,1-0.5,1.5-0.7c0.6-0.2,1.1-0.3,1.7-0.4s1.2-0.2,1.7-0.2c0.6-0.1,1.1-0.1,1.5-0.2
						c0.4-0.1,0.8-0.3,1-0.5c0.3-0.2,0.4-0.5,0.4-0.9c0-0.4-0.1-0.7-0.2-1c-0.1-0.2-0.3-0.4-0.5-0.6s-0.5-0.2-0.8-0.3
						c-0.3,0-0.6-0.1-1-0.1c-0.8,0-1.4,0.2-1.8,0.5c-0.4,0.3-0.7,0.9-0.8,1.6H231.1z M240.1,384.8c-0.2,0.1-0.4,0.3-0.6,0.3
						c-0.2,0.1-0.5,0.1-0.8,0.2c-0.3,0.1-0.6,0.1-0.9,0.1c-0.3,0-0.6,0.1-0.9,0.1c-0.3,0.1-0.6,0.1-0.9,0.2s-0.5,0.2-0.7,0.4
						c-0.2,0.2-0.4,0.3-0.5,0.6s-0.2,0.5-0.2,0.9c0,0.3,0.1,0.6,0.2,0.9c0.1,0.2,0.3,0.4,0.5,0.6c0.2,0.1,0.5,0.2,0.8,0.3
						c0.3,0.1,0.6,0.1,0.9,0.1c0.8,0,1.4-0.1,1.8-0.4c0.4-0.3,0.7-0.6,0.9-0.9c0.2-0.4,0.3-0.7,0.4-1.1c0-0.4,0.1-0.7,0.1-0.9V384.8
						z"/>
					<path class="st1" d="M247,381.6c0.3-0.9,0.8-1.7,1.5-2.3c0.6-0.6,1.4-1.1,2.3-1.5s1.9-0.5,3-0.5c1.1,0,2.1,0.2,3,0.5
						c0.9,0.4,1.7,0.9,2.3,1.5s1.1,1.4,1.5,2.3c0.3,0.9,0.5,1.9,0.5,3.1c0,1.1-0.2,2.1-0.5,3c-0.3,0.9-0.8,1.7-1.5,2.3
						s-1.4,1.1-2.3,1.5c-0.9,0.3-1.9,0.5-3,0.5c-1.1,0-2.1-0.2-3-0.5c-0.9-0.3-1.7-0.8-2.3-1.5c-0.6-0.6-1.1-1.4-1.5-2.3
						c-0.3-0.9-0.5-1.9-0.5-3C246.5,383.5,246.6,382.5,247,381.6z M250.5,386.3c0.1,0.5,0.3,1,0.6,1.4c0.3,0.4,0.6,0.8,1,1
						c0.4,0.3,1,0.4,1.6,0.4c0.7,0,1.2-0.1,1.6-0.4s0.8-0.6,1.1-1c0.3-0.4,0.4-0.9,0.6-1.4c0.1-0.5,0.2-1.1,0.2-1.6
						c0-0.6-0.1-1.1-0.2-1.7s-0.3-1-0.6-1.4c-0.3-0.4-0.6-0.8-1.1-1s-1-0.4-1.6-0.4c-0.7,0-1.2,0.1-1.6,0.4c-0.4,0.3-0.8,0.6-1,1
						c-0.3,0.4-0.4,0.9-0.6,1.4c-0.1,0.5-0.2,1.1-0.2,1.7C250.3,385.2,250.4,385.8,250.5,386.3z"/>
					<path class="st1" d="M269.9,372.3l4.5,13.4h0.1l4.3-13.4h6v19.4h-4v-13.8h-0.1l-4.8,13.8h-3.3l-4.8-13.6h-0.1v13.6h-4v-19.4
						H269.9z"/>
					<path class="st1" d="M288.3,381.6c0.3-0.9,0.8-1.7,1.5-2.3c0.6-0.6,1.4-1.1,2.3-1.5s1.9-0.5,3-0.5c1.1,0,2.1,0.2,3,0.5
						c0.9,0.4,1.7,0.9,2.3,1.5s1.1,1.4,1.5,2.3c0.3,0.9,0.5,1.9,0.5,3.1c0,1.1-0.2,2.1-0.5,3c-0.3,0.9-0.8,1.7-1.5,2.3
						s-1.4,1.1-2.3,1.5c-0.9,0.3-1.9,0.5-3,0.5c-1.1,0-2.1-0.2-3-0.5c-0.9-0.3-1.7-0.8-2.3-1.5c-0.6-0.6-1.1-1.4-1.5-2.3
						c-0.3-0.9-0.5-1.9-0.5-3C287.8,383.5,287.9,382.5,288.3,381.6z M291.8,386.3c0.1,0.5,0.3,1,0.6,1.4c0.3,0.4,0.6,0.8,1,1
						c0.4,0.3,1,0.4,1.6,0.4c0.7,0,1.2-0.1,1.6-0.4s0.8-0.6,1.1-1c0.3-0.4,0.4-0.9,0.6-1.4c0.1-0.5,0.2-1.1,0.2-1.6
						c0-0.6-0.1-1.1-0.2-1.7s-0.3-1-0.6-1.4c-0.3-0.4-0.6-0.8-1.1-1s-1-0.4-1.6-0.4c-0.7,0-1.2,0.1-1.6,0.4c-0.4,0.3-0.8,0.6-1,1
						c-0.3,0.4-0.4,0.9-0.6,1.4c-0.1,0.5-0.2,1.1-0.2,1.7C291.6,385.2,291.7,385.8,291.8,386.3z"/>
					<path class="st1" d="M314.3,391.7v-2h-0.1c-0.5,0.8-1.1,1.4-1.9,1.8c-0.8,0.4-1.6,0.5-2.4,0.5c-1,0-1.9-0.1-2.5-0.4
						c-0.7-0.3-1.2-0.7-1.6-1.2s-0.6-1.1-0.8-1.8c-0.2-0.7-0.2-1.5-0.2-2.4v-8.6h3.9v7.9c0,1.2,0.2,2,0.5,2.6c0.4,0.6,1,0.9,1.9,0.9
						c1.1,0,1.8-0.3,2.3-0.9c0.5-0.6,0.7-1.7,0.7-3.1v-7.4h3.9v14.1H314.3z"/>
					<path class="st1" d="M328.7,377.6v2.6h-2.8v7c0,0.7,0.1,1.1,0.3,1.3c0.2,0.2,0.7,0.3,1.3,0.3c0.2,0,0.4,0,0.6,0
						c0.2,0,0.4,0,0.6-0.1v3c-0.3,0.1-0.7,0.1-1.1,0.1c-0.4,0-0.8,0-1.2,0c-0.6,0-1.2,0-1.7-0.1c-0.5-0.1-1-0.2-1.4-0.5
						c-0.4-0.2-0.7-0.6-1-1c-0.2-0.4-0.4-1-0.4-1.7v-8.3h-2.3v-2.6h2.3v-4.2h3.9v4.2H328.7z"/>
					<path class="st1" d="M334.4,372.3v7.3h0.1c0.5-0.8,1.1-1.4,1.9-1.8c0.8-0.4,1.5-0.6,2.2-0.6c1,0,1.9,0.1,2.5,0.4
						c0.7,0.3,1.2,0.7,1.6,1.2c0.4,0.5,0.6,1.1,0.8,1.8c0.2,0.7,0.2,1.5,0.2,2.4v8.6h-3.9v-7.9c0-1.2-0.2-2-0.5-2.6
						c-0.4-0.6-1-0.9-1.9-0.9c-1.1,0-1.8,0.3-2.3,0.9s-0.7,1.7-0.7,3.1v7.4h-3.9v-19.4H334.4z"/>
				</g>
			</g>
			<g>
				<g>
					<path class="st0" d="M647,367.2h-21.1c-2.7,0-4.9,2.2-4.9,4.9v21.1c0,2.7,2.2,4.9,4.9,4.9H647c2.7,0,4.9-2.2,4.9-4.9v-21.1
						C651.9,369.4,649.7,367.2,647,367.2z M647.7,388.7c-0.1,0.3-0.7,0.8-2.9,1.1c-0.2,0-0.2,0.3-0.3,0.7c0,0.2-0.1,0.3-0.1,0.5
						c0,0.2-0.1,0.2-0.3,0.2h0c-0.1,0-0.3,0-0.5-0.1c-0.4-0.1-0.8-0.1-1.3-0.1c-0.3,0-0.6,0-0.9,0.1c-0.6,0.1-1.2,0.5-1.8,0.9
						c-0.8,0.6-1.7,1.2-3,1.2c-0.1,0-0.1,0-0.2,0h0c0,0-0.1,0-0.1,0c-1.3,0-2.2-0.6-3-1.2c-0.6-0.4-1.1-0.8-1.8-0.9
						c-0.3-0.1-0.6-0.1-0.9-0.1c-0.5,0-1,0.1-1.3,0.1c-0.2,0-0.4,0.1-0.5,0.1c-0.1,0-0.3,0-0.3-0.2c-0.1-0.2-0.1-0.4-0.1-0.5
						c-0.1-0.4-0.2-0.7-0.3-0.7c-2.1-0.3-2.7-0.8-2.9-1.1c0,0,0-0.1,0-0.1c0-0.1,0.1-0.2,0.2-0.2c3.3-0.5,4.7-3.9,4.8-4c0,0,0,0,0,0
						c0.2-0.4,0.2-0.8,0.1-1c-0.2-0.5-1-0.8-1.4-0.9c-0.1,0-0.2-0.1-0.3-0.1c-1-0.4-1-0.8-1-1c0.1-0.3,0.5-0.6,0.9-0.6
						c0.1,0,0.2,0,0.3,0.1c0.4,0.2,0.8,0.3,1.2,0.3c0.5,0,0.7-0.2,0.7-0.2c0-0.2,0-0.5,0-0.7c-0.1-1.5-0.2-3.5,0.3-4.6
						c1.5-3.3,4.6-3.5,5.5-3.5c0,0,0.4,0,0.4,0l0.1,0c0.9,0,4,0.3,5.5,3.5c0.5,1.1,0.4,3,0.3,4.6l0,0.1c0,0.2,0,0.4,0,0.6
						c0,0,0.2,0.2,0.6,0.2h0c0.3,0,0.7-0.1,1.1-0.3c0.1-0.1,0.3-0.1,0.3-0.1c0.1,0,0.3,0,0.4,0.1l0,0c0.3,0.1,0.5,0.3,0.5,0.6
						c0,0.2-0.2,0.6-1,0.9c-0.1,0-0.2,0.1-0.3,0.1c-0.5,0.2-1.2,0.4-1.4,0.9c-0.1,0.3-0.1,0.6,0.1,1c0,0,0,0,0,0
						c0.1,0.1,1.5,3.5,4.8,4c0.1,0,0.2,0.1,0.2,0.2C647.7,388.6,647.7,388.7,647.7,388.7z"/>
				</g>
				<g>
					<path class="st1" d="M672.4,373.5c0.9,0,1.8,0.1,2.5,0.2c0.8,0.2,1.4,0.4,2,0.8c0.5,0.4,1,0.9,1.3,1.5c0.3,0.6,0.4,1.4,0.4,2.3
						c0,1-0.2,1.8-0.7,2.4c-0.4,0.7-1.1,1.2-2,1.6c1.2,0.3,2.1,0.9,2.7,1.8c0.6,0.9,0.9,1.9,0.9,3.1c0,1-0.2,1.8-0.6,2.5
						c-0.4,0.7-0.9,1.3-1.5,1.8c-0.6,0.5-1.4,0.8-2.2,1c-0.8,0.2-1.7,0.3-2.5,0.3h-9.4v-19.4H672.4z M671.9,381.3
						c0.8,0,1.4-0.2,1.9-0.5c0.5-0.4,0.7-1,0.7-1.8c0-0.5-0.1-0.8-0.2-1.1s-0.4-0.5-0.7-0.7c-0.3-0.2-0.6-0.3-0.9-0.3
						c-0.4-0.1-0.7-0.1-1.1-0.1h-4v4.5H671.9z M672.1,389.6c0.4,0,0.8,0,1.2-0.1c0.4-0.1,0.7-0.2,1-0.4c0.3-0.2,0.5-0.4,0.7-0.8
						c0.2-0.3,0.3-0.7,0.3-1.3c0-1-0.3-1.7-0.8-2.1c-0.6-0.4-1.3-0.6-2.2-0.6h-4.7v5.3H672.1z"/>
					<path class="st1" d="M681.8,383.1c0.1-0.9,0.3-1.7,0.7-2.3c0.4-0.6,0.9-1.1,1.5-1.4c0.6-0.4,1.3-0.6,2.1-0.8
						c0.8-0.2,1.5-0.2,2.3-0.2c0.7,0,1.4,0,2.1,0.1s1.4,0.3,2,0.6c0.6,0.3,1.1,0.7,1.5,1.2s0.6,1.2,0.6,2.1v7.3c0,0.6,0,1.2,0.1,1.8
						c0.1,0.6,0.2,1,0.4,1.3h-3.9c-0.1-0.2-0.1-0.4-0.2-0.7c0-0.2-0.1-0.5-0.1-0.7c-0.6,0.6-1.3,1.1-2.2,1.3s-1.7,0.4-2.6,0.4
						c-0.7,0-1.3-0.1-1.9-0.2c-0.6-0.2-1.1-0.4-1.5-0.8c-0.4-0.3-0.8-0.8-1-1.3c-0.2-0.5-0.4-1.2-0.4-1.9c0-0.8,0.1-1.5,0.4-2
						c0.3-0.5,0.6-0.9,1.1-1.2c0.4-0.3,1-0.5,1.5-0.7c0.6-0.2,1.1-0.3,1.7-0.4s1.2-0.2,1.7-0.2c0.6-0.1,1.1-0.1,1.5-0.2
						c0.4-0.1,0.8-0.3,1-0.5c0.3-0.2,0.4-0.5,0.4-0.9c0-0.4-0.1-0.7-0.2-1c-0.1-0.2-0.3-0.4-0.5-0.6s-0.5-0.2-0.8-0.3
						c-0.3,0-0.6-0.1-1-0.1c-0.8,0-1.4,0.2-1.8,0.5c-0.4,0.3-0.7,0.9-0.8,1.6H681.8z M690.8,386c-0.2,0.1-0.4,0.3-0.6,0.3
						c-0.2,0.1-0.5,0.1-0.8,0.2c-0.3,0.1-0.6,0.1-0.9,0.1c-0.3,0-0.6,0.1-0.9,0.1c-0.3,0.1-0.6,0.1-0.9,0.2s-0.5,0.2-0.7,0.4
						c-0.2,0.2-0.4,0.3-0.5,0.6s-0.2,0.5-0.2,0.9c0,0.3,0.1,0.6,0.2,0.9c0.1,0.2,0.3,0.4,0.5,0.6c0.2,0.1,0.5,0.2,0.8,0.3
						c0.3,0.1,0.6,0.1,0.9,0.1c0.8,0,1.4-0.1,1.8-0.4c0.4-0.3,0.7-0.6,0.9-0.9c0.2-0.4,0.3-0.7,0.4-1.1c0-0.4,0.1-0.7,0.1-0.9V386z"
						/>
					<path class="st1" d="M697.7,382.8c0.3-0.9,0.8-1.7,1.5-2.3c0.6-0.6,1.4-1.1,2.3-1.5s1.9-0.5,3-0.5c1.1,0,2.1,0.2,3,0.5
						c0.9,0.4,1.7,0.9,2.3,1.5s1.1,1.4,1.5,2.3c0.3,0.9,0.5,1.9,0.5,3.1c0,1.1-0.2,2.1-0.5,3c-0.3,0.9-0.8,1.7-1.5,2.3
						s-1.4,1.1-2.3,1.5c-0.9,0.3-1.9,0.5-3,0.5c-1.1,0-2.1-0.2-3-0.5c-0.9-0.3-1.7-0.8-2.3-1.5c-0.6-0.6-1.1-1.4-1.5-2.3
						c-0.3-0.9-0.5-1.9-0.5-3C697.2,384.7,697.3,383.7,697.7,382.8z M701.2,387.5c0.1,0.5,0.3,1,0.6,1.4c0.3,0.4,0.6,0.8,1,1
						c0.4,0.3,1,0.4,1.6,0.4c0.7,0,1.2-0.1,1.6-0.4s0.8-0.6,1.1-1c0.3-0.4,0.4-0.9,0.6-1.4c0.1-0.5,0.2-1.1,0.2-1.6
						c0-0.6-0.1-1.1-0.2-1.7s-0.3-1-0.6-1.4c-0.3-0.4-0.6-0.8-1.1-1s-1-0.4-1.6-0.4c-0.7,0-1.2,0.1-1.6,0.4c-0.4,0.3-0.8,0.6-1,1
						c-0.3,0.4-0.4,0.9-0.6,1.4c-0.1,0.5-0.2,1.1-0.2,1.7C701,386.4,701.1,387,701.2,387.5z"/>
					<path class="st1" d="M720.6,373.5l4.5,13.4h0.1l4.3-13.4h6v19.4h-4v-13.8h-0.1l-4.8,13.8h-3.3l-4.8-13.6h-0.1v13.6h-4v-19.4
						H720.6z"/>
					<path class="st1" d="M739,382.8c0.3-0.9,0.8-1.7,1.5-2.3c0.6-0.6,1.4-1.1,2.3-1.5s1.9-0.5,3-0.5c1.1,0,2.1,0.2,3,0.5
						c0.9,0.4,1.7,0.9,2.3,1.5s1.1,1.4,1.5,2.3c0.3,0.9,0.5,1.9,0.5,3.1c0,1.1-0.2,2.1-0.5,3c-0.3,0.9-0.8,1.7-1.5,2.3
						s-1.4,1.1-2.3,1.5c-0.9,0.3-1.9,0.5-3,0.5c-1.1,0-2.1-0.2-3-0.5c-0.9-0.3-1.7-0.8-2.3-1.5c-0.6-0.6-1.1-1.4-1.5-2.3
						c-0.3-0.9-0.5-1.9-0.5-3C738.5,384.7,738.6,383.7,739,382.8z M742.5,387.5c0.1,0.5,0.3,1,0.6,1.4c0.3,0.4,0.6,0.8,1,1
						c0.4,0.3,1,0.4,1.6,0.4c0.7,0,1.2-0.1,1.6-0.4s0.8-0.6,1.1-1c0.3-0.4,0.4-0.9,0.6-1.4c0.1-0.5,0.2-1.1,0.2-1.6
						c0-0.6-0.1-1.1-0.2-1.7s-0.3-1-0.6-1.4c-0.3-0.4-0.6-0.8-1.1-1s-1-0.4-1.6-0.4c-0.7,0-1.2,0.1-1.6,0.4c-0.4,0.3-0.8,0.6-1,1
						c-0.3,0.4-0.4,0.9-0.6,1.4c-0.1,0.5-0.2,1.1-0.2,1.7C742.3,386.4,742.4,387,742.5,387.5z"/>
					<path class="st1" d="M765,392.9v-2H765c-0.5,0.8-1.1,1.4-1.9,1.8c-0.8,0.4-1.6,0.5-2.4,0.5c-1,0-1.9-0.1-2.5-0.4
						c-0.7-0.3-1.2-0.7-1.6-1.2s-0.6-1.1-0.8-1.8c-0.2-0.7-0.2-1.5-0.2-2.4v-8.6h3.9v7.9c0,1.2,0.2,2,0.5,2.6c0.4,0.6,1,0.9,1.9,0.9
						c1.1,0,1.8-0.3,2.3-0.9c0.5-0.6,0.7-1.7,0.7-3.1v-7.4h3.9v14.1H765z"/>
					<path class="st1" d="M779.4,378.8v2.6h-2.8v7c0,0.7,0.1,1.1,0.3,1.3c0.2,0.2,0.7,0.3,1.3,0.3c0.2,0,0.4,0,0.6,0
						c0.2,0,0.4,0,0.6-0.1v3c-0.3,0.1-0.7,0.1-1.1,0.1c-0.4,0-0.8,0-1.2,0c-0.6,0-1.2,0-1.7-0.1c-0.5-0.1-1-0.2-1.4-0.5
						c-0.4-0.2-0.7-0.6-1-1c-0.2-0.4-0.4-1-0.4-1.7v-8.3h-2.3v-2.6h2.3v-4.2h3.9v4.2H779.4z"/>
					<path class="st1" d="M785.1,373.5v7.3h0.1c0.5-0.8,1.1-1.4,1.9-1.8c0.8-0.4,1.5-0.6,2.2-0.6c1,0,1.9,0.1,2.5,0.4
						c0.7,0.3,1.2,0.7,1.6,1.2c0.4,0.5,0.6,1.1,0.8,1.8c0.2,0.7,0.2,1.5,0.2,2.4v8.6h-3.9v-7.9c0-1.2-0.2-2-0.5-2.6
						c-0.4-0.6-1-0.9-1.9-0.9c-1.1,0-1.8,0.3-2.3,0.9s-0.7,1.7-0.7,3.1v7.4h-3.9v-19.4H785.1z"/>
				</g>
			</g>
			<g>
				<path class="st0" d="M399.2,366.9h-21.9c-2.7,0-4.8,2.2-4.8,4.8v21.9c0,2.7,2.2,4.8,4.8,4.8h12v-12.2h-4.1v-4.8h4.1v-3.5
					c0-4.1,2.5-6.3,6.1-6.3c1.7,0,3.2,0.1,3.7,0.2v4.3l-2.5,0c-2,0-2.4,0.9-2.4,2.3v3h4.7l-0.6,4.8h-4.1v12.2h4.9
					c2.7,0,4.8-2.2,4.8-4.8v-21.9C404,369,401.9,366.9,399.2,366.9z"/>
				<g>
					<path class="st1" d="M418.3,373.8v7.5h7.9v-7.5h4.3v19.4h-4.3v-8.4h-7.9v8.4h-4.3v-19.4H418.3z"/>
					<path class="st1" d="M433.9,383.1c0.3-0.9,0.8-1.7,1.5-2.3c0.6-0.6,1.4-1.1,2.3-1.5s1.9-0.5,3-0.5c1.1,0,2.1,0.2,3,0.5
						c0.9,0.4,1.7,0.9,2.3,1.5s1.1,1.4,1.5,2.3c0.3,0.9,0.5,1.9,0.5,3.1c0,1.1-0.2,2.1-0.5,3c-0.3,0.9-0.8,1.7-1.5,2.3
						s-1.4,1.1-2.3,1.5c-0.9,0.3-1.9,0.5-3,0.5c-1.1,0-2.1-0.2-3-0.5c-0.9-0.3-1.7-0.8-2.3-1.5c-0.6-0.6-1.1-1.4-1.5-2.3
						c-0.3-0.9-0.5-1.9-0.5-3C433.4,385,433.5,384,433.9,383.1z M437.4,387.8c0.1,0.5,0.3,1,0.6,1.4c0.3,0.4,0.6,0.8,1,1
						c0.4,0.3,1,0.4,1.6,0.4c0.7,0,1.2-0.1,1.6-0.4s0.8-0.6,1.1-1c0.3-0.4,0.4-0.9,0.6-1.4c0.1-0.5,0.2-1.1,0.2-1.6
						c0-0.6-0.1-1.1-0.2-1.7s-0.3-1-0.6-1.4c-0.3-0.4-0.6-0.8-1.1-1s-1-0.4-1.6-0.4c-0.7,0-1.2,0.1-1.6,0.4c-0.4,0.3-0.8,0.6-1,1
						c-0.3,0.4-0.4,0.9-0.6,1.4c-0.1,0.5-0.2,1.1-0.2,1.7C437.2,386.7,437.3,387.3,437.4,387.8z"/>
					<path class="st1" d="M458.1,379.1v2.6h-2.8v7c0,0.7,0.1,1.1,0.3,1.3c0.2,0.2,0.7,0.3,1.3,0.3c0.2,0,0.4,0,0.6,0
						c0.2,0,0.4,0,0.6-0.1v3c-0.3,0.1-0.7,0.1-1.1,0.1c-0.4,0-0.8,0-1.2,0c-0.6,0-1.2,0-1.7-0.1c-0.5-0.1-1-0.2-1.4-0.5
						c-0.4-0.2-0.7-0.6-1-1c-0.2-0.4-0.4-1-0.4-1.7v-8.3h-2.3v-2.6h2.3v-4.2h3.9v4.2H458.1z"/>
					<path class="st1" d="M470.1,373.8l7.3,19.4h-4.4l-1.5-4.3h-7.3l-1.5,4.3h-4.3l7.3-19.4H470.1z M470.3,385.7l-2.4-7.1h-0.1
						l-2.5,7.1H470.3z"/>
					<path class="st1" d="M481.9,389.7c0.2,0.3,0.4,0.5,0.7,0.7c0.3,0.2,0.6,0.3,0.9,0.4c0.4,0.1,0.7,0.1,1.1,0.1
						c0.3,0,0.6,0,0.9-0.1c0.3-0.1,0.6-0.2,0.8-0.3c0.2-0.1,0.4-0.3,0.6-0.5c0.2-0.2,0.2-0.5,0.2-0.9c0-0.6-0.4-1-1.2-1.3
						s-1.8-0.6-3.2-0.9c-0.6-0.1-1.1-0.3-1.6-0.4c-0.5-0.2-1-0.4-1.4-0.7s-0.8-0.6-1-1.1s-0.4-0.9-0.4-1.6c0-0.9,0.2-1.6,0.5-2.2
						c0.4-0.6,0.8-1,1.4-1.4s1.2-0.6,2-0.7c0.7-0.1,1.5-0.2,2.2-0.2c0.8,0,1.5,0.1,2.2,0.2c0.7,0.1,1.4,0.4,1.9,0.7
						c0.6,0.3,1,0.8,1.4,1.4c0.4,0.6,0.6,1.3,0.7,2.2h-3.7c-0.1-0.7-0.3-1.2-0.8-1.5c-0.5-0.3-1.1-0.4-1.8-0.4c-0.2,0-0.5,0-0.7,0
						c-0.3,0-0.5,0.1-0.7,0.2c-0.2,0.1-0.4,0.2-0.5,0.4c-0.1,0.2-0.2,0.4-0.2,0.7c0,0.3,0.1,0.6,0.4,0.8s0.6,0.4,1,0.5
						c0.4,0.1,0.9,0.3,1.4,0.4c0.5,0.1,1.1,0.2,1.6,0.4c0.6,0.1,1.1,0.3,1.6,0.5c0.5,0.2,1,0.4,1.4,0.7c0.4,0.3,0.8,0.7,1,1.1
						s0.4,1,0.4,1.6c0,0.9-0.2,1.7-0.6,2.3c-0.4,0.6-0.9,1.1-1.5,1.5c-0.6,0.4-1.3,0.6-2.1,0.8c-0.8,0.2-1.6,0.2-2.4,0.2
						c-0.8,0-1.6-0.1-2.4-0.2c-0.8-0.2-1.5-0.4-2.1-0.8s-1.1-0.9-1.5-1.5s-0.6-1.4-0.6-2.4h3.7C481.6,389,481.7,389.4,481.9,389.7z"
						/>
					<path class="st1" d="M493.3,377v-3.2h3.9v3.2H493.3z M497.2,379.1v14.1h-3.9v-14.1H497.2z"/>
					<path class="st1" d="M500.1,383.5c0.1-0.9,0.3-1.7,0.7-2.3c0.4-0.6,0.9-1.1,1.5-1.4c0.6-0.4,1.3-0.6,2.1-0.8
						c0.8-0.2,1.5-0.2,2.3-0.2c0.7,0,1.4,0,2.1,0.1s1.4,0.3,2,0.6c0.6,0.3,1.1,0.7,1.5,1.2c0.4,0.5,0.6,1.2,0.6,2.1v7.3
						c0,0.6,0,1.2,0.1,1.8c0.1,0.6,0.2,1,0.4,1.3h-3.9c-0.1-0.2-0.1-0.4-0.2-0.7c0-0.2-0.1-0.5-0.1-0.7c-0.6,0.6-1.3,1.1-2.2,1.3
						s-1.7,0.4-2.6,0.4c-0.7,0-1.3-0.1-1.9-0.2c-0.6-0.2-1.1-0.4-1.5-0.8c-0.4-0.3-0.8-0.8-1-1.3c-0.2-0.5-0.4-1.2-0.4-1.9
						c0-0.8,0.1-1.5,0.4-2c0.3-0.5,0.6-0.9,1.1-1.2c0.4-0.3,1-0.5,1.5-0.7c0.6-0.2,1.1-0.3,1.7-0.4s1.2-0.2,1.7-0.2
						c0.6-0.1,1.1-0.1,1.5-0.2c0.4-0.1,0.8-0.3,1-0.5c0.3-0.2,0.4-0.5,0.4-0.9c0-0.4-0.1-0.7-0.2-1c-0.1-0.2-0.3-0.4-0.5-0.6
						s-0.5-0.2-0.8-0.3c-0.3,0-0.6-0.1-1-0.1c-0.8,0-1.4,0.2-1.8,0.5c-0.4,0.3-0.7,0.9-0.8,1.6H500.1z M509,386.3
						c-0.2,0.1-0.4,0.3-0.6,0.3c-0.2,0.1-0.5,0.1-0.8,0.2c-0.3,0.1-0.6,0.1-0.9,0.1c-0.3,0-0.6,0.1-0.9,0.1
						c-0.3,0.1-0.6,0.1-0.9,0.2s-0.5,0.2-0.7,0.4c-0.2,0.2-0.4,0.3-0.5,0.6s-0.2,0.5-0.2,0.9c0,0.3,0.1,0.6,0.2,0.9
						c0.1,0.2,0.3,0.4,0.5,0.6c0.2,0.1,0.5,0.2,0.8,0.3c0.3,0.1,0.6,0.1,0.9,0.1c0.8,0,1.4-0.1,1.8-0.4c0.4-0.3,0.7-0.6,0.9-0.9
						c0.2-0.4,0.3-0.7,0.4-1.1c0-0.4,0.1-0.7,0.1-0.9V386.3z"/>
					<path class="st1" d="M519.5,379.1v2h0.1c0.5-0.8,1.1-1.4,1.9-1.8c0.8-0.4,1.6-0.6,2.4-0.6c1,0,1.9,0.1,2.5,0.4
						c0.7,0.3,1.2,0.7,1.6,1.2c0.4,0.5,0.6,1.1,0.8,1.8c0.2,0.7,0.2,1.5,0.2,2.4v8.6h-3.9v-7.9c0-1.2-0.2-2-0.5-2.6
						c-0.4-0.6-1-0.9-1.9-0.9c-1.1,0-1.8,0.3-2.3,0.9s-0.7,1.7-0.7,3.1v7.4h-3.9v-14.1H519.5z"/>
					<path class="st1" d="M541.5,373.8c0.9,0,1.8,0.1,2.5,0.2c0.8,0.2,1.4,0.4,2,0.8c0.5,0.4,1,0.9,1.3,1.5c0.3,0.6,0.4,1.4,0.4,2.3
						c0,1-0.2,1.8-0.7,2.4c-0.4,0.7-1.1,1.2-2,1.6c1.2,0.3,2.1,0.9,2.7,1.8c0.6,0.9,0.9,1.9,0.9,3.1c0,1-0.2,1.8-0.6,2.5
						c-0.4,0.7-0.9,1.3-1.5,1.8c-0.6,0.5-1.4,0.8-2.2,1c-0.8,0.2-1.7,0.3-2.5,0.3h-9.4v-19.4H541.5z M541,381.6
						c0.8,0,1.4-0.2,1.9-0.5c0.5-0.4,0.7-1,0.7-1.8c0-0.5-0.1-0.8-0.2-1.1s-0.4-0.5-0.7-0.7c-0.3-0.2-0.6-0.3-0.9-0.3
						c-0.4-0.1-0.7-0.1-1.1-0.1h-4v4.5H541z M541.2,389.9c0.4,0,0.8,0,1.2-0.1c0.4-0.1,0.7-0.2,1-0.4c0.3-0.2,0.5-0.4,0.7-0.8
						c0.2-0.3,0.3-0.7,0.3-1.3c0-1-0.3-1.7-0.8-2.1c-0.6-0.4-1.3-0.6-2.2-0.6h-4.7v5.3H541.2z"/>
					<path class="st1" d="M560.7,393.2v-2h-0.1c-0.5,0.8-1.1,1.4-1.9,1.8c-0.8,0.4-1.6,0.5-2.4,0.5c-1,0-1.9-0.1-2.5-0.4
						c-0.7-0.3-1.2-0.7-1.6-1.2s-0.6-1.1-0.8-1.8c-0.2-0.7-0.2-1.5-0.2-2.4v-8.6h3.9v7.9c0,1.2,0.2,2,0.5,2.6c0.4,0.6,1,0.9,1.9,0.9
						c1.1,0,1.8-0.3,2.3-0.9c0.5-0.6,0.7-1.7,0.7-3.1v-7.4h3.9v14.1H560.7z"/>
					<path class="st1" d="M570.9,379.1v2h0.1c0.5-0.8,1.1-1.4,1.9-1.8c0.8-0.4,1.6-0.6,2.4-0.6c1,0,1.9,0.1,2.5,0.4
						c0.7,0.3,1.2,0.7,1.6,1.2c0.4,0.5,0.6,1.1,0.8,1.8c0.2,0.7,0.2,1.5,0.2,2.4v8.6h-3.9v-7.9c0-1.2-0.2-2-0.5-2.6
						c-0.4-0.6-1-0.9-1.9-0.9c-1.1,0-1.8,0.3-2.3,0.9s-0.7,1.7-0.7,3.1v7.4h-3.9v-14.1H570.9z"/>
					<path class="st1" d="M586.6,389.7c0.2,0.3,0.4,0.5,0.7,0.7c0.3,0.2,0.6,0.3,0.9,0.4c0.4,0.1,0.7,0.1,1.1,0.1
						c0.3,0,0.6,0,0.9-0.1c0.3-0.1,0.6-0.2,0.8-0.3c0.2-0.1,0.4-0.3,0.6-0.5c0.2-0.2,0.2-0.5,0.2-0.9c0-0.6-0.4-1-1.2-1.3
						s-1.8-0.6-3.2-0.9c-0.6-0.1-1.1-0.3-1.6-0.4c-0.5-0.2-1-0.4-1.4-0.7s-0.8-0.6-1-1.1s-0.4-0.9-0.4-1.6c0-0.9,0.2-1.6,0.5-2.2
						c0.4-0.6,0.8-1,1.4-1.4s1.2-0.6,2-0.7c0.7-0.1,1.5-0.2,2.2-0.2c0.8,0,1.5,0.1,2.2,0.2c0.7,0.1,1.4,0.4,1.9,0.7
						c0.6,0.3,1,0.8,1.4,1.4c0.4,0.6,0.6,1.3,0.7,2.2h-3.7c-0.1-0.7-0.3-1.2-0.8-1.5c-0.5-0.3-1.1-0.4-1.8-0.4c-0.2,0-0.5,0-0.7,0
						c-0.3,0-0.5,0.1-0.7,0.2c-0.2,0.1-0.4,0.2-0.5,0.4c-0.1,0.2-0.2,0.4-0.2,0.7c0,0.3,0.1,0.6,0.4,0.8s0.6,0.4,1,0.5
						c0.4,0.1,0.9,0.3,1.4,0.4c0.5,0.1,1.1,0.2,1.6,0.4c0.6,0.1,1.1,0.3,1.6,0.5c0.5,0.2,1,0.4,1.4,0.7c0.4,0.3,0.8,0.7,1,1.1
						s0.4,1,0.4,1.6c0,0.9-0.2,1.7-0.6,2.3c-0.4,0.6-0.9,1.1-1.5,1.5c-0.6,0.4-1.3,0.6-2.1,0.8c-0.8,0.2-1.6,0.2-2.4,0.2
						c-0.8,0-1.6-0.1-2.4-0.2c-0.8-0.2-1.5-0.4-2.1-0.8s-1.1-0.9-1.5-1.5s-0.6-1.4-0.6-2.4h3.7C586.4,389,586.5,389.4,586.6,389.7z"
						/>
				</g>
			</g>
		</g>
		<rect x="-31.7" y="350" class="st0" width="826.1" height="1.6"/>
	</g>
	<g>
		<g>
			<path class="st0" d="M-26.9,276c0-18.5,0-36.9,0-55.4c0.1-0.2,0.2-0.5,0.3-0.7c1.2-6,4.8-9.8,10.7-11.4c0.5-0.2,1.1-0.3,1.7-0.5
				c18.5,0,36.9,0,55.4,0c1.4,0.4,2.9,0.7,4.2,1.3c5.5,2.7,8.4,7.1,8.4,13.3c0.1,10.6,0,21.1,0,31.7c0,6.5,0,13.1,0,19.6
				c0,3-0.7,5.8-2.4,8.3c-3,4.4-7.2,6.4-12.4,6.4c-17,0-33.9,0-50.9,0c-0.4,0-0.9,0-1.3,0c-6.2-0.3-11.4-4.6-13-10.6
				C-26.5,277.3-26.7,276.7-26.9,276z M-9.8,262.3c-4.6,0-8.5,3.8-8.5,8.4c0,4.6,3.8,8.5,8.4,8.5c4.6,0,8.5-3.9,8.5-8.5
				C-1.4,266.1-5.2,262.3-9.8,262.3z M13.8,262.3c-4.6,0-8.5,3.8-8.5,8.4c0,4.6,3.8,8.5,8.4,8.4c4.6,0,8.5-3.8,8.4-8.5
				C22.2,266.1,18.4,262.3,13.8,262.3z M45.4,270.7c0.2-4.3-3.7-8.5-8.4-8.5c-4.7,0-8.4,3.8-8.4,8.5c0,4.7,3.8,8.4,8.5,8.4
				C41.7,279.1,45.4,275.4,45.4,270.7z M-13.8,227.3c-0.1,0-0.1,0-0.2,0c-0.4-2.1-0.8-4.1-1.1-6.2c-0.5-2.8-0.8-3.1-3.6-2.9
				c-1.2,0.1-1.6,0.5-1.3,1.6c1.1,4.3,2.2,8.7,3.3,13c0.3,1.1,0.8,1.5,2,1.6c0.3,0,0.6,0,0.9,0c1.8,0,2.2-0.4,2.4-2.1
				c0.3-2.2,0.7-4.5,1.1-6.7c0.5,2,0.9,4.1,1.2,6.1c0.5,2.7,0.5,2.8,3.4,2.7c1.2,0,1.8-0.4,2.1-1.5c1.2-4.4,2.3-8.8,3.4-13.2
				c0.2-0.9-0.1-1.4-1-1.4c-0.5,0-1,0-1.5,0c-1.3,0-1.9,0.4-2.1,1.7c-0.4,2.2-0.8,4.4-1.2,6.6c0,0.3-0.2,0.5-0.3,1.1
				c-0.4-2.6-0.9-4.8-1.2-7c-0.3-2-0.8-2.4-2.8-2.3c-1.4,0-1.8,0.4-2.1,1.7C-12.9,222.4-13.3,224.9-13.8,227.3z M33.1,227.1
				c-0.1,0-0.2,0-0.2,0c-0.4-2.1-0.8-4.2-1.2-6.3c-0.4-2.3-0.7-2.6-2.9-2.6c-0.2,0-0.4,0-0.5,0c-1.2,0.1-1.6,0.5-1.2,1.7
				c1,3.9,1.9,7.8,2.9,11.7c0.7,2.8,0.9,2.9,3.7,2.8c1.2,0,1.6-0.4,1.8-1.5c0.3-1.7,0.5-3.3,0.8-5c0.1-0.7,0.3-1.4,0.4-2.1
				c0.6,2.4,1,4.7,1.4,7c0.2,1.2,0.7,1.6,1.9,1.6c0.4,0,0.7,0,1.1,0c1.5,0,2-0.3,2.4-1.8c1-3.9,2.1-7.8,3.1-11.8
				c0.6-2.5,0.5-2.6-2-2.6c-1.7,0-2,0.3-2.3,1.9c-0.5,2.5-0.9,4.9-1.4,7.6c-0.1-0.6-0.2-0.9-0.3-1.3c-0.4-2.2-0.8-4.4-1.1-6.6
				c-0.2-1.2-0.7-1.6-1.9-1.7c-0.3,0-0.5,0-0.8,0c-1.3,0-1.8,0.4-2.1,1.7c-0.2,0.7-0.2,1.5-0.4,2.2
				C33.8,223.9,33.4,225.5,33.1,227.1z M-4.3,247.3c0.5-0.6,0.9-1,1.2-1.5c1.3-2.4-0.3-5.3-3.2-5.6c-2.9-0.2-5.9-0.2-8.8-0.2
				c-1.2,0-1.5,0.5-1.5,1.7c0,2.6,0,5.2,0,7.8c0,1.7,0,3.4,0,5.1c0,1.1,0.3,1.5,1.3,1.5c3,0,6,0.1,9-0.1c2.3-0.1,4.1-1.8,4.5-3.8
				C-1.5,250.3-2.2,248.6-4.3,247.3z M13.7,217.6c-4.7,0-8.4,3.7-8.4,8.4c0,4.6,3.7,8.4,8.3,8.4c4.7,0,8.5-3.7,8.5-8.3
				C22.1,221.4,18.3,217.6,13.7,217.6z M45.5,247.8c0.2-4.4-3.8-8.5-8.4-8.4c-4.6,0.1-8.4,3.7-8.4,8.3c0,4.7,3.7,8.4,8.4,8.5
				C41.9,256.3,45.7,251.9,45.5,247.8z M8.1,256.2c1.9,0,1.9,0,3-1.8c0.2-0.3,0.7-0.4,1-0.4c1-0.1,2.1,0,3.1,0
				c0.7,0,1.1,0.2,1.2,0.9c0.1,0.6,0.5,1.2,1.2,1.3c1.1,0.1,2.2,0.1,3.3,0c0.7,0,0.9-0.5,0.7-1.1c-0.1-0.3-0.2-0.7-0.4-1
				c-1.4-3.7-2.8-7.4-4.1-11.2c-1-2.7-0.9-2.9-4.3-2.8c-1.3,0-1.8,0.4-2.3,1.7c-0.9,2.3-1.7,4.7-2.6,7c-0.7,2-1.5,4-2.2,6
				c-0.4,1.1-0.1,1.5,1.1,1.5C7.4,256.2,7.7,256.2,8.1,256.2z"/>
			<path class="st0" d="M-11.5,252.3c0-1.1,0-1.9,0-2.8c1.2,0,2.3-0.1,3.4,0c0.8,0.1,1.2,0.6,1.2,1.4c0,0.7-0.4,1.2-1.1,1.3
				C-9.1,252.2-10.2,252.2-11.5,252.3z"/>
			<path class="st0" d="M-11.5,246.2c0-0.7,0-1.3,0-2.1c1.1,0,2.1,0,3.1,0c0.5,0,0.9,0.4,0.9,1c0,0.6-0.2,0.9-0.8,1.1
				C-9.3,246.4-10.4,246.5-11.5,246.2z"/>
			<path class="st0" d="M17.3,225.9c0,2-1.6,3.7-3.6,3.7c-2,0-3.7-1.7-3.7-3.7c0-2,1.6-3.7,3.6-3.7
				C15.7,222.3,17.3,223.9,17.3,225.9z"/>
			<path class="st0" d="M37,244.1c2,0,3.7,1.6,3.8,3.6c0.1,2-1.7,3.8-3.7,3.8c-2,0-3.7-1.7-3.7-3.7C33.4,245.8,35,244.2,37,244.1z"
				/>
			<path class="st0" d="M15.1,250.3c-1,0-1.7,0-2.7,0c0.4-1.5,0.9-2.8,1.3-4.2c0.1,0,0.1,0,0.2,0C14.3,247.5,14.7,248.8,15.1,250.3z
				"/>
		</g>
		<g>
			<path class="st1" d="M121.8,235.9c-0.8-1.3-1.9-2.5-3.1-3.5c-1.2-1-2.7-1.8-4.2-2.4c-1.6-0.6-3.2-0.8-5-0.8c-3.2,0-5.8,0.6-8,1.8
				c-2.2,1.2-4,2.9-5.4,4.9c-1.4,2.1-2.4,4.4-3,7c-0.6,2.6-0.9,5.3-0.9,8.1c0,2.7,0.3,5.3,0.9,7.8c0.6,2.5,1.6,4.8,3,6.8
				c1.4,2,3.2,3.6,5.4,4.9c2.2,1.2,4.9,1.8,8,1.8c4.3,0,7.6-1.3,10-3.9c2.4-2.6,3.9-6.1,4.4-10.4h13.6c-0.4,4-1.3,7.6-2.8,10.8
				c-1.5,3.2-3.5,6-5.9,8.2c-2.4,2.3-5.3,4-8.6,5.2c-3.3,1.2-6.9,1.8-10.8,1.8c-4.9,0-9.3-0.8-13.2-2.5c-3.9-1.7-7.2-4-9.9-7
				c-2.7-3-4.7-6.5-6.2-10.5c-1.4-4-2.1-8.4-2.1-13c0-4.8,0.7-9.2,2.1-13.3c1.4-4.1,3.5-7.6,6.2-10.7s6-5.4,9.9-7.1
				c3.9-1.7,8.3-2.6,13.2-2.6c3.5,0,6.8,0.5,10,1.5c3.1,1,5.9,2.5,8.4,4.4c2.5,1.9,4.5,4.3,6.1,7.2c1.6,2.9,2.6,6.1,3,9.8h-13.6
				C123.2,238.7,122.7,237.2,121.8,235.9z"/>
			<path class="st1" d="M146.1,249.5c1.1-3,2.7-5.6,4.8-7.7c2.1-2.1,4.6-3.8,7.5-4.9c2.9-1.2,6.2-1.7,9.8-1.7c3.6,0,6.9,0.6,9.9,1.7
				s5.5,2.8,7.5,4.9c2.1,2.1,3.7,4.7,4.8,7.7c1.1,3,1.7,6.4,1.7,10c0,3.7-0.6,7-1.7,10c-1.1,3-2.7,5.5-4.8,7.6
				c-2.1,2.1-4.6,3.7-7.5,4.9c-2.9,1.1-6.2,1.7-9.9,1.7c-3.6,0-6.9-0.6-9.8-1.7c-2.9-1.1-5.4-2.8-7.5-4.9c-2.1-2.1-3.7-4.7-4.8-7.6
				c-1.1-3-1.7-6.3-1.7-10C144.4,255.9,144.9,252.5,146.1,249.5z M157.6,265c0.4,1.8,1,3.3,1.8,4.7c0.9,1.4,2,2.5,3.4,3.3
				c1.4,0.8,3.2,1.2,5.4,1.2s3.9-0.4,5.4-1.2c1.5-0.8,2.6-2,3.5-3.3c0.9-1.4,1.5-3,1.8-4.7c0.4-1.8,0.5-3.6,0.5-5.4
				c0-1.8-0.2-3.7-0.5-5.4c-0.4-1.8-1-3.4-1.8-4.7c-0.9-1.4-2-2.5-3.5-3.3c-1.5-0.9-3.3-1.3-5.4-1.3s-3.9,0.4-5.4,1.3
				c-1.4,0.9-2.6,2-3.4,3.3c-0.9,1.4-1.5,2.9-1.8,4.7c-0.4,1.8-0.5,3.6-0.5,5.4C157,261.4,157.2,263.2,157.6,265z"/>
			<path class="st1" d="M212.4,236.5v6.4h0.3c1.6-2.7,3.7-4.6,6.3-5.9c2.6-1.2,5.2-1.8,7.9-1.8c3.4,0,6.2,0.5,8.4,1.4
				c2.2,0.9,3.9,2.2,5.1,3.8c1.2,1.6,2.1,3.6,2.6,6c0.5,2.4,0.8,5,0.8,7.8v28.4H231v-26.1c0-3.8-0.6-6.7-1.8-8.5
				c-1.2-1.9-3.3-2.8-6.3-2.8c-3.5,0-6,1-7.5,3.1c-1.5,2.1-2.3,5.4-2.3,10.1v24.2h-12.7v-46.2H212.4z"/>
			<path class="st1" d="M265.4,236.5v6.4h0.3c1.6-2.7,3.7-4.6,6.3-5.9c2.6-1.2,5.2-1.8,7.9-1.8c3.4,0,6.2,0.5,8.4,1.4
				c2.2,0.9,3.9,2.2,5.1,3.8c1.2,1.6,2.1,3.6,2.6,6c0.5,2.4,0.8,5,0.8,7.8v28.4H284v-26.1c0-3.8-0.6-6.7-1.8-8.5
				c-1.2-1.9-3.3-2.8-6.3-2.8c-3.5,0-6,1-7.5,3.1c-1.5,2.1-2.3,5.4-2.3,10.1v24.2h-12.7v-46.2H265.4z"/>
			<path class="st1" d="M319.9,271.6c1.9,1.8,4.6,2.8,8.2,2.8c2.6,0,4.8-0.6,6.6-1.9c1.8-1.3,3-2.6,3.4-4.1h11.2
				c-1.8,5.5-4.5,9.5-8.2,11.9c-3.7,2.4-8.2,3.6-13.4,3.6c-3.6,0-6.9-0.6-9.8-1.7c-2.9-1.2-5.4-2.8-7.4-5c-2-2.1-3.6-4.7-4.7-7.7
				c-1.1-3-1.7-6.3-1.7-9.8c0-3.5,0.6-6.7,1.7-9.6c1.1-3,2.7-5.6,4.8-7.7c2.1-2.2,4.6-3.9,7.5-5.1c2.9-1.2,6.1-1.9,9.6-1.9
				c3.9,0,7.4,0.8,10.3,2.3c2.9,1.5,5.3,3.6,7.2,6.1c1.9,2.6,3.2,5.5,4.1,8.8c0.8,3.3,1.1,6.7,0.9,10.3h-33.3
				C316.9,266.7,318,269.7,319.9,271.6z M334.2,247.3c-1.5-1.7-3.8-2.5-6.9-2.5c-2,0-3.7,0.3-5,1c-1.3,0.7-2.4,1.5-3.2,2.5
				c-0.8,1-1.4,2.1-1.7,3.2c-0.3,1.1-0.5,2.1-0.6,3h20.6C336.8,251.4,335.7,248.9,334.2,247.3z"/>
			<path class="st1" d="M379.6,244.8c-2,0-3.7,0.5-5.1,1.4c-1.4,0.9-2.5,2.1-3.3,3.6c-0.9,1.5-1.5,3.1-1.8,4.8
				c-0.4,1.8-0.5,3.5-0.5,5.2c0,1.7,0.2,3.4,0.5,5.1c0.4,1.7,0.9,3.3,1.7,4.7c0.8,1.4,1.9,2.5,3.3,3.4c1.4,0.9,3,1.3,5,1.3
				c3,0,5.4-0.8,7-2.5c1.6-1.7,2.7-4,3.1-6.8h12.2c-0.8,6.1-3.2,10.8-7.1,14c-3.9,3.2-9,4.8-15.1,4.8c-3.5,0-6.6-0.6-9.5-1.7
				c-2.9-1.2-5.3-2.8-7.4-4.9c-2-2.1-3.6-4.6-4.7-7.5c-1.1-2.9-1.7-6.1-1.7-9.5c0-3.6,0.5-6.9,1.6-10c1-3.1,2.6-5.7,4.6-8
				c2-2.2,4.5-4,7.4-5.2c2.9-1.2,6.3-1.9,10-1.9c2.7,0,5.4,0.4,7.9,1.1c2.5,0.7,4.8,1.8,6.8,3.3c2,1.5,3.6,3.3,4.9,5.4
				c1.2,2.2,2,4.8,2.1,7.7H389C388.2,247.4,385.1,244.8,379.6,244.8z"/>
			<path class="st1" d="M434.2,236.5v8.5h-9.3v22.9c0,2.1,0.4,3.6,1.1,4.3c0.7,0.7,2.1,1.1,4.3,1.1c0.7,0,1.4,0,2.1-0.1
				c0.7-0.1,1.3-0.1,1.9-0.3v9.8c-1.1,0.2-2.3,0.3-3.6,0.4c-1.3,0.1-2.6,0.1-3.8,0.1c-2,0-3.8-0.1-5.6-0.4c-1.8-0.3-3.3-0.8-4.6-1.6
				c-1.3-0.8-2.4-1.9-3.2-3.3c-0.8-1.4-1.2-3.3-1.2-5.6v-27.2h-7.7v-8.5h7.7v-13.8h12.7v13.8H434.2z"/>
			<path class="st1" d="M504.9,282.6l-8.2-31h-0.2l-7.9,31h-13.1l-14.6-46.2h13.4l8.5,31.4h0.2l7.7-31.4h12.3l7.9,31.3h0.2l8.5-31.3
				h13l-14.6,46.2H504.9z"/>
			<path class="st1" d="M538.2,229.3v-10.5h12.7v10.5H538.2z M550.9,236.5v46.2h-12.7v-46.2H550.9z"/>
			<path class="st1" d="M586.2,236.5v8.5h-9.3v22.9c0,2.1,0.4,3.6,1.1,4.3c0.7,0.7,2.1,1.1,4.3,1.1c0.7,0,1.4,0,2.1-0.1
				c0.7-0.1,1.3-0.1,1.9-0.3v9.8c-1.1,0.2-2.3,0.3-3.6,0.4c-1.3,0.1-2.6,0.1-3.8,0.1c-2,0-3.8-0.1-5.6-0.4c-1.8-0.3-3.3-0.8-4.6-1.6
				c-1.3-0.8-2.4-1.9-3.2-3.3c-0.8-1.4-1.2-3.3-1.2-5.6v-27.2h-7.7v-8.5h7.7v-13.8h12.7v13.8H586.2z"/>
			<path class="st1" d="M605,218.9v24h0.3c1.6-2.7,3.7-4.6,6.2-5.9c2.5-1.2,4.9-1.8,7.3-1.8c3.4,0,6.2,0.5,8.4,1.4
				c2.2,0.9,3.9,2.2,5.1,3.8c1.2,1.6,2.1,3.6,2.6,6c0.5,2.4,0.8,5,0.8,7.8v28.4H623v-26.1c0-3.8-0.6-6.7-1.8-8.5
				c-1.2-1.9-3.3-2.8-6.3-2.8c-3.5,0-6,1-7.5,3.1c-1.5,2.1-2.3,5.4-2.3,10.1v24.2h-12.7v-63.8H605z"/>
			<path class="st1" d="M701.4,282.6v-6.4h-0.3c-1.6,2.7-3.7,4.6-6.3,5.8c-2.6,1.2-5.2,1.8-7.9,1.8c-3.4,0-6.2-0.4-8.4-1.3
				s-3.9-2.2-5.1-3.8c-1.2-1.6-2.1-3.6-2.6-6c-0.5-2.4-0.8-5-0.8-7.8v-28.4h12.7v26.1c0,3.8,0.6,6.7,1.8,8.5
				c1.2,1.9,3.3,2.8,6.3,2.8c3.5,0,6-1,7.5-3.1c1.5-2.1,2.3-5.4,2.3-10.1v-24.2h12.7v46.2H701.4z"/>
			<path class="st1" d="M733.8,271.2c0.6,1,1.3,1.8,2.2,2.4c0.9,0.6,1.9,1.1,3.1,1.4c1.2,0.3,2.4,0.4,3.6,0.4c0.9,0,1.8-0.1,2.8-0.3
				c1-0.2,1.9-0.5,2.7-1c0.8-0.4,1.5-1,2-1.8c0.5-0.7,0.8-1.7,0.8-2.8c0-1.9-1.3-3.3-3.8-4.3c-2.5-1-6.1-1.9-10.6-2.9
				c-1.8-0.4-3.6-0.9-5.4-1.5c-1.8-0.6-3.3-1.3-4.7-2.2c-1.4-0.9-2.5-2.1-3.3-3.5c-0.8-1.4-1.3-3.1-1.3-5.1c0-3,0.6-5.4,1.7-7.3
				c1.2-1.9,2.7-3.4,4.6-4.5c1.9-1.1,4-1.9,6.4-2.3c2.4-0.4,4.8-0.7,7.3-0.7c2.5,0,4.9,0.2,7.3,0.7c2.4,0.5,4.5,1.3,6.3,2.4
				c1.8,1.1,3.4,2.6,4.6,4.5c1.2,1.9,2,4.2,2.2,7.1h-12.1c-0.2-2.4-1.1-4.1-2.8-5c-1.7-0.9-3.6-1.3-5.9-1.3c-0.7,0-1.5,0-2.3,0.1
				c-0.8,0.1-1.6,0.3-2.3,0.6c-0.7,0.3-1.3,0.7-1.7,1.3c-0.5,0.6-0.7,1.3-0.7,2.3c0,1.1,0.4,2.1,1.2,2.8c0.8,0.7,1.9,1.3,3.3,1.7
				c1.3,0.4,2.9,0.8,4.6,1.2c1.7,0.4,3.5,0.7,5.3,1.2c1.8,0.4,3.6,0.9,5.4,1.5c1.8,0.6,3.3,1.4,4.7,2.4c1.4,1,2.5,2.2,3.3,3.7
				c0.8,1.5,1.3,3.3,1.3,5.4c0,3-0.6,5.6-1.8,7.6c-1.2,2.1-2.8,3.7-4.8,5c-2,1.3-4.2,2.1-6.7,2.6c-2.5,0.5-5.1,0.8-7.7,0.8
				c-2.7,0-5.3-0.3-7.9-0.8c-2.6-0.5-4.8-1.4-6.8-2.7c-2-1.3-3.6-2.9-4.9-5c-1.3-2.1-2-4.6-2.1-7.7h12.1
				C732.9,269,733.2,270.2,733.8,271.2z"/>
			<path class="st1" d="M785.7,268.9v13.8h-14v-13.8H785.7z M781.8,263.5h-6.3L772,236v-17.2h13.2V236L781.8,263.5z"/>
		</g>
	</g>
	<g>
		<path class="st1" d="M-13,305.8v20c0,1.4-0.1,2.7-0.4,3.7c-0.3,1-0.7,1.9-1.4,2.6c-0.6,0.7-1.5,1.2-2.5,1.5s-2.3,0.5-3.8,0.5
			c-1.6,0-2.9-0.3-3.9-0.8c-1-0.5-1.8-1.2-2.4-2.1c-0.6-0.9-1-1.9-1.2-3c-0.2-1.1-0.3-2.3-0.3-3.5h2.6c0,0.6,0.1,1.3,0.1,2.1
			c0.1,0.8,0.2,1.6,0.5,2.4c0.3,0.8,0.8,1.4,1.5,1.9c0.7,0.5,1.8,0.8,3.1,0.8c1,0,1.9-0.1,2.6-0.4c0.7-0.3,1.2-0.7,1.6-1.3
			c0.4-0.6,0.7-1.3,0.8-2.2c0.2-0.9,0.2-2,0.2-3.3v-18.9H-13z"/>
		<path class="st1" d="M4.7,313.7c1.2,0.6,2.2,1.3,3,2.3c0.8,1,1.4,2.1,1.8,3.4c0.4,1.3,0.6,2.7,0.6,4.1c0,1.5-0.2,2.8-0.6,4.1
			c-0.4,1.3-1,2.4-1.8,3.4s-1.8,1.7-3,2.3c-1.2,0.6-2.5,0.8-4.1,0.8c-1.5,0-2.9-0.3-4.1-0.8c-1.2-0.6-2.2-1.3-3-2.3
			s-1.4-2.1-1.8-3.4c-0.4-1.3-0.6-2.7-0.6-4.1c0-1.5,0.2-2.8,0.6-4.1c0.4-1.3,1-2.4,1.8-3.4c0.8-1,1.8-1.7,3-2.3
			c1.2-0.6,2.5-0.9,4.1-0.9C2.1,312.9,3.5,313.2,4.7,313.7z M-2.5,315.7c-0.9,0.5-1.6,1.1-2.2,1.9s-1,1.7-1.3,2.7
			c-0.3,1-0.4,2.1-0.4,3.1c0,1.1,0.1,2.1,0.4,3.1c0.3,1,0.7,1.9,1.3,2.7s1.3,1.5,2.2,1.9c0.9,0.5,1.9,0.7,3.1,0.7s2.2-0.2,3.1-0.7
			c0.9-0.5,1.6-1.1,2.2-1.9c0.6-0.8,1-1.7,1.3-2.7c0.3-1,0.4-2.1,0.4-3.1c0-1.1-0.1-2.1-0.4-3.1c-0.3-1-0.7-1.9-1.3-2.7
			c-0.6-0.8-1.3-1.5-2.2-1.9s-1.9-0.7-3.1-0.7S-1.6,315.2-2.5,315.7z"/>
		<path class="st1" d="M16.2,305.8v3.9h-2.5v-3.9H16.2z M16.2,313.5v20.1h-2.5v-20.1H16.2z"/>
		<path class="st1" d="M23.4,313.5v3.5h0.1c0.5-1.2,1.3-2.2,2.5-2.9c1.2-0.7,2.5-1.1,3.9-1.1c1.4,0,2.6,0.2,3.5,0.5s1.7,0.9,2.3,1.5
			s1,1.5,1.2,2.4s0.3,2,0.3,3.2v12.9h-2.5V321c0-0.9-0.1-1.7-0.2-2.4c-0.2-0.7-0.4-1.4-0.8-1.9c-0.4-0.5-0.9-1-1.6-1.3
			c-0.7-0.3-1.5-0.5-2.5-0.5s-1.9,0.2-2.6,0.5c-0.8,0.3-1.4,0.8-1.9,1.4c-0.5,0.6-0.9,1.3-1.2,2.2c-0.3,0.8-0.5,1.8-0.5,2.7v11.7
			h-2.5v-20.1H23.4z"/>
		<path class="st1" d="M60.6,313.5v2.1h-4.1v13.5c0,0.8,0.1,1.4,0.3,1.9c0.2,0.5,0.8,0.7,1.7,0.8c0.7,0,1.4,0,2.1-0.1v2.1
			c-0.4,0-0.7,0-1.1,0s-0.7,0-1.1,0c-1.6,0-2.8-0.3-3.4-1c-0.6-0.6-1-1.8-0.9-3.5v-13.7h-3.5v-2.1h3.5v-6h2.5v6H60.6z"/>
		<path class="st1" d="M66.6,305.8v11.2h0.1c0.5-1.2,1.3-2.2,2.5-2.9c1.2-0.7,2.5-1.1,3.9-1.1c1.4,0,2.6,0.2,3.5,0.5
			s1.7,0.9,2.3,1.5s1,1.5,1.2,2.4s0.3,2,0.3,3.2v12.9H78V321c0-0.9-0.1-1.7-0.2-2.4c-0.2-0.7-0.4-1.4-0.8-1.9
			c-0.4-0.5-0.9-1-1.6-1.3c-0.7-0.3-1.5-0.5-2.5-0.5s-1.9,0.2-2.6,0.5c-0.8,0.3-1.4,0.8-1.9,1.4c-0.5,0.6-0.9,1.3-1.2,2.2
			c-0.3,0.8-0.5,1.8-0.5,2.7v11.7h-2.5v-27.8H66.6z"/>
		<path class="st1" d="M86.8,326.9c0.2,0.9,0.6,1.8,1.2,2.5c0.5,0.8,1.2,1.4,2.1,1.9c0.8,0.5,1.8,0.7,3,0.7c1.8,0,3.2-0.5,4.2-1.4
			c1-0.9,1.7-2.2,2.1-3.7h2.5c-0.5,2.3-1.5,4-2.9,5.3s-3.4,1.9-5.9,1.9c-1.6,0-2.9-0.3-4.1-0.8c-1.2-0.6-2.1-1.3-2.8-2.3
			c-0.7-1-1.3-2.1-1.6-3.4c-0.4-1.3-0.5-2.6-0.5-4.1c0-1.3,0.2-2.6,0.5-3.9c0.3-1.3,0.9-2.4,1.6-3.4c0.7-1,1.7-1.8,2.8-2.4
			c1.2-0.6,2.5-0.9,4.1-0.9c1.6,0,3,0.3,4.1,1c1.1,0.6,2.1,1.5,2.8,2.5c0.7,1.1,1.2,2.3,1.5,3.6s0.4,2.7,0.4,4.1H86.5
			C86.5,325,86.6,325.9,86.8,326.9z M99,319.4c-0.3-0.9-0.7-1.6-1.3-2.3c-0.5-0.7-1.2-1.2-2-1.6c-0.8-0.4-1.7-0.6-2.6-0.6
			c-1,0-1.9,0.2-2.7,0.6c-0.8,0.4-1.4,0.9-2,1.6c-0.5,0.7-1,1.4-1.3,2.3c-0.3,0.9-0.5,1.8-0.6,2.7h13
			C99.4,321.2,99.3,320.3,99,319.4z"/>
		<path class="st1" d="M128.7,324.9l-1.2,8.7h-1.9l1.2-8.7h-5.5l-1.2,8.7h-1.9l1.2-8.7h-4.3v-1.8h4.5l0.9-6.1h-4.3v-1.8h4.5l1.2-8.6
			h1.9l-1.2,8.6h5.5l1.2-8.6h1.9l-1.2,8.6h4.1v1.8h-4.3l-0.9,6.1h4.1v1.8H128.7z M121.5,323.1h5.5l0.9-6.1h-5.5L121.5,323.1z"/>
		<path class="st1" d="M138.2,305.8l6.3,24.3h0.1l6.8-24.3h3.3l6.8,24.3h0.1l6.3-24.3h2.6l-7.7,27.8H160l-7-24.9h-0.1l-7,24.9H143
			l-7.7-27.8H138.2z"/>
		<path class="st1" d="M184.8,313.7c1.2,0.6,2.2,1.3,3,2.3c0.8,1,1.4,2.1,1.8,3.4c0.4,1.3,0.6,2.7,0.6,4.1c0,1.5-0.2,2.8-0.6,4.1
			c-0.4,1.3-1,2.4-1.8,3.4s-1.8,1.7-3,2.3c-1.2,0.6-2.5,0.8-4.1,0.8c-1.5,0-2.9-0.3-4.1-0.8c-1.2-0.6-2.2-1.3-3-2.3
			s-1.4-2.1-1.8-3.4s-0.6-2.7-0.6-4.1c0-1.5,0.2-2.8,0.6-4.1s1-2.4,1.8-3.4c0.8-1,1.8-1.7,3-2.3c1.2-0.6,2.5-0.9,4.1-0.9
			C182.2,312.9,183.6,313.2,184.8,313.7z M177.6,315.7c-0.9,0.5-1.6,1.1-2.2,1.9s-1,1.7-1.3,2.7c-0.3,1-0.4,2.1-0.4,3.1
			c0,1.1,0.1,2.1,0.4,3.1c0.3,1,0.7,1.9,1.3,2.7s1.3,1.5,2.2,1.9c0.9,0.5,1.9,0.7,3.1,0.7s2.2-0.2,3.1-0.7c0.9-0.5,1.6-1.1,2.2-1.9
			c0.6-0.8,1-1.7,1.3-2.7c0.3-1,0.4-2.1,0.4-3.1c0-1.1-0.1-2.1-0.4-3.1c-0.3-1-0.7-1.9-1.3-2.7c-0.6-0.8-1.3-1.5-2.2-1.9
			s-1.9-0.7-3.1-0.7S178.5,315.2,177.6,315.7z"/>
		<path class="st1" d="M194.4,313.5l5.1,17.2h0.1l4.9-17.2h2.8l4.9,17.2h0.1l5.1-17.2h2.6l-6.5,20.1h-2.7l-4.9-16.9h-0.1l-4.9,16.9
			h-2.7l-6.5-20.1H194.4z"/>
		<path class="st1" d="M234.9,305.8c1.2,0,2.3,0.1,3.4,0.3c1.1,0.2,2,0.6,2.8,1.1c0.8,0.5,1.5,1.2,2,2.1c0.5,0.9,0.7,2,0.7,3.2
			c0,0.7-0.1,1.4-0.3,2.1c-0.2,0.7-0.6,1.3-1,1.9s-0.9,1-1.5,1.4c-0.6,0.4-1.2,0.7-2,0.8v0.1c1.8,0.2,3.2,1,4.3,2.2
			c1.1,1.2,1.6,2.8,1.6,4.6c0,0.4,0,0.9-0.1,1.5c-0.1,0.6-0.2,1.1-0.5,1.7c-0.2,0.6-0.6,1.2-1,1.7c-0.4,0.6-1,1.1-1.8,1.5
			c-0.7,0.4-1.6,0.8-2.7,1c-1.1,0.3-2.4,0.4-3.9,0.4h-11.7v-27.8H234.9z M234.9,317.9c1.1,0,2-0.1,2.8-0.4c0.8-0.2,1.4-0.6,1.9-1
			s0.9-0.9,1.2-1.5c0.3-0.6,0.4-1.2,0.4-1.8c0-3.5-2.1-5.2-6.3-5.2h-9.1v9.9H234.9z M234.9,331.3c1,0,1.9-0.1,2.8-0.3
			c0.9-0.2,1.7-0.5,2.3-0.9c0.7-0.4,1.2-1,1.6-1.8c0.4-0.7,0.6-1.7,0.6-2.8c0-1.8-0.6-3.1-1.9-4c-1.3-0.9-3.1-1.3-5.4-1.3h-9.1v11.1
			H234.9z"/>
		<path class="st1" d="M249.1,316.6c0.4-0.9,1-1.6,1.7-2.1c0.7-0.5,1.5-0.9,2.5-1.2c1-0.3,2-0.4,3.2-0.4c0.9,0,1.8,0.1,2.6,0.3
			c0.9,0.2,1.7,0.5,2.4,1s1.3,1.1,1.7,2c0.4,0.8,0.7,1.9,0.7,3.3V330c0,1,0.5,1.5,1.4,1.5c0.3,0,0.5-0.1,0.8-0.2v2.1
			c-0.3,0.1-0.5,0.1-0.8,0.1c-0.2,0-0.5,0-0.8,0c-0.6,0-1.1-0.1-1.5-0.3c-0.4-0.2-0.7-0.4-0.9-0.7c-0.2-0.3-0.3-0.7-0.4-1.1
			s-0.1-0.9-0.1-1.4h-0.1c-0.4,0.6-0.9,1.2-1.3,1.7c-0.5,0.5-1,0.9-1.5,1.3c-0.6,0.3-1.2,0.6-1.9,0.8c-0.7,0.2-1.6,0.3-2.5,0.3
			c-0.9,0-1.8-0.1-2.6-0.3s-1.5-0.6-2.1-1c-0.6-0.5-1.1-1.1-1.4-1.8s-0.5-1.6-0.5-2.6c0-1.4,0.3-2.5,0.9-3.3s1.4-1.4,2.5-1.8
			c1-0.4,2.2-0.7,3.5-0.9c1.3-0.2,2.6-0.3,3.9-0.5c0.5-0.1,1-0.1,1.4-0.2c0.4-0.1,0.7-0.2,1-0.4c0.3-0.2,0.5-0.5,0.6-0.8
			c0.1-0.3,0.2-0.8,0.2-1.3c0-0.8-0.1-1.5-0.4-2c-0.3-0.5-0.6-1-1.1-1.3c-0.5-0.3-1-0.5-1.7-0.6c-0.6-0.1-1.3-0.2-2-0.2
			c-1.6,0-2.8,0.4-3.8,1.1s-1.5,1.9-1.6,3.6h-2.4C248.5,318.4,248.7,317.4,249.1,316.6z M261.4,322.6c-0.2,0.3-0.5,0.5-0.9,0.6
			c-0.4,0.1-0.8,0.2-1.2,0.3c-1,0.2-2.1,0.3-3.2,0.5c-1.1,0.1-2.1,0.4-3,0.6c-0.9,0.3-1.7,0.7-2.2,1.2c-0.6,0.5-0.9,1.3-0.9,2.3
			c0,0.6,0.1,1.2,0.4,1.7c0.2,0.5,0.6,0.9,1,1.2c0.4,0.3,0.9,0.6,1.4,0.8c0.5,0.2,1.1,0.3,1.7,0.3c0.9,0,1.8-0.1,2.7-0.4
			s1.6-0.7,2.2-1.2c0.6-0.5,1.1-1.2,1.5-2c0.4-0.8,0.6-1.7,0.6-2.6L261.4,322.6L261.4,322.6z"/>
		<path class="st1" d="M281.3,313.7c1.2,0.6,2.2,1.3,3,2.3c0.8,1,1.4,2.1,1.8,3.4c0.4,1.3,0.6,2.7,0.6,4.1c0,1.5-0.2,2.8-0.6,4.1
			c-0.4,1.3-1,2.4-1.8,3.4s-1.8,1.7-3,2.3c-1.2,0.6-2.5,0.8-4.1,0.8c-1.5,0-2.9-0.3-4.1-0.8c-1.2-0.6-2.2-1.3-3-2.3
			s-1.4-2.1-1.8-3.4s-0.6-2.7-0.6-4.1c0-1.5,0.2-2.8,0.6-4.1s1-2.4,1.8-3.4c0.8-1,1.8-1.7,3-2.3c1.2-0.6,2.5-0.9,4.1-0.9
			C278.8,312.9,280.2,313.2,281.3,313.7z M274.2,315.7c-0.9,0.5-1.6,1.1-2.2,1.9s-1,1.7-1.3,2.7c-0.3,1-0.4,2.1-0.4,3.1
			c0,1.1,0.1,2.1,0.4,3.1c0.3,1,0.7,1.9,1.3,2.7s1.3,1.5,2.2,1.9c0.9,0.5,1.9,0.7,3.1,0.7s2.2-0.2,3.1-0.7c0.9-0.5,1.6-1.1,2.2-1.9
			c0.6-0.8,1-1.7,1.3-2.7c0.3-1,0.4-2.1,0.4-3.1c0-1.1-0.1-2.1-0.4-3.1c-0.3-1-0.7-1.9-1.3-2.7c-0.6-0.8-1.3-1.5-2.2-1.9
			s-1.9-0.7-3.1-0.7S275.1,315.2,274.2,315.7z"/>
		<path class="st1" d="M313.5,316.2c-0.9-0.9-2.2-1.3-3.8-1.3c-1.2,0-2.2,0.2-3.1,0.7c-0.9,0.5-1.6,1.1-2.2,1.9s-1,1.7-1.3,2.7
			c-0.3,1-0.4,2.1-0.4,3.1c0,1.1,0.1,2.1,0.4,3.1c0.3,1,0.7,1.9,1.3,2.7s1.3,1.5,2.2,1.9c0.9,0.5,1.9,0.7,3.1,0.7
			c0.8,0,1.5-0.1,2.1-0.4c0.7-0.3,1.3-0.7,1.8-1.2s0.9-1.1,1.3-1.8c0.3-0.7,0.5-1.5,0.6-2.3h2.5c-0.3,2.4-1.2,4.3-2.7,5.7
			c-1.5,1.4-3.3,2-5.6,2c-1.5,0-2.9-0.3-4.1-0.8c-1.2-0.6-2.2-1.3-3-2.3s-1.4-2.1-1.8-3.4s-0.6-2.7-0.6-4.1c0-1.5,0.2-2.8,0.6-4.1
			s1-2.4,1.8-3.4c0.8-1,1.8-1.7,3-2.3c1.2-0.6,2.5-0.9,4.1-0.9c2.2,0,4,0.6,5.5,1.7s2.4,2.9,2.7,5.2h-2.5
			C315,318.3,314.4,317.1,313.5,316.2z"/>
		<path class="st1" d="M334,313.7c1.2,0.6,2.2,1.3,3,2.3c0.8,1,1.4,2.1,1.8,3.4c0.4,1.3,0.6,2.7,0.6,4.1c0,1.5-0.2,2.8-0.6,4.1
			c-0.4,1.3-1,2.4-1.8,3.4s-1.8,1.7-3,2.3c-1.2,0.6-2.5,0.8-4.1,0.8c-1.5,0-2.9-0.3-4.1-0.8c-1.2-0.6-2.2-1.3-3-2.3
			s-1.4-2.1-1.8-3.4s-0.6-2.7-0.6-4.1c0-1.5,0.2-2.8,0.6-4.1s1-2.4,1.8-3.4c0.8-1,1.8-1.7,3-2.3c1.2-0.6,2.5-0.9,4.1-0.9
			C331.4,312.9,332.8,313.2,334,313.7z M326.8,315.7c-0.9,0.5-1.6,1.1-2.2,1.9s-1,1.7-1.3,2.7c-0.3,1-0.4,2.1-0.4,3.1
			c0,1.1,0.1,2.1,0.4,3.1c0.3,1,0.7,1.9,1.3,2.7s1.3,1.5,2.2,1.9c0.9,0.5,1.9,0.7,3.1,0.7s2.2-0.2,3.1-0.7c0.9-0.5,1.6-1.1,2.2-1.9
			c0.6-0.8,1-1.7,1.3-2.7c0.3-1,0.4-2.1,0.4-3.1c0-1.1-0.1-2.1-0.4-3.1c-0.3-1-0.7-1.9-1.3-2.7c-0.6-0.8-1.3-1.5-2.2-1.9
			s-1.9-0.7-3.1-0.7S327.7,315.2,326.8,315.7z"/>
		<path class="st1" d="M345.4,313.5v3.5h0.1c0.5-1.2,1.3-2.2,2.5-2.9c1.2-0.7,2.5-1.1,3.9-1.1c1.4,0,2.6,0.2,3.5,0.5
			s1.7,0.9,2.3,1.5s1,1.5,1.2,2.4s0.3,2,0.3,3.2v12.9h-2.5V321c0-0.9-0.1-1.7-0.2-2.4c-0.2-0.7-0.4-1.4-0.8-1.9
			c-0.4-0.5-0.9-1-1.6-1.3c-0.7-0.3-1.5-0.5-2.5-0.5s-1.9,0.2-2.6,0.5c-0.8,0.3-1.4,0.8-1.9,1.4c-0.5,0.6-0.9,1.3-1.2,2.2
			c-0.3,0.8-0.5,1.8-0.5,2.7v11.7H343v-20.1H345.4z"/>
		<path class="st1" d="M364.4,313.5l6.3,17.6h0.1l6.2-17.6h2.5l-7.5,20.1h-2.6l-7.7-20.1H364.4z"/>
		<path class="st1" d="M383.7,326.9c0.2,0.9,0.6,1.8,1.2,2.5c0.5,0.8,1.2,1.4,2.1,1.9c0.8,0.5,1.8,0.7,3,0.7c1.8,0,3.2-0.5,4.2-1.4
			c1-0.9,1.7-2.2,2.1-3.7h2.5c-0.5,2.3-1.5,4-2.9,5.3s-3.4,1.9-5.9,1.9c-1.6,0-2.9-0.3-4.1-0.8c-1.2-0.6-2.1-1.3-2.8-2.3
			c-0.7-1-1.3-2.1-1.6-3.4c-0.4-1.3-0.5-2.6-0.5-4.1c0-1.3,0.2-2.6,0.5-3.9c0.3-1.3,0.9-2.4,1.6-3.4c0.7-1,1.7-1.8,2.8-2.4
			c1.2-0.6,2.5-0.9,4.1-0.9c1.6,0,3,0.3,4.1,1c1.1,0.6,2.1,1.5,2.8,2.5c0.7,1.1,1.2,2.3,1.5,3.6s0.4,2.7,0.4,4.1h-15.4
			C383.4,325,383.5,325.9,383.7,326.9z M395.9,319.4c-0.3-0.9-0.7-1.6-1.3-2.3c-0.5-0.7-1.2-1.2-2-1.6c-0.8-0.4-1.7-0.6-2.6-0.6
			c-1,0-1.9,0.2-2.7,0.6c-0.8,0.4-1.4,0.9-2,1.6c-0.5,0.7-1,1.4-1.3,2.3c-0.3,0.9-0.5,1.8-0.6,2.7h13
			C396.3,321.2,396.2,320.3,395.9,319.4z"/>
		<path class="st1" d="M404.4,313.5v4.7h0.1c0.6-1.6,1.6-2.9,2.9-3.8c1.3-0.9,2.9-1.3,4.7-1.2v2.5c-1.1-0.1-2.1,0.1-3,0.4
			c-0.9,0.3-1.7,0.8-2.4,1.5c-0.7,0.6-1.2,1.4-1.5,2.3c-0.4,0.9-0.5,1.9-0.5,2.9v10.7h-2.5v-20.1H404.4z"/>
		<path class="st1" d="M425.9,317.4c-0.3-0.6-0.7-1-1.1-1.4c-0.5-0.4-1-0.6-1.7-0.8s-1.3-0.3-2-0.3c-0.5,0-1.1,0.1-1.7,0.2
			c-0.6,0.1-1.1,0.3-1.5,0.6c-0.5,0.3-0.8,0.6-1.1,1.1s-0.4,1-0.4,1.6c0,0.5,0.1,1,0.4,1.4c0.3,0.4,0.6,0.7,1,1
			c0.4,0.3,0.9,0.5,1.4,0.6c0.5,0.2,0.9,0.3,1.4,0.4l3.3,0.7c0.7,0.1,1.4,0.3,2.1,0.6s1.3,0.6,1.8,1.1c0.5,0.4,1,1,1.3,1.6
			c0.3,0.6,0.5,1.4,0.5,2.3c0,1.1-0.2,2-0.7,2.8s-1.1,1.4-1.9,1.9c-0.8,0.5-1.6,0.8-2.6,1c-1,0.2-1.9,0.3-2.8,0.3
			c-2.4,0-4.3-0.6-5.7-1.7c-1.5-1.1-2.3-2.9-2.5-5.4h2.4c0.1,1.7,0.7,2.9,1.8,3.8c1.1,0.8,2.5,1.3,4.1,1.3c0.6,0,1.2-0.1,1.8-0.2
			c0.6-0.1,1.2-0.4,1.8-0.7c0.5-0.3,1-0.7,1.3-1.2c0.4-0.5,0.5-1.1,0.5-1.8c0-0.6-0.1-1.1-0.4-1.5c-0.2-0.4-0.6-0.7-1-1
			s-0.9-0.5-1.4-0.7c-0.5-0.2-1.1-0.3-1.6-0.5l-3.2-0.7c-0.8-0.2-1.5-0.4-2.2-0.7c-0.7-0.3-1.3-0.6-1.8-1c-0.5-0.4-0.9-0.9-1.2-1.5
			s-0.4-1.3-0.4-2.2c0-1,0.2-1.9,0.7-2.6s1-1.3,1.8-1.8c0.7-0.4,1.5-0.8,2.4-1c0.9-0.2,1.8-0.3,2.7-0.3c1,0,2,0.1,2.8,0.4
			c0.9,0.3,1.6,0.7,2.3,1.2c0.7,0.5,1.2,1.2,1.6,2s0.6,1.8,0.7,2.8h-2.5C426.4,318.6,426.2,317.9,425.9,317.4z"/>
		<path class="st1" d="M433.6,316.6c0.4-0.9,1-1.6,1.7-2.1c0.7-0.5,1.5-0.9,2.5-1.2c1-0.3,2-0.4,3.2-0.4c0.9,0,1.8,0.1,2.6,0.3
			c0.9,0.2,1.7,0.5,2.4,1s1.3,1.1,1.7,2c0.4,0.8,0.7,1.9,0.7,3.3V330c0,1,0.5,1.5,1.4,1.5c0.3,0,0.5-0.1,0.8-0.2v2.1
			c-0.3,0.1-0.5,0.1-0.8,0.1c-0.2,0-0.5,0-0.8,0c-0.6,0-1.1-0.1-1.5-0.3c-0.4-0.2-0.7-0.4-0.9-0.7c-0.2-0.3-0.3-0.7-0.4-1.1
			s-0.1-0.9-0.1-1.4H446c-0.4,0.6-0.9,1.2-1.3,1.7c-0.5,0.5-1,0.9-1.5,1.3c-0.6,0.3-1.2,0.6-1.9,0.8c-0.7,0.2-1.6,0.3-2.5,0.3
			c-0.9,0-1.8-0.1-2.6-0.3s-1.5-0.6-2.1-1c-0.6-0.5-1.1-1.1-1.4-1.8s-0.5-1.6-0.5-2.6c0-1.4,0.3-2.5,0.9-3.3s1.4-1.4,2.5-1.8
			c1-0.4,2.2-0.7,3.5-0.9c1.3-0.2,2.6-0.3,3.9-0.5c0.5-0.1,1-0.1,1.4-0.2c0.4-0.1,0.7-0.2,1-0.4c0.3-0.2,0.5-0.5,0.6-0.8
			c0.1-0.3,0.2-0.8,0.2-1.3c0-0.8-0.1-1.5-0.4-2c-0.3-0.5-0.6-1-1.1-1.3c-0.5-0.3-1-0.5-1.7-0.6c-0.6-0.1-1.3-0.2-2-0.2
			c-1.6,0-2.8,0.4-3.8,1.1s-1.5,1.9-1.6,3.6h-2.4C432.9,318.4,433.2,317.4,433.6,316.6z M445.8,322.6c-0.2,0.3-0.5,0.5-0.9,0.6
			c-0.4,0.1-0.8,0.2-1.2,0.3c-1,0.2-2.1,0.3-3.2,0.5c-1.1,0.1-2.1,0.4-3,0.6c-0.9,0.3-1.7,0.7-2.2,1.2c-0.6,0.5-0.9,1.3-0.9,2.3
			c0,0.6,0.1,1.2,0.4,1.7c0.2,0.5,0.6,0.9,1,1.2c0.4,0.3,0.9,0.6,1.4,0.8c0.5,0.2,1.1,0.3,1.7,0.3c0.9,0,1.8-0.1,2.7-0.4
			s1.6-0.7,2.2-1.2c0.6-0.5,1.1-1.2,1.5-2c0.4-0.8,0.6-1.7,0.6-2.6L445.8,322.6L445.8,322.6z"/>
		<path class="st1" d="M461.2,313.5v2.1h-4.1v13.5c0,0.8,0.1,1.4,0.3,1.9c0.2,0.5,0.8,0.7,1.7,0.8c0.7,0,1.4,0,2.1-0.1v2.1
			c-0.4,0-0.7,0-1.1,0s-0.7,0-1.1,0c-1.6,0-2.8-0.3-3.4-1c-0.6-0.6-1-1.8-0.9-3.5v-13.7h-3.5v-2.1h3.5v-6h2.5v6H461.2z"/>
		<path class="st1" d="M467.3,305.8v3.9h-2.5v-3.9H467.3z M467.3,313.5v20.1h-2.5v-20.1H467.3z"/>
		<path class="st1" d="M484.5,313.7c1.2,0.6,2.2,1.3,3,2.3c0.8,1,1.4,2.1,1.8,3.4c0.4,1.3,0.6,2.7,0.6,4.1c0,1.5-0.2,2.8-0.6,4.1
			c-0.4,1.3-1,2.4-1.8,3.4s-1.8,1.7-3,2.3c-1.2,0.6-2.5,0.8-4.1,0.8c-1.5,0-2.9-0.3-4.1-0.8c-1.2-0.6-2.2-1.3-3-2.3
			s-1.4-2.1-1.8-3.4s-0.6-2.7-0.6-4.1c0-1.5,0.2-2.8,0.6-4.1s1-2.4,1.8-3.4c0.8-1,1.8-1.7,3-2.3c1.2-0.6,2.5-0.9,4.1-0.9
			C482,312.9,483.3,313.2,484.5,313.7z M477.4,315.7c-0.9,0.5-1.6,1.1-2.2,1.9s-1,1.7-1.3,2.7c-0.3,1-0.4,2.1-0.4,3.1
			c0,1.1,0.1,2.1,0.4,3.1c0.3,1,0.7,1.9,1.3,2.7s1.3,1.5,2.2,1.9c0.9,0.5,1.9,0.7,3.1,0.7s2.2-0.2,3.1-0.7c0.9-0.5,1.6-1.1,2.2-1.9
			c0.6-0.8,1-1.7,1.3-2.7c0.3-1,0.4-2.1,0.4-3.1c0-1.1-0.1-2.1-0.4-3.1c-0.3-1-0.7-1.9-1.3-2.7c-0.6-0.8-1.3-1.5-2.2-1.9
			s-1.9-0.7-3.1-0.7S478.2,315.2,477.4,315.7z"/>
		<path class="st1" d="M496,313.5v3.5h0.1c0.5-1.2,1.3-2.2,2.5-2.9c1.2-0.7,2.5-1.1,3.9-1.1c1.4,0,2.6,0.2,3.5,0.5s1.7,0.9,2.3,1.5
			s1,1.5,1.2,2.4s0.3,2,0.3,3.2v12.9h-2.5V321c0-0.9-0.1-1.7-0.2-2.4c-0.2-0.7-0.4-1.4-0.8-1.9c-0.4-0.5-0.9-1-1.6-1.3
			c-0.7-0.3-1.5-0.5-2.5-0.5s-1.9,0.2-2.6,0.5c-0.8,0.3-1.4,0.8-1.9,1.4c-0.5,0.6-0.9,1.3-1.2,2.2c-0.3,0.8-0.5,1.8-0.5,2.7v11.7
			h-2.5v-20.1H496z"/>
		<path class="st1" d="M537.8,313.7c1.2,0.6,2.2,1.3,3,2.3c0.8,1,1.4,2.1,1.8,3.4c0.4,1.3,0.6,2.7,0.6,4.1c0,1.5-0.2,2.8-0.6,4.1
			c-0.4,1.3-1,2.4-1.8,3.4s-1.8,1.7-3,2.3c-1.2,0.6-2.5,0.8-4.1,0.8c-1.5,0-2.9-0.3-4.1-0.8c-1.2-0.6-2.2-1.3-3-2.3
			s-1.4-2.1-1.8-3.4s-0.6-2.7-0.6-4.1c0-1.5,0.2-2.8,0.6-4.1s1-2.4,1.8-3.4c0.8-1,1.8-1.7,3-2.3c1.2-0.6,2.5-0.9,4.1-0.9
			C535.3,312.9,536.6,313.2,537.8,313.7z M530.7,315.7c-0.9,0.5-1.6,1.1-2.2,1.9s-1,1.7-1.3,2.7c-0.3,1-0.4,2.1-0.4,3.1
			c0,1.1,0.1,2.1,0.4,3.1c0.3,1,0.7,1.9,1.3,2.7s1.3,1.5,2.2,1.9c0.9,0.5,1.9,0.7,3.1,0.7s2.2-0.2,3.1-0.7c0.9-0.5,1.6-1.1,2.2-1.9
			c0.6-0.8,1-1.7,1.3-2.7c0.3-1,0.4-2.1,0.4-3.1c0-1.1-0.1-2.1-0.4-3.1c-0.3-1-0.7-1.9-1.3-2.7c-0.6-0.8-1.3-1.5-2.2-1.9
			s-1.9-0.7-3.1-0.7S531.6,315.2,530.7,315.7z"/>
		<path class="st1" d="M549.3,313.5v3.5h0.1c0.5-1.2,1.3-2.2,2.5-2.9c1.2-0.7,2.5-1.1,3.9-1.1c1.4,0,2.6,0.2,3.5,0.5
			s1.7,0.9,2.3,1.5s1,1.5,1.2,2.4s0.3,2,0.3,3.2v12.9h-2.5V321c0-0.9-0.1-1.7-0.2-2.4c-0.2-0.7-0.4-1.4-0.8-1.9
			c-0.4-0.5-0.9-1-1.6-1.3c-0.7-0.3-1.5-0.5-2.5-0.5s-1.9,0.2-2.6,0.5c-0.8,0.3-1.4,0.8-1.9,1.4c-0.5,0.6-0.9,1.3-1.2,2.2
			c-0.3,0.8-0.5,1.8-0.5,2.7v11.7h-2.5v-20.1H549.3z"/>
		<path class="st1" d="M590.1,317.4c-0.3-0.6-0.7-1-1.1-1.4c-0.5-0.4-1-0.6-1.7-0.8s-1.3-0.3-2-0.3c-0.5,0-1.1,0.1-1.7,0.2
			c-0.6,0.1-1.1,0.3-1.5,0.6c-0.5,0.3-0.8,0.6-1.1,1.1s-0.4,1-0.4,1.6c0,0.5,0.1,1,0.4,1.4c0.3,0.4,0.6,0.7,1,1
			c0.4,0.3,0.9,0.5,1.4,0.6c0.5,0.2,0.9,0.3,1.4,0.4l3.3,0.7c0.7,0.1,1.4,0.3,2.1,0.6s1.3,0.6,1.8,1.1c0.5,0.4,1,1,1.3,1.6
			c0.3,0.6,0.5,1.4,0.5,2.3c0,1.1-0.2,2-0.7,2.8s-1.1,1.4-1.9,1.9c-0.8,0.5-1.6,0.8-2.6,1c-1,0.2-1.9,0.3-2.8,0.3
			c-2.4,0-4.3-0.6-5.7-1.7c-1.5-1.1-2.3-2.9-2.5-5.4h2.4c0.1,1.7,0.7,2.9,1.8,3.8c1.1,0.8,2.5,1.3,4.1,1.3c0.6,0,1.2-0.1,1.8-0.2
			c0.6-0.1,1.2-0.4,1.8-0.7c0.5-0.3,1-0.7,1.3-1.2c0.4-0.5,0.5-1.1,0.5-1.8c0-0.6-0.1-1.1-0.4-1.5c-0.2-0.4-0.6-0.7-1-1
			s-0.9-0.5-1.4-0.7c-0.5-0.2-1.1-0.3-1.6-0.5l-3.2-0.7c-0.8-0.2-1.5-0.4-2.2-0.7c-0.7-0.3-1.3-0.6-1.8-1c-0.5-0.4-0.9-0.9-1.2-1.5
			s-0.4-1.3-0.4-2.2c0-1,0.2-1.9,0.7-2.6s1-1.3,1.8-1.8c0.7-0.4,1.5-0.8,2.4-1c0.9-0.2,1.8-0.3,2.7-0.3c1,0,2,0.1,2.8,0.4
			c0.9,0.3,1.6,0.7,2.3,1.2c0.7,0.5,1.2,1.2,1.6,2s0.6,1.8,0.7,2.8h-2.5C590.6,318.6,590.4,317.9,590.1,317.4z"/>
		<path class="st1" d="M609.8,313.7c1.2,0.6,2.2,1.3,3,2.3c0.8,1,1.4,2.1,1.8,3.4c0.4,1.3,0.6,2.7,0.6,4.1c0,1.5-0.2,2.8-0.6,4.1
			c-0.4,1.3-1,2.4-1.8,3.4s-1.8,1.7-3,2.3c-1.2,0.6-2.5,0.8-4.1,0.8c-1.5,0-2.9-0.3-4.1-0.8c-1.2-0.6-2.2-1.3-3-2.3
			s-1.4-2.1-1.8-3.4s-0.6-2.7-0.6-4.1c0-1.5,0.2-2.8,0.6-4.1s1-2.4,1.8-3.4c0.8-1,1.8-1.7,3-2.3c1.2-0.6,2.5-0.9,4.1-0.9
			C607.3,312.9,608.7,313.2,609.8,313.7z M602.7,315.7c-0.9,0.5-1.6,1.1-2.2,1.9s-1,1.7-1.3,2.7c-0.3,1-0.4,2.1-0.4,3.1
			c0,1.1,0.1,2.1,0.4,3.1c0.3,1,0.7,1.9,1.3,2.7s1.3,1.5,2.2,1.9c0.9,0.5,1.9,0.7,3.1,0.7s2.2-0.2,3.1-0.7c0.9-0.5,1.6-1.1,2.2-1.9
			c0.6-0.8,1-1.7,1.3-2.7c0.3-1,0.4-2.1,0.4-3.1c0-1.1-0.1-2.1-0.4-3.1c-0.3-1-0.7-1.9-1.3-2.7c-0.6-0.8-1.3-1.5-2.2-1.9
			s-1.9-0.7-3.1-0.7S603.6,315.2,602.7,315.7z"/>
		<path class="st1" d="M631.2,316.2c-0.9-0.9-2.2-1.3-3.8-1.3c-1.2,0-2.2,0.2-3.1,0.7c-0.9,0.5-1.6,1.1-2.2,1.9s-1,1.7-1.3,2.7
			c-0.3,1-0.4,2.1-0.4,3.1c0,1.1,0.1,2.1,0.4,3.1c0.3,1,0.7,1.9,1.3,2.7s1.3,1.5,2.2,1.9c0.9,0.5,1.9,0.7,3.1,0.7
			c0.8,0,1.5-0.1,2.1-0.4c0.7-0.3,1.3-0.7,1.8-1.2s0.9-1.1,1.3-1.8c0.3-0.7,0.5-1.5,0.6-2.3h2.5c-0.3,2.4-1.2,4.3-2.7,5.7
			c-1.5,1.4-3.3,2-5.6,2c-1.5,0-2.9-0.3-4.1-0.8c-1.2-0.6-2.2-1.3-3-2.3s-1.4-2.1-1.8-3.4s-0.6-2.7-0.6-4.1c0-1.5,0.2-2.8,0.6-4.1
			s1-2.4,1.8-3.4c0.8-1,1.8-1.7,3-2.3c1.2-0.6,2.5-0.9,4.1-0.9c2.2,0,4,0.6,5.5,1.7s2.4,2.9,2.7,5.2h-2.5
			C632.7,318.3,632.1,317.1,631.2,316.2z"/>
		<path class="st1" d="M641.6,305.8v3.9h-2.5v-3.9H641.6z M641.6,313.5v20.1h-2.5v-20.1H641.6z"/>
		<path class="st1" d="M646.8,316.6c0.4-0.9,1-1.6,1.7-2.1c0.7-0.5,1.5-0.9,2.5-1.2c1-0.3,2-0.4,3.2-0.4c0.9,0,1.8,0.1,2.6,0.3
			c0.9,0.2,1.7,0.5,2.4,1s1.3,1.1,1.7,2c0.4,0.8,0.7,1.9,0.7,3.3V330c0,1,0.5,1.5,1.4,1.5c0.3,0,0.5-0.1,0.8-0.2v2.1
			c-0.3,0.1-0.5,0.1-0.8,0.1c-0.2,0-0.5,0-0.8,0c-0.6,0-1.1-0.1-1.5-0.3c-0.4-0.2-0.7-0.4-0.9-0.7c-0.2-0.3-0.3-0.7-0.4-1.1
			s-0.1-0.9-0.1-1.4h-0.1c-0.4,0.6-0.9,1.2-1.3,1.7c-0.5,0.5-1,0.9-1.5,1.3c-0.6,0.3-1.2,0.6-1.9,0.8c-0.7,0.2-1.6,0.3-2.5,0.3
			c-0.9,0-1.8-0.1-2.6-0.3s-1.5-0.6-2.1-1c-0.6-0.5-1.1-1.1-1.4-1.8s-0.5-1.6-0.5-2.6c0-1.4,0.3-2.5,0.9-3.3s1.4-1.4,2.5-1.8
			c1-0.4,2.2-0.7,3.5-0.9c1.3-0.2,2.6-0.3,3.9-0.5c0.5-0.1,1-0.1,1.4-0.2c0.4-0.1,0.7-0.2,1-0.4c0.3-0.2,0.5-0.5,0.6-0.8
			c0.1-0.3,0.2-0.8,0.2-1.3c0-0.8-0.1-1.5-0.4-2c-0.3-0.5-0.6-1-1.1-1.3c-0.5-0.3-1-0.5-1.7-0.6c-0.6-0.1-1.3-0.2-2-0.2
			c-1.6,0-2.8,0.4-3.8,1.1s-1.5,1.9-1.6,3.6h-2.4C646.2,318.4,646.4,317.4,646.8,316.6z M659.1,322.6c-0.2,0.3-0.5,0.5-0.9,0.6
			c-0.4,0.1-0.8,0.2-1.2,0.3c-1,0.2-2.1,0.3-3.2,0.5c-1.1,0.1-2.1,0.4-3,0.6c-0.9,0.3-1.7,0.7-2.2,1.2c-0.6,0.5-0.9,1.3-0.9,2.3
			c0,0.6,0.1,1.2,0.4,1.7c0.2,0.5,0.6,0.9,1,1.2c0.4,0.3,0.9,0.6,1.4,0.8c0.5,0.2,1.1,0.3,1.7,0.3c0.9,0,1.8-0.1,2.7-0.4
			s1.6-0.7,2.2-1.2c0.6-0.5,1.1-1.2,1.5-2c0.4-0.8,0.6-1.7,0.6-2.6L659.1,322.6L659.1,322.6z"/>
		<path class="st1" d="M669,305.8v27.8h-2.5v-27.8H669z"/>
		<path class="st1" d="M686.8,313.5v3.4h0.1c0.6-1.2,1.5-2.2,2.5-2.9c1-0.7,2.4-1.1,4-1.1c1.3,0,2.5,0.3,3.6,1
			c1.1,0.6,1.8,1.6,2.2,3c0.6-1.3,1.5-2.3,2.6-3c1.2-0.6,2.4-1,3.7-1c4.4,0,6.7,2.3,6.7,7v13.6h-2.5V320c0-1.7-0.3-2.9-1-3.8
			c-0.7-0.9-1.9-1.3-3.7-1.3c-1.1,0-1.9,0.2-2.6,0.6c-0.7,0.4-1.3,0.9-1.7,1.6c-0.4,0.7-0.7,1.4-0.9,2.3c-0.2,0.9-0.3,1.8-0.3,2.7
			v11.4h-2.5v-13.6c0-0.7-0.1-1.3-0.2-1.9c-0.1-0.6-0.4-1.1-0.7-1.6c-0.3-0.5-0.8-0.8-1.3-1.1c-0.5-0.3-1.2-0.4-2-0.4
			c-1,0-1.9,0.2-2.7,0.6c-0.8,0.4-1.4,0.9-1.9,1.6c-0.5,0.7-0.8,1.4-1.1,2.3s-0.4,1.9-0.4,2.9v11.2h-2.5v-20.1H686.8z"/>
		<path class="st1" d="M718.7,326.9c0.2,0.9,0.6,1.8,1.2,2.5c0.5,0.8,1.2,1.4,2.1,1.9c0.8,0.5,1.8,0.7,3,0.7c1.8,0,3.2-0.5,4.2-1.4
			c1-0.9,1.7-2.2,2.1-3.7h2.5c-0.5,2.3-1.5,4-2.9,5.3s-3.4,1.9-5.9,1.9c-1.6,0-2.9-0.3-4.1-0.8c-1.2-0.6-2.1-1.3-2.8-2.3
			c-0.7-1-1.3-2.1-1.6-3.4c-0.4-1.3-0.5-2.6-0.5-4.1c0-1.3,0.2-2.6,0.5-3.9c0.3-1.3,0.9-2.4,1.6-3.4c0.7-1,1.7-1.8,2.8-2.4
			c1.2-0.6,2.5-0.9,4.1-0.9c1.6,0,3,0.3,4.1,1c1.1,0.6,2.1,1.5,2.8,2.5c0.7,1.1,1.2,2.3,1.5,3.6s0.4,2.7,0.4,4.1h-15.4
			C718.3,325,718.5,325.9,718.7,326.9z M730.8,319.4c-0.3-0.9-0.7-1.6-1.3-2.3c-0.5-0.7-1.2-1.2-2-1.6c-0.8-0.4-1.7-0.6-2.6-0.6
			c-1,0-1.9,0.2-2.7,0.6c-0.8,0.4-1.4,0.9-2,1.6c-0.5,0.7-1,1.4-1.3,2.3c-0.3,0.9-0.5,1.8-0.6,2.7h13
			C731.3,321.2,731.1,320.3,730.8,319.4z"/>
		<path class="st1" d="M752.5,333.5v-3.8h-0.1c-0.3,0.6-0.6,1.2-1.1,1.8c-0.5,0.5-1.1,1-1.7,1.4s-1.3,0.7-2.1,0.9
			c-0.7,0.2-1.5,0.3-2.2,0.3c-1.5,0-2.9-0.3-4-0.8c-1.1-0.6-2.1-1.3-2.8-2.3c-0.8-1-1.3-2.1-1.7-3.4c-0.4-1.3-0.5-2.6-0.5-4.1
			c0-1.4,0.2-2.8,0.5-4.1c0.4-1.3,0.9-2.4,1.7-3.4s1.7-1.7,2.8-2.3c1.1-0.6,2.5-0.9,4-0.9c0.8,0,1.5,0.1,2.2,0.3
			c0.7,0.2,1.4,0.5,2,0.8c0.6,0.4,1.2,0.8,1.7,1.4c0.5,0.5,0.8,1.2,1.1,1.9h0.1v-11.5h2.5v27.8H752.5z M739,326.6
			c0.2,1,0.6,1.9,1.2,2.7s1.2,1.5,2,2c0.8,0.5,1.8,0.8,3,0.8c1.3,0,2.4-0.3,3.3-0.8s1.6-1.2,2.2-2c0.6-0.8,1-1.7,1.2-2.7
			c0.2-1,0.4-2.1,0.4-3.1c0-1-0.1-2.1-0.4-3.1c-0.2-1-0.6-1.9-1.2-2.7c-0.6-0.8-1.3-1.5-2.2-2c-0.9-0.5-2-0.8-3.3-0.8
			c-1.2,0-2.2,0.3-3,0.8c-0.8,0.5-1.5,1.2-2,2s-0.9,1.7-1.2,2.7c-0.2,1-0.4,2.1-0.4,3.1C738.7,324.5,738.8,325.6,739,326.6z"/>
		<path class="st1" d="M761.9,305.8v3.9h-2.5v-3.9H761.9z M761.9,313.5v20.1h-2.5v-20.1H761.9z"/>
		<path class="st1" d="M767.1,316.6c0.4-0.9,1-1.6,1.7-2.1c0.7-0.5,1.5-0.9,2.5-1.2c1-0.3,2-0.4,3.2-0.4c0.9,0,1.8,0.1,2.6,0.3
			c0.9,0.2,1.7,0.5,2.4,1s1.3,1.1,1.7,2c0.4,0.8,0.7,1.9,0.7,3.3V330c0,1,0.5,1.5,1.4,1.5c0.3,0,0.5-0.1,0.8-0.2v2.1
			c-0.3,0.1-0.5,0.1-0.8,0.1c-0.2,0-0.5,0-0.8,0c-0.6,0-1.1-0.1-1.5-0.3c-0.4-0.2-0.7-0.4-0.9-0.7c-0.2-0.3-0.3-0.7-0.4-1.1
			s-0.1-0.9-0.1-1.4h-0.1c-0.4,0.6-0.9,1.2-1.3,1.7c-0.5,0.5-1,0.9-1.5,1.3c-0.6,0.3-1.2,0.6-1.9,0.8c-0.7,0.2-1.6,0.3-2.5,0.3
			c-0.9,0-1.8-0.1-2.6-0.3s-1.5-0.6-2.1-1c-0.6-0.5-1.1-1.1-1.4-1.8s-0.5-1.6-0.5-2.6c0-1.4,0.3-2.5,0.9-3.3s1.4-1.4,2.5-1.8
			c1-0.4,2.2-0.7,3.5-0.9c1.3-0.2,2.6-0.3,3.9-0.5c0.5-0.1,1-0.1,1.4-0.2c0.4-0.1,0.7-0.2,1-0.4c0.3-0.2,0.5-0.5,0.6-0.8
			c0.1-0.3,0.2-0.8,0.2-1.3c0-0.8-0.1-1.5-0.4-2c-0.3-0.5-0.6-1-1.1-1.3c-0.5-0.3-1-0.5-1.7-0.6c-0.6-0.1-1.3-0.2-2-0.2
			c-1.6,0-2.8,0.4-3.8,1.1s-1.5,1.9-1.6,3.6h-2.4C766.4,318.4,766.7,317.4,767.1,316.6z M779.4,322.6c-0.2,0.3-0.5,0.5-0.9,0.6
			c-0.4,0.1-0.8,0.2-1.2,0.3c-1,0.2-2.1,0.3-3.2,0.5c-1.1,0.1-2.1,0.4-3,0.6c-0.9,0.3-1.7,0.7-2.2,1.2c-0.6,0.5-0.9,1.3-0.9,2.3
			c0,0.6,0.1,1.2,0.4,1.7c0.2,0.5,0.6,0.9,1,1.2c0.4,0.3,0.9,0.6,1.4,0.8c0.5,0.2,1.1,0.3,1.7,0.3c0.9,0,1.8-0.1,2.7-0.4
			s1.6-0.7,2.2-1.2c0.6-0.5,1.1-1.2,1.5-2c0.4-0.8,0.6-1.7,0.6-2.6L779.4,322.6L779.4,322.6z"/>
		<path class="st1" d="M787.5,329.4h3.3v4.1h-3.3V329.4z M787.8,305.8h2.6v8.3l-0.6,12.6h-1.5l-0.6-12.6V305.8z"/>
	</g>
</g>
</svg>
