<?xml version="1.0" encoding="utf-8"?>
<!-- Generator: Adobe Illustrator 19.1.0, SVG Export Plug-In . SVG Version: 6.00 Build 0)  -->
<!DOCTYPE svg PUBLIC "-//W3C//DTD SVG 1.1//EN" "http://www.w3.org/Graphics/SVG/1.1/DTD/svg11.dtd" [
	<!ENTITY ns_extend "http://ns.adobe.com/Extensibility/1.0/">
	<!ENTITY ns_ai "http://ns.adobe.com/AdobeIllustrator/10.0/">
	<!ENTITY ns_graphs "http://ns.adobe.com/Graphs/1.0/">
	<!ENTITY ns_vars "http://ns.adobe.com/Variables/1.0/">
	<!ENTITY ns_imrep "http://ns.adobe.com/ImageReplacement/1.0/">
	<!ENTITY ns_sfw "http://ns.adobe.com/SaveForWeb/1.0/">
	<!ENTITY ns_custom "http://ns.adobe.com/GenericCustomNamespace/1.0/">
	<!ENTITY ns_adobe_xpath "http://ns.adobe.com/XPath/1.0/">
]>
<svg version="1.1" id="Layer_1" xmlns:x="&ns_extend;" xmlns:i="&ns_ai;" xmlns:graph="&ns_graphs;"
	 xmlns="http://www.w3.org/2000/svg" xmlns:xlink="http://www.w3.org/1999/xlink" x="0px" y="0px" width="838.7px" height="207px"
	 viewBox="23 203 838.7 207" style="enable-background:new 23 203 838.7 207;" xml:space="preserve">
<style type="text/css">
	.st0{fill:#E63C2F;}
	.st1{fill:#FFFFFF;}
</style>
<metadata>
	<sfw  xmlns="&ns_sfw;">
		<slices></slices>
		<sliceSourceBounds  width="826.1" height="190.3" bottomLeftOrigin="true" x="6.3" y="8.3"></sliceSourceBounds>
		<optimizationSettings>
			<targetSettings  targetSettingsID="0" fileFormat="JPEGFormat">
				
					<JPEGFormat  quality="60" blurAmount="0" embedICCProfile="false" optimized="true" matteColor="#FFFFFF" noMatteColor="false" progressive="false">
					</JPEGFormat>
			</targetSettings>
		</optimizationSettings>
	</sfw>
</metadata>
<g>
	<g>
		<g>
			<g>
				<path class="st0" d="M56.2,370.7H37.3c-3.3,0-5.9,2.7-5.9,5.9v6.3v12.6c0,3.3,2.7,5.9,5.9,5.9h18.8c3.3,0,5.9-2.7,5.9-5.9v-12.6
					v-6.3C62.1,373.4,59.4,370.7,56.2,370.7z M57.9,374.3l0.7,0v0.7v4.5l-5.2,0l0-5.2L57.9,374.3z M42.4,382.9
					c1-1.4,2.6-2.3,4.4-2.3s3.4,0.9,4.4,2.3c0.6,0.9,1,2,1,3.2c0,3-2.4,5.4-5.4,5.4c-3,0-5.4-2.4-5.4-5.4
					C41.3,384.9,41.7,383.8,42.4,382.9z M59.1,395.5c0,1.6-1.3,2.9-2.9,2.9H37.3c-1.6,0-2.9-1.3-2.9-2.9v-12.6H39
					c-0.4,1-0.6,2-0.6,3.2c0,4.6,3.8,8.4,8.4,8.4c4.6,0,8.4-3.8,8.4-8.4c0-1.1-0.2-2.2-0.6-3.2h4.6V395.5z"/>
				<g>
					<path class="st1" d="M87.2,395.9l-3.3-13.2h-0.1l-3.2,13.2h-4.3l-5.1-19.4h4.3l3.1,13.2h0.1l3.4-13.2h4l3.3,13.4h0.1l3.2-13.4
						h4.2l-5.2,19.4H87.2z"/>
					<path class="st1" d="M96.7,385.8c0.3-0.9,0.8-1.7,1.5-2.3c0.6-0.6,1.4-1.1,2.3-1.5s1.9-0.5,3-0.5c1.1,0,2.1,0.2,3,0.5
						c0.9,0.4,1.7,0.9,2.3,1.5s1.1,1.4,1.5,2.3c0.3,0.9,0.5,1.9,0.5,3.1c0,1.1-0.2,2.1-0.5,3c-0.3,0.9-0.8,1.7-1.5,2.3
						s-1.4,1.1-2.3,1.5c-0.9,0.3-1.9,0.5-3,0.5c-1.1,0-2.1-0.2-3-0.5c-0.9-0.3-1.7-0.8-2.3-1.5c-0.6-0.6-1.1-1.4-1.5-2.3
						c-0.3-0.9-0.5-1.9-0.5-3C96.2,387.8,96.4,386.8,96.7,385.8z M100.2,390.5c0.1,0.5,0.3,1,0.6,1.4c0.3,0.4,0.6,0.8,1,1
						c0.4,0.3,1,0.4,1.6,0.4c0.7,0,1.2-0.1,1.6-0.4s0.8-0.6,1.1-1c0.3-0.4,0.4-0.9,0.6-1.4c0.1-0.5,0.2-1.1,0.2-1.6
						c0-0.6-0.1-1.1-0.2-1.7s-0.3-1-0.6-1.4c-0.3-0.4-0.6-0.8-1.1-1s-1-0.4-1.6-0.4c-0.7,0-1.2,0.1-1.6,0.4c-0.4,0.3-0.8,0.6-1,1
						c-0.3,0.4-0.4,0.9-0.6,1.4c-0.1,0.5-0.2,1.1-0.2,1.7C100,389.5,100.1,390,100.2,390.5z"/>
					<path class="st1" d="M125.3,395.9l-2.5-9.4h-0.1l-2.4,9.4h-4l-4.5-14.1h4.1l2.6,9.5h0.1l2.3-9.5h3.8l2.4,9.5h0.1l2.6-9.5h4
						l-4.4,14.1H125.3z"/>
					<path class="st1" d="M144.9,376.5c0.9,0,1.8,0.1,2.5,0.2c0.8,0.2,1.4,0.4,2,0.8c0.5,0.4,1,0.9,1.3,1.5c0.3,0.6,0.4,1.4,0.4,2.3
						c0,1-0.2,1.8-0.7,2.4c-0.4,0.7-1.1,1.2-2,1.6c1.2,0.3,2.1,0.9,2.7,1.8c0.6,0.9,0.9,1.9,0.9,3.1c0,1-0.2,1.8-0.6,2.5
						c-0.4,0.7-0.9,1.3-1.5,1.8c-0.6,0.5-1.4,0.8-2.2,1c-0.8,0.2-1.7,0.3-2.5,0.3h-9.4v-19.4H144.9z M144.4,384.4
						c0.8,0,1.4-0.2,1.9-0.5c0.5-0.4,0.7-1,0.7-1.8c0-0.5-0.1-0.8-0.2-1.1s-0.4-0.5-0.7-0.7c-0.3-0.2-0.6-0.3-0.9-0.3
						c-0.4-0.1-0.7-0.1-1.1-0.1h-4v4.5H144.4z M144.6,392.6c0.4,0,0.8,0,1.2-0.1c0.4-0.1,0.7-0.2,1-0.4c0.3-0.2,0.5-0.4,0.7-0.8
						c0.2-0.3,0.3-0.7,0.3-1.3c0-1-0.3-1.7-0.8-2.1c-0.6-0.4-1.3-0.6-2.2-0.6h-4.7v5.3H144.6z"/>
					<path class="st1" d="M154.4,386.2c0.1-0.9,0.3-1.7,0.7-2.3c0.4-0.6,0.9-1.1,1.5-1.4c0.6-0.4,1.3-0.6,2.1-0.8
						c0.8-0.2,1.5-0.2,2.3-0.2c0.7,0,1.4,0,2.1,0.1s1.4,0.3,2,0.6c0.6,0.3,1.1,0.7,1.5,1.2s0.6,1.2,0.6,2.1v7.3c0,0.6,0,1.2,0.1,1.8
						c0.1,0.6,0.2,1,0.4,1.3h-3.9c-0.1-0.2-0.1-0.4-0.2-0.7c0-0.2-0.1-0.5-0.1-0.7c-0.6,0.6-1.3,1.1-2.2,1.3s-1.7,0.4-2.6,0.4
						c-0.7,0-1.3-0.1-1.9-0.2c-0.6-0.2-1.1-0.4-1.5-0.8c-0.4-0.3-0.8-0.8-1-1.3c-0.2-0.5-0.4-1.2-0.4-1.9c0-0.8,0.1-1.5,0.4-2
						c0.3-0.5,0.6-0.9,1.1-1.2c0.4-0.3,1-0.5,1.5-0.7c0.6-0.2,1.1-0.3,1.7-0.4s1.2-0.2,1.7-0.2c0.6-0.1,1.1-0.1,1.5-0.2
						c0.4-0.1,0.8-0.3,1-0.5c0.3-0.2,0.4-0.5,0.4-0.9c0-0.4-0.1-0.7-0.2-1c-0.1-0.2-0.3-0.4-0.5-0.6s-0.5-0.2-0.8-0.3
						c-0.3,0-0.6-0.1-1-0.1c-0.8,0-1.4,0.2-1.8,0.5c-0.4,0.3-0.7,0.9-0.8,1.6H154.4z M163.3,389c-0.2,0.1-0.4,0.3-0.6,0.3
						c-0.2,0.1-0.5,0.1-0.8,0.2c-0.3,0.1-0.6,0.1-0.9,0.1c-0.3,0-0.6,0.1-0.9,0.1c-0.3,0.1-0.6,0.1-0.9,0.2s-0.5,0.2-0.7,0.4
						c-0.2,0.2-0.4,0.3-0.5,0.6s-0.2,0.5-0.2,0.9c0,0.3,0.1,0.6,0.2,0.9c0.1,0.2,0.3,0.4,0.5,0.6c0.2,0.1,0.5,0.2,0.8,0.3
						c0.3,0.1,0.6,0.1,0.9,0.1c0.8,0,1.4-0.1,1.8-0.4c0.4-0.3,0.7-0.6,0.9-0.9c0.2-0.4,0.3-0.7,0.4-1.1c0-0.4,0.1-0.7,0.1-0.9V389z"
						/>
					<path class="st1" d="M170.2,385.8c0.3-0.9,0.8-1.7,1.5-2.3c0.6-0.6,1.4-1.1,2.3-1.5s1.9-0.5,3-0.5c1.1,0,2.1,0.2,3,0.5
						c0.9,0.4,1.7,0.9,2.3,1.5s1.1,1.4,1.5,2.3c0.3,0.9,0.5,1.9,0.5,3.1c0,1.1-0.2,2.1-0.5,3c-0.3,0.9-0.8,1.7-1.5,2.3
						s-1.4,1.1-2.3,1.5c-0.9,0.3-1.9,0.5-3,0.5c-1.1,0-2.1-0.2-3-0.5c-0.9-0.3-1.7-0.8-2.3-1.5c-0.6-0.6-1.1-1.4-1.5-2.3
						c-0.3-0.9-0.5-1.9-0.5-3C169.7,387.8,169.9,386.8,170.2,385.8z M173.7,390.5c0.1,0.5,0.3,1,0.6,1.4c0.3,0.4,0.6,0.8,1,1
						c0.4,0.3,1,0.4,1.6,0.4c0.7,0,1.2-0.1,1.6-0.4s0.8-0.6,1.1-1c0.3-0.4,0.4-0.9,0.6-1.4c0.1-0.5,0.2-1.1,0.2-1.6
						c0-0.6-0.1-1.1-0.2-1.7s-0.3-1-0.6-1.4c-0.3-0.4-0.6-0.8-1.1-1s-1-0.4-1.6-0.4c-0.7,0-1.2,0.1-1.6,0.4c-0.4,0.3-0.8,0.6-1,1
						c-0.3,0.4-0.4,0.9-0.6,1.4c-0.1,0.5-0.2,1.1-0.2,1.7C173.6,389.5,173.6,390,173.7,390.5z"/>
				</g>
			</g>
			<g>
				<path class="st0" d="M241.2,374c-1.3,0.7-2.7,1.3-4.2,1.6c-1.2-1.3-2.9-2.1-4.8-2.1c-3.7,0-6.6,2.9-6.6,6.5c0,0.5,0.1,1,0.2,1.5
					c-5.5-0.3-10.4-2.9-13.6-6.8c-0.6,1-0.9,2.1-0.9,3.3c0,2.3,1.2,4.3,2.9,5.4c-1.1,0-2.1-0.3-3-0.8c0,0,0,0.1,0,0.1
					c0,3.2,2.3,5.8,5.3,6.4c-0.6,0.1-1.1,0.2-1.7,0.2c-0.4,0-0.8,0-1.2-0.1c0.8,2.6,3.3,4.5,6.2,4.5c-2.3,1.7-5.1,2.8-8.2,2.8
					c-0.5,0-1.1,0-1.6-0.1c2.9,1.8,6.4,2.9,10.1,2.9c12.2,0,18.8-9.9,18.8-18.5c0-0.3,0-0.6,0-0.8c1.3-0.9,2.4-2.1,3.3-3.4
					c-1.2,0.5-2.5,0.9-3.8,1C239.7,376.8,240.7,375.6,241.2,374z"/>
				<g>
					<path class="st1" d="M265,387.8c0,0.2-0.1,0.4-0.1,0.6c0,0.2,0,0.3,0.1,0.4c0.1,0.1,0.2,0.2,0.4,0.2c0.4,0,0.8-0.1,1.2-0.4
						c0.4-0.2,0.7-0.6,1-1c0.3-0.4,0.5-1,0.7-1.6c0.2-0.6,0.3-1.3,0.3-2c0-1.1-0.2-2-0.6-2.9s-0.9-1.5-1.6-2.1s-1.4-1-2.3-1.3
						s-1.9-0.4-2.9-0.4c-1.2,0-2.2,0.2-3.2,0.6s-1.8,1-2.4,1.7c-0.7,0.7-1.2,1.6-1.6,2.6c-0.4,1-0.5,2.1-0.5,3.2
						c0,1.2,0.2,2.3,0.6,3.2s1,1.8,1.7,2.5c0.7,0.7,1.6,1.2,2.5,1.6c1,0.4,2.1,0.6,3.2,0.6c1.1,0,2.2-0.2,3.2-0.6
						c1-0.4,1.9-0.9,2.6-1.6h2.3c-0.9,1.4-2.1,2.5-3.6,3.3c-1.5,0.8-3,1.1-4.7,1.1c-1.5,0-2.8-0.3-4.1-0.8c-1.3-0.5-2.4-1.2-3.3-2.1
						c-1-0.9-1.7-2-2.2-3.2s-0.8-2.6-0.8-4c0-1.4,0.3-2.8,0.8-4s1.3-2.3,2.2-3.2c0.9-0.9,2-1.6,3.3-2.1c1.3-0.5,2.6-0.8,4-0.8
						c1.2,0,2.4,0.2,3.6,0.6c1.1,0.4,2.1,1,3,1.7c0.9,0.7,1.6,1.6,2.1,2.6c0.5,1,0.8,2.2,0.8,3.4c0,1.4-0.2,2.6-0.7,3.6
						c-0.5,1-1.1,1.8-1.8,2.4c-0.7,0.6-1.4,1.1-2.1,1.4c-0.7,0.3-1.3,0.4-1.7,0.4c-0.6,0-1-0.1-1.4-0.4s-0.5-0.7-0.6-1.1h-0.1
						c-0.3,0.5-0.8,0.9-1.3,1.2c-0.5,0.3-1.1,0.4-1.7,0.4c-0.6,0-1.1-0.1-1.6-0.4c-0.5-0.2-1-0.6-1.4-1c-0.4-0.4-0.7-0.9-0.9-1.5
						c-0.2-0.6-0.3-1.2-0.3-1.8c0-0.9,0.1-1.7,0.4-2.5c0.3-0.8,0.7-1.6,1.2-2.2c0.5-0.7,1.1-1.2,1.9-1.6c0.7-0.4,1.5-0.6,2.4-0.6
						c0.6,0,1.2,0.1,1.8,0.4c0.6,0.3,1.1,0.8,1.4,1.5l0.4-1.5h2.2l-1.7,7C265.1,387.4,265,387.6,265,387.8z M258.4,388.1
						c0.4,0.4,0.9,0.7,1.5,0.7c0.5,0,0.9-0.1,1.3-0.4s0.8-0.6,1.1-1c0.3-0.4,0.5-0.8,0.7-1.3c0.2-0.5,0.2-1,0.2-1.4
						c0-0.7-0.2-1.2-0.6-1.7c-0.4-0.4-0.9-0.7-1.5-0.7c-0.5,0-0.9,0.1-1.4,0.4s-0.8,0.6-1.1,1c-0.3,0.4-0.5,0.8-0.7,1.3
						c-0.2,0.5-0.2,0.9-0.2,1.4C257.8,387,258,387.6,258.4,388.1z"/>
					<path class="st1" d="M282.7,375.6c0.9,0,1.8,0.1,2.5,0.2c0.8,0.2,1.4,0.4,2,0.8c0.5,0.4,1,0.9,1.3,1.5c0.3,0.6,0.4,1.4,0.4,2.3
						c0,1-0.2,1.8-0.7,2.4c-0.4,0.7-1.1,1.2-2,1.6c1.2,0.3,2.1,0.9,2.7,1.8c0.6,0.9,0.9,1.9,0.9,3.1c0,1-0.2,1.8-0.6,2.5
						c-0.4,0.7-0.9,1.3-1.5,1.8c-0.6,0.5-1.4,0.8-2.2,1c-0.8,0.2-1.7,0.3-2.5,0.3h-9.4v-19.4H282.7z M282.2,383.4
						c0.8,0,1.4-0.2,1.9-0.5c0.5-0.4,0.7-1,0.7-1.8c0-0.5-0.1-0.8-0.2-1.1s-0.4-0.5-0.7-0.7c-0.3-0.2-0.6-0.3-0.9-0.3
						c-0.4-0.1-0.7-0.1-1.1-0.1h-4v4.5H282.2z M282.4,391.7c0.4,0,0.8,0,1.2-0.1c0.4-0.1,0.7-0.2,1-0.4c0.3-0.2,0.5-0.4,0.7-0.8
						c0.2-0.3,0.3-0.7,0.3-1.3c0-1-0.3-1.7-0.8-2.1c-0.6-0.4-1.3-0.6-2.2-0.6h-4.7v5.3H282.4z"/>
					<path class="st1" d="M292.1,385.2c0.1-0.9,0.3-1.7,0.7-2.3c0.4-0.6,0.9-1.1,1.5-1.4c0.6-0.4,1.3-0.6,2.1-0.8
						c0.8-0.2,1.5-0.2,2.3-0.2c0.7,0,1.4,0,2.1,0.1s1.4,0.3,2,0.6c0.6,0.3,1.1,0.7,1.5,1.2s0.6,1.2,0.6,2.1v7.3c0,0.6,0,1.2,0.1,1.8
						c0.1,0.6,0.2,1,0.4,1.3h-3.9c-0.1-0.2-0.1-0.4-0.2-0.7c0-0.2-0.1-0.5-0.1-0.7c-0.6,0.6-1.3,1.1-2.2,1.3s-1.7,0.4-2.6,0.4
						c-0.7,0-1.3-0.1-1.9-0.2c-0.6-0.2-1.1-0.4-1.5-0.8c-0.4-0.3-0.8-0.8-1-1.3c-0.2-0.5-0.4-1.2-0.4-1.9c0-0.8,0.1-1.5,0.4-2
						c0.3-0.5,0.6-0.9,1.1-1.2c0.4-0.3,1-0.5,1.5-0.7c0.6-0.2,1.1-0.3,1.7-0.4s1.2-0.2,1.7-0.2c0.6-0.1,1.1-0.1,1.5-0.2
						c0.4-0.1,0.8-0.3,1-0.5c0.3-0.2,0.4-0.5,0.4-0.9c0-0.4-0.1-0.7-0.2-1c-0.1-0.2-0.3-0.4-0.5-0.6s-0.5-0.2-0.8-0.3
						c-0.3,0-0.6-0.1-1-0.1c-0.8,0-1.4,0.2-1.8,0.5c-0.4,0.3-0.7,0.9-0.8,1.6H292.1z M301.1,388.1c-0.2,0.1-0.4,0.3-0.6,0.3
						c-0.2,0.1-0.5,0.1-0.8,0.2c-0.3,0.1-0.6,0.1-0.9,0.1c-0.3,0-0.6,0.1-0.9,0.1c-0.3,0.1-0.6,0.1-0.9,0.2s-0.5,0.2-0.7,0.4
						c-0.2,0.2-0.4,0.3-0.5,0.6s-0.2,0.5-0.2,0.9c0,0.3,0.1,0.6,0.2,0.9c0.1,0.2,0.3,0.4,0.5,0.6c0.2,0.1,0.5,0.2,0.8,0.3
						c0.3,0.1,0.6,0.1,0.9,0.1c0.8,0,1.4-0.1,1.8-0.4c0.4-0.3,0.7-0.6,0.9-0.9c0.2-0.4,0.3-0.7,0.4-1.1c0-0.4,0.1-0.7,0.1-0.9V388.1
						z"/>
					<path class="st1" d="M308,384.9c0.3-0.9,0.8-1.7,1.5-2.3c0.6-0.6,1.4-1.1,2.3-1.5s1.9-0.5,3-0.5c1.1,0,2.1,0.2,3,0.5
						c0.9,0.4,1.7,0.9,2.3,1.5s1.1,1.4,1.5,2.3c0.3,0.9,0.5,1.9,0.5,3.1c0,1.1-0.2,2.1-0.5,3c-0.3,0.9-0.8,1.7-1.5,2.3
						s-1.4,1.1-2.3,1.5c-0.9,0.3-1.9,0.5-3,0.5c-1.1,0-2.1-0.2-3-0.5c-0.9-0.3-1.7-0.8-2.3-1.5c-0.6-0.6-1.1-1.4-1.5-2.3
						c-0.3-0.9-0.5-1.9-0.5-3C307.5,386.8,307.6,385.8,308,384.9z M311.5,389.6c0.1,0.5,0.3,1,0.6,1.4c0.3,0.4,0.6,0.8,1,1
						c0.4,0.3,1,0.4,1.6,0.4c0.7,0,1.2-0.1,1.6-0.4s0.8-0.6,1.1-1c0.3-0.4,0.4-0.9,0.6-1.4c0.1-0.5,0.2-1.1,0.2-1.6
						c0-0.6-0.1-1.1-0.2-1.7s-0.3-1-0.6-1.4c-0.3-0.4-0.6-0.8-1.1-1s-1-0.4-1.6-0.4c-0.7,0-1.2,0.1-1.6,0.4c-0.4,0.3-0.8,0.6-1,1
						c-0.3,0.4-0.4,0.9-0.6,1.4c-0.1,0.5-0.2,1.1-0.2,1.7C311.3,388.5,311.4,389.1,311.5,389.6z"/>
					<path class="st1" d="M330.9,375.6l4.5,13.4h0.1l4.3-13.4h6V395h-4v-13.8h-0.1L337,395h-3.3l-4.8-13.6h-0.1V395h-4v-19.4H330.9z
						"/>
					<path class="st1" d="M349.3,384.9c0.3-0.9,0.8-1.7,1.5-2.3c0.6-0.6,1.4-1.1,2.3-1.5s1.9-0.5,3-0.5c1.1,0,2.1,0.2,3,0.5
						c0.9,0.4,1.7,0.9,2.3,1.5s1.1,1.4,1.5,2.3c0.3,0.9,0.5,1.9,0.5,3.1c0,1.1-0.2,2.1-0.5,3c-0.3,0.9-0.8,1.7-1.5,2.3
						s-1.4,1.1-2.3,1.5c-0.9,0.3-1.9,0.5-3,0.5c-1.1,0-2.1-0.2-3-0.5c-0.9-0.3-1.7-0.8-2.3-1.5c-0.6-0.6-1.1-1.4-1.5-2.3
						c-0.3-0.9-0.5-1.9-0.5-3C348.8,386.8,348.9,385.8,349.3,384.9z M352.8,389.6c0.1,0.5,0.3,1,0.6,1.4c0.3,0.4,0.6,0.8,1,1
						c0.4,0.3,1,0.4,1.6,0.4c0.7,0,1.2-0.1,1.6-0.4s0.8-0.6,1.1-1c0.3-0.4,0.4-0.9,0.6-1.4c0.1-0.5,0.2-1.1,0.2-1.6
						c0-0.6-0.1-1.1-0.2-1.7s-0.3-1-0.6-1.4c-0.3-0.4-0.6-0.8-1.1-1s-1-0.4-1.6-0.4c-0.7,0-1.2,0.1-1.6,0.4c-0.4,0.3-0.8,0.6-1,1
						c-0.3,0.4-0.4,0.9-0.6,1.4c-0.1,0.5-0.2,1.1-0.2,1.7C352.6,388.5,352.7,389.1,352.8,389.6z"/>
					<path class="st1" d="M375.3,395v-2h-0.1c-0.5,0.8-1.1,1.4-1.9,1.8c-0.8,0.4-1.6,0.5-2.4,0.5c-1,0-1.9-0.1-2.5-0.4
						c-0.7-0.3-1.2-0.7-1.6-1.2s-0.6-1.1-0.8-1.8c-0.2-0.7-0.2-1.5-0.2-2.4v-8.6h3.9v7.9c0,1.2,0.2,2,0.5,2.6c0.4,0.6,1,0.9,1.9,0.9
						c1.1,0,1.8-0.3,2.3-0.9c0.5-0.6,0.7-1.7,0.7-3.1v-7.4h3.9V395H375.3z"/>
					<path class="st1" d="M389.7,380.9v2.6h-2.8v7c0,0.7,0.1,1.1,0.3,1.3c0.2,0.2,0.7,0.3,1.3,0.3c0.2,0,0.4,0,0.6,0
						c0.2,0,0.4,0,0.6-0.1v3c-0.3,0.1-0.7,0.1-1.1,0.1c-0.4,0-0.8,0-1.2,0c-0.6,0-1.2,0-1.7-0.1c-0.5-0.1-1-0.2-1.4-0.5
						c-0.4-0.2-0.7-0.6-1-1c-0.2-0.4-0.4-1-0.4-1.7v-8.3h-2.3v-2.6h2.3v-4.2h3.9v4.2H389.7z"/>
					<path class="st1" d="M395.4,375.6v7.3h0.1c0.5-0.8,1.1-1.4,1.9-1.8c0.8-0.4,1.5-0.6,2.2-0.6c1,0,1.9,0.1,2.5,0.4
						c0.7,0.3,1.2,0.7,1.6,1.2c0.4,0.5,0.6,1.1,0.8,1.8c0.2,0.7,0.2,1.5,0.2,2.4v8.6h-3.9V387c0-1.2-0.2-2-0.5-2.6
						c-0.4-0.6-1-0.9-1.9-0.9c-1.1,0-1.8,0.3-2.3,0.9s-0.7,1.7-0.7,3.1v7.4h-3.9v-19.4H395.4z"/>
				</g>
			</g>
			<g>
				<g>
					<path class="st0" d="M708,370.5h-21.1c-2.7,0-4.9,2.2-4.9,4.9v21.1c0,2.7,2.2,4.9,4.9,4.9H708c2.7,0,4.9-2.2,4.9-4.9v-21.1
						C712.9,372.7,710.7,370.5,708,370.5z M708.7,392c-0.1,0.3-0.7,0.8-2.9,1.1c-0.2,0-0.2,0.3-0.3,0.7c0,0.2-0.1,0.3-0.1,0.5
						c0,0.2-0.1,0.2-0.3,0.2h0c-0.1,0-0.3,0-0.5-0.1c-0.4-0.1-0.8-0.1-1.3-0.1c-0.3,0-0.6,0-0.9,0.1c-0.6,0.1-1.2,0.5-1.8,0.9
						c-0.8,0.6-1.7,1.2-3,1.2c-0.1,0-0.1,0-0.2,0h0c0,0-0.1,0-0.1,0c-1.3,0-2.2-0.6-3-1.2c-0.6-0.4-1.1-0.8-1.8-0.9
						c-0.3-0.1-0.6-0.1-0.9-0.1c-0.5,0-1,0.1-1.3,0.1c-0.2,0-0.4,0.1-0.5,0.1c-0.1,0-0.3,0-0.3-0.2c-0.1-0.2-0.1-0.4-0.1-0.5
						c-0.1-0.4-0.2-0.7-0.3-0.7c-2.1-0.3-2.7-0.8-2.9-1.1c0,0,0-0.1,0-0.1c0-0.1,0.1-0.2,0.2-0.2c3.3-0.5,4.7-3.9,4.8-4c0,0,0,0,0,0
						c0.2-0.4,0.2-0.8,0.1-1c-0.2-0.5-1-0.8-1.4-0.9c-0.1,0-0.2-0.1-0.3-0.1c-1-0.4-1-0.8-1-1c0.1-0.3,0.5-0.6,0.9-0.6
						c0.1,0,0.2,0,0.3,0.1c0.4,0.2,0.8,0.3,1.2,0.3c0.5,0,0.7-0.2,0.7-0.2c0-0.2,0-0.5,0-0.7c-0.1-1.5-0.2-3.5,0.3-4.6
						c1.5-3.3,4.6-3.5,5.5-3.5c0,0,0.4,0,0.4,0l0.1,0c0.9,0,4,0.3,5.5,3.5c0.5,1.1,0.4,3,0.3,4.6l0,0.1c0,0.2,0,0.4,0,0.6
						c0,0,0.2,0.2,0.6,0.2h0c0.3,0,0.7-0.1,1.1-0.3c0.1-0.1,0.3-0.1,0.3-0.1c0.1,0,0.3,0,0.4,0.1l0,0c0.3,0.1,0.5,0.3,0.5,0.6
						c0,0.2-0.2,0.6-1,0.9c-0.1,0-0.2,0.1-0.3,0.1c-0.5,0.2-1.2,0.4-1.4,0.9c-0.1,0.3-0.1,0.6,0.1,1c0,0,0,0,0,0
						c0.1,0.1,1.5,3.5,4.8,4c0.1,0,0.2,0.1,0.2,0.2C708.7,391.9,708.7,392,708.7,392z"/>
				</g>
				<g>
					<path class="st1" d="M733.4,376.8c0.9,0,1.8,0.1,2.5,0.2c0.8,0.2,1.4,0.4,2,0.8c0.5,0.4,1,0.9,1.3,1.5c0.3,0.6,0.4,1.4,0.4,2.3
						c0,1-0.2,1.8-0.7,2.4c-0.4,0.7-1.1,1.2-2,1.6c1.2,0.3,2.1,0.9,2.7,1.8c0.6,0.9,0.9,1.9,0.9,3.1c0,1-0.2,1.8-0.6,2.5
						c-0.4,0.7-0.9,1.3-1.5,1.8c-0.6,0.5-1.4,0.8-2.2,1c-0.8,0.2-1.7,0.3-2.5,0.3h-9.4v-19.4H733.4z M732.9,384.6
						c0.8,0,1.4-0.2,1.9-0.5c0.5-0.4,0.7-1,0.7-1.8c0-0.5-0.1-0.8-0.2-1.1s-0.4-0.5-0.7-0.7c-0.3-0.2-0.6-0.3-0.9-0.3
						c-0.4-0.1-0.7-0.1-1.1-0.1h-4v4.5H732.9z M733.1,392.9c0.4,0,0.8,0,1.2-0.1c0.4-0.1,0.7-0.2,1-0.4c0.3-0.2,0.5-0.4,0.7-0.8
						c0.2-0.3,0.3-0.7,0.3-1.3c0-1-0.3-1.7-0.8-2.1c-0.6-0.4-1.3-0.6-2.2-0.6h-4.7v5.3H733.1z"/>
					<path class="st1" d="M742.8,386.4c0.1-0.9,0.3-1.7,0.7-2.3c0.4-0.6,0.9-1.1,1.5-1.4c0.6-0.4,1.3-0.6,2.1-0.8
						c0.8-0.2,1.5-0.2,2.3-0.2c0.7,0,1.4,0,2.1,0.1s1.4,0.3,2,0.6c0.6,0.3,1.1,0.7,1.5,1.2s0.6,1.2,0.6,2.1v7.3c0,0.6,0,1.2,0.1,1.8
						c0.1,0.6,0.2,1,0.4,1.3h-3.9c-0.1-0.2-0.1-0.4-0.2-0.7c0-0.2-0.1-0.5-0.1-0.7c-0.6,0.6-1.3,1.1-2.2,1.3s-1.7,0.4-2.6,0.4
						c-0.7,0-1.3-0.1-1.9-0.2c-0.6-0.2-1.1-0.4-1.5-0.8c-0.4-0.3-0.8-0.8-1-1.3c-0.2-0.5-0.4-1.2-0.4-1.9c0-0.8,0.1-1.5,0.4-2
						c0.3-0.5,0.6-0.9,1.1-1.2c0.4-0.3,1-0.5,1.5-0.7c0.6-0.2,1.1-0.3,1.7-0.4s1.2-0.2,1.7-0.2c0.6-0.1,1.1-0.1,1.5-0.2
						c0.4-0.1,0.8-0.3,1-0.5c0.3-0.2,0.4-0.5,0.4-0.9c0-0.4-0.1-0.7-0.2-1c-0.1-0.2-0.3-0.4-0.5-0.6s-0.5-0.2-0.8-0.3
						c-0.3,0-0.6-0.1-1-0.1c-0.8,0-1.4,0.2-1.8,0.5c-0.4,0.3-0.7,0.9-0.8,1.6H742.8z M751.8,389.3c-0.2,0.1-0.4,0.3-0.6,0.3
						c-0.2,0.1-0.5,0.1-0.8,0.2c-0.3,0.1-0.6,0.1-0.9,0.1c-0.3,0-0.6,0.1-0.9,0.1c-0.3,0.1-0.6,0.1-0.9,0.2s-0.5,0.2-0.7,0.4
						c-0.2,0.2-0.4,0.3-0.5,0.6s-0.2,0.5-0.2,0.9c0,0.3,0.1,0.6,0.2,0.9c0.1,0.2,0.3,0.4,0.5,0.6c0.2,0.1,0.5,0.2,0.8,0.3
						c0.3,0.1,0.6,0.1,0.9,0.1c0.8,0,1.4-0.1,1.8-0.4c0.4-0.3,0.7-0.6,0.9-0.9c0.2-0.4,0.3-0.7,0.4-1.1c0-0.4,0.1-0.7,0.1-0.9V389.3
						z"/>
					<path class="st1" d="M758.7,386.1c0.3-0.9,0.8-1.7,1.5-2.3c0.6-0.6,1.4-1.1,2.3-1.5s1.9-0.5,3-0.5c1.1,0,2.1,0.2,3,0.5
						c0.9,0.4,1.7,0.9,2.3,1.5s1.1,1.4,1.5,2.3c0.3,0.9,0.5,1.9,0.5,3.1c0,1.1-0.2,2.1-0.5,3c-0.3,0.9-0.8,1.7-1.5,2.3
						s-1.4,1.1-2.3,1.5c-0.9,0.3-1.9,0.5-3,0.5c-1.1,0-2.1-0.2-3-0.5c-0.9-0.3-1.7-0.8-2.3-1.5c-0.6-0.6-1.1-1.4-1.5-2.3
						c-0.3-0.9-0.5-1.9-0.5-3C758.2,388,758.3,387,758.7,386.1z M762.2,390.8c0.1,0.5,0.3,1,0.6,1.4c0.3,0.4,0.6,0.8,1,1
						c0.4,0.3,1,0.4,1.6,0.4c0.7,0,1.2-0.1,1.6-0.4s0.8-0.6,1.1-1c0.3-0.4,0.4-0.9,0.6-1.4c0.1-0.5,0.2-1.1,0.2-1.6
						c0-0.6-0.1-1.1-0.2-1.7s-0.3-1-0.6-1.4c-0.3-0.4-0.6-0.8-1.1-1s-1-0.4-1.6-0.4c-0.7,0-1.2,0.1-1.6,0.4c-0.4,0.3-0.8,0.6-1,1
						c-0.3,0.4-0.4,0.9-0.6,1.4c-0.1,0.5-0.2,1.1-0.2,1.7C762,389.7,762.1,390.3,762.2,390.8z"/>
					<path class="st1" d="M781.6,376.8l4.5,13.4h0.1l4.3-13.4h6v19.4h-4v-13.8h-0.1l-4.8,13.8h-3.3l-4.8-13.6h-0.1v13.6h-4v-19.4
						H781.6z"/>
					<path class="st1" d="M800,386.1c0.3-0.9,0.8-1.7,1.5-2.3c0.6-0.6,1.4-1.1,2.3-1.5s1.9-0.5,3-0.5c1.1,0,2.1,0.2,3,0.5
						c0.9,0.4,1.7,0.9,2.3,1.5s1.1,1.4,1.5,2.3c0.3,0.9,0.5,1.9,0.5,3.1c0,1.1-0.2,2.1-0.5,3c-0.3,0.9-0.8,1.7-1.5,2.3
						s-1.4,1.1-2.3,1.5c-0.9,0.3-1.9,0.5-3,0.5c-1.1,0-2.1-0.2-3-0.5c-0.9-0.3-1.7-0.8-2.3-1.5c-0.6-0.6-1.1-1.4-1.5-2.3
						c-0.3-0.9-0.5-1.9-0.5-3C799.5,388,799.6,387,800,386.1z M803.5,390.8c0.1,0.5,0.3,1,0.6,1.4c0.3,0.4,0.6,0.8,1,1
						c0.4,0.3,1,0.4,1.6,0.4c0.7,0,1.2-0.1,1.6-0.4s0.8-0.6,1.1-1c0.3-0.4,0.4-0.9,0.6-1.4c0.1-0.5,0.2-1.1,0.2-1.6
						c0-0.6-0.1-1.1-0.2-1.7s-0.3-1-0.6-1.4c-0.3-0.4-0.6-0.8-1.1-1s-1-0.4-1.6-0.4c-0.7,0-1.2,0.1-1.6,0.4c-0.4,0.3-0.8,0.6-1,1
						c-0.3,0.4-0.4,0.9-0.6,1.4c-0.1,0.5-0.2,1.1-0.2,1.7C803.3,389.7,803.4,390.3,803.5,390.8z"/>
					<path class="st1" d="M826,396.2v-2H826c-0.5,0.8-1.1,1.4-1.9,1.8c-0.8,0.4-1.6,0.5-2.4,0.5c-1,0-1.9-0.1-2.5-0.4
						c-0.7-0.3-1.2-0.7-1.6-1.2s-0.6-1.1-0.8-1.8c-0.2-0.7-0.2-1.5-0.2-2.4v-8.6h3.9v7.9c0,1.2,0.2,2,0.5,2.6c0.4,0.6,1,0.9,1.9,0.9
						c1.1,0,1.8-0.3,2.3-0.9c0.5-0.6,0.7-1.7,0.7-3.1v-7.4h3.9v14.1H826z"/>
					<path class="st1" d="M840.4,382.1v2.6h-2.8v7c0,0.7,0.1,1.1,0.3,1.3c0.2,0.2,0.7,0.3,1.3,0.3c0.2,0,0.4,0,0.6,0
						c0.2,0,0.4,0,0.6-0.1v3c-0.3,0.1-0.7,0.1-1.1,0.1c-0.4,0-0.8,0-1.2,0c-0.6,0-1.2,0-1.7-0.1c-0.5-0.1-1-0.2-1.4-0.5
						c-0.4-0.2-0.7-0.6-1-1c-0.2-0.4-0.4-1-0.4-1.7v-8.3h-2.3v-2.6h2.3v-4.2h3.9v4.2H840.4z"/>
					<path class="st1" d="M846.1,376.8v7.3h0.1c0.5-0.8,1.1-1.4,1.9-1.8c0.8-0.4,1.5-0.6,2.2-0.6c1,0,1.9,0.1,2.5,0.4
						c0.7,0.3,1.2,0.7,1.6,1.2c0.4,0.5,0.6,1.1,0.8,1.8c0.2,0.7,0.2,1.5,0.2,2.4v8.6h-3.9v-7.9c0-1.2-0.2-2-0.5-2.6
						c-0.4-0.6-1-0.9-1.9-0.9c-1.1,0-1.8,0.3-2.3,0.9s-0.7,1.7-0.7,3.1v7.4h-3.9v-19.4H846.1z"/>
				</g>
			</g>
			<g>
				<path class="st0" d="M460.2,370.2h-21.9c-2.7,0-4.8,2.2-4.8,4.8v21.9c0,2.7,2.2,4.8,4.8,4.8h12v-12.2h-4.1v-4.8h4.1v-3.5
					c0-4.1,2.5-6.3,6.1-6.3c1.7,0,3.2,0.1,3.7,0.2v4.3l-2.5,0c-2,0-2.4,0.9-2.4,2.3v3h4.7l-0.6,4.8h-4.1v12.2h4.9
					c2.7,0,4.8-2.2,4.8-4.8V375C465,372.3,462.9,370.2,460.2,370.2z"/>
				<g>
					<path class="st1" d="M479.3,377.1v7.5h7.9v-7.5h4.3v19.4h-4.3v-8.4h-7.9v8.4h-4.3v-19.4H479.3z"/>
					<path class="st1" d="M494.9,386.4c0.3-0.9,0.8-1.7,1.5-2.3c0.6-0.6,1.4-1.1,2.3-1.5s1.9-0.5,3-0.5c1.1,0,2.1,0.2,3,0.5
						c0.9,0.4,1.7,0.9,2.3,1.5s1.1,1.4,1.5,2.3c0.3,0.9,0.5,1.9,0.5,3.1c0,1.1-0.2,2.1-0.5,3c-0.3,0.9-0.8,1.7-1.5,2.3
						s-1.4,1.1-2.3,1.5c-0.9,0.3-1.9,0.5-3,0.5c-1.1,0-2.1-0.2-3-0.5c-0.9-0.3-1.7-0.8-2.3-1.5c-0.6-0.6-1.1-1.4-1.5-2.3
						c-0.3-0.9-0.5-1.9-0.5-3C494.4,388.3,494.5,387.3,494.9,386.4z M498.4,391.1c0.1,0.5,0.3,1,0.6,1.4c0.3,0.4,0.6,0.8,1,1
						c0.4,0.3,1,0.4,1.6,0.4c0.7,0,1.2-0.1,1.6-0.4s0.8-0.6,1.1-1c0.3-0.4,0.4-0.9,0.6-1.4c0.1-0.5,0.2-1.1,0.2-1.6
						c0-0.6-0.1-1.1-0.2-1.7s-0.3-1-0.6-1.4c-0.3-0.4-0.6-0.8-1.1-1s-1-0.4-1.6-0.4c-0.7,0-1.2,0.1-1.6,0.4c-0.4,0.3-0.8,0.6-1,1
						c-0.3,0.4-0.4,0.9-0.6,1.4c-0.1,0.5-0.2,1.1-0.2,1.7C498.2,390,498.3,390.6,498.4,391.1z"/>
					<path class="st1" d="M519.1,382.4v2.6h-2.8v7c0,0.7,0.1,1.1,0.3,1.3c0.2,0.2,0.7,0.3,1.3,0.3c0.2,0,0.4,0,0.6,0
						c0.2,0,0.4,0,0.6-0.1v3c-0.3,0.1-0.7,0.1-1.1,0.1c-0.4,0-0.8,0-1.2,0c-0.6,0-1.2,0-1.7-0.1c-0.5-0.1-1-0.2-1.4-0.5
						c-0.4-0.2-0.7-0.6-1-1c-0.2-0.4-0.4-1-0.4-1.7V385h-2.3v-2.6h2.3v-4.2h3.9v4.2H519.1z"/>
					<path class="st1" d="M531.1,377.1l7.3,19.4h-4.4l-1.5-4.3h-7.3l-1.5,4.3h-4.3l7.3-19.4H531.1z M531.3,389l-2.4-7.1h-0.1
						l-2.5,7.1H531.3z"/>
					<path class="st1" d="M542.9,393c0.2,0.3,0.4,0.5,0.7,0.7c0.3,0.2,0.6,0.3,0.9,0.4c0.4,0.1,0.7,0.1,1.1,0.1c0.3,0,0.6,0,0.9-0.1
						c0.3-0.1,0.6-0.2,0.8-0.3c0.2-0.1,0.4-0.3,0.6-0.5c0.2-0.2,0.2-0.5,0.2-0.9c0-0.6-0.4-1-1.2-1.3s-1.8-0.6-3.2-0.9
						c-0.6-0.1-1.1-0.3-1.6-0.4c-0.5-0.2-1-0.4-1.4-0.7s-0.8-0.6-1-1.1s-0.4-0.9-0.4-1.6c0-0.9,0.2-1.6,0.5-2.2
						c0.4-0.6,0.8-1,1.4-1.4s1.2-0.6,2-0.7c0.7-0.1,1.5-0.2,2.2-0.2c0.8,0,1.5,0.1,2.2,0.2c0.7,0.1,1.4,0.4,1.9,0.7
						c0.6,0.3,1,0.8,1.4,1.4c0.4,0.6,0.6,1.3,0.7,2.2h-3.7c-0.1-0.7-0.3-1.2-0.8-1.5c-0.5-0.3-1.1-0.4-1.8-0.4c-0.2,0-0.5,0-0.7,0
						c-0.3,0-0.5,0.1-0.7,0.2c-0.2,0.1-0.4,0.2-0.5,0.4c-0.1,0.2-0.2,0.4-0.2,0.7c0,0.3,0.1,0.6,0.4,0.8s0.6,0.4,1,0.5
						c0.4,0.1,0.9,0.3,1.4,0.4c0.5,0.1,1.1,0.2,1.6,0.4c0.6,0.1,1.1,0.3,1.6,0.5c0.5,0.2,1,0.4,1.4,0.7c0.4,0.3,0.8,0.7,1,1.1
						s0.4,1,0.4,1.6c0,0.9-0.2,1.7-0.6,2.3c-0.4,0.6-0.9,1.1-1.5,1.5c-0.6,0.4-1.3,0.6-2.1,0.8c-0.8,0.2-1.6,0.2-2.4,0.2
						c-0.8,0-1.6-0.1-2.4-0.2c-0.8-0.2-1.5-0.4-2.1-0.8s-1.1-0.9-1.5-1.5s-0.6-1.4-0.6-2.4h3.7C542.6,392.3,542.7,392.7,542.9,393z"
						/>
					<path class="st1" d="M554.3,380.3v-3.2h3.9v3.2H554.3z M558.2,382.4v14.1h-3.9v-14.1H558.2z"/>
					<path class="st1" d="M561.1,386.8c0.1-0.9,0.3-1.7,0.7-2.3c0.4-0.6,0.9-1.1,1.5-1.4c0.6-0.4,1.3-0.6,2.1-0.8
						c0.8-0.2,1.5-0.2,2.3-0.2c0.7,0,1.4,0,2.1,0.1s1.4,0.3,2,0.6c0.6,0.3,1.1,0.7,1.5,1.2s0.6,1.2,0.6,2.1v7.3c0,0.6,0,1.2,0.1,1.8
						c0.1,0.6,0.2,1,0.4,1.3h-3.9c-0.1-0.2-0.1-0.4-0.2-0.7c0-0.2-0.1-0.5-0.1-0.7c-0.6,0.6-1.3,1.1-2.2,1.3s-1.7,0.4-2.6,0.4
						c-0.7,0-1.3-0.1-1.9-0.2c-0.6-0.2-1.1-0.4-1.5-0.8c-0.4-0.3-0.8-0.8-1-1.3c-0.2-0.5-0.4-1.2-0.4-1.9c0-0.8,0.1-1.5,0.4-2
						c0.3-0.5,0.6-0.9,1.1-1.2c0.4-0.3,1-0.5,1.5-0.7c0.6-0.2,1.1-0.3,1.7-0.4s1.2-0.2,1.7-0.2c0.6-0.1,1.1-0.1,1.5-0.2
						c0.4-0.1,0.8-0.3,1-0.5c0.3-0.2,0.4-0.5,0.4-0.9c0-0.4-0.1-0.7-0.2-1c-0.1-0.2-0.3-0.4-0.5-0.6s-0.5-0.2-0.8-0.3
						c-0.3,0-0.6-0.1-1-0.1c-0.8,0-1.4,0.2-1.8,0.5c-0.4,0.3-0.7,0.9-0.8,1.6H561.1z M570,389.6c-0.2,0.1-0.4,0.3-0.6,0.3
						c-0.2,0.1-0.5,0.1-0.8,0.2c-0.3,0.1-0.6,0.1-0.9,0.1c-0.3,0-0.6,0.1-0.9,0.1c-0.3,0.1-0.6,0.1-0.9,0.2s-0.5,0.2-0.7,0.4
						c-0.2,0.2-0.4,0.3-0.5,0.6s-0.2,0.5-0.2,0.9c0,0.3,0.1,0.6,0.2,0.9c0.1,0.2,0.3,0.4,0.5,0.6c0.2,0.1,0.5,0.2,0.8,0.3
						c0.3,0.1,0.6,0.1,0.9,0.1c0.8,0,1.4-0.1,1.8-0.4c0.4-0.3,0.7-0.6,0.9-0.9c0.2-0.4,0.3-0.7,0.4-1.1c0-0.4,0.1-0.7,0.1-0.9V389.6
						z"/>
					<path class="st1" d="M580.5,382.4v2h0.1c0.5-0.8,1.1-1.4,1.9-1.8c0.8-0.4,1.6-0.6,2.4-0.6c1,0,1.9,0.1,2.5,0.4
						c0.7,0.3,1.2,0.7,1.6,1.2c0.4,0.5,0.6,1.1,0.8,1.8c0.2,0.7,0.2,1.5,0.2,2.4v8.6h-3.9v-7.9c0-1.2-0.2-2-0.5-2.6
						c-0.4-0.6-1-0.9-1.9-0.9c-1.1,0-1.8,0.3-2.3,0.9s-0.7,1.7-0.7,3.1v7.4h-3.9v-14.1H580.5z"/>
					<path class="st1" d="M602.5,377.1c0.9,0,1.8,0.1,2.5,0.2c0.8,0.2,1.4,0.4,2,0.8c0.5,0.4,1,0.9,1.3,1.5c0.3,0.6,0.4,1.4,0.4,2.3
						c0,1-0.2,1.8-0.7,2.4c-0.4,0.7-1.1,1.2-2,1.6c1.2,0.3,2.1,0.9,2.7,1.8c0.6,0.9,0.9,1.9,0.9,3.1c0,1-0.2,1.8-0.6,2.5
						c-0.4,0.7-0.9,1.3-1.5,1.8c-0.6,0.5-1.4,0.8-2.2,1c-0.8,0.2-1.7,0.3-2.5,0.3h-9.4v-19.4H602.5z M602,384.9
						c0.8,0,1.4-0.2,1.9-0.5c0.5-0.4,0.7-1,0.7-1.8c0-0.5-0.1-0.8-0.2-1.1s-0.4-0.5-0.7-0.7c-0.3-0.2-0.6-0.3-0.9-0.3
						c-0.4-0.1-0.7-0.1-1.1-0.1h-4v4.5H602z M602.2,393.2c0.4,0,0.8,0,1.2-0.1c0.4-0.1,0.7-0.2,1-0.4c0.3-0.2,0.5-0.4,0.7-0.8
						c0.2-0.3,0.3-0.7,0.3-1.3c0-1-0.3-1.7-0.8-2.1c-0.6-0.4-1.3-0.6-2.2-0.6h-4.7v5.3H602.2z"/>
					<path class="st1" d="M621.7,396.5v-2h-0.1c-0.5,0.8-1.1,1.4-1.9,1.8c-0.8,0.4-1.6,0.5-2.4,0.5c-1,0-1.9-0.1-2.5-0.4
						c-0.7-0.3-1.2-0.7-1.6-1.2s-0.6-1.1-0.8-1.8c-0.2-0.7-0.2-1.5-0.2-2.4v-8.6h3.9v7.9c0,1.2,0.2,2,0.5,2.6c0.4,0.6,1,0.9,1.9,0.9
						c1.1,0,1.8-0.3,2.3-0.9c0.5-0.6,0.7-1.7,0.7-3.1v-7.4h3.9v14.1H621.7z"/>
					<path class="st1" d="M631.9,382.4v2h0.1c0.5-0.8,1.1-1.4,1.9-1.8c0.8-0.4,1.6-0.6,2.4-0.6c1,0,1.9,0.1,2.5,0.4
						c0.7,0.3,1.2,0.7,1.6,1.2c0.4,0.5,0.6,1.1,0.8,1.8c0.2,0.7,0.2,1.5,0.2,2.4v8.6h-3.9v-7.9c0-1.2-0.2-2-0.5-2.6
						c-0.4-0.6-1-0.9-1.9-0.9c-1.1,0-1.8,0.3-2.3,0.9s-0.7,1.7-0.7,3.1v7.4h-3.9v-14.1H631.9z"/>
					<path class="st1" d="M647.6,393c0.2,0.3,0.4,0.5,0.7,0.7c0.3,0.2,0.6,0.3,0.9,0.4c0.4,0.1,0.7,0.1,1.1,0.1c0.3,0,0.6,0,0.9-0.1
						c0.3-0.1,0.6-0.2,0.8-0.3c0.2-0.1,0.4-0.3,0.6-0.5c0.2-0.2,0.2-0.5,0.2-0.9c0-0.6-0.4-1-1.2-1.3s-1.8-0.6-3.2-0.9
						c-0.6-0.1-1.1-0.3-1.6-0.4c-0.5-0.2-1-0.4-1.4-0.7s-0.8-0.6-1-1.1s-0.4-0.9-0.4-1.6c0-0.9,0.2-1.6,0.5-2.2
						c0.4-0.6,0.8-1,1.4-1.4s1.2-0.6,2-0.7c0.7-0.1,1.5-0.2,2.2-0.2c0.8,0,1.5,0.1,2.2,0.2c0.7,0.1,1.4,0.4,1.9,0.7
						c0.6,0.3,1,0.8,1.4,1.4c0.4,0.6,0.6,1.3,0.7,2.2h-3.7c-0.1-0.7-0.3-1.2-0.8-1.5c-0.5-0.3-1.1-0.4-1.8-0.4c-0.2,0-0.5,0-0.7,0
						c-0.3,0-0.5,0.1-0.7,0.2c-0.2,0.1-0.4,0.2-0.5,0.4c-0.1,0.2-0.2,0.4-0.2,0.7c0,0.3,0.1,0.6,0.4,0.8s0.6,0.4,1,0.5
						c0.4,0.1,0.9,0.3,1.4,0.4c0.5,0.1,1.1,0.2,1.6,0.4c0.6,0.1,1.1,0.3,1.6,0.5c0.5,0.2,1,0.4,1.4,0.7c0.4,0.3,0.8,0.7,1,1.1
						s0.4,1,0.4,1.6c0,0.9-0.2,1.7-0.6,2.3c-0.4,0.6-0.9,1.1-1.5,1.5c-0.6,0.4-1.3,0.6-2.1,0.8c-0.8,0.2-1.6,0.2-2.4,0.2
						c-0.8,0-1.6-0.1-2.4-0.2c-0.8-0.2-1.5-0.4-2.1-0.8s-1.1-0.9-1.5-1.5s-0.6-1.4-0.6-2.4h3.7C647.4,392.3,647.5,392.7,647.6,393z"
						/>
				</g>
			</g>
		</g>
		<rect x="29.3" y="353.3" class="st0" width="826.1" height="1.6"/>
	</g>
	<g>
		<g>
			<path class="st0" d="M34.1,279.3c0-18.5,0-36.9,0-55.4c0.1-0.2,0.2-0.5,0.3-0.7c1.2-6,4.8-9.8,10.7-11.4c0.5-0.2,1.1-0.3,1.7-0.5
				c18.5,0,36.9,0,55.4,0c1.4,0.4,2.9,0.7,4.2,1.3c5.5,2.7,8.4,7.1,8.4,13.3c0.1,10.6,0,21.1,0,31.7c0,6.5,0,13.1,0,19.6
				c0,3-0.7,5.8-2.4,8.3c-3,4.4-7.2,6.4-12.4,6.4c-17,0-33.9,0-50.9,0c-0.4,0-0.9,0-1.3,0c-6.2-0.3-11.4-4.6-13-10.6
				C34.5,280.6,34.3,280,34.1,279.3z M51.2,265.6c-4.6,0-8.5,3.8-8.5,8.4c0,4.6,3.8,8.5,8.4,8.5c4.6,0,8.5-3.9,8.5-8.5
				C59.6,269.4,55.8,265.6,51.2,265.6z M74.8,265.6c-4.6,0-8.5,3.8-8.5,8.4c0,4.6,3.8,8.5,8.4,8.4c4.6,0,8.5-3.8,8.4-8.5
				C83.2,269.4,79.4,265.6,74.8,265.6z M106.4,274c0.2-4.3-3.7-8.5-8.4-8.5c-4.7,0-8.4,3.8-8.4,8.5c0,4.7,3.8,8.4,8.5,8.4
				C102.7,282.4,106.4,278.7,106.4,274z M47.2,230.6c-0.1,0-0.1,0-0.2,0c-0.4-2.1-0.8-4.1-1.1-6.2c-0.5-2.8-0.8-3.1-3.6-2.9
				c-1.2,0.1-1.6,0.5-1.3,1.6c1.1,4.3,2.2,8.7,3.3,13c0.3,1.1,0.8,1.5,2,1.6c0.3,0,0.6,0,0.9,0c1.8,0,2.2-0.4,2.4-2.1
				c0.3-2.2,0.7-4.5,1.1-6.7c0.5,2,0.9,4.1,1.2,6.1c0.5,2.7,0.5,2.8,3.4,2.7c1.2,0,1.8-0.4,2.1-1.5c1.2-4.4,2.3-8.8,3.4-13.2
				c0.2-0.9-0.1-1.4-1-1.4c-0.5,0-1,0-1.5,0c-1.3,0-1.9,0.4-2.1,1.7c-0.4,2.2-0.8,4.4-1.2,6.6c0,0.3-0.2,0.5-0.3,1.1
				c-0.4-2.6-0.9-4.8-1.2-7c-0.3-2-0.8-2.4-2.8-2.3c-1.4,0-1.8,0.4-2.1,1.7C48.1,225.7,47.7,228.2,47.2,230.6z M94.1,230.4
				c-0.1,0-0.2,0-0.2,0c-0.4-2.1-0.8-4.2-1.2-6.3c-0.4-2.3-0.7-2.6-2.9-2.6c-0.2,0-0.4,0-0.5,0c-1.2,0.1-1.6,0.5-1.2,1.7
				c1,3.9,1.9,7.8,2.9,11.7c0.7,2.8,0.9,2.9,3.7,2.8c1.2,0,1.6-0.4,1.8-1.5c0.3-1.7,0.5-3.3,0.8-5c0.1-0.7,0.3-1.4,0.4-2.1
				c0.6,2.4,1,4.7,1.4,7c0.2,1.2,0.7,1.6,1.9,1.6c0.4,0,0.7,0,1.1,0c1.5,0,2-0.3,2.4-1.8c1-3.9,2.1-7.8,3.1-11.8
				c0.6-2.5,0.5-2.6-2-2.6c-1.7,0-2,0.3-2.3,1.9c-0.5,2.5-0.9,4.9-1.4,7.6c-0.1-0.6-0.2-0.9-0.3-1.3c-0.4-2.2-0.8-4.4-1.1-6.6
				c-0.2-1.2-0.7-1.6-1.9-1.7c-0.3,0-0.5,0-0.8,0c-1.3,0-1.8,0.4-2.1,1.7c-0.2,0.7-0.2,1.5-0.4,2.2
				C94.8,227.2,94.4,228.8,94.1,230.4z M56.7,250.6c0.5-0.6,0.9-1,1.2-1.5c1.3-2.4-0.3-5.3-3.2-5.6c-2.9-0.2-5.9-0.2-8.8-0.2
				c-1.2,0-1.5,0.5-1.5,1.7c0,2.6,0,5.2,0,7.8c0,1.7,0,3.4,0,5.1c0,1.1,0.3,1.5,1.3,1.5c3,0,6,0.1,9-0.1c2.3-0.1,4.1-1.8,4.5-3.8
				C59.5,253.6,58.8,251.9,56.7,250.6z M74.7,220.9c-4.7,0-8.4,3.7-8.4,8.4c0,4.6,3.7,8.4,8.3,8.4c4.7,0,8.5-3.7,8.5-8.3
				C83.1,224.7,79.3,220.9,74.7,220.9z M106.5,251.1c0.2-4.4-3.8-8.5-8.4-8.4c-4.6,0.1-8.4,3.7-8.4,8.3c0,4.7,3.7,8.4,8.4,8.5
				C102.9,259.6,106.7,255.2,106.5,251.1z M69.1,259.5c1.9,0,1.9,0,3-1.8c0.2-0.3,0.7-0.4,1-0.4c1-0.1,2.1,0,3.1,0
				c0.7,0,1.1,0.2,1.2,0.9c0.1,0.6,0.5,1.2,1.2,1.3c1.1,0.1,2.2,0.1,3.3,0c0.7,0,0.9-0.5,0.7-1.1c-0.1-0.3-0.2-0.7-0.4-1
				c-1.4-3.7-2.8-7.4-4.1-11.2c-1-2.7-0.9-2.9-4.3-2.8c-1.3,0-1.8,0.4-2.3,1.7c-0.9,2.3-1.7,4.7-2.6,7c-0.7,2-1.5,4-2.2,6
				c-0.4,1.1-0.1,1.5,1.1,1.5C68.4,259.5,68.7,259.5,69.1,259.5z"/>
			<path class="st0" d="M49.5,255.6c0-1.1,0-1.9,0-2.8c1.2,0,2.3-0.1,3.4,0c0.8,0.1,1.2,0.6,1.2,1.4c0,0.7-0.4,1.2-1.1,1.3
				C51.9,255.5,50.8,255.5,49.5,255.6z"/>
			<path class="st0" d="M49.5,249.5c0-0.7,0-1.3,0-2.1c1.1,0,2.1,0,3.1,0c0.5,0,0.9,0.4,0.9,1c0,0.6-0.2,0.9-0.8,1.1
				C51.7,249.7,50.6,249.8,49.5,249.5z"/>
			<path class="st0" d="M78.3,229.2c0,2-1.6,3.7-3.6,3.7c-2,0-3.7-1.7-3.7-3.7c0-2,1.6-3.7,3.6-3.7
				C76.7,225.6,78.3,227.2,78.3,229.2z"/>
			<path class="st0" d="M98,247.4c2,0,3.7,1.6,3.8,3.6c0.1,2-1.7,3.8-3.7,3.8c-2,0-3.7-1.7-3.7-3.7C94.4,249.1,96,247.5,98,247.4z"
				/>
			<path class="st0" d="M76.1,253.6c-1,0-1.7,0-2.7,0c0.4-1.5,0.9-2.8,1.3-4.2c0.1,0,0.1,0,0.2,0C75.3,250.8,75.7,252.1,76.1,253.6z
				"/>
		</g>
		<g>
			<path class="st1" d="M182.8,239.2c-0.8-1.3-1.9-2.5-3.1-3.5c-1.2-1-2.7-1.8-4.2-2.4c-1.6-0.6-3.2-0.8-5-0.8c-3.2,0-5.8,0.6-8,1.8
				c-2.2,1.2-4,2.9-5.4,4.9c-1.4,2.1-2.4,4.4-3,7c-0.6,2.6-0.9,5.3-0.9,8.1c0,2.7,0.3,5.3,0.9,7.8c0.6,2.5,1.6,4.8,3,6.8
				c1.4,2,3.2,3.6,5.4,4.9c2.2,1.2,4.9,1.8,8,1.8c4.3,0,7.6-1.3,10-3.9c2.4-2.6,3.9-6.1,4.4-10.4h13.6c-0.4,4-1.3,7.6-2.8,10.8
				c-1.5,3.2-3.5,6-5.9,8.2c-2.4,2.3-5.3,4-8.6,5.2c-3.3,1.2-6.9,1.8-10.8,1.8c-4.9,0-9.3-0.8-13.2-2.5c-3.9-1.7-7.2-4-9.9-7
				c-2.7-3-4.7-6.5-6.2-10.5c-1.4-4-2.1-8.4-2.1-13c0-4.8,0.7-9.2,2.1-13.3c1.4-4.1,3.5-7.6,6.2-10.7s6-5.4,9.9-7.1
				c3.9-1.7,8.3-2.6,13.2-2.6c3.5,0,6.8,0.5,10,1.5c3.1,1,5.9,2.5,8.4,4.4c2.5,1.9,4.5,4.3,6.1,7.2c1.6,2.9,2.6,6.1,3,9.8h-13.6
				C184.2,242,183.7,240.5,182.8,239.2z"/>
			<path class="st1" d="M207.1,252.8c1.1-3,2.7-5.6,4.8-7.7c2.1-2.1,4.6-3.8,7.5-4.9c2.9-1.2,6.2-1.7,9.8-1.7c3.6,0,6.9,0.6,9.9,1.7
				s5.5,2.8,7.5,4.9c2.1,2.1,3.7,4.7,4.8,7.7c1.1,3,1.7,6.4,1.7,10c0,3.7-0.6,7-1.7,10c-1.1,3-2.7,5.5-4.8,7.6
				c-2.1,2.1-4.6,3.7-7.5,4.9c-2.9,1.1-6.2,1.7-9.9,1.7c-3.6,0-6.9-0.6-9.8-1.7c-2.9-1.1-5.4-2.8-7.5-4.9c-2.1-2.1-3.7-4.7-4.8-7.6
				c-1.1-3-1.7-6.3-1.7-10C205.4,259.2,205.9,255.8,207.1,252.8z M218.6,268.3c0.4,1.8,1,3.3,1.8,4.7c0.9,1.4,2,2.5,3.4,3.3
				c1.4,0.8,3.2,1.2,5.4,1.2s3.9-0.4,5.4-1.2c1.5-0.8,2.6-2,3.5-3.3c0.9-1.4,1.5-3,1.8-4.7c0.4-1.8,0.5-3.6,0.5-5.4
				c0-1.8-0.2-3.7-0.5-5.4c-0.4-1.8-1-3.4-1.8-4.7c-0.9-1.4-2-2.5-3.5-3.3c-1.5-0.9-3.3-1.3-5.4-1.3s-3.9,0.4-5.4,1.3
				c-1.4,0.9-2.6,2-3.4,3.3c-0.9,1.4-1.5,2.9-1.8,4.7c-0.4,1.8-0.5,3.6-0.5,5.4C218,264.7,218.2,266.5,218.6,268.3z"/>
			<path class="st1" d="M273.4,239.8v6.4h0.3c1.6-2.7,3.7-4.6,6.3-5.9c2.6-1.2,5.2-1.8,7.9-1.8c3.4,0,6.2,0.5,8.4,1.4
				c2.2,0.9,3.9,2.2,5.1,3.8c1.2,1.6,2.1,3.6,2.6,6c0.5,2.4,0.8,5,0.8,7.8v28.4H292v-26.1c0-3.8-0.6-6.7-1.8-8.5
				c-1.2-1.9-3.3-2.8-6.3-2.8c-3.5,0-6,1-7.5,3.1c-1.5,2.1-2.3,5.4-2.3,10.1v24.2h-12.7v-46.2H273.4z"/>
			<path class="st1" d="M326.4,239.8v6.4h0.3c1.6-2.7,3.7-4.6,6.3-5.9c2.6-1.2,5.2-1.8,7.9-1.8c3.4,0,6.2,0.5,8.4,1.4
				c2.2,0.9,3.9,2.2,5.1,3.8c1.2,1.6,2.1,3.6,2.6,6c0.5,2.4,0.8,5,0.8,7.8v28.4H345v-26.1c0-3.8-0.6-6.7-1.8-8.5
				c-1.2-1.9-3.3-2.8-6.3-2.8c-3.5,0-6,1-7.5,3.1c-1.5,2.1-2.3,5.4-2.3,10.1v24.2h-12.7v-46.2H326.4z"/>
			<path class="st1" d="M380.9,274.9c1.9,1.8,4.6,2.8,8.2,2.8c2.6,0,4.8-0.6,6.6-1.9c1.8-1.3,3-2.6,3.4-4.1h11.2
				c-1.8,5.5-4.5,9.5-8.2,11.9c-3.7,2.4-8.2,3.6-13.4,3.6c-3.6,0-6.9-0.6-9.8-1.7c-2.9-1.2-5.4-2.8-7.4-5c-2-2.1-3.6-4.7-4.7-7.7
				c-1.1-3-1.7-6.3-1.7-9.8c0-3.5,0.6-6.7,1.7-9.6c1.1-3,2.7-5.6,4.8-7.7c2.1-2.2,4.6-3.9,7.5-5.1c2.9-1.2,6.1-1.9,9.6-1.9
				c3.9,0,7.4,0.8,10.3,2.3c2.9,1.5,5.3,3.6,7.2,6.1c1.9,2.6,3.2,5.5,4.1,8.8c0.8,3.3,1.1,6.7,0.9,10.3h-33.3
				C377.9,270,379,273,380.9,274.9z M395.2,250.6c-1.5-1.7-3.8-2.5-6.9-2.5c-2,0-3.7,0.3-5,1c-1.3,0.7-2.4,1.5-3.2,2.5
				c-0.8,1-1.4,2.1-1.7,3.2c-0.3,1.1-0.5,2.1-0.6,3h20.6C397.8,254.7,396.7,252.2,395.2,250.6z"/>
			<path class="st1" d="M440.6,248.1c-2,0-3.7,0.5-5.1,1.4c-1.4,0.9-2.5,2.1-3.3,3.6c-0.9,1.5-1.5,3.1-1.8,4.8
				c-0.4,1.8-0.5,3.5-0.5,5.2c0,1.7,0.2,3.4,0.5,5.1c0.4,1.7,0.9,3.3,1.7,4.7c0.8,1.4,1.9,2.5,3.3,3.4c1.4,0.9,3,1.3,5,1.3
				c3,0,5.4-0.8,7-2.5c1.6-1.7,2.7-4,3.1-6.8h12.2c-0.8,6.1-3.2,10.8-7.1,14c-3.9,3.2-9,4.8-15.1,4.8c-3.5,0-6.6-0.6-9.5-1.7
				c-2.9-1.2-5.3-2.8-7.4-4.9c-2-2.1-3.6-4.6-4.7-7.5c-1.1-2.9-1.7-6.1-1.7-9.5c0-3.6,0.5-6.9,1.6-10c1-3.1,2.6-5.7,4.6-8
				c2-2.2,4.5-4,7.4-5.2c2.9-1.2,6.3-1.9,10-1.9c2.7,0,5.4,0.4,7.9,1.1c2.5,0.7,4.8,1.8,6.8,3.3c2,1.5,3.6,3.3,4.9,5.4
				c1.2,2.2,2,4.8,2.1,7.7H450C449.2,250.7,446.1,248.1,440.6,248.1z"/>
			<path class="st1" d="M495.2,239.8v8.5h-9.3v22.9c0,2.1,0.4,3.6,1.1,4.3c0.7,0.7,2.1,1.1,4.3,1.1c0.7,0,1.4,0,2.1-0.1
				c0.7-0.1,1.3-0.1,1.9-0.3v9.8c-1.1,0.2-2.3,0.3-3.6,0.4c-1.3,0.1-2.6,0.1-3.8,0.1c-2,0-3.8-0.1-5.6-0.4c-1.8-0.3-3.3-0.8-4.6-1.6
				c-1.3-0.8-2.4-1.9-3.2-3.3c-0.8-1.4-1.2-3.3-1.2-5.6v-27.2h-7.7v-8.5h7.7v-13.8h12.7v13.8H495.2z"/>
			<path class="st1" d="M565.9,285.9l-8.2-31h-0.2l-7.9,31h-13.1l-14.6-46.2h13.4l8.5,31.4h0.2l7.7-31.4h12.3l7.9,31.3h0.2l8.5-31.3
				h13l-14.6,46.2H565.9z"/>
			<path class="st1" d="M599.2,232.6v-10.5h12.7v10.5H599.2z M611.9,239.8v46.2h-12.7v-46.2H611.9z"/>
			<path class="st1" d="M647.2,239.8v8.5h-9.3v22.9c0,2.1,0.4,3.6,1.1,4.3c0.7,0.7,2.1,1.1,4.3,1.1c0.7,0,1.4,0,2.1-0.1
				c0.7-0.1,1.3-0.1,1.9-0.3v9.8c-1.1,0.2-2.3,0.3-3.6,0.4c-1.3,0.1-2.6,0.1-3.8,0.1c-2,0-3.8-0.1-5.6-0.4c-1.8-0.3-3.3-0.8-4.6-1.6
				c-1.3-0.8-2.4-1.9-3.2-3.3c-0.8-1.4-1.2-3.3-1.2-5.6v-27.2h-7.7v-8.5h7.7v-13.8h12.7v13.8H647.2z"/>
			<path class="st1" d="M666,222.2v24h0.3c1.6-2.7,3.7-4.6,6.2-5.9c2.5-1.2,4.9-1.8,7.3-1.8c3.4,0,6.2,0.5,8.4,1.4
				c2.2,0.9,3.9,2.2,5.1,3.8c1.2,1.6,2.1,3.6,2.6,6c0.5,2.4,0.8,5,0.8,7.8v28.4H684v-26.1c0-3.8-0.6-6.7-1.8-8.5
				c-1.2-1.9-3.3-2.8-6.3-2.8c-3.5,0-6,1-7.5,3.1c-1.5,2.1-2.3,5.4-2.3,10.1v24.2h-12.7v-63.8H666z"/>
			<path class="st1" d="M762.4,285.9v-6.4h-0.3c-1.6,2.7-3.7,4.6-6.3,5.8c-2.6,1.2-5.2,1.8-7.9,1.8c-3.4,0-6.2-0.4-8.4-1.3
				s-3.9-2.2-5.1-3.8c-1.2-1.6-2.1-3.6-2.6-6c-0.5-2.4-0.8-5-0.8-7.8v-28.4h12.7v26.1c0,3.8,0.6,6.7,1.8,8.5
				c1.2,1.9,3.3,2.8,6.3,2.8c3.5,0,6-1,7.5-3.1c1.5-2.1,2.3-5.4,2.3-10.1v-24.2h12.7v46.2H762.4z"/>
			<path class="st1" d="M794.8,274.5c0.6,1,1.3,1.8,2.2,2.4c0.9,0.6,1.9,1.1,3.1,1.4c1.2,0.3,2.4,0.4,3.6,0.4c0.9,0,1.8-0.1,2.8-0.3
				c1-0.2,1.9-0.5,2.7-1c0.8-0.4,1.5-1,2-1.8c0.5-0.7,0.8-1.7,0.8-2.8c0-1.9-1.3-3.3-3.8-4.3c-2.5-1-6.1-1.9-10.6-2.9
				c-1.8-0.4-3.6-0.9-5.4-1.5c-1.8-0.6-3.3-1.3-4.7-2.2c-1.4-0.9-2.5-2.1-3.3-3.5c-0.8-1.4-1.3-3.1-1.3-5.1c0-3,0.6-5.4,1.7-7.3
				c1.2-1.9,2.7-3.4,4.6-4.5c1.9-1.1,4-1.9,6.4-2.3c2.4-0.4,4.8-0.7,7.3-0.7c2.5,0,4.9,0.2,7.3,0.7c2.4,0.5,4.5,1.3,6.3,2.4
				c1.8,1.1,3.4,2.6,4.6,4.5c1.2,1.9,2,4.2,2.2,7.1h-12.1c-0.2-2.4-1.1-4.1-2.8-5c-1.7-0.9-3.6-1.3-5.9-1.3c-0.7,0-1.5,0-2.3,0.1
				c-0.8,0.1-1.6,0.3-2.3,0.6c-0.7,0.3-1.3,0.7-1.7,1.3c-0.5,0.6-0.7,1.3-0.7,2.3c0,1.1,0.4,2.1,1.2,2.8c0.8,0.7,1.9,1.3,3.3,1.7
				c1.3,0.4,2.9,0.8,4.6,1.2c1.7,0.4,3.5,0.7,5.3,1.2c1.8,0.4,3.6,0.9,5.4,1.5c1.8,0.6,3.3,1.4,4.7,2.4c1.4,1,2.5,2.2,3.3,3.7
				c0.8,1.5,1.3,3.3,1.3,5.4c0,3-0.6,5.6-1.8,7.6c-1.2,2.1-2.8,3.7-4.8,5c-2,1.3-4.2,2.1-6.7,2.6c-2.5,0.5-5.1,0.8-7.7,0.8
				c-2.7,0-5.3-0.3-7.9-0.8c-2.6-0.5-4.8-1.4-6.8-2.7c-2-1.3-3.6-2.9-4.9-5c-1.3-2.1-2-4.6-2.1-7.7h12.1
				C793.9,272.3,794.2,273.5,794.8,274.5z"/>
			<path class="st1" d="M846.7,272.2v13.8h-14v-13.8H846.7z M842.8,266.8h-6.3l-3.4-27.5v-17.2h13.2v17.2L842.8,266.8z"/>
		</g>
	</g>
	<g>
		<path class="st1" d="M52.7,309.1v20c0,1.4-0.1,2.7-0.4,3.7c-0.3,1-0.7,1.9-1.4,2.6c-0.6,0.7-1.5,1.2-2.5,1.5s-2.3,0.5-3.8,0.5
			c-1.6,0-2.9-0.3-3.9-0.8c-1-0.5-1.8-1.2-2.4-2.1c-0.6-0.9-1-1.9-1.2-3c-0.2-1.1-0.3-2.3-0.3-3.5h2.6c0,0.6,0.1,1.3,0.1,2.1
			c0.1,0.8,0.2,1.6,0.5,2.4c0.3,0.8,0.8,1.4,1.5,1.9c0.7,0.5,1.8,0.8,3.1,0.8c1,0,1.9-0.1,2.6-0.4c0.7-0.3,1.2-0.7,1.6-1.3
			c0.4-0.6,0.7-1.3,0.8-2.2c0.2-0.9,0.2-2,0.2-3.3v-18.9H52.7z"/>
		<path class="st1" d="M70.4,317c1.2,0.6,2.2,1.3,3,2.3c0.8,1,1.4,2.1,1.8,3.4c0.4,1.3,0.6,2.7,0.6,4.1c0,1.5-0.2,2.8-0.6,4.1
			c-0.4,1.3-1,2.4-1.8,3.4s-1.8,1.7-3,2.3c-1.2,0.6-2.5,0.8-4.1,0.8c-1.5,0-2.9-0.3-4.1-0.8c-1.2-0.6-2.2-1.3-3-2.3
			s-1.4-2.1-1.8-3.4s-0.6-2.7-0.6-4.1c0-1.5,0.2-2.8,0.6-4.1s1-2.4,1.8-3.4c0.8-1,1.8-1.7,3-2.3c1.2-0.6,2.5-0.9,4.1-0.9
			C67.8,316.2,69.2,316.5,70.4,317z M63.2,319c-0.9,0.5-1.6,1.1-2.2,1.9s-1,1.7-1.3,2.7c-0.3,1-0.4,2.1-0.4,3.1
			c0,1.1,0.1,2.1,0.4,3.1c0.3,1,0.7,1.9,1.3,2.7s1.3,1.5,2.2,1.9c0.9,0.5,1.9,0.7,3.1,0.7s2.2-0.2,3.1-0.7c0.9-0.5,1.6-1.1,2.2-1.9
			c0.6-0.8,1-1.7,1.3-2.7c0.3-1,0.4-2.1,0.4-3.1c0-1.1-0.1-2.1-0.4-3.1c-0.3-1-0.7-1.9-1.3-2.7c-0.6-0.8-1.3-1.5-2.2-1.9
			s-1.9-0.7-3.1-0.7S64.1,318.5,63.2,319z"/>
		<path class="st1" d="M81.9,309.1v3.9h-2.5v-3.9H81.9z M81.9,316.8v20.1h-2.5v-20.1H81.9z"/>
		<path class="st1" d="M89,316.8v3.5h0.1c0.5-1.2,1.3-2.2,2.5-2.9c1.2-0.7,2.5-1.1,3.9-1.1c1.4,0,2.6,0.2,3.5,0.5s1.7,0.9,2.3,1.5
			s1,1.5,1.2,2.4s0.3,2,0.3,3.2v12.9h-2.5v-12.5c0-0.9-0.1-1.7-0.2-2.4c-0.2-0.7-0.4-1.4-0.8-1.9c-0.4-0.5-0.9-1-1.6-1.3
			c-0.7-0.3-1.5-0.5-2.5-0.5s-1.9,0.2-2.6,0.5c-0.8,0.3-1.4,0.8-1.9,1.4c-0.5,0.6-0.9,1.3-1.2,2.2c-0.3,0.8-0.5,1.8-0.5,2.7v11.7
			h-2.5v-20.1H89z"/>
		<path class="st1" d="M126.3,316.8v2.1h-4.1v13.5c0,0.8,0.1,1.4,0.3,1.9c0.2,0.5,0.8,0.7,1.7,0.8c0.7,0,1.4,0,2.1-0.1v2.1
			c-0.4,0-0.7,0-1.1,0s-0.7,0-1.1,0c-1.6,0-2.8-0.3-3.4-1c-0.6-0.6-1-1.8-0.9-3.5v-13.7h-3.5v-2.1h3.5v-6h2.5v6H126.3z"/>
		<path class="st1" d="M132.3,309.1v11.2h0.1c0.5-1.2,1.3-2.2,2.5-2.9c1.2-0.7,2.5-1.1,3.9-1.1c1.4,0,2.6,0.2,3.5,0.5
			s1.7,0.9,2.3,1.5s1,1.5,1.2,2.4s0.3,2,0.3,3.2v12.9h-2.5v-12.5c0-0.9-0.1-1.7-0.2-2.4c-0.2-0.7-0.4-1.4-0.8-1.9
			c-0.4-0.5-0.9-1-1.6-1.3c-0.7-0.3-1.5-0.5-2.5-0.5s-1.9,0.2-2.6,0.5c-0.8,0.3-1.4,0.8-1.9,1.4c-0.5,0.6-0.9,1.3-1.2,2.2
			c-0.3,0.8-0.5,1.8-0.5,2.7v11.7h-2.5v-27.8H132.3z"/>
		<path class="st1" d="M152.5,330.2c0.2,0.9,0.6,1.8,1.2,2.5c0.5,0.8,1.2,1.4,2.1,1.9c0.8,0.5,1.8,0.7,3,0.7c1.8,0,3.2-0.5,4.2-1.4
			c1-0.9,1.7-2.2,2.1-3.7h2.5c-0.5,2.3-1.5,4-2.9,5.3s-3.4,1.9-5.9,1.9c-1.6,0-2.9-0.3-4.1-0.8c-1.2-0.6-2.1-1.3-2.8-2.3
			c-0.7-1-1.3-2.1-1.6-3.4c-0.4-1.3-0.5-2.6-0.5-4.1c0-1.3,0.2-2.6,0.5-3.9c0.3-1.3,0.9-2.4,1.6-3.4c0.7-1,1.7-1.8,2.8-2.4
			c1.2-0.6,2.5-0.9,4.1-0.9c1.6,0,3,0.3,4.1,1c1.1,0.6,2.1,1.5,2.8,2.5c0.7,1.1,1.2,2.3,1.5,3.6s0.4,2.7,0.4,4.1h-15.4
			C152.2,328.3,152.3,329.2,152.5,330.2z M164.7,322.7c-0.3-0.9-0.7-1.6-1.3-2.3c-0.5-0.7-1.2-1.2-2-1.6c-0.8-0.4-1.7-0.6-2.6-0.6
			c-1,0-1.9,0.2-2.7,0.6c-0.8,0.4-1.4,0.9-2,1.6c-0.5,0.7-1,1.4-1.3,2.3c-0.3,0.9-0.5,1.8-0.6,2.7h13
			C165.1,324.5,165,323.6,164.7,322.7z"/>
		<path class="st1" d="M194.4,328.2l-1.2,8.7h-1.9l1.2-8.7H187l-1.2,8.7h-1.9l1.2-8.7h-4.3v-1.8h4.5l0.9-6.1h-4.3v-1.8h4.5l1.2-8.6
			h1.9l-1.2,8.6h5.5l1.2-8.6h1.9l-1.2,8.6h4.1v1.8h-4.3l-0.9,6.1h4.1v1.8H194.4z M187.2,326.4h5.5l0.9-6.1h-5.5L187.2,326.4z"/>
		<path class="st1" d="M203.8,309.1l6.3,24.3h0.1l6.8-24.3h3.3l6.8,24.3h0.1l6.3-24.3h2.6l-7.7,27.8h-2.8l-7-24.9h-0.1l-7,24.9h-2.9
			l-7.7-27.8H203.8z"/>
		<path class="st1" d="M250.5,317c1.2,0.6,2.2,1.3,3,2.3c0.8,1,1.4,2.1,1.8,3.4c0.4,1.3,0.6,2.7,0.6,4.1c0,1.5-0.2,2.8-0.6,4.1
			c-0.4,1.3-1,2.4-1.8,3.4s-1.8,1.7-3,2.3c-1.2,0.6-2.5,0.8-4.1,0.8c-1.5,0-2.9-0.3-4.1-0.8c-1.2-0.6-2.2-1.3-3-2.3
			s-1.4-2.1-1.8-3.4s-0.6-2.7-0.6-4.1c0-1.5,0.2-2.8,0.6-4.1s1-2.4,1.8-3.4c0.8-1,1.8-1.7,3-2.3c1.2-0.6,2.5-0.9,4.1-0.9
			C247.9,316.2,249.3,316.5,250.5,317z M243.3,319c-0.9,0.5-1.6,1.1-2.2,1.9s-1,1.7-1.3,2.7c-0.3,1-0.4,2.1-0.4,3.1
			c0,1.1,0.1,2.1,0.4,3.1c0.3,1,0.7,1.9,1.3,2.7s1.3,1.5,2.2,1.9c0.9,0.5,1.9,0.7,3.1,0.7s2.2-0.2,3.1-0.7c0.9-0.5,1.6-1.1,2.2-1.9
			c0.6-0.8,1-1.7,1.3-2.7c0.3-1,0.4-2.1,0.4-3.1c0-1.1-0.1-2.1-0.4-3.1c-0.3-1-0.7-1.9-1.3-2.7c-0.6-0.8-1.3-1.5-2.2-1.9
			s-1.9-0.7-3.1-0.7S244.2,318.5,243.3,319z"/>
		<path class="st1" d="M260.1,316.8l5.1,17.2h0.1l4.9-17.2h2.8l4.9,17.2h0.1l5.1-17.2h2.6l-6.5,20.1h-2.7l-4.9-16.9h-0.1l-4.9,16.9
			H264l-6.5-20.1H260.1z"/>
		<path class="st1" d="M300.6,309.1c1.2,0,2.3,0.1,3.4,0.3c1.1,0.2,2,0.6,2.8,1.1c0.8,0.5,1.5,1.2,2,2.1c0.5,0.9,0.7,2,0.7,3.2
			c0,0.7-0.1,1.4-0.3,2.1c-0.2,0.7-0.6,1.3-1,1.9s-0.9,1-1.5,1.4c-0.6,0.4-1.2,0.7-2,0.8v0.1c1.8,0.2,3.2,1,4.3,2.2
			c1.1,1.2,1.6,2.8,1.6,4.6c0,0.4,0,0.9-0.1,1.5c-0.1,0.6-0.2,1.1-0.5,1.7c-0.2,0.6-0.6,1.2-1,1.7c-0.4,0.6-1,1.1-1.8,1.5
			c-0.7,0.4-1.6,0.8-2.7,1c-1.1,0.3-2.4,0.4-3.9,0.4h-11.7v-27.8H300.6z M300.6,321.2c1.1,0,2-0.1,2.8-0.4c0.8-0.2,1.4-0.6,1.9-1
			s0.9-0.9,1.2-1.5c0.3-0.6,0.4-1.2,0.4-1.8c0-3.5-2.1-5.2-6.3-5.2h-9.1v9.9H300.6z M300.6,334.6c1,0,1.9-0.1,2.8-0.3
			c0.9-0.2,1.7-0.5,2.3-0.9c0.7-0.4,1.2-1,1.6-1.8c0.4-0.7,0.6-1.7,0.6-2.8c0-1.8-0.6-3.1-1.9-4c-1.3-0.9-3.1-1.3-5.4-1.3h-9.1v11.1
			H300.6z"/>
		<path class="st1" d="M314.8,319.9c0.4-0.9,1-1.6,1.7-2.1c0.7-0.5,1.5-0.9,2.5-1.2c1-0.3,2-0.4,3.2-0.4c0.9,0,1.8,0.1,2.6,0.3
			c0.9,0.2,1.7,0.5,2.4,1s1.3,1.1,1.7,2c0.4,0.8,0.7,1.9,0.7,3.3v10.7c0,1,0.5,1.5,1.4,1.5c0.3,0,0.5-0.1,0.8-0.2v2.1
			c-0.3,0.1-0.5,0.1-0.8,0.1c-0.2,0-0.5,0-0.8,0c-0.6,0-1.1-0.1-1.5-0.3c-0.4-0.2-0.7-0.4-0.9-0.7c-0.2-0.3-0.3-0.7-0.4-1.1
			s-0.1-0.9-0.1-1.4h-0.1c-0.4,0.6-0.9,1.2-1.3,1.7c-0.5,0.5-1,0.9-1.5,1.3c-0.6,0.3-1.2,0.6-1.9,0.8c-0.7,0.2-1.6,0.3-2.5,0.3
			c-0.9,0-1.8-0.1-2.6-0.3s-1.5-0.6-2.1-1c-0.6-0.5-1.1-1.1-1.4-1.8s-0.5-1.6-0.5-2.6c0-1.4,0.3-2.5,0.9-3.3s1.4-1.4,2.5-1.8
			c1-0.4,2.2-0.7,3.5-0.9c1.3-0.2,2.6-0.3,3.9-0.5c0.5-0.1,1-0.1,1.4-0.2c0.4-0.1,0.7-0.2,1-0.4c0.3-0.2,0.5-0.5,0.6-0.8
			c0.1-0.3,0.2-0.8,0.2-1.3c0-0.8-0.1-1.5-0.4-2c-0.3-0.5-0.6-1-1.1-1.3c-0.5-0.3-1-0.5-1.7-0.6c-0.6-0.1-1.3-0.2-2-0.2
			c-1.6,0-2.8,0.4-3.8,1.1s-1.5,1.9-1.6,3.6h-2.4C314.1,321.7,314.4,320.7,314.8,319.9z M327.1,325.9c-0.2,0.3-0.5,0.5-0.9,0.6
			c-0.4,0.1-0.8,0.2-1.2,0.3c-1,0.2-2.1,0.3-3.2,0.5c-1.1,0.1-2.1,0.4-3,0.6c-0.9,0.3-1.7,0.7-2.2,1.2c-0.6,0.5-0.9,1.3-0.9,2.3
			c0,0.6,0.1,1.2,0.4,1.7c0.2,0.5,0.6,0.9,1,1.2c0.4,0.3,0.9,0.6,1.4,0.8c0.5,0.2,1.1,0.3,1.7,0.3c0.9,0,1.8-0.1,2.7-0.4
			s1.6-0.7,2.2-1.2c0.6-0.5,1.1-1.2,1.5-2c0.4-0.8,0.6-1.7,0.6-2.6L327.1,325.9L327.1,325.9z"/>
		<path class="st1" d="M347,317c1.2,0.6,2.2,1.3,3,2.3c0.8,1,1.4,2.1,1.8,3.4c0.4,1.3,0.6,2.7,0.6,4.1c0,1.5-0.2,2.8-0.6,4.1
			c-0.4,1.3-1,2.4-1.8,3.4s-1.8,1.7-3,2.3c-1.2,0.6-2.5,0.8-4.1,0.8c-1.5,0-2.9-0.3-4.1-0.8c-1.2-0.6-2.2-1.3-3-2.3
			s-1.4-2.1-1.8-3.4s-0.6-2.7-0.6-4.1c0-1.5,0.2-2.8,0.6-4.1s1-2.4,1.8-3.4c0.8-1,1.8-1.7,3-2.3c1.2-0.6,2.5-0.9,4.1-0.9
			C344.5,316.2,345.8,316.5,347,317z M339.9,319c-0.9,0.5-1.6,1.1-2.2,1.9s-1,1.7-1.3,2.7c-0.3,1-0.4,2.1-0.4,3.1
			c0,1.1,0.1,2.1,0.4,3.1c0.3,1,0.7,1.9,1.3,2.7s1.3,1.5,2.2,1.9c0.9,0.5,1.9,0.7,3.1,0.7s2.2-0.2,3.1-0.7c0.9-0.5,1.6-1.1,2.2-1.9
			c0.6-0.8,1-1.7,1.3-2.7c0.3-1,0.4-2.1,0.4-3.1c0-1.1-0.1-2.1-0.4-3.1c-0.3-1-0.7-1.9-1.3-2.7c-0.6-0.8-1.3-1.5-2.2-1.9
			s-1.9-0.7-3.1-0.7S340.8,318.5,339.9,319z"/>
		<path class="st1" d="M379.2,319.5c-0.9-0.9-2.2-1.3-3.8-1.3c-1.2,0-2.2,0.2-3.1,0.7c-0.9,0.5-1.6,1.1-2.2,1.9s-1,1.7-1.3,2.7
			c-0.3,1-0.4,2.1-0.4,3.1c0,1.1,0.1,2.1,0.4,3.1c0.3,1,0.7,1.9,1.3,2.7s1.3,1.5,2.2,1.9c0.9,0.5,1.9,0.7,3.1,0.7
			c0.8,0,1.5-0.1,2.1-0.4c0.7-0.3,1.3-0.7,1.8-1.2s0.9-1.1,1.3-1.8c0.3-0.7,0.5-1.5,0.6-2.3h2.5c-0.3,2.4-1.2,4.3-2.7,5.7
			c-1.5,1.4-3.3,2-5.6,2c-1.5,0-2.9-0.3-4.1-0.8c-1.2-0.6-2.2-1.3-3-2.3s-1.4-2.1-1.8-3.4s-0.6-2.7-0.6-4.1c0-1.5,0.2-2.8,0.6-4.1
			s1-2.4,1.8-3.4c0.8-1,1.8-1.7,3-2.3c1.2-0.6,2.5-0.9,4.1-0.9c2.2,0,4,0.6,5.5,1.7s2.4,2.9,2.7,5.2h-2.5
			C380.7,321.6,380.1,320.4,379.2,319.5z"/>
		<path class="st1" d="M399.6,317c1.2,0.6,2.2,1.3,3,2.3c0.8,1,1.4,2.1,1.8,3.4c0.4,1.3,0.6,2.7,0.6,4.1c0,1.5-0.2,2.8-0.6,4.1
			c-0.4,1.3-1,2.4-1.8,3.4s-1.8,1.7-3,2.3c-1.2,0.6-2.5,0.8-4.1,0.8c-1.5,0-2.9-0.3-4.1-0.8c-1.2-0.6-2.2-1.3-3-2.3
			s-1.4-2.1-1.8-3.4s-0.6-2.7-0.6-4.1c0-1.5,0.2-2.8,0.6-4.1s1-2.4,1.8-3.4c0.8-1,1.8-1.7,3-2.3c1.2-0.6,2.5-0.9,4.1-0.9
			C397.1,316.2,398.5,316.5,399.6,317z M392.5,319c-0.9,0.5-1.6,1.1-2.2,1.9s-1,1.7-1.3,2.7c-0.3,1-0.4,2.1-0.4,3.1
			c0,1.1,0.1,2.1,0.4,3.1c0.3,1,0.7,1.9,1.3,2.7s1.3,1.5,2.2,1.9c0.9,0.5,1.9,0.7,3.1,0.7s2.2-0.2,3.1-0.7c0.9-0.5,1.6-1.1,2.2-1.9
			c0.6-0.8,1-1.7,1.3-2.7c0.3-1,0.4-2.1,0.4-3.1c0-1.1-0.1-2.1-0.4-3.1c-0.3-1-0.7-1.9-1.3-2.7c-0.6-0.8-1.3-1.5-2.2-1.9
			s-1.9-0.7-3.1-0.7S393.4,318.5,392.5,319z"/>
		<path class="st1" d="M411.1,316.8v3.5h0.1c0.5-1.2,1.3-2.2,2.5-2.9c1.2-0.7,2.5-1.1,3.9-1.1c1.4,0,2.6,0.2,3.5,0.5
			s1.7,0.9,2.3,1.5s1,1.5,1.2,2.4s0.3,2,0.3,3.2v12.9h-2.5v-12.5c0-0.9-0.1-1.7-0.2-2.4c-0.2-0.7-0.4-1.4-0.8-1.9
			c-0.4-0.5-0.9-1-1.6-1.3c-0.7-0.3-1.5-0.5-2.5-0.5s-1.9,0.2-2.6,0.5c-0.8,0.3-1.4,0.8-1.9,1.4c-0.5,0.6-0.9,1.3-1.2,2.2
			c-0.3,0.8-0.5,1.8-0.5,2.7v11.7h-2.5v-20.1H411.1z"/>
		<path class="st1" d="M430.1,316.8l6.3,17.6h0.1l6.2-17.6h2.5l-7.5,20.1h-2.6l-7.7-20.1H430.1z"/>
		<path class="st1" d="M449.4,330.2c0.2,0.9,0.6,1.8,1.2,2.5c0.5,0.8,1.2,1.4,2.1,1.9c0.8,0.5,1.8,0.7,3,0.7c1.8,0,3.2-0.5,4.2-1.4
			c1-0.9,1.7-2.2,2.1-3.7h2.5c-0.5,2.3-1.5,4-2.9,5.3s-3.4,1.9-5.9,1.9c-1.6,0-2.9-0.3-4.1-0.8c-1.2-0.6-2.1-1.3-2.8-2.3
			c-0.7-1-1.3-2.1-1.6-3.4c-0.4-1.3-0.5-2.6-0.5-4.1c0-1.3,0.2-2.6,0.5-3.9c0.3-1.3,0.9-2.4,1.6-3.4c0.7-1,1.7-1.8,2.8-2.4
			c1.2-0.6,2.5-0.9,4.1-0.9c1.6,0,3,0.3,4.1,1c1.1,0.6,2.1,1.5,2.8,2.5c0.7,1.1,1.2,2.3,1.5,3.6s0.4,2.7,0.4,4.1h-15.4
			C449.1,328.3,449.2,329.2,449.4,330.2z M461.6,322.7c-0.3-0.9-0.7-1.6-1.3-2.3c-0.5-0.7-1.2-1.2-2-1.6c-0.8-0.4-1.7-0.6-2.6-0.6
			c-1,0-1.9,0.2-2.7,0.6c-0.8,0.4-1.4,0.9-2,1.6c-0.5,0.7-1,1.4-1.3,2.3c-0.3,0.9-0.5,1.8-0.6,2.7h13
			C462,324.5,461.9,323.6,461.6,322.7z"/>
		<path class="st1" d="M470.1,316.8v4.7h0.1c0.6-1.6,1.6-2.9,2.9-3.8c1.3-0.9,2.9-1.3,4.7-1.2v2.5c-1.1-0.1-2.1,0.1-3,0.4
			c-0.9,0.3-1.7,0.8-2.4,1.5c-0.7,0.6-1.2,1.4-1.5,2.3c-0.4,0.9-0.5,1.9-0.5,2.9v10.7h-2.5v-20.1H470.1z"/>
		<path class="st1" d="M491.6,320.7c-0.3-0.6-0.7-1-1.1-1.4c-0.5-0.4-1-0.6-1.7-0.8s-1.3-0.3-2-0.3c-0.5,0-1.1,0.1-1.7,0.2
			c-0.6,0.1-1.1,0.3-1.5,0.6c-0.5,0.3-0.8,0.6-1.1,1.1s-0.4,1-0.4,1.6c0,0.5,0.1,1,0.4,1.4c0.3,0.4,0.6,0.7,1,1
			c0.4,0.3,0.9,0.5,1.4,0.6c0.5,0.2,0.9,0.3,1.4,0.4l3.3,0.7c0.7,0.1,1.4,0.3,2.1,0.6s1.3,0.6,1.8,1.1c0.5,0.4,1,1,1.3,1.6
			c0.3,0.6,0.5,1.4,0.5,2.3c0,1.1-0.2,2-0.7,2.8s-1.1,1.4-1.9,1.9c-0.8,0.5-1.6,0.8-2.6,1c-1,0.2-1.9,0.3-2.8,0.3
			c-2.4,0-4.3-0.6-5.7-1.7c-1.5-1.1-2.3-2.9-2.5-5.4h2.4c0.1,1.7,0.7,2.9,1.8,3.8c1.1,0.8,2.5,1.3,4.1,1.3c0.6,0,1.2-0.1,1.8-0.2
			c0.6-0.1,1.2-0.4,1.8-0.7c0.5-0.3,1-0.7,1.3-1.2c0.4-0.5,0.5-1.1,0.5-1.8c0-0.6-0.1-1.1-0.4-1.5c-0.2-0.4-0.6-0.7-1-1
			s-0.9-0.5-1.4-0.7c-0.5-0.2-1.1-0.3-1.6-0.5l-3.2-0.7c-0.8-0.2-1.5-0.4-2.2-0.7c-0.7-0.3-1.3-0.6-1.8-1c-0.5-0.4-0.9-0.9-1.2-1.5
			s-0.4-1.3-0.4-2.2c0-1,0.2-1.9,0.7-2.6s1-1.3,1.8-1.8c0.7-0.4,1.5-0.8,2.4-1c0.9-0.2,1.8-0.3,2.7-0.3c1,0,2,0.1,2.8,0.4
			c0.9,0.3,1.6,0.7,2.3,1.2c0.7,0.5,1.2,1.2,1.6,2s0.6,1.8,0.7,2.8h-2.5C492,321.9,491.9,321.2,491.6,320.7z"/>
		<path class="st1" d="M499.3,319.9c0.4-0.9,1-1.6,1.7-2.1c0.7-0.5,1.5-0.9,2.5-1.2c1-0.3,2-0.4,3.2-0.4c0.9,0,1.8,0.1,2.6,0.3
			c0.9,0.2,1.7,0.5,2.4,1c0.7,0.5,1.3,1.1,1.7,2c0.4,0.8,0.7,1.9,0.7,3.3v10.7c0,1,0.5,1.5,1.4,1.5c0.3,0,0.5-0.1,0.8-0.2v2.1
			c-0.3,0.1-0.5,0.1-0.8,0.1c-0.2,0-0.5,0-0.8,0c-0.6,0-1.1-0.1-1.5-0.3c-0.4-0.2-0.7-0.4-0.9-0.7c-0.2-0.3-0.3-0.7-0.4-1.1
			s-0.1-0.9-0.1-1.4h-0.1c-0.4,0.6-0.9,1.2-1.3,1.7c-0.5,0.5-1,0.9-1.5,1.3c-0.6,0.3-1.2,0.6-1.9,0.8c-0.7,0.2-1.6,0.3-2.5,0.3
			c-0.9,0-1.8-0.1-2.6-0.3s-1.5-0.6-2.1-1c-0.6-0.5-1.1-1.1-1.4-1.8s-0.5-1.6-0.5-2.6c0-1.4,0.3-2.5,0.9-3.3s1.4-1.4,2.5-1.8
			c1-0.4,2.2-0.7,3.5-0.9c1.3-0.2,2.6-0.3,3.9-0.5c0.5-0.1,1-0.1,1.4-0.2c0.4-0.1,0.7-0.2,1-0.4c0.3-0.2,0.5-0.5,0.6-0.8
			c0.1-0.3,0.2-0.8,0.2-1.3c0-0.8-0.1-1.5-0.4-2c-0.3-0.5-0.6-1-1.1-1.3c-0.5-0.3-1-0.5-1.7-0.6c-0.6-0.1-1.3-0.2-2-0.2
			c-1.6,0-2.8,0.4-3.8,1.1s-1.5,1.9-1.6,3.6h-2.4C498.6,321.7,498.8,320.7,499.3,319.9z M511.5,325.9c-0.2,0.3-0.5,0.5-0.9,0.6
			c-0.4,0.1-0.8,0.2-1.2,0.3c-1,0.2-2.1,0.3-3.2,0.5c-1.1,0.1-2.1,0.4-3,0.6c-0.9,0.3-1.7,0.7-2.2,1.2c-0.6,0.5-0.9,1.3-0.9,2.3
			c0,0.6,0.1,1.2,0.4,1.7c0.2,0.5,0.6,0.9,1,1.2c0.4,0.3,0.9,0.6,1.4,0.8c0.5,0.2,1.1,0.3,1.7,0.3c0.9,0,1.8-0.1,2.7-0.4
			s1.6-0.7,2.2-1.2c0.6-0.5,1.1-1.2,1.5-2c0.4-0.8,0.6-1.7,0.6-2.6L511.5,325.9L511.5,325.9z"/>
		<path class="st1" d="M526.9,316.8v2.1h-4.1v13.5c0,0.8,0.1,1.4,0.3,1.9c0.2,0.5,0.8,0.7,1.7,0.8c0.7,0,1.4,0,2.1-0.1v2.1
			c-0.4,0-0.7,0-1.1,0s-0.7,0-1.1,0c-1.6,0-2.8-0.3-3.4-1c-0.6-0.6-1-1.8-0.9-3.5v-13.7h-3.5v-2.1h3.5v-6h2.5v6H526.9z"/>
		<path class="st1" d="M532.9,309.1v3.9h-2.5v-3.9H532.9z M532.9,316.8v20.1h-2.5v-20.1H532.9z"/>
		<path class="st1" d="M550.2,317c1.2,0.6,2.2,1.3,3,2.3c0.8,1,1.4,2.1,1.8,3.4c0.4,1.3,0.6,2.7,0.6,4.1c0,1.5-0.2,2.8-0.6,4.1
			c-0.4,1.3-1,2.4-1.8,3.4s-1.8,1.7-3,2.3c-1.2,0.6-2.5,0.8-4.1,0.8c-1.5,0-2.9-0.3-4.1-0.8c-1.2-0.6-2.2-1.3-3-2.3
			s-1.4-2.1-1.8-3.4s-0.6-2.7-0.6-4.1c0-1.5,0.2-2.8,0.6-4.1s1-2.4,1.8-3.4c0.8-1,1.8-1.7,3-2.3c1.2-0.6,2.5-0.9,4.1-0.9
			C547.7,316.2,549,316.5,550.2,317z M543.1,319c-0.9,0.5-1.6,1.1-2.2,1.9s-1,1.7-1.3,2.7c-0.3,1-0.4,2.1-0.4,3.1
			c0,1.1,0.1,2.1,0.4,3.1c0.3,1,0.7,1.9,1.3,2.7s1.3,1.5,2.2,1.9c0.9,0.5,1.9,0.7,3.1,0.7s2.2-0.2,3.1-0.7c0.9-0.5,1.6-1.1,2.2-1.9
			c0.6-0.8,1-1.7,1.3-2.7c0.3-1,0.4-2.1,0.4-3.1c0-1.1-0.1-2.1-0.4-3.1c-0.3-1-0.7-1.9-1.3-2.7c-0.6-0.8-1.3-1.5-2.2-1.9
			s-1.9-0.7-3.1-0.7S543.9,318.5,543.1,319z"/>
		<path class="st1" d="M561.7,316.8v3.5h0.1c0.5-1.2,1.3-2.2,2.5-2.9c1.2-0.7,2.5-1.1,3.9-1.1c1.4,0,2.6,0.2,3.5,0.5
			s1.7,0.9,2.3,1.5s1,1.5,1.2,2.4s0.3,2,0.3,3.2v12.9h-2.5v-12.5c0-0.9-0.1-1.7-0.2-2.4c-0.2-0.7-0.4-1.4-0.8-1.9
			c-0.4-0.5-0.9-1-1.6-1.3c-0.7-0.3-1.5-0.5-2.5-0.5s-1.9,0.2-2.6,0.5c-0.8,0.3-1.4,0.8-1.9,1.4c-0.5,0.6-0.9,1.3-1.2,2.2
			c-0.3,0.8-0.5,1.8-0.5,2.7v11.7h-2.5v-20.1H561.7z"/>
		<path class="st1" d="M603.5,317c1.2,0.6,2.2,1.3,3,2.3c0.8,1,1.4,2.1,1.8,3.4c0.4,1.3,0.6,2.7,0.6,4.1c0,1.5-0.2,2.8-0.6,4.1
			c-0.4,1.3-1,2.4-1.8,3.4s-1.8,1.7-3,2.3c-1.2,0.6-2.5,0.8-4.1,0.8c-1.5,0-2.9-0.3-4.1-0.8c-1.2-0.6-2.2-1.3-3-2.3
			s-1.4-2.1-1.8-3.4s-0.6-2.7-0.6-4.1c0-1.5,0.2-2.8,0.6-4.1s1-2.4,1.8-3.4c0.8-1,1.8-1.7,3-2.3c1.2-0.6,2.5-0.9,4.1-0.9
			C601,316.2,602.3,316.5,603.5,317z M596.4,319c-0.9,0.5-1.6,1.1-2.2,1.9s-1,1.7-1.3,2.7c-0.3,1-0.4,2.1-0.4,3.1
			c0,1.1,0.1,2.1,0.4,3.1c0.3,1,0.7,1.9,1.3,2.7s1.3,1.5,2.2,1.9c0.9,0.5,1.9,0.7,3.1,0.7s2.2-0.2,3.1-0.7c0.9-0.5,1.6-1.1,2.2-1.9
			c0.6-0.8,1-1.7,1.3-2.7c0.3-1,0.4-2.1,0.4-3.1c0-1.1-0.1-2.1-0.4-3.1c-0.3-1-0.7-1.9-1.3-2.7c-0.6-0.8-1.3-1.5-2.2-1.9
			s-1.9-0.7-3.1-0.7S597.3,318.5,596.4,319z"/>
		<path class="st1" d="M615,316.8v3.5h0.1c0.5-1.2,1.3-2.2,2.5-2.9c1.2-0.7,2.5-1.1,3.9-1.1c1.4,0,2.6,0.2,3.5,0.5s1.7,0.9,2.3,1.5
			s1,1.5,1.2,2.4s0.3,2,0.3,3.2v12.9h-2.5v-12.5c0-0.9-0.1-1.7-0.2-2.4c-0.2-0.7-0.4-1.4-0.8-1.9c-0.4-0.5-0.9-1-1.6-1.3
			c-0.7-0.3-1.5-0.5-2.5-0.5s-1.9,0.2-2.6,0.5c-0.8,0.3-1.4,0.8-1.9,1.4c-0.5,0.6-0.9,1.3-1.2,2.2c-0.3,0.8-0.5,1.8-0.5,2.7v11.7
			h-2.5v-20.1H615z"/>
		<path class="st1" d="M655.8,320.7c-0.3-0.6-0.7-1-1.1-1.4c-0.5-0.4-1-0.6-1.7-0.8s-1.3-0.3-2-0.3c-0.5,0-1.1,0.1-1.7,0.2
			c-0.6,0.1-1.1,0.3-1.5,0.6c-0.5,0.3-0.8,0.6-1.1,1.1s-0.4,1-0.4,1.6c0,0.5,0.1,1,0.4,1.4c0.3,0.4,0.6,0.7,1,1
			c0.4,0.3,0.9,0.5,1.4,0.6c0.5,0.2,0.9,0.3,1.4,0.4l3.3,0.7c0.7,0.1,1.4,0.3,2.1,0.6s1.3,0.6,1.8,1.1c0.5,0.4,1,1,1.3,1.6
			c0.3,0.6,0.5,1.4,0.5,2.3c0,1.1-0.2,2-0.7,2.8s-1.1,1.4-1.9,1.9c-0.8,0.5-1.6,0.8-2.6,1c-1,0.2-1.9,0.3-2.8,0.3
			c-2.4,0-4.3-0.6-5.7-1.7c-1.5-1.1-2.3-2.9-2.5-5.4h2.4c0.1,1.7,0.7,2.9,1.8,3.8c1.1,0.8,2.5,1.3,4.1,1.3c0.6,0,1.2-0.1,1.8-0.2
			c0.6-0.1,1.2-0.4,1.8-0.7c0.5-0.3,1-0.7,1.3-1.2c0.4-0.5,0.5-1.1,0.5-1.8c0-0.6-0.1-1.1-0.4-1.5c-0.2-0.4-0.6-0.7-1-1
			s-0.9-0.5-1.4-0.7c-0.5-0.2-1.1-0.3-1.6-0.5l-3.2-0.7c-0.8-0.2-1.5-0.4-2.2-0.7c-0.7-0.3-1.3-0.6-1.8-1c-0.5-0.4-0.9-0.9-1.2-1.5
			s-0.4-1.3-0.4-2.2c0-1,0.2-1.9,0.7-2.6s1-1.3,1.8-1.8c0.7-0.4,1.5-0.8,2.4-1c0.9-0.2,1.8-0.3,2.7-0.3c1,0,2,0.1,2.8,0.4
			c0.9,0.3,1.6,0.7,2.3,1.2c0.7,0.5,1.2,1.2,1.6,2s0.6,1.8,0.7,2.8h-2.5C656.3,321.9,656.1,321.2,655.8,320.7z"/>
		<path class="st1" d="M675.5,317c1.2,0.6,2.2,1.3,3,2.3c0.8,1,1.4,2.1,1.8,3.4c0.4,1.3,0.6,2.7,0.6,4.1c0,1.5-0.2,2.8-0.6,4.1
			c-0.4,1.3-1,2.4-1.8,3.4s-1.8,1.7-3,2.3c-1.2,0.6-2.5,0.8-4.1,0.8c-1.5,0-2.9-0.3-4.1-0.8c-1.2-0.6-2.2-1.3-3-2.3
			s-1.4-2.1-1.8-3.4s-0.6-2.7-0.6-4.1c0-1.5,0.2-2.8,0.6-4.1s1-2.4,1.8-3.4c0.8-1,1.8-1.7,3-2.3c1.2-0.6,2.5-0.9,4.1-0.9
			C673,316.2,674.4,316.5,675.5,317z M668.4,319c-0.9,0.5-1.6,1.1-2.2,1.9s-1,1.7-1.3,2.7c-0.3,1-0.4,2.1-0.4,3.1
			c0,1.1,0.1,2.1,0.4,3.1c0.3,1,0.7,1.9,1.3,2.7s1.3,1.5,2.2,1.9c0.9,0.5,1.9,0.7,3.1,0.7s2.2-0.2,3.1-0.7c0.9-0.5,1.6-1.1,2.2-1.9
			c0.6-0.8,1-1.7,1.3-2.7c0.3-1,0.4-2.1,0.4-3.1c0-1.1-0.1-2.1-0.4-3.1c-0.3-1-0.7-1.9-1.3-2.7c-0.6-0.8-1.3-1.5-2.2-1.9
			s-1.9-0.7-3.1-0.7S669.3,318.5,668.4,319z"/>
		<path class="st1" d="M696.9,319.5c-0.9-0.9-2.2-1.3-3.8-1.3c-1.2,0-2.2,0.2-3.1,0.7c-0.9,0.5-1.6,1.1-2.2,1.9s-1,1.7-1.3,2.7
			c-0.3,1-0.4,2.1-0.4,3.1c0,1.1,0.1,2.1,0.4,3.1c0.3,1,0.7,1.9,1.3,2.7s1.3,1.5,2.2,1.9c0.9,0.5,1.9,0.7,3.1,0.7
			c0.8,0,1.5-0.1,2.1-0.4c0.7-0.3,1.3-0.7,1.8-1.2s0.9-1.1,1.3-1.8c0.3-0.7,0.5-1.5,0.6-2.3h2.5c-0.3,2.4-1.2,4.3-2.7,5.7
			c-1.5,1.4-3.3,2-5.6,2c-1.5,0-2.9-0.3-4.1-0.8c-1.2-0.6-2.2-1.3-3-2.3s-1.4-2.1-1.8-3.4s-0.6-2.7-0.6-4.1c0-1.5,0.2-2.8,0.6-4.1
			s1-2.4,1.8-3.4c0.8-1,1.8-1.7,3-2.3c1.2-0.6,2.5-0.9,4.1-0.9c2.2,0,4,0.6,5.5,1.7s2.4,2.9,2.7,5.2h-2.5
			C698.4,321.6,697.8,320.4,696.9,319.5z"/>
		<path class="st1" d="M707.3,309.1v3.9h-2.5v-3.9H707.3z M707.3,316.8v20.1h-2.5v-20.1H707.3z"/>
		<path class="st1" d="M712.5,319.9c0.4-0.9,1-1.6,1.7-2.1c0.7-0.5,1.5-0.9,2.5-1.2c1-0.3,2-0.4,3.2-0.4c0.9,0,1.8,0.1,2.6,0.3
			c0.9,0.2,1.7,0.5,2.4,1s1.3,1.1,1.7,2c0.4,0.8,0.7,1.9,0.7,3.3v10.7c0,1,0.5,1.5,1.4,1.5c0.3,0,0.5-0.1,0.8-0.2v2.1
			c-0.3,0.1-0.5,0.1-0.8,0.1c-0.2,0-0.5,0-0.8,0c-0.6,0-1.1-0.1-1.5-0.3c-0.4-0.2-0.7-0.4-0.9-0.7c-0.2-0.3-0.3-0.7-0.4-1.1
			s-0.1-0.9-0.1-1.4h-0.1c-0.4,0.6-0.9,1.2-1.3,1.7c-0.5,0.5-1,0.9-1.5,1.3c-0.6,0.3-1.2,0.6-1.9,0.8c-0.7,0.2-1.6,0.3-2.5,0.3
			c-0.9,0-1.8-0.1-2.6-0.3s-1.5-0.6-2.1-1c-0.6-0.5-1.1-1.1-1.4-1.8s-0.5-1.6-0.5-2.6c0-1.4,0.3-2.5,0.9-3.3s1.4-1.4,2.5-1.8
			c1-0.4,2.2-0.7,3.5-0.9c1.3-0.2,2.6-0.3,3.9-0.5c0.5-0.1,1-0.1,1.4-0.2c0.4-0.1,0.7-0.2,1-0.4c0.3-0.2,0.5-0.5,0.6-0.8
			c0.1-0.3,0.2-0.8,0.2-1.3c0-0.8-0.1-1.5-0.4-2c-0.3-0.5-0.6-1-1.1-1.3c-0.5-0.3-1-0.5-1.7-0.6c-0.6-0.1-1.3-0.2-2-0.2
			c-1.6,0-2.8,0.4-3.8,1.1s-1.5,1.9-1.6,3.6h-2.4C711.8,321.7,712.1,320.7,712.5,319.9z M724.7,325.9c-0.2,0.3-0.5,0.5-0.9,0.6
			c-0.4,0.1-0.8,0.2-1.2,0.3c-1,0.2-2.1,0.3-3.2,0.5c-1.1,0.1-2.1,0.4-3,0.6c-0.9,0.3-1.7,0.7-2.2,1.2c-0.6,0.5-0.9,1.3-0.9,2.3
			c0,0.6,0.1,1.2,0.4,1.7c0.2,0.5,0.6,0.9,1,1.2c0.4,0.3,0.9,0.6,1.4,0.8c0.5,0.2,1.1,0.3,1.7,0.3c0.9,0,1.8-0.1,2.7-0.4
			s1.6-0.7,2.2-1.2c0.6-0.5,1.1-1.2,1.5-2c0.4-0.8,0.6-1.7,0.6-2.6L724.7,325.9L724.7,325.9z"/>
		<path class="st1" d="M734.7,309.1v27.8h-2.5v-27.8H734.7z"/>
		<path class="st1" d="M752.4,316.8v3.4h0.1c0.6-1.2,1.5-2.2,2.5-2.9c1-0.7,2.4-1.1,4-1.1c1.3,0,2.5,0.3,3.6,1
			c1.1,0.6,1.8,1.6,2.2,3c0.6-1.3,1.5-2.3,2.6-3c1.2-0.6,2.4-1,3.7-1c4.4,0,6.7,2.3,6.7,7v13.6h-2.5v-13.5c0-1.7-0.3-2.9-1-3.8
			c-0.7-0.9-1.9-1.3-3.7-1.3c-1.1,0-1.9,0.2-2.6,0.6c-0.7,0.4-1.3,0.9-1.7,1.6c-0.4,0.7-0.7,1.4-0.9,2.3c-0.2,0.9-0.3,1.8-0.3,2.7
			v11.4h-2.5v-13.6c0-0.7-0.1-1.3-0.2-1.9c-0.1-0.6-0.4-1.1-0.7-1.6c-0.3-0.5-0.8-0.8-1.3-1.1c-0.5-0.3-1.2-0.4-2-0.4
			c-1,0-1.9,0.2-2.7,0.6c-0.8,0.4-1.4,0.9-1.9,1.6c-0.5,0.7-0.8,1.4-1.1,2.3s-0.4,1.9-0.4,2.9v11.2h-2.5v-20.1H752.4z"/>
		<path class="st1" d="M784.4,330.2c0.2,0.9,0.6,1.8,1.2,2.5c0.5,0.8,1.2,1.4,2.1,1.9c0.8,0.5,1.8,0.7,3,0.7c1.8,0,3.2-0.5,4.2-1.4
			c1-0.9,1.7-2.2,2.1-3.7h2.5c-0.5,2.3-1.5,4-2.9,5.3s-3.4,1.9-5.9,1.9c-1.6,0-2.9-0.3-4.1-0.8c-1.2-0.6-2.1-1.3-2.8-2.3
			c-0.7-1-1.3-2.1-1.6-3.4c-0.4-1.3-0.5-2.6-0.5-4.1c0-1.3,0.2-2.6,0.5-3.9c0.3-1.3,0.9-2.4,1.6-3.4c0.7-1,1.7-1.8,2.8-2.4
			c1.2-0.6,2.5-0.9,4.1-0.9c1.6,0,3,0.3,4.1,1c1.1,0.6,2.1,1.5,2.8,2.5c0.7,1.1,1.2,2.3,1.5,3.6s0.4,2.7,0.4,4.1H784
			C784,328.3,784.1,329.2,784.4,330.2z M796.5,322.7c-0.3-0.9-0.7-1.6-1.3-2.3c-0.5-0.7-1.2-1.2-2-1.6c-0.8-0.4-1.7-0.6-2.6-0.6
			c-1,0-1.9,0.2-2.7,0.6c-0.8,0.4-1.4,0.9-2,1.6c-0.5,0.7-1,1.4-1.3,2.3c-0.3,0.9-0.5,1.8-0.6,2.7h13
			C797,324.5,796.8,323.6,796.5,322.7z"/>
		<path class="st1" d="M818.2,336.8V333h-0.1c-0.3,0.6-0.6,1.2-1.1,1.8c-0.5,0.5-1.1,1-1.7,1.4s-1.3,0.7-2.1,0.9
			c-0.7,0.2-1.5,0.3-2.2,0.3c-1.5,0-2.9-0.3-4-0.8c-1.1-0.6-2.1-1.3-2.8-2.3c-0.8-1-1.3-2.1-1.7-3.4c-0.4-1.3-0.5-2.6-0.5-4.1
			c0-1.4,0.2-2.8,0.5-4.1c0.4-1.3,0.9-2.4,1.7-3.4s1.7-1.7,2.8-2.3c1.1-0.6,2.5-0.9,4-0.9c0.8,0,1.5,0.1,2.2,0.3
			c0.7,0.2,1.4,0.5,2,0.8c0.6,0.4,1.2,0.8,1.7,1.4c0.5,0.5,0.8,1.2,1.1,1.9h0.1v-11.5h2.5v27.8H818.2z M804.7,329.9
			c0.2,1,0.6,1.9,1.2,2.7s1.2,1.5,2,2c0.8,0.5,1.8,0.8,3,0.8c1.3,0,2.4-0.3,3.3-0.8s1.6-1.2,2.2-2c0.6-0.8,1-1.7,1.2-2.7
			c0.2-1,0.4-2.1,0.4-3.1c0-1-0.1-2.1-0.4-3.1c-0.2-1-0.6-1.9-1.2-2.7c-0.6-0.8-1.3-1.5-2.2-2c-0.9-0.5-2-0.8-3.3-0.8
			c-1.2,0-2.2,0.3-3,0.8c-0.8,0.5-1.5,1.2-2,2s-0.9,1.7-1.2,2.7c-0.2,1-0.4,2.1-0.4,3.1C804.4,327.8,804.5,328.9,804.7,329.9z"/>
		<path class="st1" d="M827.6,309.1v3.9h-2.5v-3.9H827.6z M827.6,316.8v20.1h-2.5v-20.1H827.6z"/>
		<path class="st1" d="M832.8,319.9c0.4-0.9,1-1.6,1.7-2.1c0.7-0.5,1.5-0.9,2.5-1.2c1-0.3,2-0.4,3.2-0.4c0.9,0,1.8,0.1,2.6,0.3
			c0.9,0.2,1.7,0.5,2.4,1s1.3,1.1,1.7,2c0.4,0.8,0.7,1.9,0.7,3.3v10.7c0,1,0.5,1.5,1.4,1.5c0.3,0,0.5-0.1,0.8-0.2v2.1
			c-0.3,0.1-0.5,0.1-0.8,0.1c-0.2,0-0.5,0-0.8,0c-0.6,0-1.1-0.1-1.5-0.3c-0.4-0.2-0.7-0.4-0.9-0.7c-0.2-0.3-0.3-0.7-0.4-1.1
			s-0.1-0.9-0.1-1.4h-0.1c-0.4,0.6-0.9,1.2-1.3,1.7c-0.5,0.5-1,0.9-1.5,1.3c-0.6,0.3-1.2,0.6-1.9,0.8c-0.7,0.2-1.6,0.3-2.5,0.3
			c-0.9,0-1.8-0.1-2.6-0.3s-1.5-0.6-2.1-1c-0.6-0.5-1.1-1.1-1.4-1.8s-0.5-1.6-0.5-2.6c0-1.4,0.3-2.5,0.9-3.3s1.4-1.4,2.5-1.8
			c1-0.4,2.2-0.7,3.5-0.9c1.3-0.2,2.6-0.3,3.9-0.5c0.5-0.1,1-0.1,1.4-0.2c0.4-0.1,0.7-0.2,1-0.4c0.3-0.2,0.5-0.5,0.6-0.8
			c0.1-0.3,0.2-0.8,0.2-1.3c0-0.8-0.1-1.5-0.4-2c-0.3-0.5-0.6-1-1.1-1.3c-0.5-0.3-1-0.5-1.7-0.6c-0.6-0.1-1.3-0.2-2-0.2
			c-1.6,0-2.8,0.4-3.8,1.1s-1.5,1.9-1.6,3.6H832C832.1,321.7,832.4,320.7,832.8,319.9z M845,325.9c-0.2,0.3-0.5,0.5-0.9,0.6
			c-0.4,0.1-0.8,0.2-1.2,0.3c-1,0.2-2.1,0.3-3.2,0.5c-1.1,0.1-2.1,0.4-3,0.6c-0.9,0.3-1.7,0.7-2.2,1.2c-0.6,0.5-0.9,1.3-0.9,2.3
			c0,0.6,0.1,1.2,0.4,1.7c0.2,0.5,0.6,0.9,1,1.2c0.4,0.3,0.9,0.6,1.4,0.8c0.5,0.2,1.1,0.3,1.7,0.3c0.9,0,1.8-0.1,2.7-0.4
			s1.6-0.7,2.2-1.2c0.6-0.5,1.1-1.2,1.5-2c0.4-0.8,0.6-1.7,0.6-2.6L845,325.9L845,325.9z"/>
	</g>
</g>
</svg>
