<?xml version="1.0" encoding="utf-8"?>
<!-- Generator: Adobe Illustrator 19.1.0, SVG Export Plug-In . SVG Version: 6.00 Build 0)  -->
<!DOCTYPE svg PUBLIC "-//W3C//DTD SVG 1.1//EN" "http://www.w3.org/Graphics/SVG/1.1/DTD/svg11.dtd" [
	<!ENTITY ns_extend "http://ns.adobe.com/Extensibility/1.0/">
	<!ENTITY ns_ai "http://ns.adobe.com/AdobeIllustrator/10.0/">
	<!ENTITY ns_graphs "http://ns.adobe.com/Graphs/1.0/">
	<!ENTITY ns_vars "http://ns.adobe.com/Variables/1.0/">
	<!ENTITY ns_imrep "http://ns.adobe.com/ImageReplacement/1.0/">
	<!ENTITY ns_sfw "http://ns.adobe.com/SaveForWeb/1.0/">
	<!ENTITY ns_custom "http://ns.adobe.com/GenericCustomNamespace/1.0/">
	<!ENTITY ns_adobe_xpath "http://ns.adobe.com/XPath/1.0/">
]>
<svg version="1.1" xmlns:x="&ns_extend;" xmlns:i="&ns_ai;" xmlns:graph="&ns_graphs;"
	 xmlns="http://www.w3.org/2000/svg" xmlns:xlink="http://www.w3.org/1999/xlink" x="0px" y="0px" width="222.2px" height="180px"
	 viewBox="0 0 222.2 180" style="enable-background:new 0 0 222.2 180;" xml:space="preserve">
<style type="text/css">
	.st0{fill:#0F0105;}
	.st1{clip-path:url(#SVGID_2_);fill:url(#SVGID_3_);}
	.st2{opacity:0.5;clip-path:url(#SVGID_2_);}
	.st3{opacity:0.5;}
	.st4{clip-path:url(#SVGID_5_);}
	.st5{fill:#9F1D21;}
	.st6{clip-path:url(#SVGID_2_);}
	.st7{fill:#FFFFFF;}
	.st8{fill:#F1491C;}
	.st9{fill:#EF4B23;}
	.st10{fill:#00ABE3;}
	.st11{fill:#235B9E;}
	.st12{fill:#FF4D3F;}
	.st13{fill:#2D80A6;}
	.st14{fill:#EF4B23;stroke:#EF4B23;stroke-width:4;stroke-miterlimit:10;}
	.st15{clip-path:url(#SVGID_2_);fill:url(#SVGID_24_);}
	.st16{clip-path:url(#SVGID_2_);fill:#0F0105;}
	.st17{clip-path:url(#SVGID_32_);}
	.st18{fill:#1C0F13;}
	.st19{clip-path:url(#SVGID_42_);fill:url(#SVGID_43_);}
	.st20{opacity:0.5;clip-path:url(#SVGID_42_);}
	.st21{clip-path:url(#SVGID_45_);}
	.st22{clip-path:url(#SVGID_42_);}
	.st23{clip-path:url(#SVGID_42_);fill:#0F0105;}
	.st24{fill:#EF4B23;stroke:#EF4B23;stroke-width:2.1479;stroke-miterlimit:10;}
	.st25{clip-path:url(#SVGID_51_);fill:url(#SVGID_52_);}
	.st26{clip-path:url(#SVGID_54_);}
	.st27{clip-path:url(#SVGID_64_);}
	.st28{clip-path:url(#SVGID_72_);fill:#0F0105;}
	.st29{clip-path:url(#SVGID_72_);}
	.st30{fill:#E63C2F;stroke:#E63C2F;stroke-width:2.6611;stroke-miterlimit:10;}
	.st31{fill:#E63C2F;}
	.st32{fill-rule:evenodd;clip-rule:evenodd;fill:#FFFFFF;}
	.st33{clip-path:url(#SVGID_78_);fill:url(#SVGID_79_);}
	.st34{clip-path:url(#SVGID_81_);}
	.st35{clip-path:url(#SVGID_89_);fill:url(#SVGID_90_);}
	.st36{opacity:0.5;clip-path:url(#SVGID_89_);}
	.st37{clip-path:url(#SVGID_92_);}
	.st38{clip-path:url(#SVGID_89_);}
	.st39{clip-path:url(#SVGID_89_);fill:#0F0105;}
	.st40{fill:#EF4B23;stroke:#EF4B23;stroke-width:6.5125;stroke-miterlimit:10;}
	.st41{clip-path:url(#SVGID_98_);fill:url(#SVGID_99_);}
	.st42{opacity:0.5;clip-path:url(#SVGID_98_);}
	.st43{clip-path:url(#SVGID_101_);}
	.st44{clip-path:url(#SVGID_98_);}
	.st45{clip-path:url(#SVGID_98_);fill:#0F0105;}
	.st46{fill:#EF4B23;stroke:#EF4B23;stroke-width:5.9384;stroke-miterlimit:10;}
	.st47{clip-path:url(#SVGID_107_);fill:url(#SVGID_108_);}
	.st48{opacity:0.5;clip-path:url(#SVGID_107_);}
	.st49{clip-path:url(#SVGID_110_);}
	.st50{clip-path:url(#SVGID_107_);}
	.st51{clip-path:url(#SVGID_107_);fill:#0F0105;}
	.st52{fill:#EF4B23;stroke:#EF4B23;stroke-width:6.9513;stroke-miterlimit:10;}
	.st53{clip-path:url(#SVGID_116_);}
	.st54{fill:#EF4B23;stroke:#EF4B23;stroke-width:8.0346;stroke-miterlimit:10;}
	.st55{fill:url(#SVGID_119_);}
	.st56{clip-path:url(#SVGID_123_);}
	.st57{clip-path:url(#SVGID_125_);}
	.st58{clip-path:url(#SVGID_123_);fill:url(#SVGID_126_);}
	.st59{fill:url(#SVGID_129_);}
	.st60{clip-path:url(#SVGID_135_);fill:#0F0105;}
	.st61{clip-path:url(#SVGID_135_);}
	.st62{fill:#E63C2F;stroke:#E63C2F;stroke-width:8.0346;stroke-miterlimit:10;}
	.st63{display:none;}
	.st64{display:inline;opacity:0.6;}
	.st65{fill:none;stroke:#FFFFFF;stroke-miterlimit:10;}
</style>
<metadata>
	<sfw  xmlns="&ns_sfw;">
		<slices></slices>
		<sliceSourceBounds  width="9649.6" height="5741.6" x="-1432.3" y="-4447.8" bottomLeftOrigin="true"></sliceSourceBounds>
		<optimizationSettings>
			<targetSettings  fileFormat="JPEGFormat" targetSettingsID="0">
				
					<JPEGFormat  quality="60" blurAmount="0" embedICCProfile="false" optimized="true" matteColor="#FFFFFF" noMatteColor="false" progressive="false">
					</JPEGFormat>
			</targetSettings>
		</optimizationSettings>
	</sfw>
</metadata>
<g id="Layer_1">
	<g>
		<path class="st7" d="M3.6,83.5c0,1.8,1.5,3.3,3.3,3.3h20.6c1.8,0,3.3-1.5,3.3-3.3V63.8c0-1.8-1.5-3.3-3.3-3.3h-6.9
			c-1.8,0-3.3,1.5-3.3,3.3v2.1c0,1.8,1,3.4,2.3,3.4c1.3,0,2.3,1.5,2.3,3.3v2.1c0,1.8-1.5,3.3-3.4,3.3H16c-1.8,0-3.3-1.5-3.3-3.3V55
			c0-1.8,1.5-3.3,3.3-3.3h11.5c1.8,0,3.3-1.5,3.3-3.3v-2.1c0-1.8-1.5-3.4-3.3-3.4H6.9c-1.8,0-3.3,1.5-3.3,3.4V83.5z M40,83.5
			c0,1.8,1.5,3.3,3.3,3.3h20.6c1.8,0,3.3-1.5,3.3-3.3v-2.1c0-1.8-1.5-3.3-3.3-3.3H52.4c-1.8,0-3.3-1.5-3.3-3.3v-2.1
			c0-1.8,1.5-3.3,3.3-3.3h2.4c1.8,0,3.4-1.5,3.4-3.4v-2.1c0-1.8-1.5-3.3-3.4-3.3h-2.4c-1.8,0-3.3-1.5-3.3-3.3V55
			c0-1.8,1.5-3.3,3.3-3.3h11.5c1.8,0,3.3-1.5,3.3-3.3v-2.1c0-1.8-1.5-3.4-3.3-3.4H43.3c-1.8,0-3.3,1.5-3.3,3.4V83.5z M76.4,48.3
			c0,1.8,1.5,3.3,3.3,3.3h2.4c1.8,0,3.3,1.5,3.3,3.3v28.5c0,1.8,1.5,3.3,3.3,3.3h2.4c1.8,0,3.3-1.5,3.3-3.3V55
			c0-1.8,1.5-3.3,3.3-3.3h2.4c1.8,0,3.3-1.5,3.3-3.3v-2.1c0-1.8-1.5-3.4-3.3-3.4H79.7c-1.8,0-3.3,1.5-3.3,3.4V48.3z"/>
		<path class="st7" d="M94.5,104.7c0-1.8-1.5-3.4-3.3-3.4h-2.4c-1.8,0-3.3,1.5-3.3,3.4V142c0,1.8,1.5,3.3,3.3,3.3h7
			c1.8,0,3.3-1.5,3.3-3.3v-2.1c0-1.8-1-3.3-2.3-3.3c-1.3,0-2.3-1.5-2.3-3.3V104.7z M30.9,133.2c0,1.8-1,3.3-2.3,3.3
			c-1.2,0-2.3,1.5-2.3,3.3v2.1c0,1.8,1.5,3.3,3.3,3.3h6.9c1.8,0,3.3-1.5,3.3-3.3v-37.3c0-1.8-1.5-3.4-3.3-3.4h-2.4
			c-1.8,0-3.3,1.5-3.3,3.4V133.2z M17.2,133.2c0,1.8,1.5,3.3,3.3,3.3H23c1.8,0,3.3-1.5,3.3-3.3v-2.1c0-1.8-1.5-3.3-3.3-3.3h-2.4
			c-1.8,0-3.3,1.5-3.3,3.3V133.2z M12.7,104.7c0-1.8-1.5-3.4-3.3-3.4H6.9c-1.8,0-3.3,1.5-3.3,3.4V142c0,1.8,1.5,3.3,3.3,3.3h6.9
			c1.8,0,3.3-1.5,3.3-3.3v-2.1c0-1.8-1-3.3-2.3-3.3c-1.2,0-2.3-1.5-2.3-3.3V104.7z M112.7,133.2c0,1.8-1,3.3-2.3,3.3
			c-1.2,0-2.3,1.5-2.3,3.3v2.1c0,1.8,1.5,3.3,3.3,3.3h7c1.8,0,3.3-1.5,3.3-3.3v-37.3c0-1.8-1.5-3.4-3.3-3.4h-2.4
			c-1.8,0-3.3,1.5-3.3,3.4V133.2z M99.1,133.2c0,1.8,1.5,3.3,3.3,3.3h2.4c1.8,0,3.3-1.5,3.3-3.3v-2.1c0-1.8-1.5-3.3-3.3-3.3h-2.4
			c-1.8,0-3.3,1.5-3.3,3.3V133.2z M174.1,110.1c-1.3,0-2.3-1.5-2.3-3.3v-2.1c0-1.8-1.5-3.4-3.3-3.4h-16c-1.8,0-3.3,1.5-3.3,3.4V142
			c0,1.8,1.5,3.3,3.3,3.3h16c1.8,0,3.3-1.5,3.3-3.3v-2.1c0-1.8,1-3.3,2.3-3.3c1.3,0,2.3-1.5,2.3-3.3v-19.7
			C176.4,111.7,175.4,110.1,174.1,110.1 M167.3,133.2c0,1.8-1.5,3.3-3.3,3.3h-2.4c-1.8,0-3.3-1.5-3.3-3.3v-19.7
			c0-1.8,1.5-3.3,3.3-3.3h2.4c1.8,0,3.3,1.5,3.3,3.3V133.2z M49.1,142c0,1.8,1.5,3.3,3.3,3.3H73c1.8,0,3.4-1.5,3.4-3.3v-37.3
			c0-1.8-1.5-3.4-3.4-3.4H52.4c-1.8,0-3.3,1.5-3.3,3.4V142z M58.2,113.5c0-1.8,1.5-3.3,3.4-3.3h2.4c1.8,0,3.3,1.5,3.3,3.3v19.7
			c0,1.8-1.5,3.3-3.3,3.3h-2.4c-1.8,0-3.4-1.5-3.4-3.3V113.5z M130.9,106.8c0,1.8,1.5,3.4,3.3,3.4h2.4c1.8,0,3.3-1.5,3.3-3.4V100
			c0-1.8-1.5-3.3-3.3-3.3h-2.4c-1.8,0-3.3,1.5-3.3,3.3V106.8z"/>
		<path class="st32" d="M176.3,61.9c-0.1-0.7-0.2-1.2-0.4-1.9c-0.8-3.7-2-6.8-4.3-9.1c0-0.4-0.1-0.6-0.3-0.8
			c0.1-0.2-0.1-0.5-0.2-0.8c-0.7-2.1-1.9-4.1-3.3-5.6c-1.2-1.2-3-2-4.7-2.6c-1.1-0.6-2.4-1-3.8-1.3c-0.2,0-0.5,0-0.7-0.1
			c-0.2-0.1-0.4-0.4-0.7-0.7c-0.8-0.7-1.6-1.2-2.5-1.6c-2.4-1.2-5.3-0.8-8.3-0.5c-0.9-0.9-1.5-2.4-3.4-2.2c-1.3,0.1-2.4,1.1-3.7,1.2
			c0,0.7-0.1,1.3-0.1,1.9c0,0.3,0.2,0.6,0.1,0.8c0,0.3-0.4,0.7-0.6,0.9c-0.2,0.2-0.6,0.6-0.8,0.7c-0.4,0.1-0.9-0.1-1.4,0
			c0.2,0,0.1-0.3,0.1-0.5c-0.3-0.2-0.7,0-0.8-0.2c-0.2-0.2,0-0.3,0-0.7c-0.5-0.1-0.9-0.3-1.4-0.6c-1,0.2-1.3-0.5-2-0.8
			c-0.4-0.2-0.8-0.2-1.3-0.3c-0.4-0.1-0.8-0.4-1.2-0.4c-0.8-0.1-1.5,0.4-2.1,0.7c-0.3,0.2-0.6,0.6-0.9,0.6c-0.4,0-0.8-0.3-1.1-0.4
			c-1.6-0.4-3.5-0.1-4.7,0.5c-0.2,0.1-0.4,0.4-0.7,0.5c-0.5,0.4-0.9,0.7-1.4,1c-0.2,0.2-0.5,0.3-0.7,0.5c-0.4,0.3-0.9,0.8-1.3,1.3
			c-1.1,1.1-2,2.4-2.7,3.8c-0.1,0.3-0.2,0.7-0.4,0.9c-0.4,0.3-1,0.4-1.4,0.7c-1,0.7-1.6,1.3-2.3,2.2c-0.4,0.5-0.8,0.9-1,1.4
			c-0.3,0.6-0.5,1.3-0.8,1.9c-0.3,0.7-0.6,1.3-0.7,2c-0.3,1.5-0.4,3.1-0.7,4.7c-0.3,1.5-0.5,3.1-0.7,4.6c-0.2,1.6-0.2,3.2,0,4.8
			c0.4,1.4,0.9,2.8,1.1,4.3c0.1,0.5,0.1,1.1,0.2,1.6c0.2,0.6,0.6,1.3,0.9,2c0.6,1.4,1.3,2.6,2.1,3.7c0.6,0.8,1.1,1.7,1.8,2.2
			c0.5,1.1,1.7,1.7,2.7,2.4c1,0.7,2,1.5,3.1,2.1c1.7,0.9,3.5,1.8,5.3,2.5c0.6,0.2,1.3,0.4,1.9,0.7c0.9,0.4,1.6,0.8,2.6,0.8
			c0.3,0,0.7-0.1,1.1-0.1c0.5,0.1,1,0.4,1.5,0.5c0.8,0.1,1.6,0.2,2.4,0.3c0.8,0.1,1.6,0.2,2.5,0.3c0.7,0.6,1.8,0.4,2.9,0.5
			c0.6,0.1,1.1,0.3,1.6,0.3c4,0.3,8-0.8,11.5-1.4c0.6-0.1,1.2-0.3,1.8-0.4c0.7-0.1,1.3-0.1,2-0.2c4.3-0.8,8-2.1,10.8-4.4
			c0.5-0.4,1-0.7,1.5-1.1c0.5-0.4,1.1-0.7,1.5-1.1c0.7-0.6,1.3-1.6,2-2.5c0.7-0.9,1.4-1.7,1.9-2.6c1.1-1.7,2-4.1,2.2-6.6
			C176,69,176.7,65.4,176.3,61.9 M114.5,54c-0.4-7,11.2-8,11.2-8C118.4,48.2,114.5,54,114.5,54 M118.6,70.3c0,0-2.1-10.5,0.8-16.2
			c2.9-5.7,9.2-7.7,9.2-7.7C119.7,52,118.6,70.3,118.6,70.3 M134.5,55.2c-3.6,8.2-1.7,14.7-0.1,20.4c0,0-5.2-6.1-5.4-14.7
			c-0.3-8.6,8.4-11.8,7.3-15.9C136.3,45,138.1,47,134.5,55.2 M143,57.9c1.1-7.3,0.7-13.5,0.7-13.5c3.6,7.2,3.3,13,2.8,17.4
			c-0.5,4.4,3.2,11.7,3.2,11.7C145.8,70.3,142,65.2,143,57.9 M155.5,58.8c-2.7-9.6-7.7-13.7-7.7-13.7c6.8,4.4,11.7,10.1,11.8,15.3
			c0.1,5.2,3.2,9.7,3.2,9.7S158.2,68.4,155.5,58.8 M166.4,57.5c-6.1-11-17-14.2-17-14.2C170.4,48.2,166.4,57.5,166.4,57.5"/>
	</g>
</g>
<g id="guides" class="st63">
</g>
</svg>
