<?xml version="1.0" encoding="utf-8"?>
<!-- Generator: Adobe Illustrator 19.1.0, SVG Export Plug-In . SVG Version: 6.00 Build 0)  -->
<!DOCTYPE svg PUBLIC "-//W3C//DTD SVG 1.1//EN" "http://www.w3.org/Graphics/SVG/1.1/DTD/svg11.dtd" [
	<!ENTITY ns_extend "http://ns.adobe.com/Extensibility/1.0/">
	<!ENTITY ns_ai "http://ns.adobe.com/AdobeIllustrator/10.0/">
	<!ENTITY ns_graphs "http://ns.adobe.com/Graphs/1.0/">
	<!ENTITY ns_vars "http://ns.adobe.com/Variables/1.0/">
	<!ENTITY ns_imrep "http://ns.adobe.com/ImageReplacement/1.0/">
	<!ENTITY ns_sfw "http://ns.adobe.com/SaveForWeb/1.0/">
	<!ENTITY ns_custom "http://ns.adobe.com/GenericCustomNamespace/1.0/">
	<!ENTITY ns_adobe_xpath "http://ns.adobe.com/XPath/1.0/">
]>
<svg version="1.1" xmlns:x="&ns_extend;" xmlns:i="&ns_ai;" xmlns:graph="&ns_graphs;"
	 xmlns="http://www.w3.org/2000/svg" xmlns:xlink="http://www.w3.org/1999/xlink" x="0px" y="0px" width="209.1px" height="166.1px"
	 viewBox="0 0 209.1 166.1" style="enable-background:new 0 0 209.1 166.1;" xml:space="preserve">
<style type="text/css">
	.st0{fill:#0F0105;}
	.st1{clip-path:url(#SVGID_2_);fill:url(#SVGID_3_);}
	.st2{opacity:0.5;clip-path:url(#SVGID_2_);}
	.st3{opacity:0.5;}
	.st4{clip-path:url(#SVGID_5_);}
	.st5{fill:#9F1D21;}
	.st6{clip-path:url(#SVGID_2_);}
	.st7{fill:#FFFFFF;}
	.st8{fill:#F1491C;}
	.st9{fill:#EF4B23;}
	.st10{fill:#00ABE3;}
	.st11{fill:#235B9E;}
	.st12{fill:#FF4D3F;}
	.st13{fill:#2D80A6;}
	.st14{fill:#EF4B23;stroke:#EF4B23;stroke-width:4;stroke-miterlimit:10;}
	.st15{clip-path:url(#SVGID_2_);fill:url(#SVGID_24_);}
	.st16{clip-path:url(#SVGID_2_);fill:#0F0105;}
	.st17{clip-path:url(#SVGID_32_);}
	.st18{fill:#1C0F13;}
	.st19{clip-path:url(#SVGID_42_);fill:url(#SVGID_43_);}
	.st20{opacity:0.5;clip-path:url(#SVGID_42_);}
	.st21{clip-path:url(#SVGID_45_);}
	.st22{clip-path:url(#SVGID_42_);}
	.st23{clip-path:url(#SVGID_42_);fill:#0F0105;}
	.st24{fill:#EF4B23;stroke:#EF4B23;stroke-width:2.1479;stroke-miterlimit:10;}
	.st25{clip-path:url(#SVGID_51_);fill:url(#SVGID_52_);}
	.st26{clip-path:url(#SVGID_54_);}
	.st27{clip-path:url(#SVGID_64_);}
	.st28{clip-path:url(#SVGID_72_);fill:#0F0105;}
	.st29{clip-path:url(#SVGID_72_);}
	.st30{fill:#E63C2F;stroke:#E63C2F;stroke-width:2.6611;stroke-miterlimit:10;}
	.st31{fill:#E63C2F;}
	.st32{fill-rule:evenodd;clip-rule:evenodd;fill:#FFFFFF;}
	.st33{clip-path:url(#SVGID_78_);fill:url(#SVGID_79_);}
	.st34{clip-path:url(#SVGID_81_);}
	.st35{clip-path:url(#SVGID_89_);fill:url(#SVGID_90_);}
	.st36{opacity:0.5;clip-path:url(#SVGID_89_);}
	.st37{clip-path:url(#SVGID_92_);}
	.st38{clip-path:url(#SVGID_89_);}
	.st39{clip-path:url(#SVGID_89_);fill:#0F0105;}
	.st40{fill:#EF4B23;stroke:#EF4B23;stroke-width:6.5125;stroke-miterlimit:10;}
	.st41{clip-path:url(#SVGID_98_);fill:url(#SVGID_99_);}
	.st42{opacity:0.5;clip-path:url(#SVGID_98_);}
	.st43{clip-path:url(#SVGID_101_);}
	.st44{clip-path:url(#SVGID_98_);}
	.st45{clip-path:url(#SVGID_98_);fill:#0F0105;}
	.st46{fill:#EF4B23;stroke:#EF4B23;stroke-width:5.9384;stroke-miterlimit:10;}
	.st47{clip-path:url(#SVGID_107_);fill:url(#SVGID_108_);}
	.st48{opacity:0.5;clip-path:url(#SVGID_107_);}
	.st49{clip-path:url(#SVGID_110_);}
	.st50{clip-path:url(#SVGID_107_);}
	.st51{clip-path:url(#SVGID_107_);fill:#0F0105;}
	.st52{fill:#EF4B23;stroke:#EF4B23;stroke-width:6.9513;stroke-miterlimit:10;}
	.st53{clip-path:url(#SVGID_116_);}
	.st54{fill:#EF4B23;stroke:#EF4B23;stroke-width:8.0346;stroke-miterlimit:10;}
	.st55{fill:url(#SVGID_119_);}
	.st56{clip-path:url(#SVGID_123_);}
	.st57{clip-path:url(#SVGID_125_);}
	.st58{clip-path:url(#SVGID_123_);fill:url(#SVGID_126_);}
	.st59{fill:url(#SVGID_129_);}
	.st60{clip-path:url(#SVGID_135_);fill:#0F0105;}
	.st61{clip-path:url(#SVGID_135_);}
	.st62{fill:#E63C2F;stroke:#E63C2F;stroke-width:8.0346;stroke-miterlimit:10;}
	.st63{display:none;}
	.st64{display:inline;opacity:0.6;}
	.st65{fill:none;stroke:#FFFFFF;stroke-miterlimit:10;}
</style>
<metadata>
	<sfw  xmlns="&ns_sfw;">
		<slices></slices>
		<sliceSourceBounds  width="9649.6" height="5741.6" y="-4447.8" x="-1432.3" bottomLeftOrigin="true"></sliceSourceBounds>
		<optimizationSettings>
			<targetSettings  fileFormat="JPEGFormat" targetSettingsID="0">
				
					<JPEGFormat  blurAmount="0" quality="60" progressive="false" noMatteColor="false" matteColor="#FFFFFF" optimized="true" embedICCProfile="false">
					</JPEGFormat>
			</targetSettings>
		</optimizationSettings>
	</sfw>
</metadata>
<g id="Layer_1">
	<g>
		
			<rect x="-98.2" y="84" transform="matrix(0.7838 0.6211 -0.6211 0.7838 96.5132 -27.8641)" class="st31" width="373" height="81.2"/>
		<g>
			<g>
				<path class="st7" d="M30.1,72.9l5.3,4.2c2,1.6,3.3,3.2,3.8,4.9c0.6,1.7,0.2,3.4-1.1,5c-0.8,1-1.8,1.7-3,2
					c-1.2,0.3-2.5,0.1-3.9-0.5l-0.1,0.1c1.3,1.4,2,2.8,2.2,4.2c0.2,1.5-0.2,2.9-1.3,4.2c-0.8,1-1.6,1.7-2.5,2.1
					c-0.9,0.4-1.9,0.6-2.9,0.6c-1,0-2.1-0.3-3.2-0.7c-1.1-0.5-2.2-1.1-3.3-2l-5.7-4.5L30.1,72.9z M28,85.4c2,1.6,3.7,2.4,5.1,2.5
					c1.4,0,2.6-0.6,3.6-1.9c1-1.3,1.3-2.6,0.8-3.9c-0.5-1.3-1.6-2.7-3.5-4.1l-3.6-2.8l-6,7.5L28,85.4z M20.7,95.7
					c2,1.6,3.8,2.4,5.5,2.6c1.7,0.2,3.2-0.6,4.5-2.2c1.1-1.4,1.4-2.9,0.9-4.5c-0.6-1.6-1.8-3.1-3.9-4.7l-4-3.2l-7,8.8L20.7,95.7z"/>
				<path class="st7" d="M45.4,88.1c-0.3-0.3-0.5-0.6-0.6-1c-0.1-0.4,0.1-0.8,0.3-1.1c0.3-0.4,0.6-0.6,1-0.6c0.4,0,0.8,0.1,1.1,0.4
					c0.3,0.3,0.5,0.6,0.6,1c0.1,0.4-0.1,0.8-0.4,1.2c-0.3,0.3-0.6,0.5-1,0.6C46.1,88.5,45.7,88.4,45.4,88.1z M41.9,91l1.3,1
					l-11.4,14.3l-1.3-1L41.9,91z"/>
				<path class="st7" d="M47.7,97.5l-2.2-1.8l0.8-1l2.4,1.7l3.5-4l1.1,0.9L50,97.4l4.2,3.3l-0.9,1.1l-4.2-3.3l-7.4,9.4
					c-0.4,0.5-0.7,0.9-0.9,1.3c-0.2,0.4-0.3,0.8-0.4,1.3c0,0.4,0,0.8,0.2,1.2c0.2,0.4,0.5,0.8,1,1.2c0.3,0.2,0.6,0.4,1,0.6
					c0.4,0.2,0.8,0.3,1.1,0.4l-0.5,1.4c-0.5-0.2-1.1-0.4-1.6-0.6c-0.5-0.2-0.9-0.5-1.2-0.7c-0.7-0.6-1.2-1.1-1.5-1.7
					c-0.3-0.6-0.4-1.2-0.4-1.8c0-0.6,0.2-1.2,0.5-1.8c0.3-0.6,0.7-1.3,1.2-1.9L47.7,97.5z"/>
				<path class="st7" d="M61.3,98l4.4,3.5l-5.9,7.5l6.7,5.3l5.9-7.5l4.4,3.5l-15.4,19.5l-4.4-3.5l6.4-8.1l-6.7-5.3l-6.4,8.1
					l-4.4-3.5L61.3,98z"/>
				<path class="st7" d="M76,117.2l4.4,3.5l-6.8,8.6c-0.9,1.1-1.3,1.9-1.3,2.6c0,0.6,0.3,1.2,0.9,1.7c0.6,0.4,1.1,0.7,1.7,0.7
					c0.6,0,1.3-0.1,2.2-0.3l7.8-9.8l4.4,3.5l-11.7,14.8l-3.6-2.8l1.3-2.3l-0.1-0.1c-1.2,0.3-2.4,0.3-3.5,0.2
					c-1.1-0.1-2.1-0.6-3.1-1.4c-1.6-1.3-2.4-2.7-2.3-4.4c0.1-1.6,0.9-3.4,2.4-5.3L76,117.2z"/>
				<path class="st7" d="M96.9,123.8l4.4,3.5l-4.1,5.1l-1.9,2.2c1-0.1,1.9,0,2.8,0.3c0.9,0.2,1.7,0.6,2.4,1.2c0.9,0.7,1.6,1.5,2,2.5
					c0.4,0.9,0.6,1.9,0.6,3c0,1-0.2,2.1-0.7,3.3c-0.5,1.1-1.1,2.3-2,3.4c-1,1.3-2.1,2.3-3.2,3c-1.1,0.7-2.3,1.2-3.4,1.4
					c-1.1,0.2-2.2,0.2-3.2,0c-1-0.2-1.9-0.7-2.7-1.3c-0.7-0.5-1.2-1.2-1.6-2.1c-0.4-0.8-0.7-1.8-0.7-2.9l-0.1-0.1l-1.6,1.3l-3.4-2.7
					L96.9,123.8z M88,144c0.1,0.7,0.3,1.2,0.6,1.7c0.3,0.5,0.6,0.8,1,1.1c0.8,0.6,1.7,0.8,2.8,0.5c1.1-0.3,2.2-1.2,3.5-2.7
					c2.1-2.7,2.3-4.7,0.6-6c-0.9-0.7-2.1-0.9-3.6-0.7L88,144z"/>
			</g>
		</g>
		<g>
			<path class="st7" d="M51,59.9c0.5,0.4,0.9,0.8,1.2,1.3s0.5,0.9,0.5,1.4c0.1,0.5,0,1-0.1,1.5c-0.2,0.5-0.4,1-0.8,1.5
				s-0.8,0.9-1.3,1.1C50,67,49.5,67.2,49,67.2c-0.5,0-1,0-1.5-0.2c-0.5-0.2-1-0.5-1.5-0.8l-3.8-3l-3.7,4.7l-1-0.8l8.6-10.9L51,59.9z
				 M46.5,65.1c0.7,0.6,1.5,0.9,2.2,0.8c0.7,0,1.4-0.4,2-1.1c0.6-0.8,0.8-1.5,0.7-2.2c-0.2-0.7-0.6-1.4-1.3-1.9l-3.6-2.8l-3.5,4.5
				L46.5,65.1z"/>
			<path class="st7" d="M58,70.6c0.3,0.6,0.4,1.2,0.5,1.8c0,0.6-0.1,1.3-0.3,1.9c-0.2,0.6-0.6,1.2-1,1.8c-0.5,0.6-1,1-1.5,1.4
				c-0.6,0.4-1.1,0.6-1.8,0.8s-1.2,0.1-1.9,0c-0.6-0.1-1.3-0.5-1.9-0.9c-0.6-0.5-1-1-1.3-1.6c-0.3-0.6-0.4-1.2-0.5-1.8
				c0-0.6,0.1-1.3,0.3-1.9c0.2-0.6,0.6-1.2,1-1.8c0.5-0.6,1-1,1.5-1.4c0.6-0.4,1.2-0.6,1.8-0.8c0.6-0.1,1.2-0.1,1.9,0
				c0.6,0.1,1.3,0.5,1.9,0.9S57.7,70,58,70.6z M54.6,69.1c-0.5-0.1-1-0.1-1.5,0.1c-0.5,0.1-0.9,0.4-1.4,0.7
				c-0.4,0.3-0.8,0.7-1.1,1.1s-0.6,0.9-0.8,1.4c-0.2,0.5-0.3,1-0.3,1.5c0,0.5,0.1,1,0.3,1.4c0.2,0.5,0.5,0.9,1,1.2
				c0.5,0.4,0.9,0.6,1.4,0.7s1,0.1,1.5-0.1c0.5-0.1,0.9-0.4,1.4-0.7c0.4-0.3,0.8-0.7,1.1-1.1c0.3-0.4,0.6-0.9,0.8-1.4
				c0.2-0.5,0.3-1,0.3-1.5c0-0.5-0.1-1-0.3-1.4c-0.2-0.5-0.5-0.9-1-1.2C55.6,69.4,55.1,69.2,54.6,69.1z"/>
			<path class="st7" d="M61.9,73.5l-3.3,8.3l0,0l7.3-5.2l1.1,0.9l-3.4,8.3l0,0l7.4-5.1l1,0.8l-8.8,5.9l-1.1-0.8l3.3-8.2l0,0
				l-7.2,5.1l-1.1-0.8l3.7-9.9L61.9,73.5z"/>
			<path class="st7" d="M69.5,88.1c-0.2,0.4-0.3,0.9-0.3,1.4s0.1,0.9,0.2,1.4c0.2,0.5,0.5,0.9,0.9,1.2c0.7,0.6,1.4,0.8,2.1,0.8
				c0.7-0.1,1.3-0.3,2-0.8l1,0.8c-0.9,0.7-1.8,1.1-2.8,1.2c-0.9,0.1-1.9-0.3-2.9-1.1c-0.6-0.5-1.1-1-1.3-1.6s-0.4-1.2-0.4-1.8
				c0-0.6,0.2-1.2,0.4-1.8c0.3-0.6,0.6-1.2,1.1-1.8c0.4-0.5,0.9-1,1.4-1.4c0.5-0.4,1.1-0.7,1.7-0.8c0.6-0.2,1.2-0.2,1.9-0.1
				s1.3,0.4,1.9,0.9c0.6,0.5,1.1,1.1,1.3,1.7c0.2,0.6,0.3,1.2,0.3,1.9c0,0.6-0.2,1.3-0.5,1.9c-0.3,0.6-0.7,1.2-1.1,1.7l-6.1-4.8
				C69.9,87.3,69.7,87.6,69.5,88.1z M76.6,88.9c0.2-0.4,0.2-0.9,0.2-1.3s-0.1-0.8-0.3-1.2s-0.5-0.8-0.8-1.1
				c-0.4-0.3-0.8-0.5-1.2-0.6c-0.4-0.1-0.9-0.1-1.3,0c-0.4,0.1-0.8,0.3-1.2,0.5c-0.4,0.2-0.8,0.5-1.1,0.8l5.1,4
				C76.2,89.8,76.4,89.4,76.6,88.9z"/>
			<path class="st7" d="M81.7,89.2l-1.5,1.8l0,0c0.8-0.4,1.5-0.6,2.3-0.6c0.8,0.1,1.5,0.4,2.2,1l-0.8,1c-0.4-0.4-0.9-0.6-1.3-0.8
				c-0.5-0.1-0.9-0.2-1.4-0.1c-0.5,0-0.9,0.2-1.3,0.4s-0.8,0.6-1.1,1l-3.3,4.2l-1-0.8l6.2-7.9L81.7,89.2z"/>
			<path class="st7" d="M81.9,98c-0.2,0.4-0.3,0.9-0.3,1.4s0.1,0.9,0.2,1.4c0.2,0.5,0.5,0.9,0.9,1.2c0.7,0.6,1.4,0.8,2.1,0.8
				c0.7-0.1,1.3-0.3,2-0.8l1,0.8c-0.9,0.7-1.8,1.1-2.8,1.2c-0.9,0.1-1.9-0.3-2.9-1.1c-0.6-0.5-1.1-1-1.3-1.6
				c-0.3-0.6-0.4-1.2-0.4-1.8c0-0.6,0.2-1.2,0.4-1.8c0.3-0.6,0.6-1.2,1.1-1.8c0.4-0.5,0.9-1,1.4-1.4c0.5-0.4,1.1-0.7,1.7-0.8
				c0.6-0.2,1.2-0.2,1.9-0.1c0.6,0.1,1.3,0.4,1.9,0.9c0.6,0.5,1.1,1.1,1.3,1.7c0.2,0.6,0.3,1.2,0.3,1.9c0,0.6-0.2,1.3-0.5,1.9
				c-0.3,0.6-0.7,1.2-1.1,1.7l-6.1-4.8C82.3,97.1,82.1,97.5,81.9,98z M89,98.8c0.1-0.4,0.2-0.9,0.2-1.3c0-0.4-0.1-0.8-0.3-1.2
				c-0.2-0.4-0.5-0.8-0.8-1.1c-0.4-0.3-0.8-0.5-1.2-0.6s-0.9-0.1-1.3,0s-0.8,0.3-1.2,0.5s-0.8,0.5-1.1,0.8l5.1,4
				C88.6,99.6,88.8,99.2,89,98.8z"/>
			<path class="st7" d="M93.1,111l1.2-1.5l0,0c-0.3,0.2-0.6,0.3-1,0.3c-0.4,0.1-0.7,0.1-1.1,0c-0.4-0.1-0.7-0.2-1.1-0.3
				c-0.4-0.1-0.7-0.3-1-0.6c-0.6-0.5-1-1-1.3-1.6s-0.4-1.2-0.4-1.8c0-0.6,0.1-1.2,0.4-1.8c0.3-0.6,0.6-1.2,1-1.8
				c0.4-0.6,0.9-1,1.5-1.4c0.5-0.4,1.1-0.7,1.7-0.8s1.2-0.2,1.8,0c0.6,0.1,1.2,0.4,1.8,0.9c0.3,0.2,0.6,0.5,0.8,0.8
				c0.2,0.3,0.4,0.6,0.5,1c0.1,0.3,0.2,0.7,0.2,1.1c0,0.4,0,0.7-0.2,1.1l0,0l3.6-4.5l1,0.8L94,111.7L93.1,111z M90,104.2
				c-0.2,0.5-0.4,1-0.4,1.4c0,0.5,0,0.9,0.2,1.4s0.5,0.9,0.9,1.2c0.5,0.4,1,0.6,1.5,0.7c0.5,0.1,1,0,1.5-0.1
				c0.5-0.1,0.9-0.4,1.3-0.7c0.4-0.3,0.8-0.7,1.1-1.1s0.6-0.8,0.8-1.3c0.2-0.5,0.3-1,0.4-1.4c0-0.5-0.1-1-0.2-1.4
				c-0.2-0.5-0.5-0.9-1.1-1.3c-0.5-0.4-0.9-0.6-1.4-0.6s-1,0-1.4,0.1c-0.5,0.2-0.9,0.4-1.3,0.7c-0.4,0.3-0.8,0.7-1.1,1.1
				C90.5,103.2,90.2,103.7,90,104.2z"/>
			<path class="st7" d="M109.6,106.4l-3.6,4.5l0,0c0.3-0.2,0.7-0.3,1-0.4c0.4-0.1,0.7-0.1,1.1,0s0.7,0.1,1.1,0.3
				c0.3,0.2,0.7,0.3,0.9,0.6c0.6,0.5,1,1,1.3,1.6c0.3,0.6,0.4,1.2,0.4,1.8c0,0.6-0.1,1.2-0.4,1.8c-0.3,0.6-0.6,1.2-1,1.8
				c-0.4,0.6-0.9,1-1.5,1.4c-0.5,0.4-1.1,0.7-1.7,0.8c-0.6,0.1-1.2,0.2-1.8,0c-0.6-0.1-1.2-0.4-1.8-0.9c-0.6-0.5-1.1-1.1-1.4-1.8
				c-0.3-0.7-0.3-1.4-0.1-2.1l0,0l-1.2,1.5l-0.9-0.7l8.6-10.9L109.6,106.4z M110.3,116.3c0.2-0.5,0.4-1,0.4-1.4c0-0.5,0-0.9-0.2-1.4
				s-0.5-0.9-0.9-1.2c-0.5-0.4-1-0.6-1.5-0.7c-0.5-0.1-1,0-1.5,0.1c-0.5,0.1-0.9,0.4-1.3,0.7c-0.4,0.3-0.8,0.7-1.1,1.1
				c-0.3,0.4-0.6,0.8-0.8,1.3c-0.2,0.5-0.3,1-0.4,1.4c0,0.5,0.1,1,0.2,1.4c0.2,0.5,0.5,0.9,1.1,1.3c0.5,0.4,0.9,0.6,1.4,0.6
				s1,0,1.4-0.1c0.5-0.2,0.9-0.4,1.3-0.7c0.4-0.3,0.8-0.7,1.1-1.1S110.1,116.8,110.3,116.3z"/>
			<path class="st7" d="M115.2,115.7l-2.7,8.8l7.7-4.8l1,0.8l-10.6,6.4c-0.4,0.2-0.8,0.4-1.1,0.5c-0.3,0.1-0.6,0.2-0.8,0.2
				c-0.2,0-0.5,0-0.7-0.1c-0.2-0.1-0.5-0.3-0.8-0.5c-0.2-0.2-0.3-0.3-0.4-0.4c-0.1-0.1-0.2-0.2-0.2-0.3l0.6-0.8
				c0.1,0.1,0.2,0.2,0.3,0.3c0.1,0.1,0.2,0.2,0.3,0.3c0.2,0.2,0.4,0.3,0.6,0.3c0.2,0,0.4,0.1,0.6,0c0.2,0,0.4-0.1,0.6-0.2
				s0.4-0.2,0.6-0.3l1-0.6l3.1-10.3L115.2,115.7z"/>
		</g>
	</g>
</g>
<g id="guides" class="st63">
</g>
</svg>
