<?xml version="1.0" encoding="utf-8"?>
<!-- Generator: Adobe Illustrator 19.1.0, SVG Export Plug-In . SVG Version: 6.00 Build 0)  -->
<!DOCTYPE svg PUBLIC "-//W3C//DTD SVG 1.1//EN" "http://www.w3.org/Graphics/SVG/1.1/DTD/svg11.dtd" [
	<!ENTITY ns_extend "http://ns.adobe.com/Extensibility/1.0/">
	<!ENTITY ns_ai "http://ns.adobe.com/AdobeIllustrator/10.0/">
	<!ENTITY ns_graphs "http://ns.adobe.com/Graphs/1.0/">
	<!ENTITY ns_vars "http://ns.adobe.com/Variables/1.0/">
	<!ENTITY ns_imrep "http://ns.adobe.com/ImageReplacement/1.0/">
	<!ENTITY ns_sfw "http://ns.adobe.com/SaveForWeb/1.0/">
	<!ENTITY ns_custom "http://ns.adobe.com/GenericCustomNamespace/1.0/">
	<!ENTITY ns_adobe_xpath "http://ns.adobe.com/XPath/1.0/">
]>
<svg version="1.1" xmlns:x="&ns_extend;" xmlns:i="&ns_ai;" xmlns:graph="&ns_graphs;"
	 xmlns="http://www.w3.org/2000/svg" xmlns:xlink="http://www.w3.org/1999/xlink" x="0px" y="0px" width="180px" height="180px"
	 viewBox="0 0 180 180" style="enable-background:new 0 0 180 180;" xml:space="preserve">
<style type="text/css">
	.st0{fill:#0F0105;}
	.st1{clip-path:url(#SVGID_2_);fill:url(#SVGID_3_);}
	.st2{opacity:0.5;clip-path:url(#SVGID_2_);}
	.st3{opacity:0.5;}
	.st4{clip-path:url(#SVGID_5_);}
	.st5{fill:#9F1D21;}
	.st6{clip-path:url(#SVGID_2_);}
	.st7{fill:#FFFFFF;}
	.st8{fill:#F1491C;}
	.st9{fill:#EF4B23;}
	.st10{fill:#00ABE3;}
	.st11{fill:#235B9E;}
	.st12{fill:#FF4D3F;}
	.st13{fill:#2D80A6;}
	.st14{fill:#EF4B23;stroke:#EF4B23;stroke-width:4;stroke-miterlimit:10;}
	.st15{clip-path:url(#SVGID_2_);fill:url(#SVGID_24_);}
	.st16{clip-path:url(#SVGID_2_);fill:#0F0105;}
	.st17{clip-path:url(#SVGID_32_);}
	.st18{fill:#1C0F13;}
	.st19{clip-path:url(#SVGID_42_);fill:url(#SVGID_43_);}
	.st20{opacity:0.5;clip-path:url(#SVGID_42_);}
	.st21{clip-path:url(#SVGID_45_);}
	.st22{clip-path:url(#SVGID_42_);}
	.st23{clip-path:url(#SVGID_42_);fill:#0F0105;}
	.st24{fill:#EF4B23;stroke:#EF4B23;stroke-width:2.1479;stroke-miterlimit:10;}
	.st25{clip-path:url(#SVGID_51_);fill:url(#SVGID_52_);}
	.st26{clip-path:url(#SVGID_54_);}
	.st27{clip-path:url(#SVGID_64_);}
	.st28{clip-path:url(#SVGID_72_);fill:#0F0105;}
	.st29{clip-path:url(#SVGID_72_);}
	.st30{fill:#E63C2F;stroke:#E63C2F;stroke-width:2.6611;stroke-miterlimit:10;}
	.st31{fill:#E63C2F;}
	.st32{fill-rule:evenodd;clip-rule:evenodd;fill:#FFFFFF;}
	.st33{clip-path:url(#SVGID_78_);fill:url(#SVGID_79_);}
	.st34{clip-path:url(#SVGID_81_);}
	.st35{clip-path:url(#SVGID_89_);fill:url(#SVGID_90_);}
	.st36{opacity:0.5;clip-path:url(#SVGID_89_);}
	.st37{clip-path:url(#SVGID_92_);}
	.st38{clip-path:url(#SVGID_89_);}
	.st39{clip-path:url(#SVGID_89_);fill:#0F0105;}
	.st40{fill:#EF4B23;stroke:#EF4B23;stroke-width:6.5125;stroke-miterlimit:10;}
	.st41{clip-path:url(#SVGID_98_);fill:url(#SVGID_99_);}
	.st42{opacity:0.5;clip-path:url(#SVGID_98_);}
	.st43{clip-path:url(#SVGID_101_);}
	.st44{clip-path:url(#SVGID_98_);}
	.st45{clip-path:url(#SVGID_98_);fill:#0F0105;}
	.st46{fill:#EF4B23;stroke:#EF4B23;stroke-width:5.9384;stroke-miterlimit:10;}
	.st47{clip-path:url(#SVGID_107_);fill:url(#SVGID_108_);}
	.st48{opacity:0.5;clip-path:url(#SVGID_107_);}
	.st49{clip-path:url(#SVGID_110_);}
	.st50{clip-path:url(#SVGID_107_);}
	.st51{clip-path:url(#SVGID_107_);fill:#0F0105;}
	.st52{fill:#EF4B23;stroke:#EF4B23;stroke-width:6.9513;stroke-miterlimit:10;}
	.st53{clip-path:url(#SVGID_116_);}
	.st54{fill:#EF4B23;stroke:#EF4B23;stroke-width:8.0346;stroke-miterlimit:10;}
	.st55{fill:url(#SVGID_119_);}
	.st56{clip-path:url(#SVGID_123_);}
	.st57{clip-path:url(#SVGID_125_);}
	.st58{clip-path:url(#SVGID_123_);fill:url(#SVGID_126_);}
	.st59{fill:url(#SVGID_129_);}
	.st60{clip-path:url(#SVGID_135_);fill:#0F0105;}
	.st61{clip-path:url(#SVGID_135_);}
	.st62{fill:#E63C2F;stroke:#E63C2F;stroke-width:8.0346;stroke-miterlimit:10;}
	.st63{font-family:'HelveticaNeue-Light';}
	.st64{font-size:3.7015px;}
	.st65{display:none;}
	.st66{display:inline;opacity:0.6;}
	.st67{fill:none;stroke:#FFFFFF;stroke-miterlimit:10;}
</style>
<metadata>
	<sfw  xmlns="&ns_sfw;">
		<slices></slices>
		<sliceSourceBounds  width="9649.6" height="5741.6" x="-1432.3" y="-4447.8" bottomLeftOrigin="true"></sliceSourceBounds>
		<optimizationSettings>
			<targetSettings  fileFormat="JPEGFormat" targetSettingsID="0">
				
					<JPEGFormat  quality="60" blurAmount="0" embedICCProfile="false" optimized="true" matteColor="#FFFFFF" noMatteColor="false" progressive="false">
					</JPEGFormat>
			</targetSettings>
		</optimizationSettings>
	</sfw>
</metadata>
<g id="Layer_1">
	<g>
		<g>
			<path class="st31" d="M178.8,178.8L178.8,178.8l-177.7,0V7.8c0-3.7,3-6.7,6.7-6.7h171V178.8z"/>
			<path class="st7" d="M14.8,12.3c-1.4,0-2.5,1.1-2.5,2.5v150.4c0,1.4,1.1,2.5,2.5,2.5h150.4c1.4,0,2.5-1.1,2.5-2.5V14.8
				c0-1.4-1.1-2.5-2.5-2.5H14.8z"/>
		</g>
		<text transform="matrix(1 0 0 1 152.9918 172.0494)" class="st7 st63 st64">ALL 9/12</text>
		<g>
			<path class="st0" d="M89.9,26.5c1.2,0,2.2-1,2.2-2.2s-1-2.2-2.2-2.2h-4.3c-1.2,0-2.2,1-2.2,2.2s1,2.2,2.2,2.2H89.9z"/>
			<path class="st0" d="M83.4,20c0-1.2-1-2.2-2.2-2.2h-4.3c-1.2,0-2.2,1-2.2,2.2c0,1.2,1,2.2,2.2,2.2h4.3
				C82.4,22.2,83.4,21.2,83.4,20"/>
			<path class="st0" d="M76.9,26.6c-1.2,0-2.2,1-2.2,2.2c0,1.2,1,2.2,2.2,2.2h4.3c1.2,0,2.2-1,2.2-2.2c0-1.2-1-2.2-2.2-2.2H76.9z"/>
			<path class="st0" d="M114.1,20c0-1.2-1-2.2-2.2-2.2c-1.2,0-2.2,1-2.2,2.2c0,1.2,1,2.2,2.2,2.2C113.1,22.2,114.1,21.2,114.1,20"/>
			<path class="st0" d="M127.2,24.4c0-1.2-1-2.2-2.2-2.2c-1.2,0-2.2-1-2.2-2.2c0-1.2-1-2.2-2.2-2.2c-1.2,0-2.2,1-2.2,2.2v4.3
				c0,1.2,1,2.2,2.2,2.2h4.3C126.2,26.6,127.2,25.6,127.2,24.4"/>
			<path class="st0" d="M127.2,33.2c0-1.2-1-2.2-2.2-2.2c-1.2,0-2.2,1-2.2,2.2v13.1c0,1.2,1,2.2,2.2,2.2c1.2,0,2.2-1,2.2-2.2V33.2z"
				/>
			<path class="st0" d="M70.3,24.4c0-1.2-1-2.2-2.2-2.2c-1.2,0-2.2,1-2.2,2.2c0,1.2,1,2.2,2.2,2.2C69.3,26.6,70.3,25.6,70.3,24.4"/>
			<path class="st0" d="M48.4,20c0-1.2-1-2.2-2.2-2.2H20c-1.2,0-2.2,1-2.2,2.2v26.2c0,1.2,1,2.2,2.2,2.2h26.2c1.2,0,2.2-1,2.2-2.2
				V20z M44,41.8c0,1.2-1,2.2-2.2,2.2H24.4c-1.2,0-2.2-1-2.2-2.2V24.4c0-1.2,1-2.2,2.2-2.2h17.4c1.2,0,2.2,1,2.2,2.2V41.8z"/>
			<path class="st0" d="M160,140.3c1.2,0,2.2-1,2.2-2.2c0-1.2-1-2.2-2.2-2.2c-1.2,0-2.2,1-2.2,2.2
				C157.8,139.3,158.8,140.3,160,140.3"/>
			<path class="st0" d="M57.2,37.5c0,1.2,1,2.2,2.2,2.2c1.2,0,2.2-1,2.2-2.2v-4.3c0-1.2,1-2.2,2.2-2.2c1.2,0,2.2,1,2.2,2.2v8.7
				c0,1.2,1,2.2,2.2,2.2c1.2,0,2.2-1,2.2-2.2c0-1.2,1-2.2,2.2-2.2c1.2,0,2.2-1,2.2-2.2v-4.3c0-1.2-1-2.2-2.2-2.2h-4.3
				c-1.2,0-2.2-1-2.2-2.2c0-1.2-1-2.2-2.2-2.2c-1.2,0-2.2-1-2.2-2.2V20c0-1.2-1-2.2-2.2-2.2H55c-1.2,0-2.2,1-2.2,2.2
				c0,1.2,1,2.2,2.2,2.2c1.2,0,2.2,1,2.2,2.2c0,1.2-1,2.2-2.2,2.2c-1.2,0-2.2,1-2.2,2.2v4.3c0,1.2,1,2.2,2.2,2.2
				C56.2,35.3,57.2,36.3,57.2,37.5"/>
			<path class="st0" d="M157.8,72.5c0-1.2-1-2.2-2.2-2.2c-1.2,0-2.2,1-2.2,2.2v21.8c0,1.2-1,2.2-2.2,2.2c-1.2,0-2.2,1-2.2,2.2
				c0,1.2,1,2.2,2.2,2.2c1.2,0,2.2,1,2.2,2.2v8.7c0,1.2,1,2.2,2.2,2.2c1.2,0,2.2,1,2.2,2.2c0,1.2,1,2.2,2.2,2.2c1.2,0,2.2-1,2.2-2.2
				v-4.3c0-1.2-1-2.2-2.2-2.2c-1.2,0-2.2-1-2.2-2.2c0-1.2,1-2.2,2.2-2.2c1.2,0,2.2-1,2.2-2.2v-4.3c0-1.2-1-2.2-2.2-2.2
				c-1.2,0-2.2-1-2.2-2.2V81.3c0-1.2,1-2.2,2.2-2.2c1.2,0,2.2-1,2.2-2.2s-1-2.2-2.2-2.2C158.8,74.7,157.8,73.7,157.8,72.5"/>
			<path class="st0" d="M155.6,127.2c-1.2,0-2.2,1-2.2,2.2c0,1.2-1,2.2-2.2,2.2c-1.2,0-2.2-1-2.2-2.2c0-1.2-1-2.2-2.2-2.2
				c-1.2,0-2.2-1-2.2-2.2c0-1.2,1-2.2,2.2-2.2c1.2,0,2.2-1,2.2-2.2c0-1.2-1-2.2-2.2-2.2c-1.2,0-2.2-1-2.2-2.2c0-1.2-1-2.2-2.2-2.2
				h-4.3c-1.2,0-2.2-1-2.2-2.2s-1-2.2-2.2-2.2c-1.2,0-2.2-1-2.2-2.2c0-1.2-1-2.2-2.2-2.2c-1.2,0-2.2-1-2.2-2.2c0-1.2,1-2.2,2.2-2.2
				h8.7c1.2,0,2.2-1,2.2-2.2v-4.3c0-1.2-1-2.2-2.2-2.2s-2.2-1-2.2-2.2v-4.3c0-1.2,0-2.2,0-2.2c0,0,0-1,0-2.2c0-1.2,0-2.2,0-2.2
				c0,0,0-1,0-2.2v-8.7c0-1.2,1-2.2,2.2-2.2s2.2,1,2.2,2.2c0,1.2,1,2.2,2.2,2.2s2.2,1,2.2,2.2s1,2.2,2.2,2.2c1.2,0,2.2-1,2.2-2.2
				v-4.3c0-1.2-1-2.2-2.2-2.2c-1.2,0-2.2-1-2.2-2.2c0-1.2-1-2.2-2.2-2.2h-4.3c-1.2,0-2.2-1-2.2-2.2c0-1.2,1-2.2,2.2-2.2
				s2.2-1,2.2-2.2c0-1.2-1-2.2-2.2-2.2c-1.2,0-3.2,0-4.4,0l-8.7,0c-1.2,0-2.2-1-2.2-2.2c0-1.2-1-2.2-2.2-2.2c-1.2,0-2.2-1-2.2-2.2
				v-4.3c0-1.2-1-2.2-2.2-2.2h-4.3c-1.2,0-2.2-1-2.2-2.2c0-1.2,1-2.2,2.2-2.2h4.3c1.2,0,2.2-1,2.2-2.2v-4.3c0-1.2-1-2.2-2.2-2.2
				h-4.3c-1.2,0-2.2-1-2.2-2.2c0-1.2-1-2.2-2.2-2.2c-1.2,0-2.2-1-2.2-2.2c0-1.2-1-2.2-2.2-2.2h-8.7c-1.2,0-2.2,1-2.2,2.2
				c0,1.2,1,2.2,2.2,2.2c1.2,0,2.2,1,2.2,2.2v4.3c0,1.2-1,2.2-2.2,2.2h-8.7c-1.2,0-2.2,1-2.2,2.2c0,1.2,1,2.2,2.2,2.2h4.3
				c1.2,0,2.2,1,2.2,2.2c0,1.2,1,2.2,2.2,2.2s2.2,1,2.2,2.2v4.3c0,1.2-1,2.2-2.2,2.2c-1.2,0-2.2-1-2.2-2.2c0-1.2-1-2.2-2.2-2.2
				c-1.2,0-2.2,1-2.2,2.2c0,1.2,1,2.2,2.2,2.2c1.2,0,2.2,1,2.2,2.2c0,1.2-1,2.2-2.2,2.2c-1.2,0-2.2-1-2.2-2.2c0-1.2-1-2.2-2.2-2.2
				c-1.2,0-2.2-1-2.2-2.2c0-1.2,1-2.2,2.2-2.2c1.2,0,2.2-1,2.2-2.2c0-1.2-1-2.2-2.2-2.2h-4.3c-1.2,0-2.2,1-2.2,2.2v8.7
				c0,1.2-1,2.2-2.2,2.2c-1.2,0-2.2,0-2.2,0V55v4.3c0,1.2-1,2.2-2.2,2.2c-1.2,0-2.2,1-2.2,2.2c0,1.2,1,2.2,2.2,2.2
				c1.2,0,2.2,1,2.2,2.2c0,1.2-1,2.2-2.2,2.2c-1.2,0-2.2-1-2.2-2.2c0-1.2-1-2.2-2.2-2.2s-2.2,1-2.2,2.2v4.3c0,1.2,1,2.2,2.2,2.2h4.3
				c1.2,0,2.2,1,2.2,2.2c0,1.2-1,2.2-2.2,2.2h-4.3c-1.2,0-2.2,1-2.2,2.2c0,1.2-1,2.2-2.2,2.2c-1.2,0-2.2-1-2.2-2.2
				c0-1.2-1-2.2-2.2-2.2H55c-1.2,0-2.2,1-2.2,2.2c0,1.2,1,2.2,2.2,2.2s2.2,1,2.2,2.2c0,1.2,1,2.2,2.2,2.2h13.1c1.2,0,2.2,1,2.2,2.2
				v4.4c0,1.2,1,2.2,2.2,2.2c1.2,0,2.2,1,2.2,2.2v4.3c0,1.2-1,2.2-2.2,2.2c-1.2,0-2.2,1-2.2,2.2c0,1.2,1,2.2,2.2,2.2h4.3
				c1.2,0,2.2,1,2.2,2.2v8.7c0,1.2-1,2.2-2.2,2.2c-1.2,0-2.2-1-2.2-2.2s-1-2.2-2.2-2.2c-1.2,0-2.2-1-2.2-2.2v-4.3
				c0-1.2-1-2.2-2.2-2.2c-1.2,0-2.2-1-2.2-2.2c0-1.2,1-2.2,2.2-2.2c1.2,0,2.2-1,2.2-2.2s-1-2.2-2.2-2.2c-1.2,0-2.2-1-2.2-2.2
				c0-1.2-1-2.2-2.2-2.2c-1.2,0-2.2,1-2.2,2.2v8.7c0,1.2-1,2.2-2.2,2.2h-4.3c-1.2,0-2.2,1-2.2,2.2c0,1.2,1,2.2,2.2,2.2
				c1.2,0,2.2,1,2.2,2.2c0,1.2-1,2.2-2.2,2.2H55c-1.2,0-2.2-1-2.2-2.2c0-1.2-1-2.2-2.2-2.2h-4.3c-1.2,0-2.2-1-2.2-2.2
				c0-1.2,1-2.2,2.2-2.2h4.3c1.2,0,2.2-1,2.2-2.2c0-1.2-1-2.2-2.2-2.2h-4.3c-1.2,0-2.2-1-2.2-2.2c0-1.2-1-2.2-2.2-2.2
				c-1.2,0-2.2,1-2.2,2.2v8.7c0,1.2,1,2.2,2.2,2.2c1.2,0,2.2,1,2.2,2.2c0,1.2,1,2.2,2.2,2.2c1.2,0,2.2,1,2.2,2.2
				c0,1.2,1,2.2,2.2,2.2h13.1c1.2,0,2.2-1,2.2-2.2v-4.3c0-1.2,1-2.2,2.2-2.2s2.2,1,2.2,2.2c0,1.2,1,2.2,2.2,2.2c1.2,0,2.2,1,2.2,2.2
				v8.7c0,1.2,1,2.2,2.2,2.2h4.3c1.2,0,2.2,1,2.2,2.2v8.7c0,1.2,1,2.2,2.2,2.2c1.2,0,2.2-1,2.2-2.2c0-1.2,1-2.2,2.2-2.2h4.3
				c1.2,0,2.2-1,2.2-2.2v-8.7c0-1.2-1-2.2-2.2-2.2c-1.2,0-2.2-1-2.2-2.2c0-1.2-1-2.2-2.2-2.2c-1.2,0-2.2-1-2.2-2.2
				c0-1.2,1-2.2,2.2-2.2h4.3c1.2,0,2.2-1,2.2-2.2c0-1.2,1-2.2,2.2-2.2s2.2,1,2.2,2.2v4.3c0,1.2,1,2.2,2.2,2.2c1.2,0,2.2,1,2.2,2.2
				c0,1.2,1,2.2,2.2,2.2c1.2,0,2.2,1,2.2,2.2c0,1.2,1,2.2,2.2,2.2c1.2,0,2.2,1,2.2,2.2c0,1.2-1,2.2-2.2,2.2c-1.2,0-2.2-1-2.2-2.2
				c0-1.2-1-2.2-2.2-2.2c-1.2,0-2.2,1-2.2,2.2c0,1.2-1,2.2-2.2,2.2c-1.2,0-2.2,1-2.2,2.2c0,1.2-1,2.2-2.2,2.2s-2.2,1-2.2,2.2v4.3
				c0,1.2,1,2.2,2.2,2.2s2.2,1,2.2,2.2v8.7c0,1.2,1,2.2,2.2,2.2c1.2,0,2.2-1,2.2-2.2c0-1.2,1-2.2,2.2-2.2c1.2,0,2.2,1,2.2,2.2
				c0,1.2,1,2.2,2.2,2.2c1.2,0,2.2-1,2.2-2.2c0-1.2,1-2.2,2.2-2.2h4.3c1.2,0,2.2,1,2.2,2.2c0,1.2,1,2.2,2.2,2.2h4.3
				c1.2,0,2.2-1,2.2-2.2v-8.7c0-1.2-1-2.2-2.2-2.2c-1.2,0-2.2-1-2.2-2.2c0-1.2,1-2.2,2.2-2.2c1.2,0,2.2,1,2.2,2.2
				c0,1.2,1,2.2,2.2,2.2h4.3c1.2,0,2.2,1,2.2,2.2c0,1.2,1,2.2,2.2,2.2h8.7c1.2,0,2.2-1,2.2-2.2c0-1.2-1-2.2-2.2-2.2h-4.3
				c-1.2,0-2.2-1-2.2-2.2c0-1.2,1-2.2,2.2-2.2c1.2,0,2.2-1,2.2-2.2v-4.3c0-1.2,1-2.2,2.2-2.2h4.3c1.2,0,2.2-1,2.2-2.2
				c0-1.2,1-2.2,2.2-2.2c1.2,0,2.2-1,2.2-2.2V125c0-1.2-1-2.2-2.2-2.2c-1.2,0-2.2,1-2.2,2.2C157.8,126.2,156.8,127.2,155.6,127.2
				 M100.9,98.7c0-1.2,1-2.2,2.2-2.2c1.2,0,2.2,1,2.2,2.2c0,1.2-1,2.2-2.2,2.2C101.9,100.9,100.9,99.9,100.9,98.7 M100.9,24.4
				c0-1.2,1-2.2,2.2-2.2c1.2,0,2.2,1,2.2,2.2c0,1.2-1,2.2-2.2,2.2C101.9,26.5,100.9,25.6,100.9,24.4 M103.1,30.9
				c1.2,0,2.2,1,2.2,2.2c0,1.2-1,2.2-2.2,2.2c-1.2,0-2.2-1-2.2-2.2C100.9,31.9,101.9,30.9,103.1,30.9 M100.9,46.3
				c0-1.2,1-2.2,2.2-2.2c1.2,0,2.2-1,2.2-2.2c0-1.2,1-2.2,2.2-2.2c1.2,0,2.2,1,2.2,2.2c0,1.2,1,2.2,2.2,2.2c1.2,0,2.2,1,2.2,2.2
				c0,1.2,1,2.2,2.2,2.2c1.2,0,2.2,1,2.2,2.2s-1,2.2-2.2,2.2c-1.2,0-2.2-1-2.2-2.2c0-1.2-1-2.2-2.2-2.2c-1.2,0-2.2,1-2.2,2.2
				c0,1.2-1,2.2-2.2,2.2h-4.3c-1.2,0-2.2-1-2.2-2.2V46.3z M90,131.6c1.2,0,2.2,1,2.2,2.2c0,1.2-1,2.2-2.2,2.2c-1.2,0-2.2-1-2.2-2.2
				C87.8,132.6,88.8,131.6,90,131.6 M98.7,105.3c-1.2,0-2.2-1-2.2-2.2c0-1.2-1-2.2-2.2-2.2c-1.2,0-2.2,1-2.2,2.2
				c0,1.2,1,2.2,2.2,2.2c1.2,0,2.2,1,2.2,2.2c0,1.2-1,2.2-2.2,2.2s-2.2,1-2.2,2.2c0,1.2-1,2.2-2.2,2.2c-1.2,0-2.2-1-2.2-2.2v-4.3
				c0-1.2-1-2.2-2.2-2.2c-1.2,0-2.2-1-2.2-2.2v-4.3c0-1.2,0-2.2,0-2.2c0,0,0,0,0,0c0,0,1,0,2.2,0c1.2,0,2.2,0,2.2,0c0,0,1,0,2.2,0
				h4.3c1.2,0,2.2,1,2.2,2.2c0,1.2,1,2.2,2.2,2.2c1.2,0,2.2,1,2.2,2.2C100.9,104.3,99.9,105.3,98.7,105.3 M116.3,122.8
				c1.2,0,2.2,1,2.2,2.2c0,1.2-1,2.2-2.2,2.2c-1.2,0-2.2-1-2.2-2.2C114.1,123.8,115,122.8,116.3,122.8 M122.8,142.5
				c0,1.2-1,2.2-2.2,2.2h-8.7c-1.2,0-2.2,1-2.2,2.2c0,1.2-1,2.2-2.2,2.2c-1.2,0-2.2-1-2.2-2.2c0-1.2,1-2.2,2.2-2.2
				c1.2,0,2.2-1,2.2-2.2c0-1.2,1-2.2,2.2-2.2h8.7C121.8,140.3,122.8,141.3,122.8,142.5 M122.8,133.8c0,1.2-1,2.2-2.2,2.2
				c-1.2,0-2.2-1-2.2-2.2c0-1.2,1-2.2,2.2-2.2C121.8,131.6,122.8,132.6,122.8,133.8 M129.4,122.8c-1.2,0-2.2-1-2.2-2.2
				s-1-2.2-2.2-2.2h-4.3c-1.2,0-2.2-1-2.2-2.2c0-1.2-1-2.2-2.2-2.2c-1.2,0-2.2-1-2.2-2.2c0-1.2-1-2.2-2.2-2.2c-1.2,0-2.2,1-2.2,2.2
				s1,2.2,2.2,2.2c1.2,0,2.2,1,2.2,2.2c0,1.2-1,2.2-2.2,2.2h-4.3c-1.2,0-2.2-1-2.2-2.2v-4.3c0-1.2,1-2.2,2.2-2.2
				c1.2,0,2.2-1,2.2-2.2v-4.3c0-1.2,1-2.2,2.2-2.2c1.2,0,2.2-1,2.2-2.2c0-1.2,1-2.2,2.2-2.2h4.3c1.2,0,2.2,1,2.2,2.2v8.7
				c0,1.2,1,2.2,2.2,2.2c1.2,0,2.2,1,2.2,2.2c0,1.2,1,2.2,2.2,2.2c1.2,0,2.2,1,2.2,2.2c0,1.2,1,2.2,2.2,2.2h4.3c1.2,0,2.2,1,2.2,2.2
				s-1,2.2-2.2,2.2H129.4z M140.3,138.1c0,1.2-1,2.2-2.2,2.2h-8.7c-1.2,0-2.2-1-2.2-2.2v-8.7c0-1.2,1-2.2,2.2-2.2h8.7
				c1.2,0,2.2,1,2.2,2.2V138.1z"/>
			<path class="st0" d="M157.8,146.9c0-1.2-1-2.2-2.2-2.2c-1.2,0-2.2,1-2.2,2.2c0,1.2,1,2.2,2.2,2.2
				C156.8,149.1,157.8,148.1,157.8,146.9"/>
			<path class="st0" d="M153.4,120.6c0,1.2,1,2.2,2.2,2.2c1.2,0,2.2-1,2.2-2.2c0-1.2-1-2.2-2.2-2.2
				C154.4,118.4,153.4,119.4,153.4,120.6"/>
			<path class="st0" d="M46.2,96.6c-1.2,0-2.2,1-2.2,2.2c0,1.2,1,2.2,2.2,2.2s2.2-1,2.2-2.2C48.4,97.5,47.4,96.6,46.2,96.6"/>
			<path class="st0" d="M92.2,146.9c0-1.2-1-2.2-2.2-2.2c-1.2,0-2.2,1-2.2,2.2v8.7c0,1.2,1,2.2,2.2,2.2h4.3c1.2,0,2.2-1,2.2-2.2
				v-4.3c0-1.2-1-2.2-2.2-2.2C93.2,149.1,92.2,148.1,92.2,146.9"/>
			<path class="st0" d="M153.4,63.7c0-1.2-1-2.2-2.2-2.2c-1.2,0-2.2,1-2.2,2.2c0,1.2,1,2.2,2.2,2.2C152.5,65.9,153.4,65,153.4,63.7"
				/>
			<path class="st0" d="M140.3,76.9c0,1.2,1,2.2,2.2,2.2s2.2-1,2.2-2.2c0-1.2-1-2.2-2.2-2.2S140.3,75.7,140.3,76.9"/>
			<path class="st0" d="M144.7,90c0-1.2-1-2.2-2.2-2.2s-2.2,1-2.2,2.2s1,2.2,2.2,2.2S144.7,91.2,144.7,90"/>
			<path class="st0" d="M146.9,96.6c1.2,0,2.2-1,2.2-2.2c0-1.2-1-2.2-2.2-2.2c-1.2,0-2.2,1-2.2,2.2
				C144.7,95.6,145.7,96.6,146.9,96.6"/>
			<path class="st0" d="M135.9,155.6c0,1.2,1,2.2,2.2,2.2s2.2-1,2.2-2.2c0-1.2-1-2.2-2.2-2.2S135.9,154.4,135.9,155.6"/>
			<path class="st0" d="M57.2,98.8c0-1.2,1-2.2,2.2-2.2c1.2,0,2.2-1,2.2-2.2c0-1.2-1-2.2-2.2-2.2c-1.2,0-2.2-1-2.2-2.2
				c0-1.2-1-2.2-2.2-2.2H37.5c-1.2,0-2.2,1-2.2,2.2c0,1.2-1,2.2-2.2,2.2c-1.2,0-2.2-1-2.2-2.2c0-1.2,1-2.2,2.2-2.2
				c1.2,0,2.2-1,2.2-2.2c0-1.2,1-2.2,2.2-2.2s2.2-1,2.2-2.2c0-1.2,1-2.2,2.2-2.2c1.2,0,2.2-1,2.2-2.2c0-1.2-1-2.2-2.2-2.2
				c-1.2,0-2.2-1-2.2-2.2c0-1.2,1-2.2,2.2-2.2c1.2,0,2.2-1,2.2-2.2c0-1.2-1-2.2-2.2-2.2c-1.2,0-2.2-1-2.2-2.2c0-1.2,1-2.2,2.2-2.2
				c1.2,0,2.2-1,2.2-2.2c0-1.2,1-2.2,2.2-2.2h4.3c1.2,0,2.2,1,2.2,2.2c0,1.2,1,2.2,2.2,2.2c1.2,0,2.2-1,2.2-2.2V41.9
				c0-1.2-1-2.2-2.2-2.2c-1.2,0-2.2,1-2.2,2.2v8.7c0,1.2-1,2.2-2.2,2.2h-8.7c-1.2,0-2.2,1-2.2,2.2c0,1.2-1,2.2-2.2,2.2
				c-1.2,0-2.2-1-2.2-2.2c0-1.2-1-2.2-2.2-2.2c-1.2,0-2.2,1-2.2,2.2c0,1.2-1,2.2-2.2,2.2c-1.2,0-2.2-1-2.2-2.2c0-1.2-1-2.2-2.2-2.2
				c-1.2,0-2.2,1-2.2,2.2c0,1.2-1,2.2-2.2,2.2c-1.2,0-2.2,1-2.2,2.2v4.3c0,1.2,1,2.2,2.2,2.2c1.2,0,2.2,1,2.2,2.2
				c0,1.2-1,2.2-2.2,2.2c-1.2,0-2.2,1-2.2,2.2v13.1c0,1.2,1,2.2,2.2,2.2h4.3c1.2,0,2.2,1,2.2,2.2v8.7c0,1.2,1,2.2,2.2,2.2
				c1.2,0,2.2,1,2.2,2.2c0,1.2-1,2.2-2.2,2.2h-4.3c-1.2,0-2.2,1-2.2,2.2c0,1.2,1,2.2,2.2,2.2c1.2,0,2.2,1,2.2,2.2
				c0,1.2,1,2.2,2.2,2.2c1.2,0,2.2-1,2.2-2.2c0-1.2,1-2.2,2.2-2.2c1.2,0,2.2-1,2.2-2.2V94.4c0-1.2,1-2.2,2.2-2.2h8.7
				c1.2,0,2.2,1,2.2,2.2c0,1.2,1,2.2,2.2,2.2s2.2,1,2.2,2.2v4.3c0,1.2,1,2.2,2.2,2.2c1.2,0,2.2-1,2.2-2.2V98.8z M26.6,76.9
				c0,1.2-1,2.2-2.2,2.2c-1.2,0-2.2-1-2.2-2.2c0-1.2,1-2.2,2.2-2.2C25.6,74.7,26.6,75.7,26.6,76.9 M26.6,68.1c0-1.2,1-2.2,2.2-2.2
				c1.2,0,2.2,1,2.2,2.2c0,1.2,1,2.2,2.2,2.2c1.2,0,2.2,1,2.2,2.2c0,1.2-1,2.2-2.2,2.2c-1.2,0-2.2-1-2.2-2.2c0-1.2-1-2.2-2.2-2.2
				C27.5,70.3,26.6,69.3,26.6,68.1"/>
			<path class="st0" d="M17.8,116.3c0,1.2,1,2.2,2.2,2.2c1.2,0,2.2,1,2.2,2.2c0,1.2,1,2.2,2.2,2.2c1.2,0,2.2-1,2.2-2.2v-4.3
				c0-1.2-1-2.2-2.2-2.2H20C18.8,114.1,17.8,115,17.8,116.3"/>
			<path class="st0" d="M20,92.2c-1.2,0-2.2,1-2.2,2.2v8.7c0,1.2,1,2.2,2.2,2.2c1.2,0,2.2-1,2.2-2.2v-8.7
				C22.2,93.2,21.2,92.2,20,92.2"/>
			<path class="st0" d="M35.3,120.6c0,1.2,1,2.2,2.2,2.2c1.2,0,2.2-1,2.2-2.2v-4.3c0-1.2-1-2.2-2.2-2.2c-1.2,0-2.2,1-2.2,2.2V120.6z
				"/>
			<path class="st0" d="M160,153.4c1.2,0,2.2-1,2.2-2.2c0-1.2-1-2.2-2.2-2.2c-1.2,0-2.2,1-2.2,2.2
				C157.8,152.5,158.8,153.4,160,153.4"/>
			<path class="st0" d="M131.6,46.2c0,1.2,1,2.2,2.2,2.2H160c1.2,0,2.2-1,2.2-2.2V20c0-1.2-1-2.2-2.2-2.2h-26.2
				c-1.2,0-2.2,1-2.2,2.2V46.2z M135.9,24.4c0-1.2,1-2.2,2.2-2.2h17.4c1.2,0,2.2,1,2.2,2.2v17.4c0,1.2-1,2.2-2.2,2.2h-17.4
				c-1.2,0-2.2-1-2.2-2.2V24.4z"/>
			<path class="st0" d="M68.1,127.2c1.2,0,2.2-1,2.2-2.2c0-1.2-1-2.2-2.2-2.2c-1.2,0-2.2,1-2.2,2.2
				C65.9,126.2,66.9,127.2,68.1,127.2"/>
			<path class="st0" d="M44.1,125c0,1.2,1,2.2,2.2,2.2c1.2,0,2.2-1,2.2-2.2c0-1.2-1-2.2-2.2-2.2C45,122.8,44.1,123.8,44.1,125"/>
			<path class="st0" d="M28.7,127.2c1.2,0,2.2-1,2.2-2.2c0-1.2-1-2.2-2.2-2.2c-1.2,0-2.2,1-2.2,2.2
				C26.6,126.2,27.5,127.2,28.7,127.2"/>
			<path class="st0" d="M17.8,125c0,1.2,1,2.2,2.2,2.2c1.2,0,2.2-1,2.2-2.2c0-1.2-1-2.2-2.2-2.2C18.8,122.8,17.8,123.8,17.8,125"/>
			<path class="st0" d="M39.7,28.8c0-1.2-1-2.2-2.2-2.2h-8.7c-1.2,0-2.2,1-2.2,2.2v8.7c0,1.2,1,2.2,2.2,2.2h8.7c1.2,0,2.2-1,2.2-2.2
				V28.8z"/>
			<path class="st0" d="M140.3,37.5c0,1.2,1,2.2,2.2,2.2h8.7c1.2,0,2.2-1,2.2-2.2v-8.7c0-1.2-1-2.2-2.2-2.2h-8.7
				c-1.2,0-2.2,1-2.2,2.2V37.5z"/>
			<path class="st0" d="M90,96.6c-1.2,0-2.2,1-2.2,2.2c0,1.2,1,2.2,2.2,2.2c1.2,0,2.2-1,2.2-2.2C92.2,97.5,91.2,96.6,90,96.6"/>
			<path class="st0" d="M70.3,59.4c0-1.2-1-2.2-2.2-2.2c-1.2,0-2.2,1-2.2,2.2c0,1.2,1,2.2,2.2,2.2C69.3,61.6,70.3,60.6,70.3,59.4"/>
			<path class="st0" d="M63.7,52.8c-1.2,0-2.2,1-2.2,2.2s1,2.2,2.2,2.2s2.2-1,2.2-2.2S65,52.8,63.7,52.8"/>
			<path class="st0" d="M46.2,70.3c-1.2,0-2.2,1-2.2,2.2c0,1.2,1,2.2,2.2,2.2c1.2,0,2.2-1,2.2-2.2C48.4,71.3,47.5,70.3,46.2,70.3"/>
			<path class="st0" d="M50.6,74.7c-1.2,0-2.2,1-2.2,2.2c0,1.2,1,2.2,2.2,2.2c1.2,0,2.2-1,2.2-2.2C52.8,75.7,51.8,74.7,50.6,74.7"/>
			<path class="st0" d="M107.5,44.1c-1.2,0-2.2,1-2.2,2.2c0,1.2,1,2.2,2.2,2.2c1.2,0,2.2-1,2.2-2.2C109.7,45,108.7,44.1,107.5,44.1"
				/>
			<path class="st0" d="M44.1,81.2c0,1.2,1,2.2,2.2,2.2c1.2,0,2.2-1,2.2-2.2c0-1.2-1-2.2-2.2-2.2C45,79.1,44.1,80,44.1,81.2"/>
			<path class="st0" d="M61.6,46.2c0,1.2,1,2.2,2.2,2.2s2.2-1,2.2-2.2c0-1.2-1-2.2-2.2-2.2S61.6,45,61.6,46.2"/>
			<path class="st0" d="M70.3,46.2c0,1.2,1,2.2,2.2,2.2c1.2,0,2.2-1,2.2-2.2c0-1.2-1-2.2-2.2-2.2C71.3,44.1,70.3,45,70.3,46.2"/>
			<path class="st0" d="M59.4,61.6c-1.2,0-2.2,1-2.2,2.2c0,1.2-1,2.2-2.2,2.2s-2.2,1-2.2,2.2c0,1.2,1,2.2,2.2,2.2h4.3
				c1.2,0,2.2-1,2.2-2.2c0-1.2,1-2.2,2.2-2.2c1.2,0,2.2-1,2.2-2.2c0-1.2-1-2.2-2.2-2.2H59.4z"/>
			<path class="st0" d="M157.8,63.7c0,1.2,1,2.2,2.2,2.2c1.2,0,2.2-1,2.2-2.2V55c0-1.2-1-2.2-2.2-2.2c-1.2,0-2.2,1-2.2,2.2V63.7z"/>
			<path class="st0" d="M153.4,55c0-1.2-1-2.2-2.2-2.2h-4.3c-1.2,0-2.2,1-2.2,2.2c0,1.2,1,2.2,2.2,2.2h4.3
				C152.4,57.2,153.4,56.2,153.4,55"/>
			<path class="st0" d="M46.2,65.9c1.2,0,2.2-1,2.2-2.2c0-1.2-1-2.2-2.2-2.2c-1.2,0-2.2,1-2.2,2.2C44.1,65,45,65.9,46.2,65.9"/>
			<path class="st0" d="M118.4,111.9c0,1.2,1,2.2,2.2,2.2c1.2,0,2.2-1,2.2-2.2s-1-2.2-2.2-2.2C119.4,109.7,118.4,110.7,118.4,111.9"
				/>
			<path class="st0" d="M118.4,103.1c0-1.2-1-2.2-2.2-2.2c-1.2,0-2.2,1-2.2,2.2c0,1.2,1,2.2,2.2,2.2
				C117.5,105.3,118.4,104.3,118.4,103.1"/>
			<path class="st0" d="M140.3,107.5c0-1.2-1-2.2-2.2-2.2s-2.2,1-2.2,2.2c0,1.2,1,2.2,2.2,2.2S140.3,108.7,140.3,107.5"/>
			<path class="st0" d="M149.1,111.9c0-1.2-1-2.2-2.2-2.2c-1.2,0-2.2,1-2.2,2.2s1,2.2,2.2,2.2C148.1,114.1,149.1,113.1,149.1,111.9"
				/>
			<path class="st0" d="M100.9,129.4c0,1.2,1,2.2,2.2,2.2c1.2,0,2.2-1,2.2-2.2c0-1.2-1-2.2-2.2-2.2
				C101.9,127.2,100.9,128.2,100.9,129.4"/>
			<path class="st0" d="M100.9,125c0-1.2-1-2.2-2.2-2.2s-2.2,1-2.2,2.2c0,1.2,1,2.2,2.2,2.2S100.9,126.2,100.9,125"/>
			<path class="st0" d="M63.8,131.6c-1.2,0-2.2-1-2.2-2.2s-1-2.2-2.2-2.2H55c-1.2,0-2.2,1-2.2,2.2v8.7c0,1.2,1,2.2,2.2,2.2
				c1.2,0,2.2-1,2.2-2.2c0-1.2,1-2.2,2.2-2.2h8.7c1.2,0,2.2-1,2.2-2.2c0-1.2-1-2.2-2.2-2.2H63.8z"/>
			<path class="st0" d="M55,144.7c-1.2,0-2.2,1-2.2,2.2c0,1.2,1,2.2,2.2,2.2h4.3c1.2,0,2.2-1,2.2-2.2v-4.3c0-1.2-1-2.2-2.2-2.2
				c-1.2,0-2.2,1-2.2,2.2C57.2,143.7,56.2,144.7,55,144.7"/>
			<path class="st0" d="M63.7,153.4c1.2,0,2.2-1,2.2-2.2c0-1.2-1-2.2-2.2-2.2s-2.2,1-2.2,2.2C61.6,152.5,62.5,153.4,63.7,153.4"/>
			<path class="st0" d="M74.7,138.1c0-1.2-1-2.2-2.2-2.2s-2.2,1-2.2,2.2c0,1.2-1,2.2-2.2,2.2c-1.2,0-2.2,1-2.2,2.2
				c0,1.2,1,2.2,2.2,2.2h4.3c1.2,0,2.2,1,2.2,2.2c0,1.2-1,2.2-2.2,2.2s-2.2,1-2.2,2.2c0,1.2,1,2.2,2.2,2.2h4.3c1.2,0,2.2-1,2.2-2.2
				v-8.7c0-1.2-1-2.2-2.2-2.2C75.7,140.3,74.7,139.3,74.7,138.1"/>
			<path class="st0" d="M17.8,160c0,1.2,1,2.2,2.2,2.2h26.2c1.2,0,2.2-1,2.2-2.2v-26.2c0-1.2-1-2.2-2.2-2.2H20c-1.2,0-2.2,1-2.2,2.2
				V160z M22.2,138.2c0-1.2,1-2.2,2.2-2.2h17.4c1.2,0,2.2,1,2.2,2.2v17.4c0,1.2-1,2.2-2.2,2.2H24.4c-1.2,0-2.2-1-2.2-2.2V138.2z"/>
			<path class="st0" d="M135.9,133.8c0-1.2-1-2.2-2.2-2.2c-1.2,0-2.2,1-2.2,2.2c0,1.2,1,2.2,2.2,2.2
				C135,135.9,135.9,135,135.9,133.8"/>
			<path class="st0" d="M26.6,151.2c0,1.2,1,2.2,2.2,2.2h8.7c1.2,0,2.2-1,2.2-2.2v-8.7c0-1.2-1-2.2-2.2-2.2h-8.7
				c-1.2,0-2.2,1-2.2,2.2V151.2z"/>
			<path class="st0" d="M153.4,160c0,1.2,1,2.2,2.2,2.2c1.2,0,2.2-1,2.2-2.2c0-1.2-1-2.2-2.2-2.2C154.4,157.8,153.4,158.8,153.4,160
				"/>
			<path class="st0" d="M52.8,155.6c0,1.2,1,2.2,2.2,2.2c1.2,0,2.2-1,2.2-2.2c0-1.2-1-2.2-2.2-2.2C53.8,153.4,52.8,154.4,52.8,155.6
				"/>
			<path class="st0" d="M70.3,160c0,1.2,1,2.2,2.2,2.2c1.2,0,2.2-1,2.2-2.2c0-1.2-1-2.2-2.2-2.2C71.3,157.8,70.3,158.8,70.3,160"/>
			<path class="st0" d="M61.6,160c0,1.2,1,2.2,2.2,2.2s2.2-1,2.2-2.2c0-1.2-1-2.2-2.2-2.2S61.6,158.8,61.6,160"/>
			<path class="st0" d="M144.7,160c0,1.2,1,2.2,2.2,2.2c1.2,0,2.2-1,2.2-2.2c0-1.2-1-2.2-2.2-2.2C145.7,157.8,144.7,158.8,144.7,160
				"/>
			<path class="st7" d="M79.1,72c0,0.6,0.5,1,1,1h6.2c0.6,0,1-0.5,1-1v-6c0-0.6-0.5-1-1-1h-2.1c-0.6,0-1,0.5-1,1v0.6
				c0,0.6,0.3,1,0.7,1c0.4,0,0.7,0.5,0.7,1v0.6c0,0.6-0.5,1-1,1h-0.7c-0.6,0-1-0.5-1-1v-6c0-0.6,0.5-1,1-1h3.5c0.6,0,1-0.5,1-1v-0.6
				c0-0.6-0.5-1-1-1h-6.2c-0.6,0-1,0.5-1,1V72z M90.2,72c0,0.6,0.5,1,1,1h6.2c0.6,0,1-0.5,1-1v-0.6c0-0.6-0.5-1-1-1h-3.5
				c-0.6,0-1-0.5-1-1v-0.6c0-0.6,0.5-1,1-1h0.7c0.6,0,1-0.5,1-1v-0.6c0-0.6-0.5-1-1-1h-0.7c-0.6,0-1-0.5-1-1v-0.6c0-0.6,0.5-1,1-1
				h3.5c0.6,0,1-0.5,1-1v-0.6c0-0.6-0.5-1-1-1h-6.2c-0.6,0-1,0.5-1,1V72z M101.2,61.4c0,0.6,0.5,1,1,1h0.7c0.6,0,1,0.5,1,1V72
				c0,0.6,0.5,1,1,1h0.7c0.6,0,1-0.5,1-1v-8.6c0-0.6,0.5-1,1-1h0.7c0.6,0,1-0.5,1-1v-0.6c0-0.6-0.5-1-1-1h-6.2c-0.6,0-1,0.5-1,1
				V61.4z"/>
			<path class="st7" d="M106.7,78.4c0-0.6-0.5-1-1-1H105c-0.6,0-1,0.5-1,1v11.3c0,0.6,0.5,1,1,1h2.1c0.6,0,1-0.5,1-1v-0.6
				c0-0.6-0.3-1-0.7-1s-0.7-0.5-0.7-1V78.4z M87.4,87.1c0,0.6-0.3,1-0.7,1c-0.4,0-0.7,0.5-0.7,1v0.6c0,0.6,0.5,1,1,1h2.1
				c0.6,0,1-0.5,1-1V78.4c0-0.6-0.5-1-1-1h-0.7c-0.6,0-1,0.5-1,1V87.1z M83.3,87.1c0,0.6,0.5,1,1,1H85c0.6,0,1-0.5,1-1v-0.6
				c0-0.6-0.5-1-1-1h-0.7c-0.6,0-1,0.5-1,1V87.1z M81.9,78.4c0-0.6-0.5-1-1-1h-0.7c-0.6,0-1,0.5-1,1v11.3c0,0.6,0.5,1,1,1h2.1
				c0.6,0,1-0.5,1-1v-0.6c0-0.6-0.3-1-0.7-1c-0.4,0-0.7-0.5-0.7-1V78.4z M112.2,87.1c0,0.6-0.3,1-0.7,1c-0.4,0-0.7,0.5-0.7,1v0.6
				c0,0.6,0.5,1,1,1h2.1c0.6,0,1-0.5,1-1V78.4c0-0.6-0.5-1-1-1h-0.7c-0.6,0-1,0.5-1,1V87.1z M108.1,87.1c0,0.6,0.5,1,1,1h0.7
				c0.6,0,1-0.5,1-1v-0.6c0-0.6-0.5-1-1-1h-0.7c-0.6,0-1,0.5-1,1V87.1z M130.8,80.1c-0.4,0-0.7-0.5-0.7-1v-0.6c0-0.6-0.5-1-1-1h-4.9
				c-0.6,0-1,0.5-1,1v11.3c0,0.6,0.5,1,1,1h4.9c0.6,0,1-0.5,1-1v-0.6c0-0.6,0.3-1,0.7-1c0.4,0,0.7-0.5,0.7-1v-6
				C131.5,80.6,131.2,80.1,130.8,80.1 M128.8,87.1c0,0.6-0.5,1-1,1H127c-0.6,0-1-0.5-1-1v-6c0-0.6,0.5-1,1-1h0.7c0.6,0,1,0.5,1,1
				V87.1z M92.9,89.8c0,0.6,0.5,1,1,1h6.2c0.6,0,1-0.5,1-1V78.4c0-0.6-0.5-1-1-1H94c-0.6,0-1,0.5-1,1V89.8z M95.7,81.1
				c0-0.6,0.5-1,1-1h0.7c0.6,0,1,0.5,1,1v6c0,0.6-0.5,1-1,1h-0.7c-0.6,0-1-0.5-1-1V81.1z M117.8,79.1c0,0.6,0.5,1,1,1h0.7
				c0.6,0,1-0.5,1-1V77c0-0.6-0.5-1-1-1h-0.7c-0.6,0-1,0.5-1,1V79.1z"/>
			<path class="st32" d="M131.5,65.5c0-0.2-0.1-0.4-0.1-0.6c-0.2-1.1-0.6-2.1-1.3-2.8c0-0.1,0-0.2-0.1-0.3c0-0.1,0-0.2-0.1-0.2
				c-0.2-0.6-0.6-1.3-1-1.7c-0.4-0.4-0.9-0.6-1.4-0.8c-0.3-0.2-0.7-0.3-1.2-0.4c-0.1,0-0.1,0-0.2,0c-0.1,0-0.1-0.1-0.2-0.2
				c-0.2-0.2-0.5-0.4-0.8-0.5c-0.7-0.4-1.6-0.2-2.5-0.1c-0.3-0.3-0.5-0.7-1-0.7c-0.4,0-0.7,0.3-1.1,0.4c0,0.2,0,0.4,0,0.6
				c0,0.1,0.1,0.2,0,0.3c0,0.1-0.1,0.2-0.2,0.3c-0.1,0.1-0.2,0.2-0.3,0.2c-0.1,0-0.3,0-0.4,0c0.1,0,0-0.1,0-0.2
				c-0.1-0.1-0.2,0-0.3-0.1c-0.1-0.1,0-0.1,0-0.2c-0.1,0-0.3-0.1-0.4-0.2c-0.3,0.1-0.4-0.2-0.6-0.2c-0.1,0-0.3-0.1-0.4-0.1
				c-0.1,0-0.3-0.1-0.4-0.1c-0.3,0-0.5,0.1-0.6,0.2c-0.1,0.1-0.2,0.2-0.3,0.2c-0.1,0-0.2-0.1-0.3-0.1c-0.5-0.1-1.1,0-1.4,0.1
				c-0.1,0-0.1,0.1-0.2,0.2c-0.2,0.1-0.3,0.2-0.4,0.3c-0.1,0.1-0.2,0.1-0.2,0.1c-0.1,0.1-0.3,0.3-0.4,0.4c-0.3,0.3-0.6,0.7-0.8,1.2
				c0,0.1-0.1,0.2-0.1,0.3c-0.1,0.1-0.3,0.1-0.4,0.2c-0.3,0.2-0.5,0.4-0.7,0.7c-0.1,0.1-0.2,0.3-0.3,0.4c-0.1,0.2-0.2,0.4-0.2,0.6
				c-0.1,0.2-0.2,0.4-0.2,0.6c-0.1,0.4-0.1,0.9-0.2,1.4c-0.1,0.4-0.1,0.9-0.2,1.4c-0.1,0.5-0.1,1,0,1.5c0.1,0.4,0.3,0.8,0.3,1.3
				c0,0.2,0,0.3,0.1,0.5c0.1,0.2,0.2,0.4,0.3,0.6c0.2,0.4,0.4,0.8,0.6,1.1c0.2,0.2,0.3,0.5,0.6,0.7c0.2,0.3,0.5,0.5,0.8,0.7
				c0.3,0.2,0.6,0.5,0.9,0.6c0.5,0.3,1.1,0.5,1.6,0.8c0.2,0.1,0.4,0.1,0.6,0.2c0.3,0.1,0.5,0.2,0.8,0.3c0.1,0,0.2,0,0.3,0
				c0.2,0,0.3,0.1,0.5,0.2c0.2,0,0.5,0.1,0.7,0.1c0.2,0,0.5,0.1,0.8,0.1c0.2,0.2,0.5,0.1,0.9,0.2c0.2,0,0.3,0.1,0.5,0.1
				c1.2,0.1,2.4-0.2,3.5-0.4c0.2,0,0.4-0.1,0.5-0.1c0.2,0,0.4,0,0.6-0.1c1.3-0.2,2.4-0.6,3.3-1.3c0.1-0.1,0.3-0.2,0.4-0.3
				c0.2-0.1,0.3-0.2,0.5-0.3c0.2-0.2,0.4-0.5,0.6-0.8c0.2-0.3,0.4-0.5,0.6-0.8c0.3-0.5,0.6-1.3,0.7-2
				C131.4,67.6,131.6,66.5,131.5,65.5 M112.8,63.1c-0.1-2.1,3.4-2.4,3.4-2.4C113.9,61.3,112.8,63.1,112.8,63.1 M114,68
				c0,0-0.6-3.2,0.2-4.9c0.9-1.7,2.8-2.3,2.8-2.3C114.3,62.5,114,68,114,68 M118.8,63.4c-1.1,2.5-0.5,4.5,0,6.2c0,0-1.6-1.9-1.6-4.5
				c-0.1-2.6,2.5-3.6,2.2-4.8C119.4,60.3,119.9,61,118.8,63.4 M121.4,64.2c0.3-2.2,0.2-4.1,0.2-4.1c1.1,2.2,1,3.9,0.8,5.3
				c-0.2,1.3,1,3.5,1,3.5C122.3,68,121.1,66.5,121.4,64.2 M125.2,64.5c-0.8-2.9-2.3-4.1-2.3-4.1c2.1,1.3,3.5,3.1,3.6,4.6
				c0,1.6,1,2.9,1,2.9S126,67.4,125.2,64.5 M128.5,64.1c-1.8-3.3-5.1-4.3-5.1-4.3C129.7,61.3,128.5,64.1,128.5,64.1"/>
		</g>
	</g>
</g>
<g id="guides" class="st65">
</g>
</svg>
