<?xml version="1.0" encoding="utf-8"?>
<!-- Generator: Adobe Illustrator 19.0.1, SVG Export Plug-In . SVG Version: 6.00 Build 0)  -->
<!DOCTYPE svg PUBLIC "-//W3C//DTD SVG 1.1//EN" "http://www.w3.org/Graphics/SVG/1.1/DTD/svg11.dtd" [
	<!ENTITY ns_extend "http://ns.adobe.com/Extensibility/1.0/">
	<!ENTITY ns_ai "http://ns.adobe.com/AdobeIllustrator/10.0/">
	<!ENTITY ns_graphs "http://ns.adobe.com/Graphs/1.0/">
	<!ENTITY ns_vars "http://ns.adobe.com/Variables/1.0/">
	<!ENTITY ns_imrep "http://ns.adobe.com/ImageReplacement/1.0/">
	<!ENTITY ns_sfw "http://ns.adobe.com/SaveForWeb/1.0/">
	<!ENTITY ns_custom "http://ns.adobe.com/GenericCustomNamespace/1.0/">
	<!ENTITY ns_adobe_xpath "http://ns.adobe.com/XPath/1.0/">
]>
<svg version="1.1" xmlns:x="&ns_extend;" xmlns:i="&ns_ai;" xmlns:graph="&ns_graphs;"
	 xmlns="http://www.w3.org/2000/svg" xmlns:xlink="http://www.w3.org/1999/xlink" x="0px" y="0px" width="691.2px" height="142.3px"
	 viewBox="0 0 691.2 142.3" style="enable-background:new 0 0 691.2 142.3;" xml:space="preserve">
<style type="text/css">
	.st0{clip-path:url(#SVGID_2_);fill:url(#SVGID_3_);}
	.st1{opacity:0.5;clip-path:url(#SVGID_2_);}
	.st2{opacity:0.5;}
	.st3{clip-path:url(#SVGID_5_);}
	.st4{fill:#9F1D21;}
	.st5{clip-path:url(#SVGID_2_);}
	.st6{fill:#FFFFFF;}
	.st7{fill:#F1491C;}
	.st8{fill:#EF4B23;}
	.st9{fill:#00ABE3;}
	.st10{fill:#235B9E;}
	.st11{fill:#FF4D3F;}
	.st12{fill:#2D80A6;}
	.st13{fill:#EF4B23;stroke:#EF4B23;stroke-width:4;stroke-miterlimit:10;}
	.st14{clip-path:url(#SVGID_2_);fill:url(#SVGID_24_);}
	.st15{clip-path:url(#SVGID_2_);fill:#0F0105;}
	.st16{clip-path:url(#SVGID_32_);}
	.st17{fill:#1C0F13;}
	.st18{clip-path:url(#SVGID_42_);fill:url(#SVGID_43_);}
	.st19{opacity:0.5;clip-path:url(#SVGID_42_);}
	.st20{clip-path:url(#SVGID_45_);}
	.st21{clip-path:url(#SVGID_42_);}
	.st22{clip-path:url(#SVGID_42_);fill:#0F0105;}
	.st23{fill:#EF4B23;stroke:#EF4B23;stroke-width:2.1479;stroke-miterlimit:10;}
	.st24{clip-path:url(#SVGID_51_);fill:url(#SVGID_52_);}
	.st25{clip-path:url(#SVGID_54_);}
	.st26{clip-path:url(#SVGID_64_);fill:url(#SVGID_65_);}
	.st27{opacity:0.5;clip-path:url(#SVGID_64_);}
	.st28{clip-path:url(#SVGID_67_);}
	.st29{clip-path:url(#SVGID_64_);}
	.st30{clip-path:url(#SVGID_64_);fill:#0F0105;}
	.st31{fill:#EF4B23;stroke:#EF4B23;stroke-width:6.5125;stroke-miterlimit:10;}
	.st32{clip-path:url(#SVGID_73_);fill:url(#SVGID_74_);}
	.st33{opacity:0.5;clip-path:url(#SVGID_73_);}
	.st34{clip-path:url(#SVGID_76_);}
	.st35{clip-path:url(#SVGID_73_);}
	.st36{clip-path:url(#SVGID_73_);fill:#0F0105;}
	.st37{fill:#EF4B23;stroke:#EF4B23;stroke-width:5.9384;stroke-miterlimit:10;}
	.st38{clip-path:url(#SVGID_82_);fill:url(#SVGID_83_);}
	.st39{opacity:0.5;clip-path:url(#SVGID_82_);}
	.st40{clip-path:url(#SVGID_85_);}
	.st41{clip-path:url(#SVGID_82_);}
	.st42{clip-path:url(#SVGID_82_);fill:#0F0105;}
	.st43{fill:#EF4B23;stroke:#EF4B23;stroke-width:6.9513;stroke-miterlimit:10;}
	.st44{display:none;}
	.st45{display:inline;opacity:0.6;}
	.st46{fill:none;stroke:#FFFFFF;stroke-miterlimit:10;}
</style>
<metadata>
	<sfw  xmlns="&ns_sfw;">
		<slices></slices>
		<sliceSourceBounds  width="6619.9" height="5501.2" y="-4207.5" x="-1432.3" bottomLeftOrigin="true"></sliceSourceBounds>
		<optimizationSettings>
			<targetSettings  fileFormat="JPEGFormat" targetSettingsID="0">
				
					<JPEGFormat  blurAmount="0" quality="60" progressive="false" noMatteColor="false" embedICCProfile="false" matteColor="#FFFFFF" optimized="true">
					</JPEGFormat>
			</targetSettings>
		</optimizationSettings>
	</sfw>
</metadata>
<g id="Layer_1">
	<g>
		<g>
			<g>
				<path class="st6" d="M33.4,95.3c-8,0-14.7,6.6-14.8,14.5c0,7.9,6.6,14.6,14.6,14.7c8,0,14.7-6.7,14.7-14.6
					C47.9,102,41.2,95.4,33.4,95.3z"/>
				<path class="st6" d="M74.2,95.3c-8,0-14.7,6.6-14.7,14.5c0,8,6.6,14.6,14.6,14.6c8,0,14.6-6.6,14.6-14.7
					C88.7,101.9,82.1,95.4,74.2,95.3z"/>
				<path class="st6" d="M129,110c0.4-7.4-6.3-14.7-14.5-14.7c-8.1,0.1-14.6,6.6-14.5,14.7c0,8.1,6.6,14.6,14.6,14.5
					C122.5,124.4,128.9,118,129,110z"/>
				<path class="st6" d="M26.4,34.8c-0.1,0-0.2,0-0.3,0c-0.6-3.6-1.3-7.1-1.9-10.7c-0.8-4.8-1.4-5.3-6.2-5.1
					c-2.1,0.1-2.7,0.8-2.2,2.8c1.9,7.5,3.7,15,5.7,22.5c0.5,2,1.5,2.7,3.5,2.7c0.5,0,1.1,0,1.6,0c3.1,0,3.8-0.7,4.2-3.7
					c0.6-3.9,1.3-7.7,1.9-11.6c0.9,3.5,1.5,7,2.1,10.5c0.8,4.7,0.9,4.9,5.8,4.7c2.1-0.1,3-0.6,3.6-2.6c2-7.6,4-15.2,5.9-22.9
					c0.4-1.5-0.2-2.3-1.8-2.5c-0.8-0.1-1.7,0-2.6,0c-2.3,0-3.2,0.7-3.7,3c-0.7,3.8-1.4,7.6-2.1,11.4c-0.1,0.5-0.3,0.9-0.6,1.8
					c-0.8-4.4-1.5-8.3-2.1-12.2c-0.5-3.5-1.3-4.1-4.9-4.1c-2.4,0.1-3.2,0.7-3.6,3C28,26.3,27.2,30.6,26.4,34.8z"/>
				<path class="st6" d="M107.6,34.5c-0.1,0-0.3-0.1-0.4-0.1c-0.7-3.6-1.4-7.3-2-10.9c-0.6-3.9-1.2-4.4-5-4.4c-0.3,0-0.6,0-0.9,0
					c-2.2,0.1-2.7,0.8-2.2,2.9c1.7,6.7,3.4,13.5,5.1,20.2c1.2,4.9,1.5,5,6.4,4.8c2-0.1,2.8-0.7,3.1-2.7c0.5-2.9,0.9-5.8,1.4-8.7
					c0.2-1.2,0.5-2.4,0.7-3.6c1,4.1,1.7,8.1,2.4,12.2c0.4,2.1,1.1,2.8,3.3,2.8c0.6,0,1.2,0,1.9,0c2.7,0,3.4-0.6,4.1-3.1
					c1.8-6.8,3.6-13.6,5.3-20.4c1.1-4.3,0.9-4.5-3.5-4.5c-2.9,0-3.5,0.6-4.1,3.3c-0.8,4.3-1.6,8.5-2.5,13.2c-0.2-1-0.4-1.6-0.5-2.2
					c-0.7-3.8-1.3-7.6-2-11.4c-0.4-2-1.2-2.8-3.3-2.9c-0.5,0-0.9,0-1.4,0c-2.3,0.1-3.2,0.7-3.7,3c-0.3,1.3-0.4,2.6-0.7,3.9
					C108.7,28.8,108.2,31.7,107.6,34.5z"/>
				<path class="st6" d="M42.9,69.5c0.8-1,1.6-1.7,2.1-2.6c2.3-4.2-0.5-9.2-5.6-9.6c-5.1-0.4-10.2-0.4-15.3-0.4c-2,0-2.7,0.8-2.7,3
					c0,4.5,0,9,0,13.5c0,2.9,0,5.9,0,8.8c0,1.9,0.6,2.7,2.2,2.7c5.2,0,10.4,0.2,15.6-0.1c4-0.2,7.1-3.1,7.8-6.6
					C47.7,74.5,46.4,71.6,42.9,69.5z"/>
				<path class="st6" d="M74,17.9c-8.1,0-14.6,6.5-14.6,14.6c0,8,6.4,14.5,14.4,14.6c8.1,0.1,14.7-6.5,14.8-14.5
					C88.5,24.5,82,17.9,74,17.9z"/>
				<path class="st6" d="M129,70.3c0.4-7.5-6.6-14.7-14.5-14.6c-8,0.2-14.5,6.5-14.5,14.4c0,8.1,6.4,14.6,14.5,14.7
					C122.8,85,129.4,77.4,129,70.3z"/>
				<path class="st6" d="M64.3,84.9c3.3,0,3.2,0,5.3-3.1c0.3-0.5,1.1-0.7,1.7-0.8c1.8-0.1,3.6,0,5.3-0.1c1.2,0,1.9,0.3,2.2,1.6
					c0.2,1.1,0.8,2.1,2.1,2.2c1.9,0.1,3.9,0.1,5.8,0.1c1.2,0,1.5-0.9,1.3-2c-0.2-0.6-0.4-1.2-0.6-1.7c-2.4-6.5-4.8-12.9-7.1-19.4
					c-1.6-4.7-1.6-5-7.4-4.9c-2.3,0.1-3.1,0.7-3.9,2.9c-1.5,4.1-3,8.1-4.5,12.2c-1.3,3.5-2.6,6.9-3.8,10.4c-0.7,1.9-0.2,2.5,1.9,2.6
					C63,84.9,63.6,84.9,64.3,84.9z"/>
			</g>
			<g>
				<path class="st7" d="M3.7,119.1c0-31.9,0-63.9,0-95.8c0.2-0.4,0.4-0.8,0.5-1.3C6.3,11.6,12.5,5,22.7,2.2c1-0.3,1.9-0.5,2.9-0.8
					c31.9,0,63.9,0,95.8,0c2.4,0.8,5,1.2,7.2,2.3c9.6,4.6,14.5,12.4,14.5,23c0.1,18.3,0,36.6,0,54.9c0,11.3,0,22.6,0,33.9
					c0,5.2-1.2,10-4.1,14.3c-5.2,7.6-12.4,11.1-21.5,11.1c-29.4,0-58.7,0-88.1,0c-0.8,0-1.6,0-2.3-0.1c-10.8-0.6-19.8-8-22.5-18.4
					C4.3,121.3,4,120.2,3.7,119.1z M33.4,95.3c-8,0-14.7,6.6-14.8,14.5c0,7.9,6.6,14.6,14.6,14.7c8,0,14.7-6.7,14.7-14.6
					C47.9,102,41.2,95.4,33.4,95.3z M74.2,95.3c-8,0-14.7,6.6-14.7,14.5c0,8,6.6,14.6,14.6,14.6c8,0,14.6-6.6,14.6-14.7
					C88.7,101.9,82.1,95.4,74.2,95.3z M129,110c0.4-7.4-6.3-14.7-14.5-14.7c-8.1,0.1-14.6,6.6-14.5,14.7c0,8.1,6.6,14.6,14.6,14.5
					C122.5,124.4,128.9,118,129,110z M26.4,34.8c-0.1,0-0.2,0-0.3,0c-0.6-3.6-1.3-7.1-1.9-10.7c-0.8-4.8-1.4-5.3-6.2-5.1
					c-2.1,0.1-2.7,0.8-2.2,2.8c1.9,7.5,3.7,15,5.7,22.5c0.5,2,1.5,2.7,3.5,2.7c0.5,0,1.1,0,1.6,0c3.1,0,3.8-0.7,4.2-3.7
					c0.6-3.9,1.3-7.7,1.9-11.6c0.9,3.5,1.5,7,2.1,10.5c0.8,4.7,0.9,4.9,5.8,4.7c2.1-0.1,3-0.6,3.6-2.6c2-7.6,4-15.2,5.9-22.9
					c0.4-1.5-0.2-2.3-1.8-2.5c-0.8-0.1-1.7,0-2.6,0c-2.3,0-3.2,0.7-3.7,3c-0.7,3.8-1.4,7.6-2.1,11.4c-0.1,0.5-0.3,0.9-0.6,1.8
					c-0.8-4.4-1.5-8.3-2.1-12.2c-0.5-3.5-1.3-4.1-4.9-4.1c-2.4,0.1-3.2,0.7-3.6,3C28,26.3,27.2,30.6,26.4,34.8z M107.6,34.5
					c-0.1,0-0.3-0.1-0.4-0.1c-0.7-3.6-1.4-7.3-2-10.9c-0.6-3.9-1.2-4.4-5-4.4c-0.3,0-0.6,0-0.9,0c-2.2,0.1-2.7,0.8-2.2,2.9
					c1.7,6.7,3.4,13.5,5.1,20.2c1.2,4.9,1.5,5,6.4,4.8c2-0.1,2.8-0.7,3.1-2.7c0.5-2.9,0.9-5.8,1.4-8.7c0.2-1.2,0.5-2.4,0.7-3.6
					c1,4.1,1.7,8.1,2.4,12.2c0.4,2.1,1.1,2.8,3.3,2.8c0.6,0,1.2,0,1.9,0c2.7,0,3.4-0.6,4.1-3.1c1.8-6.8,3.6-13.6,5.3-20.4
					c1.1-4.3,0.9-4.5-3.5-4.5c-2.9,0-3.5,0.6-4.1,3.3c-0.8,4.3-1.6,8.5-2.5,13.2c-0.2-1-0.4-1.6-0.5-2.2c-0.7-3.8-1.3-7.6-2-11.4
					c-0.4-2-1.2-2.8-3.3-2.9c-0.5,0-0.9,0-1.4,0c-2.3,0.1-3.2,0.7-3.7,3c-0.3,1.3-0.4,2.6-0.7,3.9C108.7,28.8,108.2,31.7,107.6,34.5
					z M42.9,69.5c0.8-1,1.6-1.7,2.1-2.6c2.3-4.2-0.5-9.2-5.6-9.6c-5.1-0.4-10.2-0.4-15.3-0.4c-2,0-2.7,0.8-2.7,3c0,4.5,0,9,0,13.5
					c0,2.9,0,5.9,0,8.8c0,1.9,0.6,2.7,2.2,2.7c5.2,0,10.4,0.2,15.6-0.1c4-0.2,7.1-3.1,7.8-6.6C47.7,74.5,46.4,71.6,42.9,69.5z
					 M74,17.9c-8.1,0-14.6,6.5-14.6,14.6c0,8,6.4,14.5,14.4,14.6c8.1,0.1,14.7-6.5,14.8-14.5C88.5,24.5,82,17.9,74,17.9z M129,70.3
					c0.4-7.5-6.6-14.7-14.5-14.6c-8,0.2-14.5,6.5-14.5,14.4c0,8.1,6.4,14.6,14.5,14.7C122.8,85,129.4,77.4,129,70.3z M64.3,84.9
					c3.3,0,3.2,0,5.3-3.1c0.3-0.5,1.1-0.7,1.7-0.8c1.8-0.1,3.6,0,5.3-0.1c1.2,0,1.9,0.3,2.2,1.6c0.2,1.1,0.8,2.1,2.1,2.2
					c1.9,0.1,3.9,0.1,5.8,0.1c1.2,0,1.5-0.9,1.3-2c-0.2-0.6-0.4-1.2-0.6-1.7c-2.4-6.5-4.8-12.9-7.1-19.4c-1.6-4.7-1.6-5-7.4-4.9
					c-2.3,0.1-3.1,0.7-3.9,2.9c-1.5,4.1-3,8.1-4.5,12.2c-1.3,3.5-2.6,6.9-3.8,10.4c-0.7,1.9-0.2,2.5,1.9,2.6
					C63,84.9,63.6,84.9,64.3,84.9z"/>
				<path class="st7" d="M30.4,78.1c0-1.9,0-3.2,0-4.9c2,0,3.9-0.1,5.8,0c1.3,0.1,2,1,2,2.4c0,1.3-0.6,2.1-1.9,2.2
					C34.4,77.9,32.5,78,30.4,78.1z"/>
				<path class="st7" d="M30.4,67.5c0-1.2,0-2.2,0-3.6c1.8,0,3.6-0.1,5.3,0c0.9,0.1,1.5,0.6,1.5,1.7c0,1-0.3,1.6-1.3,1.9
					C34.1,67.9,32.3,68,30.4,67.5z"/>
				<path class="st7" d="M80.2,32.4c0,3.5-2.8,6.4-6.3,6.5c-3.4,0-6.4-2.9-6.4-6.4c0-3.5,2.8-6.4,6.3-6.4
					C77.4,26.1,80.2,28.9,80.2,32.4z"/>
				<path class="st7" d="M114.4,63.9c3.4-0.1,6.4,2.8,6.5,6.2c0.1,3.5-2.9,6.5-6.4,6.5c-3.5,0-6.3-2.9-6.4-6.3
					C108,66.9,110.9,63.9,114.4,63.9z"/>
				<path class="st7" d="M76.4,74.6c-1.8,0-3,0-4.6,0c0.8-2.6,1.5-4.9,2.2-7.3c0.1,0,0.3,0,0.4,0C75,69.7,75.7,72,76.4,74.6z"/>
			</g>
		</g>
		<g>
			<g>
				<path class="st6" d="M213.2,77.9h-26.8V16.7h23.8c4.1,0,7.7,0.5,10.7,1.5c3,1,5.3,2.3,6.8,4c2.7,3.1,4.1,6.7,4.1,10.7
					c0,4.8-1.5,8.3-4.6,10.7c-1,0.8-1.8,1.3-2.2,1.5c-0.4,0.2-1.1,0.5-2.2,1c3.8,0.8,6.8,2.5,9,5.1c2.2,2.6,3.4,5.8,3.4,9.7
					c0,4.3-1.5,8-4.4,11.3C227.5,76,221.6,77.9,213.2,77.9z M200.1,41.5h6.5c3.8,0,6.6-0.4,8.4-1.2c1.8-0.8,2.8-2.6,2.8-5.3
					s-0.8-4.5-2.5-5.4c-1.7-0.9-4.5-1.3-8.6-1.3h-6.6V41.5z M200.1,66.3h9.4c3.9,0,6.8-0.5,8.8-1.4c2-1,2.9-2.9,2.9-5.7
					c0-2.8-1-4.7-3.1-5.6c-2.1-0.9-5.4-1.4-9.9-1.4h-8V66.3z"/>
				<path class="st6" d="M295.2,16.7v12.2h-30.4v12.6h27.4v11.6h-27.4v12.7h31.4v12.1h-45V16.7H295.2z"/>
				<path class="st6" d="M354.4,28.9c-1.3,1.1-2,2.5-2,4.3c0,1.8,0.8,3.2,2.4,4.2c1.6,1,5.3,2.3,11.1,3.7c5.8,1.4,10.3,3.6,13.5,6.4
					c3.2,2.9,4.8,7,4.8,12.5c0,5.5-2.1,9.9-6.2,13.3c-4.1,3.4-9.5,5.1-16.2,5.1c-9.7,0-18.4-3.6-26.1-10.8l8.1-10
					c6.6,5.8,12.7,8.7,18.3,8.7c2.5,0,4.5-0.5,5.9-1.6c1.4-1.1,2.1-2.5,2.1-4.4s-0.8-3.3-2.3-4.4c-1.5-1.1-4.5-2.2-9-3.3
					c-7.1-1.7-12.3-3.9-15.6-6.6c-3.3-2.7-4.9-7-4.9-12.8c0-5.8,2.1-10.3,6.3-13.4c4.2-3.1,9.4-4.7,15.6-4.7c4.1,0,8.2,0.7,12.2,2.1
					c4.1,1.4,7.6,3.4,10.7,5.9l-6.9,10c-5.3-4-10.8-6-16.4-6C357.5,27.3,355.7,27.9,354.4,28.9z"/>
				<path class="st6" d="M451.7,69.4c-6.2,6-13.8,9.1-22.8,9.1c-9,0-16.6-3-22.8-9.1c-6.2-6-9.3-13.5-9.3-22.5
					c0-9,3.1-16.5,9.3-22.5c6.2-6,13.8-9,22.8-9c9,0,16.6,3,22.8,9c6.2,6,9.3,13.5,9.3,22.5C461,55.9,457.9,63.4,451.7,69.4z
					 M447.1,46.9c0-5.5-1.7-10.1-5.2-13.9c-3.5-3.8-7.8-5.8-12.9-5.8c-5.1,0-9.4,1.9-12.9,5.8s-5.2,8.5-5.2,13.9
					c0,5.5,1.7,10.1,5.2,13.9c3.5,3.8,7.8,5.7,12.9,5.7c5.1,0,9.4-1.9,12.9-5.7C445.3,57,447.1,52.4,447.1,46.9z"/>
				<path class="st6" d="M504.9,65.8c6.7,0,12.2-2.7,16.4-8l8.7,9c-6.9,7.8-15.1,11.7-24.5,11.7c-9.4,0-17.2-3-23.3-8.9
					c-6.1-5.9-9.1-13.5-9.1-22.5c0-9.1,3.1-16.6,9.3-22.7c6.2-6.1,13.8-9.1,22.8-9.1c10,0,18.4,3.8,25.2,11.5l-8.5,9.6
					c-4.3-5.4-9.7-8-16.1-8c-5.1,0-9.5,1.7-13.2,5c-3.6,3.4-5.5,7.9-5.5,13.6s1.7,10.2,5.2,13.7C495.9,64.1,500.1,65.8,504.9,65.8z"
					/>
				<path class="st6" d="M545.3,16.7h13.6v61.1h-13.6V16.7z"/>
				<path class="st6" d="M621.9,77.9l-5.7-13.2h-25.6l-5.7,13.2h-14.5l26.4-61.1H610l26.4,61.1H621.9z M603.4,34.9l-7.7,17.8H611
					L603.4,34.9z"/>
				<path class="st6" d="M647.8,77.9V16.7h13.6v49h26.1v12.2H647.8z"/>
			</g>
			<g>
				<path class="st6" d="M196.3,115.7l4.9-15.8h6.4l4.8,15.8l5.5-15.8h6.7l-9.6,27.5h-4.6l-6-19.1l-6,19.1h-4.6l-9.6-27.5h6.7
					L196.3,115.7z"/>
				<path class="st6" d="M252.6,123.6c-2.8,2.7-6.2,4.1-10.3,4.1c-4.1,0-7.5-1.4-10.3-4.1s-4.2-6.1-4.2-10.1c0-4,1.4-7.4,4.2-10.1
					c2.8-2.7,6.2-4.1,10.3-4.1c4.1,0,7.5,1.4,10.3,4.1c2.8,2.7,4.2,6.1,4.2,10.1C256.8,117.5,255.4,120.9,252.6,123.6z M250.5,113.5
					c0-2.5-0.8-4.5-2.4-6.3c-1.6-1.7-3.5-2.6-5.8-2.6c-2.3,0-4.2,0.9-5.8,2.6c-1.6,1.7-2.4,3.8-2.4,6.3s0.8,4.5,2.4,6.3
					c1.6,1.7,3.5,2.6,5.8,2.6c2.3,0,4.2-0.9,5.8-2.6S250.5,115.9,250.5,113.5z"/>
				<path class="st6" d="M272.1,115.7l4.9-15.8h6.4l4.8,15.8l5.5-15.8h6.7l-9.6,27.5h-4.6l-6-19.1l-6,19.1h-4.6L260,99.9h6.7
					L272.1,115.7z"/>
				<path class="st6" d="M317.6,127.4h-12.1V99.9h10.7c1.9,0,3.5,0.2,4.8,0.7c1.4,0.4,2.4,1.1,3.1,1.8c1.2,1.4,1.9,3,1.9,4.8
					c0,2.2-0.7,3.8-2.1,4.8c-0.5,0.4-0.8,0.6-1,0.7s-0.5,0.2-1,0.5c1.7,0.4,3.1,1.1,4.1,2.3s1.5,2.6,1.5,4.4c0,1.9-0.7,3.6-2,5.1
					C324.1,126.5,321.4,127.4,317.6,127.4z M311.7,111h2.9c1.7,0,3-0.2,3.8-0.6c0.8-0.4,1.2-1.2,1.2-2.4c0-1.2-0.4-2-1.1-2.4
					c-0.8-0.4-2-0.6-3.9-0.6h-3V111z M311.7,122.2h4.2c1.8,0,3.1-0.2,4-0.7s1.3-1.3,1.3-2.6s-0.5-2.1-1.4-2.5s-2.4-0.6-4.5-0.6h-3.6
					V122.2z"/>
				<path class="st6" d="M354,127.4l-2.6-5.9h-11.5l-2.6,5.9h-6.5l11.9-27.5h5.9l11.9,27.5H354z M345.7,108.1l-3.5,8h6.9
					L345.7,108.1z"/>
				<path class="st6" d="M388,123.6c-2.8,2.7-6.2,4.1-10.3,4.1s-7.5-1.4-10.3-4.1s-4.2-6.1-4.2-10.1c0-4,1.4-7.4,4.2-10.1
					c2.8-2.7,6.2-4.1,10.3-4.1s7.5,1.4,10.3,4.1c2.8,2.7,4.2,6.1,4.2,10.1C392.2,117.5,390.8,120.9,388,123.6z M385.9,113.5
					c0-2.5-0.8-4.5-2.4-6.3c-1.6-1.7-3.5-2.6-5.8-2.6c-2.3,0-4.2,0.9-5.8,2.6c-1.6,1.7-2.4,3.8-2.4,6.3s0.8,4.5,2.4,6.3
					s3.5,2.6,5.8,2.6c2.3,0,4.2-0.9,5.8-2.6C385.2,118,385.9,115.9,385.9,113.5z"/>
				<path class="st6" d="M398.6,126.7c-0.7-0.7-1-1.5-1-2.5s0.3-1.8,1-2.5s1.5-1,2.5-1c1,0,1.8,0.3,2.5,1s1,1.5,1,2.5
					s-0.3,1.8-1,2.5c-0.7,0.7-1.5,1-2.5,1C400.1,127.7,399.3,127.4,398.6,126.7z"/>
				<path class="st6" d="M424.1,127.4h-12.1V99.9h10.7c1.9,0,3.5,0.2,4.8,0.7c1.4,0.4,2.4,1.1,3.1,1.8c1.2,1.4,1.9,3,1.9,4.8
					c0,2.2-0.7,3.8-2.1,4.8c-0.5,0.4-0.8,0.6-1,0.7s-0.5,0.2-1,0.5c1.7,0.4,3.1,1.1,4.1,2.3c1,1.2,1.5,2.6,1.5,4.4
					c0,1.9-0.7,3.6-2,5.1C430.6,126.5,427.9,127.4,424.1,127.4z M418.2,111h2.9c1.7,0,3-0.2,3.8-0.6c0.8-0.4,1.2-1.2,1.2-2.4
					c0-1.2-0.4-2-1.1-2.4c-0.8-0.4-2-0.6-3.9-0.6h-3V111z M418.2,122.2h4.2c1.8,0,3.1-0.2,4-0.7c0.9-0.4,1.3-1.3,1.3-2.6
					s-0.5-2.1-1.4-2.5s-2.4-0.6-4.5-0.6h-3.6V122.2z"/>
				<path class="st6" d="M441.2,99.9h6.1v27.5h-6.1V99.9z"/>
				<path class="st6" d="M467.7,105.2v22.2h-6.1v-22.2h-7.8v-5.3h21.7v5.3H467.7z"/>
				<path class="st6" d="M499.1,99.9h6.1v27.5h-6.1v-10.8h-10.9v10.8H482V99.9h6.1v11.5h10.9V99.9z"/>
				<path class="st6" d="M521.3,120.3c1,1.3,2.4,1.9,4.1,1.9c1.7,0,3.1-0.6,4.1-1.9c1-1.3,1.5-3,1.5-5.2V99.9h6.1v15.4
					c0,4-1.1,7.1-3.3,9.2c-2.2,2.1-5,3.2-8.5,3.2c-3.4,0-6.3-1.1-8.5-3.2c-2.2-2.2-3.3-5.2-3.3-9.2V99.9h6.1v15.2
					C519.7,117.3,520.2,119,521.3,120.3z"/>
				<path class="st6" d="M557.6,127.4h-12.1V99.9h10.7c1.9,0,3.5,0.2,4.8,0.7c1.4,0.4,2.4,1.1,3.1,1.8c1.2,1.4,1.8,3,1.8,4.8
					c0,2.2-0.7,3.8-2.1,4.8c-0.5,0.4-0.8,0.6-1,0.7c-0.2,0.1-0.5,0.2-1,0.5c1.7,0.4,3.1,1.1,4.1,2.3c1,1.2,1.5,2.6,1.5,4.4
					c0,1.9-0.7,3.6-2,5.1C564,126.5,561.4,127.4,557.6,127.4z M551.7,111h2.9c1.7,0,3-0.2,3.8-0.6c0.8-0.4,1.2-1.2,1.2-2.4
					c0-1.2-0.4-2-1.1-2.4s-2-0.6-3.9-0.6h-3V111z M551.7,122.2h4.2c1.8,0,3.1-0.2,4-0.7c0.9-0.4,1.3-1.3,1.3-2.6s-0.5-2.1-1.4-2.5
					s-2.4-0.6-4.5-0.6h-3.6V122.2z"/>
				<path class="st6" d="M574.4,126.7c-0.7-0.7-1-1.5-1-2.5s0.3-1.8,1-2.5c0.7-0.7,1.5-1,2.5-1c1,0,1.8,0.3,2.5,1s1,1.5,1,2.5
					s-0.3,1.8-1,2.5c-0.7,0.7-1.5,1-2.5,1C575.9,127.7,575.1,127.4,574.4,126.7z"/>
				<path class="st6" d="M600.6,122c3,0,5.5-1.2,7.4-3.6l3.9,4.1c-3.1,3.5-6.8,5.3-11,5.3s-7.7-1.3-10.5-4s-4.1-6.1-4.1-10.1
					c0-4.1,1.4-7.5,4.2-10.2c2.8-2.7,6.2-4.1,10.3-4.1c4.5,0,8.3,1.7,11.3,5.2l-3.8,4.3c-1.9-2.4-4.4-3.6-7.2-3.6
					c-2.3,0-4.3,0.8-5.9,2.3c-1.6,1.5-2.5,3.5-2.5,6.1c0,2.6,0.8,4.6,2.3,6.2C596.5,121.2,598.4,122,600.6,122z"/>
				<path class="st6" d="M641.3,123.6c-2.8,2.7-6.2,4.1-10.3,4.1s-7.5-1.4-10.3-4.1s-4.2-6.1-4.2-10.1c0-4,1.4-7.4,4.2-10.1
					c2.8-2.7,6.2-4.1,10.3-4.1s7.5,1.4,10.3,4.1c2.8,2.7,4.2,6.1,4.2,10.1C645.5,117.5,644.1,120.9,641.3,123.6z M639.2,113.5
					c0-2.5-0.8-4.5-2.4-6.3c-1.6-1.7-3.5-2.6-5.8-2.6c-2.3,0-4.2,0.9-5.8,2.6c-1.6,1.7-2.4,3.8-2.4,6.3s0.8,4.5,2.4,6.3
					s3.5,2.6,5.8,2.6c2.3,0,4.2-0.9,5.8-2.6C638.4,118,639.2,115.9,639.2,113.5z"/>
				<path class="st6" d="M677.3,110.1l-7.4,15h-3.7l-7.4-15v17.3h-6.1V99.9h8.3L668,115l7.1-15.1h8.3v27.5h-6.1V110.1z"/>
			</g>
		</g>
	</g>
</g>
<g id="guides" class="st44">
</g>
</svg>
